G04 #@! TF.GenerationSoftware,KiCad,Pcbnew,(5.1.0)-1*
G04 #@! TF.CreationDate,2019-09-14T12:41:00-05:00*
G04 #@! TF.ProjectId,CH552G_dev,43483535-3247-45f6-9465-762e6b696361,rev?*
G04 #@! TF.SameCoordinates,Original*
G04 #@! TF.FileFunction,Legend,Top*
G04 #@! TF.FilePolarity,Positive*
%FSLAX46Y46*%
G04 Gerber Fmt 4.6, Leading zero omitted, Abs format (unit mm)*
G04 Created by KiCad (PCBNEW (5.1.0)-1) date 2019-09-14 12:41:00*
%MOMM*%
%LPD*%
G04 APERTURE LIST*
%ADD10C,0.150000*%
%ADD11C,0.050000*%
%ADD12C,0.100000*%
%ADD13C,0.010000*%
%ADD14C,0.120000*%
%ADD15C,0.200000*%
G04 APERTURE END LIST*
D10*
X96285714Y-108739285D02*
X96285714Y-107989285D01*
X96571428Y-107989285D01*
X96642857Y-108025000D01*
X96678571Y-108060714D01*
X96714285Y-108132142D01*
X96714285Y-108239285D01*
X96678571Y-108310714D01*
X96642857Y-108346428D01*
X96571428Y-108382142D01*
X96285714Y-108382142D01*
X97035714Y-108739285D02*
X97035714Y-108239285D01*
X97035714Y-108382142D02*
X97071428Y-108310714D01*
X97107142Y-108275000D01*
X97178571Y-108239285D01*
X97250000Y-108239285D01*
X97785714Y-108703571D02*
X97714285Y-108739285D01*
X97571428Y-108739285D01*
X97500000Y-108703571D01*
X97464285Y-108632142D01*
X97464285Y-108346428D01*
X97500000Y-108275000D01*
X97571428Y-108239285D01*
X97714285Y-108239285D01*
X97785714Y-108275000D01*
X97821428Y-108346428D01*
X97821428Y-108417857D01*
X97464285Y-108489285D01*
X98107142Y-108703571D02*
X98178571Y-108739285D01*
X98321428Y-108739285D01*
X98392857Y-108703571D01*
X98428571Y-108632142D01*
X98428571Y-108596428D01*
X98392857Y-108525000D01*
X98321428Y-108489285D01*
X98214285Y-108489285D01*
X98142857Y-108453571D01*
X98107142Y-108382142D01*
X98107142Y-108346428D01*
X98142857Y-108275000D01*
X98214285Y-108239285D01*
X98321428Y-108239285D01*
X98392857Y-108275000D01*
X98714285Y-108703571D02*
X98785714Y-108739285D01*
X98928571Y-108739285D01*
X99000000Y-108703571D01*
X99035714Y-108632142D01*
X99035714Y-108596428D01*
X99000000Y-108525000D01*
X98928571Y-108489285D01*
X98821428Y-108489285D01*
X98750000Y-108453571D01*
X98714285Y-108382142D01*
X98714285Y-108346428D01*
X98750000Y-108275000D01*
X98821428Y-108239285D01*
X98928571Y-108239285D01*
X99000000Y-108275000D01*
X99892857Y-108703571D02*
X100000000Y-108739285D01*
X100178571Y-108739285D01*
X100250000Y-108703571D01*
X100285714Y-108667857D01*
X100321428Y-108596428D01*
X100321428Y-108525000D01*
X100285714Y-108453571D01*
X100250000Y-108417857D01*
X100178571Y-108382142D01*
X100035714Y-108346428D01*
X99964285Y-108310714D01*
X99928571Y-108275000D01*
X99892857Y-108203571D01*
X99892857Y-108132142D01*
X99928571Y-108060714D01*
X99964285Y-108025000D01*
X100035714Y-107989285D01*
X100214285Y-107989285D01*
X100321428Y-108025000D01*
X100571428Y-107989285D02*
X100750000Y-108739285D01*
X100892857Y-108203571D01*
X101035714Y-108739285D01*
X101214285Y-107989285D01*
X101892857Y-108739285D02*
X101464285Y-108739285D01*
X101678571Y-108739285D02*
X101678571Y-107989285D01*
X101607142Y-108096428D01*
X101535714Y-108167857D01*
X101464285Y-108203571D01*
X102714285Y-108239285D02*
X102857142Y-108739285D01*
X103000000Y-108382142D01*
X103142857Y-108739285D01*
X103285714Y-108239285D01*
X103571428Y-108739285D02*
X103571428Y-107989285D01*
X103892857Y-108739285D02*
X103892857Y-108346428D01*
X103857142Y-108275000D01*
X103785714Y-108239285D01*
X103678571Y-108239285D01*
X103607142Y-108275000D01*
X103571428Y-108310714D01*
X104535714Y-108703571D02*
X104464285Y-108739285D01*
X104321428Y-108739285D01*
X104250000Y-108703571D01*
X104214285Y-108632142D01*
X104214285Y-108346428D01*
X104250000Y-108275000D01*
X104321428Y-108239285D01*
X104464285Y-108239285D01*
X104535714Y-108275000D01*
X104571428Y-108346428D01*
X104571428Y-108417857D01*
X104214285Y-108489285D01*
X104892857Y-108239285D02*
X104892857Y-108739285D01*
X104892857Y-108310714D02*
X104928571Y-108275000D01*
X105000000Y-108239285D01*
X105107142Y-108239285D01*
X105178571Y-108275000D01*
X105214285Y-108346428D01*
X105214285Y-108739285D01*
X106464285Y-108703571D02*
X106392857Y-108739285D01*
X106250000Y-108739285D01*
X106178571Y-108703571D01*
X106142857Y-108667857D01*
X106107142Y-108596428D01*
X106107142Y-108382142D01*
X106142857Y-108310714D01*
X106178571Y-108275000D01*
X106250000Y-108239285D01*
X106392857Y-108239285D01*
X106464285Y-108275000D01*
X106892857Y-108739285D02*
X106821428Y-108703571D01*
X106785714Y-108667857D01*
X106750000Y-108596428D01*
X106750000Y-108382142D01*
X106785714Y-108310714D01*
X106821428Y-108275000D01*
X106892857Y-108239285D01*
X107000000Y-108239285D01*
X107071428Y-108275000D01*
X107107142Y-108310714D01*
X107142857Y-108382142D01*
X107142857Y-108596428D01*
X107107142Y-108667857D01*
X107071428Y-108703571D01*
X107000000Y-108739285D01*
X106892857Y-108739285D01*
X107464285Y-108239285D02*
X107464285Y-108739285D01*
X107464285Y-108310714D02*
X107500000Y-108275000D01*
X107571428Y-108239285D01*
X107678571Y-108239285D01*
X107750000Y-108275000D01*
X107785714Y-108346428D01*
X107785714Y-108739285D01*
X108142857Y-108239285D02*
X108142857Y-108739285D01*
X108142857Y-108310714D02*
X108178571Y-108275000D01*
X108250000Y-108239285D01*
X108357142Y-108239285D01*
X108428571Y-108275000D01*
X108464285Y-108346428D01*
X108464285Y-108739285D01*
X109107142Y-108703571D02*
X109035714Y-108739285D01*
X108892857Y-108739285D01*
X108821428Y-108703571D01*
X108785714Y-108632142D01*
X108785714Y-108346428D01*
X108821428Y-108275000D01*
X108892857Y-108239285D01*
X109035714Y-108239285D01*
X109107142Y-108275000D01*
X109142857Y-108346428D01*
X109142857Y-108417857D01*
X108785714Y-108489285D01*
X109785714Y-108703571D02*
X109714285Y-108739285D01*
X109571428Y-108739285D01*
X109500000Y-108703571D01*
X109464285Y-108667857D01*
X109428571Y-108596428D01*
X109428571Y-108382142D01*
X109464285Y-108310714D01*
X109500000Y-108275000D01*
X109571428Y-108239285D01*
X109714285Y-108239285D01*
X109785714Y-108275000D01*
X110000000Y-108239285D02*
X110285714Y-108239285D01*
X110107142Y-107989285D02*
X110107142Y-108632142D01*
X110142857Y-108703571D01*
X110214285Y-108739285D01*
X110285714Y-108739285D01*
X110535714Y-108739285D02*
X110535714Y-108239285D01*
X110535714Y-107989285D02*
X110500000Y-108025000D01*
X110535714Y-108060714D01*
X110571428Y-108025000D01*
X110535714Y-107989285D01*
X110535714Y-108060714D01*
X110892857Y-108239285D02*
X110892857Y-108739285D01*
X110892857Y-108310714D02*
X110928571Y-108275000D01*
X111000000Y-108239285D01*
X111107142Y-108239285D01*
X111178571Y-108275000D01*
X111214285Y-108346428D01*
X111214285Y-108739285D01*
X111892857Y-108239285D02*
X111892857Y-108846428D01*
X111857142Y-108917857D01*
X111821428Y-108953571D01*
X111750000Y-108989285D01*
X111642857Y-108989285D01*
X111571428Y-108953571D01*
X111892857Y-108703571D02*
X111821428Y-108739285D01*
X111678571Y-108739285D01*
X111607142Y-108703571D01*
X111571428Y-108667857D01*
X111535714Y-108596428D01*
X111535714Y-108382142D01*
X111571428Y-108310714D01*
X111607142Y-108275000D01*
X111678571Y-108239285D01*
X111821428Y-108239285D01*
X111892857Y-108275000D01*
X112821428Y-107989285D02*
X112821428Y-108596428D01*
X112857142Y-108667857D01*
X112892857Y-108703571D01*
X112964285Y-108739285D01*
X113107142Y-108739285D01*
X113178571Y-108703571D01*
X113214285Y-108667857D01*
X113250000Y-108596428D01*
X113250000Y-107989285D01*
X113571428Y-108703571D02*
X113678571Y-108739285D01*
X113857142Y-108739285D01*
X113928571Y-108703571D01*
X113964285Y-108667857D01*
X114000000Y-108596428D01*
X114000000Y-108525000D01*
X113964285Y-108453571D01*
X113928571Y-108417857D01*
X113857142Y-108382142D01*
X113714285Y-108346428D01*
X113642857Y-108310714D01*
X113607142Y-108275000D01*
X113571428Y-108203571D01*
X113571428Y-108132142D01*
X113607142Y-108060714D01*
X113642857Y-108025000D01*
X113714285Y-107989285D01*
X113892857Y-107989285D01*
X114000000Y-108025000D01*
X114571428Y-108346428D02*
X114678571Y-108382142D01*
X114714285Y-108417857D01*
X114750000Y-108489285D01*
X114750000Y-108596428D01*
X114714285Y-108667857D01*
X114678571Y-108703571D01*
X114607142Y-108739285D01*
X114321428Y-108739285D01*
X114321428Y-107989285D01*
X114571428Y-107989285D01*
X114642857Y-108025000D01*
X114678571Y-108060714D01*
X114714285Y-108132142D01*
X114714285Y-108203571D01*
X114678571Y-108275000D01*
X114642857Y-108310714D01*
X114571428Y-108346428D01*
X114321428Y-108346428D01*
X115535714Y-108239285D02*
X115821428Y-108239285D01*
X115642857Y-108739285D02*
X115642857Y-108096428D01*
X115678571Y-108025000D01*
X115750000Y-107989285D01*
X115821428Y-107989285D01*
X116178571Y-108739285D02*
X116107142Y-108703571D01*
X116071428Y-108667857D01*
X116035714Y-108596428D01*
X116035714Y-108382142D01*
X116071428Y-108310714D01*
X116107142Y-108275000D01*
X116178571Y-108239285D01*
X116285714Y-108239285D01*
X116357142Y-108275000D01*
X116392857Y-108310714D01*
X116428571Y-108382142D01*
X116428571Y-108596428D01*
X116392857Y-108667857D01*
X116357142Y-108703571D01*
X116285714Y-108739285D01*
X116178571Y-108739285D01*
X116750000Y-108739285D02*
X116750000Y-108239285D01*
X116750000Y-108382142D02*
X116785714Y-108310714D01*
X116821428Y-108275000D01*
X116892857Y-108239285D01*
X116964285Y-108239285D01*
X117785714Y-108739285D02*
X117785714Y-107989285D01*
X118071428Y-107989285D01*
X118142857Y-108025000D01*
X118178571Y-108060714D01*
X118214285Y-108132142D01*
X118214285Y-108239285D01*
X118178571Y-108310714D01*
X118142857Y-108346428D01*
X118071428Y-108382142D01*
X117785714Y-108382142D01*
X118535714Y-108739285D02*
X118535714Y-108239285D01*
X118535714Y-108382142D02*
X118571428Y-108310714D01*
X118607142Y-108275000D01*
X118678571Y-108239285D01*
X118750000Y-108239285D01*
X119107142Y-108739285D02*
X119035714Y-108703571D01*
X119000000Y-108667857D01*
X118964285Y-108596428D01*
X118964285Y-108382142D01*
X119000000Y-108310714D01*
X119035714Y-108275000D01*
X119107142Y-108239285D01*
X119214285Y-108239285D01*
X119285714Y-108275000D01*
X119321428Y-108310714D01*
X119357142Y-108382142D01*
X119357142Y-108596428D01*
X119321428Y-108667857D01*
X119285714Y-108703571D01*
X119214285Y-108739285D01*
X119107142Y-108739285D01*
X120000000Y-108239285D02*
X120000000Y-108846428D01*
X119964285Y-108917857D01*
X119928571Y-108953571D01*
X119857142Y-108989285D01*
X119750000Y-108989285D01*
X119678571Y-108953571D01*
X120000000Y-108703571D02*
X119928571Y-108739285D01*
X119785714Y-108739285D01*
X119714285Y-108703571D01*
X119678571Y-108667857D01*
X119642857Y-108596428D01*
X119642857Y-108382142D01*
X119678571Y-108310714D01*
X119714285Y-108275000D01*
X119785714Y-108239285D01*
X119928571Y-108239285D01*
X120000000Y-108275000D01*
X120357142Y-108739285D02*
X120357142Y-108239285D01*
X120357142Y-108382142D02*
X120392857Y-108310714D01*
X120428571Y-108275000D01*
X120500000Y-108239285D01*
X120571428Y-108239285D01*
X121142857Y-108739285D02*
X121142857Y-108346428D01*
X121107142Y-108275000D01*
X121035714Y-108239285D01*
X120892857Y-108239285D01*
X120821428Y-108275000D01*
X121142857Y-108703571D02*
X121071428Y-108739285D01*
X120892857Y-108739285D01*
X120821428Y-108703571D01*
X120785714Y-108632142D01*
X120785714Y-108560714D01*
X120821428Y-108489285D01*
X120892857Y-108453571D01*
X121071428Y-108453571D01*
X121142857Y-108417857D01*
X121500000Y-108739285D02*
X121500000Y-108239285D01*
X121500000Y-108310714D02*
X121535714Y-108275000D01*
X121607142Y-108239285D01*
X121714285Y-108239285D01*
X121785714Y-108275000D01*
X121821428Y-108346428D01*
X121821428Y-108739285D01*
X121821428Y-108346428D02*
X121857142Y-108275000D01*
X121928571Y-108239285D01*
X122035714Y-108239285D01*
X122107142Y-108275000D01*
X122142857Y-108346428D01*
X122142857Y-108739285D01*
X123071428Y-108739285D02*
X123071428Y-108239285D01*
X123071428Y-108310714D02*
X123107142Y-108275000D01*
X123178571Y-108239285D01*
X123285714Y-108239285D01*
X123357142Y-108275000D01*
X123392857Y-108346428D01*
X123392857Y-108739285D01*
X123392857Y-108346428D02*
X123428571Y-108275000D01*
X123500000Y-108239285D01*
X123607142Y-108239285D01*
X123678571Y-108275000D01*
X123714285Y-108346428D01*
X123714285Y-108739285D01*
X124178571Y-108739285D02*
X124107142Y-108703571D01*
X124071428Y-108667857D01*
X124035714Y-108596428D01*
X124035714Y-108382142D01*
X124071428Y-108310714D01*
X124107142Y-108275000D01*
X124178571Y-108239285D01*
X124285714Y-108239285D01*
X124357142Y-108275000D01*
X124392857Y-108310714D01*
X124428571Y-108382142D01*
X124428571Y-108596428D01*
X124392857Y-108667857D01*
X124357142Y-108703571D01*
X124285714Y-108739285D01*
X124178571Y-108739285D01*
X125071428Y-108739285D02*
X125071428Y-107989285D01*
X125071428Y-108703571D02*
X125000000Y-108739285D01*
X124857142Y-108739285D01*
X124785714Y-108703571D01*
X124750000Y-108667857D01*
X124714285Y-108596428D01*
X124714285Y-108382142D01*
X124750000Y-108310714D01*
X124785714Y-108275000D01*
X124857142Y-108239285D01*
X125000000Y-108239285D01*
X125071428Y-108275000D01*
X125714285Y-108703571D02*
X125642857Y-108739285D01*
X125500000Y-108739285D01*
X125428571Y-108703571D01*
X125392857Y-108632142D01*
X125392857Y-108346428D01*
X125428571Y-108275000D01*
X125500000Y-108239285D01*
X125642857Y-108239285D01*
X125714285Y-108275000D01*
X125750000Y-108346428D01*
X125750000Y-108417857D01*
X125392857Y-108489285D01*
D11*
X94500000Y-121500000D02*
X127500000Y-121500000D01*
X94500000Y-78000000D02*
X94500000Y-121500000D01*
X127500000Y-78000000D02*
X94500000Y-78000000D01*
X127500000Y-121500000D02*
X127500000Y-78000000D01*
D10*
X95585595Y-81852380D02*
X95585595Y-80852380D01*
X95823690Y-80852380D01*
X95966547Y-80900000D01*
X96061785Y-80995238D01*
X96109404Y-81090476D01*
X96157023Y-81280952D01*
X96157023Y-81423809D01*
X96109404Y-81614285D01*
X96061785Y-81709523D01*
X95966547Y-81804761D01*
X95823690Y-81852380D01*
X95585595Y-81852380D01*
X96966547Y-81804761D02*
X96871309Y-81852380D01*
X96680833Y-81852380D01*
X96585595Y-81804761D01*
X96537976Y-81709523D01*
X96537976Y-81328571D01*
X96585595Y-81233333D01*
X96680833Y-81185714D01*
X96871309Y-81185714D01*
X96966547Y-81233333D01*
X97014166Y-81328571D01*
X97014166Y-81423809D01*
X96537976Y-81519047D01*
X97347500Y-81185714D02*
X97585595Y-81852380D01*
X97823690Y-81185714D01*
X99299880Y-81328571D02*
X99442738Y-81376190D01*
X99490357Y-81423809D01*
X99537976Y-81519047D01*
X99537976Y-81661904D01*
X99490357Y-81757142D01*
X99442738Y-81804761D01*
X99347500Y-81852380D01*
X98966547Y-81852380D01*
X98966547Y-80852380D01*
X99299880Y-80852380D01*
X99395119Y-80900000D01*
X99442738Y-80947619D01*
X99490357Y-81042857D01*
X99490357Y-81138095D01*
X99442738Y-81233333D01*
X99395119Y-81280952D01*
X99299880Y-81328571D01*
X98966547Y-81328571D01*
X100109404Y-81852380D02*
X100014166Y-81804761D01*
X99966547Y-81757142D01*
X99918928Y-81661904D01*
X99918928Y-81376190D01*
X99966547Y-81280952D01*
X100014166Y-81233333D01*
X100109404Y-81185714D01*
X100252261Y-81185714D01*
X100347500Y-81233333D01*
X100395119Y-81280952D01*
X100442738Y-81376190D01*
X100442738Y-81661904D01*
X100395119Y-81757142D01*
X100347500Y-81804761D01*
X100252261Y-81852380D01*
X100109404Y-81852380D01*
X101299880Y-81852380D02*
X101299880Y-81328571D01*
X101252261Y-81233333D01*
X101157023Y-81185714D01*
X100966547Y-81185714D01*
X100871309Y-81233333D01*
X101299880Y-81804761D02*
X101204642Y-81852380D01*
X100966547Y-81852380D01*
X100871309Y-81804761D01*
X100823690Y-81709523D01*
X100823690Y-81614285D01*
X100871309Y-81519047D01*
X100966547Y-81471428D01*
X101204642Y-81471428D01*
X101299880Y-81423809D01*
X101776071Y-81852380D02*
X101776071Y-81185714D01*
X101776071Y-81376190D02*
X101823690Y-81280952D01*
X101871309Y-81233333D01*
X101966547Y-81185714D01*
X102061785Y-81185714D01*
X102823690Y-81852380D02*
X102823690Y-80852380D01*
X102823690Y-81804761D02*
X102728452Y-81852380D01*
X102537976Y-81852380D01*
X102442738Y-81804761D01*
X102395119Y-81757142D01*
X102347500Y-81661904D01*
X102347500Y-81376190D01*
X102395119Y-81280952D01*
X102442738Y-81233333D01*
X102537976Y-81185714D01*
X102728452Y-81185714D01*
X102823690Y-81233333D01*
X96157023Y-80357142D02*
X96109404Y-80404761D01*
X95966547Y-80452380D01*
X95871309Y-80452380D01*
X95728452Y-80404761D01*
X95633214Y-80309523D01*
X95585595Y-80214285D01*
X95537976Y-80023809D01*
X95537976Y-79880952D01*
X95585595Y-79690476D01*
X95633214Y-79595238D01*
X95728452Y-79500000D01*
X95871309Y-79452380D01*
X95966547Y-79452380D01*
X96109404Y-79500000D01*
X96157023Y-79547619D01*
X96585595Y-80452380D02*
X96585595Y-79452380D01*
X96585595Y-79928571D02*
X97157023Y-79928571D01*
X97157023Y-80452380D02*
X97157023Y-79452380D01*
X98109404Y-79452380D02*
X97633214Y-79452380D01*
X97585595Y-79928571D01*
X97633214Y-79880952D01*
X97728452Y-79833333D01*
X97966547Y-79833333D01*
X98061785Y-79880952D01*
X98109404Y-79928571D01*
X98157023Y-80023809D01*
X98157023Y-80261904D01*
X98109404Y-80357142D01*
X98061785Y-80404761D01*
X97966547Y-80452380D01*
X97728452Y-80452380D01*
X97633214Y-80404761D01*
X97585595Y-80357142D01*
X99061785Y-79452380D02*
X98585595Y-79452380D01*
X98537976Y-79928571D01*
X98585595Y-79880952D01*
X98680833Y-79833333D01*
X98918928Y-79833333D01*
X99014166Y-79880952D01*
X99061785Y-79928571D01*
X99109404Y-80023809D01*
X99109404Y-80261904D01*
X99061785Y-80357142D01*
X99014166Y-80404761D01*
X98918928Y-80452380D01*
X98680833Y-80452380D01*
X98585595Y-80404761D01*
X98537976Y-80357142D01*
X99490357Y-79547619D02*
X99537976Y-79500000D01*
X99633214Y-79452380D01*
X99871309Y-79452380D01*
X99966547Y-79500000D01*
X100014166Y-79547619D01*
X100061785Y-79642857D01*
X100061785Y-79738095D01*
X100014166Y-79880952D01*
X99442738Y-80452380D01*
X100061785Y-80452380D01*
X101014166Y-79500000D02*
X100918928Y-79452380D01*
X100776071Y-79452380D01*
X100633214Y-79500000D01*
X100537976Y-79595238D01*
X100490357Y-79690476D01*
X100442738Y-79880952D01*
X100442738Y-80023809D01*
X100490357Y-80214285D01*
X100537976Y-80309523D01*
X100633214Y-80404761D01*
X100776071Y-80452380D01*
X100871309Y-80452380D01*
X101014166Y-80404761D01*
X101061785Y-80357142D01*
X101061785Y-80023809D01*
X100871309Y-80023809D01*
X95510714Y-87639285D02*
X95510714Y-86889285D01*
X95796428Y-86889285D01*
X95867857Y-86925000D01*
X95903571Y-86960714D01*
X95939285Y-87032142D01*
X95939285Y-87139285D01*
X95903571Y-87210714D01*
X95867857Y-87246428D01*
X95796428Y-87282142D01*
X95510714Y-87282142D01*
X96189285Y-86889285D02*
X96653571Y-86889285D01*
X96403571Y-87175000D01*
X96510714Y-87175000D01*
X96582142Y-87210714D01*
X96617857Y-87246428D01*
X96653571Y-87317857D01*
X96653571Y-87496428D01*
X96617857Y-87567857D01*
X96582142Y-87603571D01*
X96510714Y-87639285D01*
X96296428Y-87639285D01*
X96225000Y-87603571D01*
X96189285Y-87567857D01*
X96975000Y-87567857D02*
X97010714Y-87603571D01*
X96975000Y-87639285D01*
X96939285Y-87603571D01*
X96975000Y-87567857D01*
X96975000Y-87639285D01*
X97296428Y-86960714D02*
X97332142Y-86925000D01*
X97403571Y-86889285D01*
X97582142Y-86889285D01*
X97653571Y-86925000D01*
X97689285Y-86960714D01*
X97725000Y-87032142D01*
X97725000Y-87103571D01*
X97689285Y-87210714D01*
X97260714Y-87639285D01*
X97725000Y-87639285D01*
X95510714Y-90139285D02*
X95510714Y-89389285D01*
X95796428Y-89389285D01*
X95867857Y-89425000D01*
X95903571Y-89460714D01*
X95939285Y-89532142D01*
X95939285Y-89639285D01*
X95903571Y-89710714D01*
X95867857Y-89746428D01*
X95796428Y-89782142D01*
X95510714Y-89782142D01*
X96653571Y-90139285D02*
X96225000Y-90139285D01*
X96439285Y-90139285D02*
X96439285Y-89389285D01*
X96367857Y-89496428D01*
X96296428Y-89567857D01*
X96225000Y-89603571D01*
X96975000Y-90067857D02*
X97010714Y-90103571D01*
X96975000Y-90139285D01*
X96939285Y-90103571D01*
X96975000Y-90067857D01*
X96975000Y-90139285D01*
X97653571Y-89639285D02*
X97653571Y-90139285D01*
X97475000Y-89353571D02*
X97296428Y-89889285D01*
X97760714Y-89889285D01*
X95510714Y-92789285D02*
X95510714Y-92039285D01*
X95796428Y-92039285D01*
X95867857Y-92075000D01*
X95903571Y-92110714D01*
X95939285Y-92182142D01*
X95939285Y-92289285D01*
X95903571Y-92360714D01*
X95867857Y-92396428D01*
X95796428Y-92432142D01*
X95510714Y-92432142D01*
X96653571Y-92789285D02*
X96225000Y-92789285D01*
X96439285Y-92789285D02*
X96439285Y-92039285D01*
X96367857Y-92146428D01*
X96296428Y-92217857D01*
X96225000Y-92253571D01*
X96975000Y-92717857D02*
X97010714Y-92753571D01*
X96975000Y-92789285D01*
X96939285Y-92753571D01*
X96975000Y-92717857D01*
X96975000Y-92789285D01*
X97689285Y-92039285D02*
X97332142Y-92039285D01*
X97296428Y-92396428D01*
X97332142Y-92360714D01*
X97403571Y-92325000D01*
X97582142Y-92325000D01*
X97653571Y-92360714D01*
X97689285Y-92396428D01*
X97725000Y-92467857D01*
X97725000Y-92646428D01*
X97689285Y-92717857D01*
X97653571Y-92753571D01*
X97582142Y-92789285D01*
X97403571Y-92789285D01*
X97332142Y-92753571D01*
X97296428Y-92717857D01*
X95510714Y-95489285D02*
X95510714Y-94739285D01*
X95796428Y-94739285D01*
X95867857Y-94775000D01*
X95903571Y-94810714D01*
X95939285Y-94882142D01*
X95939285Y-94989285D01*
X95903571Y-95060714D01*
X95867857Y-95096428D01*
X95796428Y-95132142D01*
X95510714Y-95132142D01*
X96653571Y-95489285D02*
X96225000Y-95489285D01*
X96439285Y-95489285D02*
X96439285Y-94739285D01*
X96367857Y-94846428D01*
X96296428Y-94917857D01*
X96225000Y-94953571D01*
X96975000Y-95417857D02*
X97010714Y-95453571D01*
X96975000Y-95489285D01*
X96939285Y-95453571D01*
X96975000Y-95417857D01*
X96975000Y-95489285D01*
X97653571Y-94739285D02*
X97510714Y-94739285D01*
X97439285Y-94775000D01*
X97403571Y-94810714D01*
X97332142Y-94917857D01*
X97296428Y-95060714D01*
X97296428Y-95346428D01*
X97332142Y-95417857D01*
X97367857Y-95453571D01*
X97439285Y-95489285D01*
X97582142Y-95489285D01*
X97653571Y-95453571D01*
X97689285Y-95417857D01*
X97725000Y-95346428D01*
X97725000Y-95167857D01*
X97689285Y-95096428D01*
X97653571Y-95060714D01*
X97582142Y-95025000D01*
X97439285Y-95025000D01*
X97367857Y-95060714D01*
X97332142Y-95096428D01*
X97296428Y-95167857D01*
X95510714Y-97939285D02*
X95510714Y-97189285D01*
X95796428Y-97189285D01*
X95867857Y-97225000D01*
X95903571Y-97260714D01*
X95939285Y-97332142D01*
X95939285Y-97439285D01*
X95903571Y-97510714D01*
X95867857Y-97546428D01*
X95796428Y-97582142D01*
X95510714Y-97582142D01*
X96653571Y-97939285D02*
X96225000Y-97939285D01*
X96439285Y-97939285D02*
X96439285Y-97189285D01*
X96367857Y-97296428D01*
X96296428Y-97367857D01*
X96225000Y-97403571D01*
X96975000Y-97867857D02*
X97010714Y-97903571D01*
X96975000Y-97939285D01*
X96939285Y-97903571D01*
X96975000Y-97867857D01*
X96975000Y-97939285D01*
X97260714Y-97189285D02*
X97760714Y-97189285D01*
X97439285Y-97939285D01*
X96189285Y-100389285D02*
X95939285Y-100032142D01*
X95760714Y-100389285D02*
X95760714Y-99639285D01*
X96046428Y-99639285D01*
X96117857Y-99675000D01*
X96153571Y-99710714D01*
X96189285Y-99782142D01*
X96189285Y-99889285D01*
X96153571Y-99960714D01*
X96117857Y-99996428D01*
X96046428Y-100032142D01*
X95760714Y-100032142D01*
X96475000Y-100353571D02*
X96582142Y-100389285D01*
X96760714Y-100389285D01*
X96832142Y-100353571D01*
X96867857Y-100317857D01*
X96903571Y-100246428D01*
X96903571Y-100175000D01*
X96867857Y-100103571D01*
X96832142Y-100067857D01*
X96760714Y-100032142D01*
X96617857Y-99996428D01*
X96546428Y-99960714D01*
X96510714Y-99925000D01*
X96475000Y-99853571D01*
X96475000Y-99782142D01*
X96510714Y-99710714D01*
X96546428Y-99675000D01*
X96617857Y-99639285D01*
X96796428Y-99639285D01*
X96903571Y-99675000D01*
X97117857Y-99639285D02*
X97546428Y-99639285D01*
X97332142Y-100389285D02*
X97332142Y-99639285D01*
X124228571Y-92025000D02*
X124157142Y-91989285D01*
X124050000Y-91989285D01*
X123942857Y-92025000D01*
X123871428Y-92096428D01*
X123835714Y-92167857D01*
X123800000Y-92310714D01*
X123800000Y-92417857D01*
X123835714Y-92560714D01*
X123871428Y-92632142D01*
X123942857Y-92703571D01*
X124050000Y-92739285D01*
X124121428Y-92739285D01*
X124228571Y-92703571D01*
X124264285Y-92667857D01*
X124264285Y-92417857D01*
X124121428Y-92417857D01*
X124585714Y-92739285D02*
X124585714Y-91989285D01*
X125014285Y-92739285D01*
X125014285Y-91989285D01*
X125371428Y-92739285D02*
X125371428Y-91989285D01*
X125550000Y-91989285D01*
X125657142Y-92025000D01*
X125728571Y-92096428D01*
X125764285Y-92167857D01*
X125800000Y-92310714D01*
X125800000Y-92417857D01*
X125764285Y-92560714D01*
X125728571Y-92632142D01*
X125657142Y-92703571D01*
X125550000Y-92739285D01*
X125371428Y-92739285D01*
X123800000Y-89539285D02*
X124050000Y-90289285D01*
X124300000Y-89539285D01*
X124978571Y-90217857D02*
X124942857Y-90253571D01*
X124835714Y-90289285D01*
X124764285Y-90289285D01*
X124657142Y-90253571D01*
X124585714Y-90182142D01*
X124550000Y-90110714D01*
X124514285Y-89967857D01*
X124514285Y-89860714D01*
X124550000Y-89717857D01*
X124585714Y-89646428D01*
X124657142Y-89575000D01*
X124764285Y-89539285D01*
X124835714Y-89539285D01*
X124942857Y-89575000D01*
X124978571Y-89610714D01*
X125728571Y-90217857D02*
X125692857Y-90253571D01*
X125585714Y-90289285D01*
X125514285Y-90289285D01*
X125407142Y-90253571D01*
X125335714Y-90182142D01*
X125300000Y-90110714D01*
X125264285Y-89967857D01*
X125264285Y-89860714D01*
X125300000Y-89717857D01*
X125335714Y-89646428D01*
X125407142Y-89575000D01*
X125514285Y-89539285D01*
X125585714Y-89539285D01*
X125692857Y-89575000D01*
X125728571Y-89610714D01*
X95510714Y-103039285D02*
X95510714Y-102289285D01*
X95796428Y-102289285D01*
X95867857Y-102325000D01*
X95903571Y-102360714D01*
X95939285Y-102432142D01*
X95939285Y-102539285D01*
X95903571Y-102610714D01*
X95867857Y-102646428D01*
X95796428Y-102682142D01*
X95510714Y-102682142D01*
X96189285Y-102289285D02*
X96653571Y-102289285D01*
X96403571Y-102575000D01*
X96510714Y-102575000D01*
X96582142Y-102610714D01*
X96617857Y-102646428D01*
X96653571Y-102717857D01*
X96653571Y-102896428D01*
X96617857Y-102967857D01*
X96582142Y-103003571D01*
X96510714Y-103039285D01*
X96296428Y-103039285D01*
X96225000Y-103003571D01*
X96189285Y-102967857D01*
X96975000Y-102967857D02*
X97010714Y-103003571D01*
X96975000Y-103039285D01*
X96939285Y-103003571D01*
X96975000Y-102967857D01*
X96975000Y-103039285D01*
X97725000Y-103039285D02*
X97296428Y-103039285D01*
X97510714Y-103039285D02*
X97510714Y-102289285D01*
X97439285Y-102396428D01*
X97367857Y-102467857D01*
X97296428Y-102503571D01*
X95510714Y-105539285D02*
X95510714Y-104789285D01*
X95796428Y-104789285D01*
X95867857Y-104825000D01*
X95903571Y-104860714D01*
X95939285Y-104932142D01*
X95939285Y-105039285D01*
X95903571Y-105110714D01*
X95867857Y-105146428D01*
X95796428Y-105182142D01*
X95510714Y-105182142D01*
X96189285Y-104789285D02*
X96653571Y-104789285D01*
X96403571Y-105075000D01*
X96510714Y-105075000D01*
X96582142Y-105110714D01*
X96617857Y-105146428D01*
X96653571Y-105217857D01*
X96653571Y-105396428D01*
X96617857Y-105467857D01*
X96582142Y-105503571D01*
X96510714Y-105539285D01*
X96296428Y-105539285D01*
X96225000Y-105503571D01*
X96189285Y-105467857D01*
X96975000Y-105467857D02*
X97010714Y-105503571D01*
X96975000Y-105539285D01*
X96939285Y-105503571D01*
X96975000Y-105467857D01*
X96975000Y-105539285D01*
X97475000Y-104789285D02*
X97546428Y-104789285D01*
X97617857Y-104825000D01*
X97653571Y-104860714D01*
X97689285Y-104932142D01*
X97725000Y-105075000D01*
X97725000Y-105253571D01*
X97689285Y-105396428D01*
X97653571Y-105467857D01*
X97617857Y-105503571D01*
X97546428Y-105539285D01*
X97475000Y-105539285D01*
X97403571Y-105503571D01*
X97367857Y-105467857D01*
X97332142Y-105396428D01*
X97296428Y-105253571D01*
X97296428Y-105075000D01*
X97332142Y-104932142D01*
X97367857Y-104860714D01*
X97403571Y-104825000D01*
X97475000Y-104789285D01*
D12*
X109617857Y-101307142D02*
X109653571Y-101342857D01*
X109689285Y-101450000D01*
X109689285Y-101521428D01*
X109653571Y-101628571D01*
X109582142Y-101700000D01*
X109510714Y-101735714D01*
X109367857Y-101771428D01*
X109260714Y-101771428D01*
X109117857Y-101735714D01*
X109046428Y-101700000D01*
X108975000Y-101628571D01*
X108939285Y-101521428D01*
X108939285Y-101450000D01*
X108975000Y-101342857D01*
X109010714Y-101307142D01*
X109689285Y-100985714D02*
X108939285Y-100985714D01*
X109296428Y-100985714D02*
X109296428Y-100557142D01*
X109689285Y-100557142D02*
X108939285Y-100557142D01*
X108939285Y-99842857D02*
X108939285Y-100200000D01*
X109296428Y-100235714D01*
X109260714Y-100200000D01*
X109225000Y-100128571D01*
X109225000Y-99950000D01*
X109260714Y-99878571D01*
X109296428Y-99842857D01*
X109367857Y-99807142D01*
X109546428Y-99807142D01*
X109617857Y-99842857D01*
X109653571Y-99878571D01*
X109689285Y-99950000D01*
X109689285Y-100128571D01*
X109653571Y-100200000D01*
X109617857Y-100235714D01*
X108939285Y-99128571D02*
X108939285Y-99485714D01*
X109296428Y-99521428D01*
X109260714Y-99485714D01*
X109225000Y-99414285D01*
X109225000Y-99235714D01*
X109260714Y-99164285D01*
X109296428Y-99128571D01*
X109367857Y-99092857D01*
X109546428Y-99092857D01*
X109617857Y-99128571D01*
X109653571Y-99164285D01*
X109689285Y-99235714D01*
X109689285Y-99414285D01*
X109653571Y-99485714D01*
X109617857Y-99521428D01*
X109010714Y-98807142D02*
X108975000Y-98771428D01*
X108939285Y-98700000D01*
X108939285Y-98521428D01*
X108975000Y-98450000D01*
X109010714Y-98414285D01*
X109082142Y-98378571D01*
X109153571Y-98378571D01*
X109260714Y-98414285D01*
X109689285Y-98842857D01*
X109689285Y-98378571D01*
X108975000Y-97664285D02*
X108939285Y-97735714D01*
X108939285Y-97842857D01*
X108975000Y-97950000D01*
X109046428Y-98021428D01*
X109117857Y-98057142D01*
X109260714Y-98092857D01*
X109367857Y-98092857D01*
X109510714Y-98057142D01*
X109582142Y-98021428D01*
X109653571Y-97950000D01*
X109689285Y-97842857D01*
X109689285Y-97771428D01*
X109653571Y-97664285D01*
X109617857Y-97628571D01*
X109367857Y-97628571D01*
X109367857Y-97771428D01*
D10*
X113410714Y-105439285D02*
X113410714Y-104689285D01*
X113696428Y-104689285D01*
X113767857Y-104725000D01*
X113803571Y-104760714D01*
X113839285Y-104832142D01*
X113839285Y-104939285D01*
X113803571Y-105010714D01*
X113767857Y-105046428D01*
X113696428Y-105082142D01*
X113410714Y-105082142D01*
X114553571Y-105439285D02*
X114125000Y-105439285D01*
X114339285Y-105439285D02*
X114339285Y-104689285D01*
X114267857Y-104796428D01*
X114196428Y-104867857D01*
X114125000Y-104903571D01*
X114875000Y-105367857D02*
X114910714Y-105403571D01*
X114875000Y-105439285D01*
X114839285Y-105403571D01*
X114875000Y-105367857D01*
X114875000Y-105439285D01*
X115625000Y-105439285D02*
X115196428Y-105439285D01*
X115410714Y-105439285D02*
X115410714Y-104689285D01*
X115339285Y-104796428D01*
X115267857Y-104867857D01*
X115196428Y-104903571D01*
X113410714Y-102939285D02*
X113410714Y-102189285D01*
X113696428Y-102189285D01*
X113767857Y-102225000D01*
X113803571Y-102260714D01*
X113839285Y-102332142D01*
X113839285Y-102439285D01*
X113803571Y-102510714D01*
X113767857Y-102546428D01*
X113696428Y-102582142D01*
X113410714Y-102582142D01*
X114089285Y-102189285D02*
X114553571Y-102189285D01*
X114303571Y-102475000D01*
X114410714Y-102475000D01*
X114482142Y-102510714D01*
X114517857Y-102546428D01*
X114553571Y-102617857D01*
X114553571Y-102796428D01*
X114517857Y-102867857D01*
X114482142Y-102903571D01*
X114410714Y-102939285D01*
X114196428Y-102939285D01*
X114125000Y-102903571D01*
X114089285Y-102867857D01*
X114875000Y-102867857D02*
X114910714Y-102903571D01*
X114875000Y-102939285D01*
X114839285Y-102903571D01*
X114875000Y-102867857D01*
X114875000Y-102939285D01*
X115160714Y-102189285D02*
X115625000Y-102189285D01*
X115375000Y-102475000D01*
X115482142Y-102475000D01*
X115553571Y-102510714D01*
X115589285Y-102546428D01*
X115625000Y-102617857D01*
X115625000Y-102796428D01*
X115589285Y-102867857D01*
X115553571Y-102903571D01*
X115482142Y-102939285D01*
X115267857Y-102939285D01*
X115196428Y-102903571D01*
X115160714Y-102867857D01*
X113410714Y-100339285D02*
X113410714Y-99589285D01*
X113696428Y-99589285D01*
X113767857Y-99625000D01*
X113803571Y-99660714D01*
X113839285Y-99732142D01*
X113839285Y-99839285D01*
X113803571Y-99910714D01*
X113767857Y-99946428D01*
X113696428Y-99982142D01*
X113410714Y-99982142D01*
X114089285Y-99589285D02*
X114553571Y-99589285D01*
X114303571Y-99875000D01*
X114410714Y-99875000D01*
X114482142Y-99910714D01*
X114517857Y-99946428D01*
X114553571Y-100017857D01*
X114553571Y-100196428D01*
X114517857Y-100267857D01*
X114482142Y-100303571D01*
X114410714Y-100339285D01*
X114196428Y-100339285D01*
X114125000Y-100303571D01*
X114089285Y-100267857D01*
X114875000Y-100267857D02*
X114910714Y-100303571D01*
X114875000Y-100339285D01*
X114839285Y-100303571D01*
X114875000Y-100267857D01*
X114875000Y-100339285D01*
X115553571Y-99839285D02*
X115553571Y-100339285D01*
X115375000Y-99553571D02*
X115196428Y-100089285D01*
X115660714Y-100089285D01*
X114339285Y-97739285D02*
X114339285Y-96989285D01*
X114517857Y-96989285D01*
X114625000Y-97025000D01*
X114696428Y-97096428D01*
X114732142Y-97167857D01*
X114767857Y-97310714D01*
X114767857Y-97417857D01*
X114732142Y-97560714D01*
X114696428Y-97632142D01*
X114625000Y-97703571D01*
X114517857Y-97739285D01*
X114339285Y-97739285D01*
X115089285Y-97453571D02*
X115660714Y-97453571D01*
X115375000Y-97739285D02*
X115375000Y-97167857D01*
X114339285Y-95239285D02*
X114339285Y-94489285D01*
X114517857Y-94489285D01*
X114625000Y-94525000D01*
X114696428Y-94596428D01*
X114732142Y-94667857D01*
X114767857Y-94810714D01*
X114767857Y-94917857D01*
X114732142Y-95060714D01*
X114696428Y-95132142D01*
X114625000Y-95203571D01*
X114517857Y-95239285D01*
X114339285Y-95239285D01*
X115089285Y-94953571D02*
X115660714Y-94953571D01*
X114428571Y-92025000D02*
X114357142Y-91989285D01*
X114250000Y-91989285D01*
X114142857Y-92025000D01*
X114071428Y-92096428D01*
X114035714Y-92167857D01*
X114000000Y-92310714D01*
X114000000Y-92417857D01*
X114035714Y-92560714D01*
X114071428Y-92632142D01*
X114142857Y-92703571D01*
X114250000Y-92739285D01*
X114321428Y-92739285D01*
X114428571Y-92703571D01*
X114464285Y-92667857D01*
X114464285Y-92417857D01*
X114321428Y-92417857D01*
X114785714Y-92739285D02*
X114785714Y-91989285D01*
X115214285Y-92739285D01*
X115214285Y-91989285D01*
X115571428Y-92739285D02*
X115571428Y-91989285D01*
X115750000Y-91989285D01*
X115857142Y-92025000D01*
X115928571Y-92096428D01*
X115964285Y-92167857D01*
X116000000Y-92310714D01*
X116000000Y-92417857D01*
X115964285Y-92560714D01*
X115928571Y-92632142D01*
X115857142Y-92703571D01*
X115750000Y-92739285D01*
X115571428Y-92739285D01*
X114000000Y-89539285D02*
X114250000Y-90289285D01*
X114500000Y-89539285D01*
X115178571Y-90217857D02*
X115142857Y-90253571D01*
X115035714Y-90289285D01*
X114964285Y-90289285D01*
X114857142Y-90253571D01*
X114785714Y-90182142D01*
X114750000Y-90110714D01*
X114714285Y-89967857D01*
X114714285Y-89860714D01*
X114750000Y-89717857D01*
X114785714Y-89646428D01*
X114857142Y-89575000D01*
X114964285Y-89539285D01*
X115035714Y-89539285D01*
X115142857Y-89575000D01*
X115178571Y-89610714D01*
X115928571Y-90217857D02*
X115892857Y-90253571D01*
X115785714Y-90289285D01*
X115714285Y-90289285D01*
X115607142Y-90253571D01*
X115535714Y-90182142D01*
X115500000Y-90110714D01*
X115464285Y-89967857D01*
X115464285Y-89860714D01*
X115500000Y-89717857D01*
X115535714Y-89646428D01*
X115607142Y-89575000D01*
X115714285Y-89539285D01*
X115785714Y-89539285D01*
X115892857Y-89575000D01*
X115928571Y-89610714D01*
X114071428Y-87039285D02*
X114535714Y-87039285D01*
X114285714Y-87325000D01*
X114392857Y-87325000D01*
X114464285Y-87360714D01*
X114500000Y-87396428D01*
X114535714Y-87467857D01*
X114535714Y-87646428D01*
X114500000Y-87717857D01*
X114464285Y-87753571D01*
X114392857Y-87789285D01*
X114178571Y-87789285D01*
X114107142Y-87753571D01*
X114071428Y-87717857D01*
X114750000Y-87039285D02*
X115000000Y-87789285D01*
X115250000Y-87039285D01*
X115428571Y-87039285D02*
X115892857Y-87039285D01*
X115642857Y-87325000D01*
X115750000Y-87325000D01*
X115821428Y-87360714D01*
X115857142Y-87396428D01*
X115892857Y-87467857D01*
X115892857Y-87646428D01*
X115857142Y-87717857D01*
X115821428Y-87753571D01*
X115750000Y-87789285D01*
X115535714Y-87789285D01*
X115464285Y-87753571D01*
X115428571Y-87717857D01*
D13*
G04 #@! TO.C,G\002A\002A\002A*
G36*
X106647282Y-85439935D02*
G01*
X106755563Y-85440274D01*
X106856769Y-85440837D01*
X106948386Y-85441628D01*
X107027901Y-85442650D01*
X107092799Y-85443910D01*
X107140567Y-85445410D01*
X107168682Y-85447154D01*
X107329222Y-85464903D01*
X107467662Y-85481471D01*
X107584957Y-85496986D01*
X107682059Y-85511581D01*
X107759923Y-85525385D01*
X107797819Y-85533346D01*
X107885305Y-85553842D01*
X107952589Y-85571588D01*
X108002208Y-85587847D01*
X108036700Y-85603883D01*
X108058602Y-85620957D01*
X108070451Y-85640334D01*
X108074785Y-85663277D01*
X108075000Y-85671318D01*
X108070564Y-85700137D01*
X108055754Y-85724676D01*
X108028316Y-85746067D01*
X107985995Y-85765445D01*
X107926538Y-85783942D01*
X107847690Y-85802692D01*
X107790076Y-85814546D01*
X107723384Y-85827241D01*
X107658450Y-85838749D01*
X107601569Y-85848012D01*
X107559035Y-85853970D01*
X107549682Y-85854987D01*
X107505585Y-85859376D01*
X107448710Y-85865264D01*
X107389230Y-85871594D01*
X107370727Y-85873603D01*
X107309262Y-85879850D01*
X107245790Y-85885271D01*
X107178237Y-85889923D01*
X107104528Y-85893867D01*
X107022587Y-85897160D01*
X106930342Y-85899864D01*
X106825717Y-85902036D01*
X106706637Y-85903737D01*
X106571027Y-85905024D01*
X106416815Y-85905958D01*
X106241923Y-85906597D01*
X106211435Y-85906677D01*
X106083446Y-85907060D01*
X105961890Y-85907546D01*
X105848803Y-85908118D01*
X105746221Y-85908760D01*
X105656180Y-85909457D01*
X105580716Y-85910192D01*
X105521866Y-85910948D01*
X105481664Y-85911711D01*
X105462147Y-85912464D01*
X105460980Y-85912599D01*
X105439927Y-85913430D01*
X105401752Y-85912480D01*
X105352338Y-85909966D01*
X105309863Y-85907064D01*
X105236414Y-85900475D01*
X105149514Y-85891013D01*
X105052751Y-85879215D01*
X104949710Y-85865616D01*
X104843979Y-85850751D01*
X104739143Y-85835156D01*
X104638789Y-85819367D01*
X104546504Y-85803919D01*
X104465873Y-85789349D01*
X104400484Y-85776192D01*
X104353922Y-85764984D01*
X104348821Y-85763515D01*
X104311328Y-85750197D01*
X104290719Y-85735906D01*
X104281020Y-85716409D01*
X104280734Y-85715301D01*
X104279607Y-85693504D01*
X104384381Y-85693504D01*
X104398924Y-85700357D01*
X104419764Y-85705705D01*
X104460182Y-85713736D01*
X104516889Y-85723937D01*
X104586593Y-85735796D01*
X104666004Y-85748802D01*
X104751833Y-85762442D01*
X104840788Y-85776204D01*
X104929580Y-85789576D01*
X105014918Y-85802045D01*
X105093512Y-85813101D01*
X105162071Y-85822230D01*
X105217304Y-85828920D01*
X105240591Y-85831354D01*
X105261470Y-85832206D01*
X105302886Y-85832880D01*
X105362687Y-85833386D01*
X105438722Y-85833732D01*
X105528843Y-85833928D01*
X105630897Y-85833981D01*
X105742734Y-85833902D01*
X105862205Y-85833698D01*
X105987159Y-85833379D01*
X106115444Y-85832954D01*
X106244912Y-85832432D01*
X106373411Y-85831821D01*
X106498791Y-85831130D01*
X106618902Y-85830369D01*
X106731592Y-85829545D01*
X106834713Y-85828669D01*
X106926112Y-85827749D01*
X107003641Y-85826794D01*
X107065148Y-85825813D01*
X107108482Y-85824814D01*
X107131495Y-85823807D01*
X107134045Y-85823517D01*
X107162287Y-85819630D01*
X107205035Y-85815107D01*
X107253756Y-85810838D01*
X107261045Y-85810275D01*
X107370891Y-85800735D01*
X107478585Y-85789090D01*
X107581946Y-85775768D01*
X107678795Y-85761200D01*
X107766950Y-85745816D01*
X107844233Y-85730043D01*
X107908461Y-85714312D01*
X107957456Y-85699053D01*
X107989037Y-85684694D01*
X108001023Y-85671664D01*
X107998321Y-85665067D01*
X107981883Y-85657251D01*
X107947105Y-85646142D01*
X107898330Y-85632780D01*
X107839900Y-85618207D01*
X107776155Y-85603464D01*
X107711437Y-85589592D01*
X107650087Y-85577632D01*
X107596448Y-85568626D01*
X107595734Y-85568520D01*
X107503028Y-85555222D01*
X107417835Y-85544067D01*
X107336909Y-85534870D01*
X107257000Y-85527452D01*
X107174859Y-85521629D01*
X107087240Y-85517220D01*
X106990893Y-85514043D01*
X106882569Y-85511916D01*
X106759021Y-85510657D01*
X106617000Y-85510084D01*
X106551000Y-85510004D01*
X106386063Y-85510272D01*
X106228378Y-85511245D01*
X106079974Y-85512877D01*
X105942881Y-85515123D01*
X105819127Y-85517939D01*
X105710743Y-85521280D01*
X105619757Y-85525100D01*
X105548199Y-85529357D01*
X105506136Y-85533064D01*
X105472094Y-85536515D01*
X105429069Y-85540305D01*
X105374137Y-85544657D01*
X105304376Y-85549795D01*
X105216861Y-85555944D01*
X105130909Y-85561821D01*
X105021189Y-85570786D01*
X104908942Y-85582736D01*
X104797995Y-85597059D01*
X104692176Y-85613141D01*
X104595314Y-85630367D01*
X104511235Y-85648126D01*
X104443768Y-85665801D01*
X104409084Y-85677557D01*
X104386826Y-85687238D01*
X104384381Y-85693504D01*
X104279607Y-85693504D01*
X104279219Y-85686025D01*
X104291791Y-85660509D01*
X104320358Y-85637508D01*
X104366825Y-85615779D01*
X104433100Y-85594078D01*
X104489893Y-85578845D01*
X104575063Y-85560000D01*
X104677834Y-85541606D01*
X104792716Y-85524401D01*
X104914221Y-85509124D01*
X105036861Y-85496513D01*
X105155146Y-85487305D01*
X105182863Y-85485651D01*
X105237026Y-85482397D01*
X105282305Y-85479229D01*
X105313987Y-85476508D01*
X105327359Y-85474595D01*
X105327380Y-85474583D01*
X105340418Y-85472924D01*
X105372355Y-85470585D01*
X105419015Y-85467824D01*
X105476225Y-85464900D01*
X105506335Y-85463509D01*
X105569501Y-85460376D01*
X105626414Y-85456973D01*
X105672149Y-85453638D01*
X105701779Y-85450708D01*
X105708182Y-85449691D01*
X105728378Y-85447862D01*
X105769152Y-85446209D01*
X105827988Y-85444735D01*
X105902373Y-85443445D01*
X105989793Y-85442343D01*
X106087735Y-85441434D01*
X106193684Y-85440723D01*
X106305127Y-85440213D01*
X106419550Y-85439908D01*
X106534440Y-85439814D01*
X106647282Y-85439935D01*
X106647282Y-85439935D01*
G37*
X106647282Y-85439935D02*
X106755563Y-85440274D01*
X106856769Y-85440837D01*
X106948386Y-85441628D01*
X107027901Y-85442650D01*
X107092799Y-85443910D01*
X107140567Y-85445410D01*
X107168682Y-85447154D01*
X107329222Y-85464903D01*
X107467662Y-85481471D01*
X107584957Y-85496986D01*
X107682059Y-85511581D01*
X107759923Y-85525385D01*
X107797819Y-85533346D01*
X107885305Y-85553842D01*
X107952589Y-85571588D01*
X108002208Y-85587847D01*
X108036700Y-85603883D01*
X108058602Y-85620957D01*
X108070451Y-85640334D01*
X108074785Y-85663277D01*
X108075000Y-85671318D01*
X108070564Y-85700137D01*
X108055754Y-85724676D01*
X108028316Y-85746067D01*
X107985995Y-85765445D01*
X107926538Y-85783942D01*
X107847690Y-85802692D01*
X107790076Y-85814546D01*
X107723384Y-85827241D01*
X107658450Y-85838749D01*
X107601569Y-85848012D01*
X107559035Y-85853970D01*
X107549682Y-85854987D01*
X107505585Y-85859376D01*
X107448710Y-85865264D01*
X107389230Y-85871594D01*
X107370727Y-85873603D01*
X107309262Y-85879850D01*
X107245790Y-85885271D01*
X107178237Y-85889923D01*
X107104528Y-85893867D01*
X107022587Y-85897160D01*
X106930342Y-85899864D01*
X106825717Y-85902036D01*
X106706637Y-85903737D01*
X106571027Y-85905024D01*
X106416815Y-85905958D01*
X106241923Y-85906597D01*
X106211435Y-85906677D01*
X106083446Y-85907060D01*
X105961890Y-85907546D01*
X105848803Y-85908118D01*
X105746221Y-85908760D01*
X105656180Y-85909457D01*
X105580716Y-85910192D01*
X105521866Y-85910948D01*
X105481664Y-85911711D01*
X105462147Y-85912464D01*
X105460980Y-85912599D01*
X105439927Y-85913430D01*
X105401752Y-85912480D01*
X105352338Y-85909966D01*
X105309863Y-85907064D01*
X105236414Y-85900475D01*
X105149514Y-85891013D01*
X105052751Y-85879215D01*
X104949710Y-85865616D01*
X104843979Y-85850751D01*
X104739143Y-85835156D01*
X104638789Y-85819367D01*
X104546504Y-85803919D01*
X104465873Y-85789349D01*
X104400484Y-85776192D01*
X104353922Y-85764984D01*
X104348821Y-85763515D01*
X104311328Y-85750197D01*
X104290719Y-85735906D01*
X104281020Y-85716409D01*
X104280734Y-85715301D01*
X104279607Y-85693504D01*
X104384381Y-85693504D01*
X104398924Y-85700357D01*
X104419764Y-85705705D01*
X104460182Y-85713736D01*
X104516889Y-85723937D01*
X104586593Y-85735796D01*
X104666004Y-85748802D01*
X104751833Y-85762442D01*
X104840788Y-85776204D01*
X104929580Y-85789576D01*
X105014918Y-85802045D01*
X105093512Y-85813101D01*
X105162071Y-85822230D01*
X105217304Y-85828920D01*
X105240591Y-85831354D01*
X105261470Y-85832206D01*
X105302886Y-85832880D01*
X105362687Y-85833386D01*
X105438722Y-85833732D01*
X105528843Y-85833928D01*
X105630897Y-85833981D01*
X105742734Y-85833902D01*
X105862205Y-85833698D01*
X105987159Y-85833379D01*
X106115444Y-85832954D01*
X106244912Y-85832432D01*
X106373411Y-85831821D01*
X106498791Y-85831130D01*
X106618902Y-85830369D01*
X106731592Y-85829545D01*
X106834713Y-85828669D01*
X106926112Y-85827749D01*
X107003641Y-85826794D01*
X107065148Y-85825813D01*
X107108482Y-85824814D01*
X107131495Y-85823807D01*
X107134045Y-85823517D01*
X107162287Y-85819630D01*
X107205035Y-85815107D01*
X107253756Y-85810838D01*
X107261045Y-85810275D01*
X107370891Y-85800735D01*
X107478585Y-85789090D01*
X107581946Y-85775768D01*
X107678795Y-85761200D01*
X107766950Y-85745816D01*
X107844233Y-85730043D01*
X107908461Y-85714312D01*
X107957456Y-85699053D01*
X107989037Y-85684694D01*
X108001023Y-85671664D01*
X107998321Y-85665067D01*
X107981883Y-85657251D01*
X107947105Y-85646142D01*
X107898330Y-85632780D01*
X107839900Y-85618207D01*
X107776155Y-85603464D01*
X107711437Y-85589592D01*
X107650087Y-85577632D01*
X107596448Y-85568626D01*
X107595734Y-85568520D01*
X107503028Y-85555222D01*
X107417835Y-85544067D01*
X107336909Y-85534870D01*
X107257000Y-85527452D01*
X107174859Y-85521629D01*
X107087240Y-85517220D01*
X106990893Y-85514043D01*
X106882569Y-85511916D01*
X106759021Y-85510657D01*
X106617000Y-85510084D01*
X106551000Y-85510004D01*
X106386063Y-85510272D01*
X106228378Y-85511245D01*
X106079974Y-85512877D01*
X105942881Y-85515123D01*
X105819127Y-85517939D01*
X105710743Y-85521280D01*
X105619757Y-85525100D01*
X105548199Y-85529357D01*
X105506136Y-85533064D01*
X105472094Y-85536515D01*
X105429069Y-85540305D01*
X105374137Y-85544657D01*
X105304376Y-85549795D01*
X105216861Y-85555944D01*
X105130909Y-85561821D01*
X105021189Y-85570786D01*
X104908942Y-85582736D01*
X104797995Y-85597059D01*
X104692176Y-85613141D01*
X104595314Y-85630367D01*
X104511235Y-85648126D01*
X104443768Y-85665801D01*
X104409084Y-85677557D01*
X104386826Y-85687238D01*
X104384381Y-85693504D01*
X104279607Y-85693504D01*
X104279219Y-85686025D01*
X104291791Y-85660509D01*
X104320358Y-85637508D01*
X104366825Y-85615779D01*
X104433100Y-85594078D01*
X104489893Y-85578845D01*
X104575063Y-85560000D01*
X104677834Y-85541606D01*
X104792716Y-85524401D01*
X104914221Y-85509124D01*
X105036861Y-85496513D01*
X105155146Y-85487305D01*
X105182863Y-85485651D01*
X105237026Y-85482397D01*
X105282305Y-85479229D01*
X105313987Y-85476508D01*
X105327359Y-85474595D01*
X105327380Y-85474583D01*
X105340418Y-85472924D01*
X105372355Y-85470585D01*
X105419015Y-85467824D01*
X105476225Y-85464900D01*
X105506335Y-85463509D01*
X105569501Y-85460376D01*
X105626414Y-85456973D01*
X105672149Y-85453638D01*
X105701779Y-85450708D01*
X105708182Y-85449691D01*
X105728378Y-85447862D01*
X105769152Y-85446209D01*
X105827988Y-85444735D01*
X105902373Y-85443445D01*
X105989793Y-85442343D01*
X106087735Y-85441434D01*
X106193684Y-85440723D01*
X106305127Y-85440213D01*
X106419550Y-85439908D01*
X106534440Y-85439814D01*
X106647282Y-85439935D01*
G36*
X106087732Y-86253395D02*
G01*
X106092068Y-86253548D01*
X106103422Y-86257582D01*
X106109596Y-86271886D01*
X106112020Y-86301514D01*
X106112273Y-86324995D01*
X106113382Y-86365658D01*
X106119046Y-86392466D01*
X106132764Y-86414628D01*
X106155568Y-86438890D01*
X106185273Y-86463829D01*
X106219946Y-86482324D01*
X106263292Y-86495199D01*
X106319018Y-86503279D01*
X106390827Y-86507389D01*
X106467864Y-86508376D01*
X106614500Y-86508388D01*
X106612350Y-86626717D01*
X106611367Y-86679441D01*
X106610458Y-86725754D01*
X106609749Y-86759310D01*
X106609464Y-86771023D01*
X106602543Y-86791602D01*
X106581788Y-86797000D01*
X106558875Y-86795207D01*
X106550038Y-86792274D01*
X106537092Y-86789973D01*
X106504873Y-86787192D01*
X106457191Y-86784102D01*
X106397855Y-86780872D01*
X106330674Y-86777675D01*
X106259456Y-86774680D01*
X106188012Y-86772058D01*
X106120150Y-86769980D01*
X106059680Y-86768616D01*
X106011240Y-86768137D01*
X105892889Y-86768137D01*
X105892899Y-86632478D01*
X105892909Y-86496818D01*
X105966502Y-86496818D01*
X105936889Y-86465068D01*
X105912687Y-86435751D01*
X105894011Y-86407542D01*
X105893111Y-86405841D01*
X105885971Y-86382370D01*
X105880692Y-86347970D01*
X105877873Y-86310872D01*
X105878116Y-86279306D01*
X105882020Y-86261500D01*
X105882536Y-86260888D01*
X105895148Y-86258749D01*
X105924656Y-86256677D01*
X105964863Y-86254889D01*
X106009575Y-86253601D01*
X106052597Y-86253030D01*
X106087732Y-86253395D01*
X106087732Y-86253395D01*
G37*
X106087732Y-86253395D02*
X106092068Y-86253548D01*
X106103422Y-86257582D01*
X106109596Y-86271886D01*
X106112020Y-86301514D01*
X106112273Y-86324995D01*
X106113382Y-86365658D01*
X106119046Y-86392466D01*
X106132764Y-86414628D01*
X106155568Y-86438890D01*
X106185273Y-86463829D01*
X106219946Y-86482324D01*
X106263292Y-86495199D01*
X106319018Y-86503279D01*
X106390827Y-86507389D01*
X106467864Y-86508376D01*
X106614500Y-86508388D01*
X106612350Y-86626717D01*
X106611367Y-86679441D01*
X106610458Y-86725754D01*
X106609749Y-86759310D01*
X106609464Y-86771023D01*
X106602543Y-86791602D01*
X106581788Y-86797000D01*
X106558875Y-86795207D01*
X106550038Y-86792274D01*
X106537092Y-86789973D01*
X106504873Y-86787192D01*
X106457191Y-86784102D01*
X106397855Y-86780872D01*
X106330674Y-86777675D01*
X106259456Y-86774680D01*
X106188012Y-86772058D01*
X106120150Y-86769980D01*
X106059680Y-86768616D01*
X106011240Y-86768137D01*
X105892889Y-86768137D01*
X105892899Y-86632478D01*
X105892909Y-86496818D01*
X105966502Y-86496818D01*
X105936889Y-86465068D01*
X105912687Y-86435751D01*
X105894011Y-86407542D01*
X105893111Y-86405841D01*
X105885971Y-86382370D01*
X105880692Y-86347970D01*
X105877873Y-86310872D01*
X105878116Y-86279306D01*
X105882020Y-86261500D01*
X105882536Y-86260888D01*
X105895148Y-86258749D01*
X105924656Y-86256677D01*
X105964863Y-86254889D01*
X106009575Y-86253601D01*
X106052597Y-86253030D01*
X106087732Y-86253395D01*
G36*
X106247932Y-86888028D02*
G01*
X106285454Y-86889364D01*
X106285454Y-87385818D01*
X106318534Y-87385818D01*
X106351880Y-87378575D01*
X106380569Y-87363042D01*
X106417986Y-87320363D01*
X106439726Y-87263078D01*
X106445893Y-87190429D01*
X106436592Y-87101663D01*
X106424822Y-87045278D01*
X106414978Y-87002524D01*
X106408115Y-86969547D01*
X106405338Y-86951785D01*
X106405498Y-86950199D01*
X106417318Y-86950703D01*
X106445367Y-86954593D01*
X106483232Y-86960739D01*
X106524496Y-86968009D01*
X106562746Y-86975272D01*
X106591567Y-86981396D01*
X106604543Y-86985249D01*
X106604621Y-86985319D01*
X106611229Y-87002443D01*
X106617764Y-87037506D01*
X106623610Y-87085358D01*
X106628153Y-87140855D01*
X106630779Y-87198847D01*
X106630937Y-87205757D01*
X106628669Y-87305444D01*
X106618100Y-87393850D01*
X106599870Y-87466832D01*
X106585117Y-87502291D01*
X106549258Y-87552558D01*
X106498305Y-87598428D01*
X106440170Y-87633490D01*
X106407977Y-87645851D01*
X106340444Y-87658649D01*
X106263632Y-87661854D01*
X106187926Y-87655632D01*
X106127280Y-87641410D01*
X106042872Y-87602577D01*
X105976314Y-87550137D01*
X105927013Y-87483229D01*
X105894377Y-87400992D01*
X105877815Y-87302566D01*
X105876143Y-87275935D01*
X105876499Y-87265412D01*
X106043022Y-87265412D01*
X106061147Y-87309454D01*
X106082254Y-87335018D01*
X106110528Y-87358462D01*
X106136782Y-87372497D01*
X106145754Y-87374273D01*
X106156727Y-87372935D01*
X106163770Y-87366137D01*
X106167751Y-87349705D01*
X106169535Y-87319466D01*
X106169991Y-87271245D01*
X106170000Y-87257583D01*
X106169586Y-87204568D01*
X106167933Y-87170914D01*
X106164421Y-87152901D01*
X106158430Y-87146809D01*
X106151737Y-87147901D01*
X106125341Y-87154261D01*
X106116576Y-87154909D01*
X106097421Y-87162551D01*
X106073475Y-87181158D01*
X106071339Y-87183248D01*
X106046343Y-87222277D01*
X106043022Y-87265412D01*
X105876499Y-87265412D01*
X105879717Y-87170512D01*
X105900517Y-87080367D01*
X105938523Y-87005556D01*
X105975602Y-86962108D01*
X106017450Y-86928356D01*
X106063514Y-86905518D01*
X106118669Y-86892269D01*
X106187790Y-86887283D01*
X106247932Y-86888028D01*
X106247932Y-86888028D01*
G37*
X106247932Y-86888028D02*
X106285454Y-86889364D01*
X106285454Y-87385818D01*
X106318534Y-87385818D01*
X106351880Y-87378575D01*
X106380569Y-87363042D01*
X106417986Y-87320363D01*
X106439726Y-87263078D01*
X106445893Y-87190429D01*
X106436592Y-87101663D01*
X106424822Y-87045278D01*
X106414978Y-87002524D01*
X106408115Y-86969547D01*
X106405338Y-86951785D01*
X106405498Y-86950199D01*
X106417318Y-86950703D01*
X106445367Y-86954593D01*
X106483232Y-86960739D01*
X106524496Y-86968009D01*
X106562746Y-86975272D01*
X106591567Y-86981396D01*
X106604543Y-86985249D01*
X106604621Y-86985319D01*
X106611229Y-87002443D01*
X106617764Y-87037506D01*
X106623610Y-87085358D01*
X106628153Y-87140855D01*
X106630779Y-87198847D01*
X106630937Y-87205757D01*
X106628669Y-87305444D01*
X106618100Y-87393850D01*
X106599870Y-87466832D01*
X106585117Y-87502291D01*
X106549258Y-87552558D01*
X106498305Y-87598428D01*
X106440170Y-87633490D01*
X106407977Y-87645851D01*
X106340444Y-87658649D01*
X106263632Y-87661854D01*
X106187926Y-87655632D01*
X106127280Y-87641410D01*
X106042872Y-87602577D01*
X105976314Y-87550137D01*
X105927013Y-87483229D01*
X105894377Y-87400992D01*
X105877815Y-87302566D01*
X105876143Y-87275935D01*
X105876499Y-87265412D01*
X106043022Y-87265412D01*
X106061147Y-87309454D01*
X106082254Y-87335018D01*
X106110528Y-87358462D01*
X106136782Y-87372497D01*
X106145754Y-87374273D01*
X106156727Y-87372935D01*
X106163770Y-87366137D01*
X106167751Y-87349705D01*
X106169535Y-87319466D01*
X106169991Y-87271245D01*
X106170000Y-87257583D01*
X106169586Y-87204568D01*
X106167933Y-87170914D01*
X106164421Y-87152901D01*
X106158430Y-87146809D01*
X106151737Y-87147901D01*
X106125341Y-87154261D01*
X106116576Y-87154909D01*
X106097421Y-87162551D01*
X106073475Y-87181158D01*
X106071339Y-87183248D01*
X106046343Y-87222277D01*
X106043022Y-87265412D01*
X105876499Y-87265412D01*
X105879717Y-87170512D01*
X105900517Y-87080367D01*
X105938523Y-87005556D01*
X105975602Y-86962108D01*
X106017450Y-86928356D01*
X106063514Y-86905518D01*
X106118669Y-86892269D01*
X106187790Y-86887283D01*
X106247932Y-86888028D01*
G36*
X105719701Y-87776425D02*
G01*
X105800545Y-87780259D01*
X105800545Y-88055455D01*
X105719727Y-88055455D01*
X105672562Y-88053884D01*
X105646204Y-88048924D01*
X105638536Y-88041023D01*
X105638212Y-88017833D01*
X105637956Y-87979823D01*
X105637778Y-87933342D01*
X105637690Y-87884740D01*
X105637704Y-87840368D01*
X105637831Y-87806575D01*
X105638074Y-87789909D01*
X105642713Y-87780782D01*
X105658562Y-87776175D01*
X105690091Y-87775350D01*
X105719701Y-87776425D01*
X105719701Y-87776425D01*
G37*
X105719701Y-87776425D02*
X105800545Y-87780259D01*
X105800545Y-88055455D01*
X105719727Y-88055455D01*
X105672562Y-88053884D01*
X105646204Y-88048924D01*
X105638536Y-88041023D01*
X105638212Y-88017833D01*
X105637956Y-87979823D01*
X105637778Y-87933342D01*
X105637690Y-87884740D01*
X105637704Y-87840368D01*
X105637831Y-87806575D01*
X105638074Y-87789909D01*
X105642713Y-87780782D01*
X105658562Y-87776175D01*
X105690091Y-87775350D01*
X105719701Y-87776425D01*
G36*
X105999704Y-87782597D02*
G01*
X106044711Y-87785222D01*
X106107261Y-87788183D01*
X106181812Y-87791252D01*
X106262825Y-87794205D01*
X106344758Y-87796813D01*
X106354727Y-87797102D01*
X106427739Y-87799258D01*
X106492405Y-87801291D01*
X106545363Y-87803085D01*
X106583254Y-87804526D01*
X106602716Y-87805496D01*
X106604583Y-87805719D01*
X106605537Y-87817129D01*
X106606981Y-87847235D01*
X106608729Y-87891651D01*
X106610595Y-87945992D01*
X106610865Y-87954432D01*
X106615518Y-88101637D01*
X106579410Y-88101637D01*
X106552573Y-88100094D01*
X106538044Y-88096373D01*
X106537947Y-88096280D01*
X106525128Y-88093960D01*
X106493393Y-88091138D01*
X106446902Y-88088106D01*
X106389815Y-88085154D01*
X106359954Y-88083854D01*
X106293682Y-88081023D01*
X106230597Y-88078118D01*
X106176680Y-88075429D01*
X106137915Y-88073245D01*
X106129591Y-88072694D01*
X106088149Y-88070520D01*
X106035138Y-88068761D01*
X105982386Y-88067802D01*
X105892909Y-88067000D01*
X105892909Y-87775200D01*
X105999704Y-87782597D01*
X105999704Y-87782597D01*
G37*
X105999704Y-87782597D02*
X106044711Y-87785222D01*
X106107261Y-87788183D01*
X106181812Y-87791252D01*
X106262825Y-87794205D01*
X106344758Y-87796813D01*
X106354727Y-87797102D01*
X106427739Y-87799258D01*
X106492405Y-87801291D01*
X106545363Y-87803085D01*
X106583254Y-87804526D01*
X106602716Y-87805496D01*
X106604583Y-87805719D01*
X106605537Y-87817129D01*
X106606981Y-87847235D01*
X106608729Y-87891651D01*
X106610595Y-87945992D01*
X106610865Y-87954432D01*
X106615518Y-88101637D01*
X106579410Y-88101637D01*
X106552573Y-88100094D01*
X106538044Y-88096373D01*
X106537947Y-88096280D01*
X106525128Y-88093960D01*
X106493393Y-88091138D01*
X106446902Y-88088106D01*
X106389815Y-88085154D01*
X106359954Y-88083854D01*
X106293682Y-88081023D01*
X106230597Y-88078118D01*
X106176680Y-88075429D01*
X106137915Y-88073245D01*
X106129591Y-88072694D01*
X106088149Y-88070520D01*
X106035138Y-88068761D01*
X105982386Y-88067802D01*
X105892909Y-88067000D01*
X105892909Y-87775200D01*
X105999704Y-87782597D01*
G36*
X106255536Y-88208355D02*
G01*
X106357030Y-88223042D01*
X106444697Y-88253548D01*
X106517181Y-88298655D01*
X106573127Y-88357146D01*
X106611180Y-88427803D01*
X106629985Y-88509409D01*
X106631818Y-88546470D01*
X106624787Y-88620018D01*
X106601957Y-88682545D01*
X106572120Y-88727978D01*
X106553102Y-88755583D01*
X106551291Y-88769872D01*
X106567287Y-88773571D01*
X106581879Y-88772335D01*
X106594371Y-88774546D01*
X106602901Y-88786931D01*
X106608099Y-88812676D01*
X106610593Y-88854971D01*
X106611014Y-88917002D01*
X106610997Y-88919833D01*
X106610875Y-88974079D01*
X106608819Y-89010727D01*
X106601093Y-89032753D01*
X106583959Y-89043129D01*
X106553683Y-89044830D01*
X106506528Y-89040830D01*
X106464409Y-89036518D01*
X106418668Y-89032653D01*
X106356991Y-89028330D01*
X106286517Y-89024006D01*
X106214383Y-89020139D01*
X106193091Y-89019119D01*
X106130085Y-89016030D01*
X106074480Y-89012998D01*
X106030717Y-89010289D01*
X106003240Y-89008169D01*
X105996818Y-89007379D01*
X105979462Y-89006083D01*
X105943703Y-89004881D01*
X105894233Y-89003884D01*
X105835740Y-89003203D01*
X105814977Y-89003065D01*
X105650454Y-89002182D01*
X105650454Y-88710787D01*
X105895220Y-88727471D01*
X105887063Y-88701769D01*
X105883491Y-88679281D01*
X105881141Y-88646586D01*
X106077794Y-88646586D01*
X106079222Y-88694815D01*
X106085686Y-88724680D01*
X106101013Y-88740877D01*
X106129032Y-88748102D01*
X106162551Y-88750549D01*
X106252996Y-88750531D01*
X106322704Y-88740766D01*
X106371890Y-88721213D01*
X106388361Y-88708251D01*
X106409569Y-88679668D01*
X106417694Y-88644676D01*
X106418227Y-88627905D01*
X106408258Y-88576034D01*
X106379233Y-88536008D01*
X106332475Y-88508815D01*
X106269306Y-88495441D01*
X106239070Y-88494182D01*
X106174140Y-88502360D01*
X106125568Y-88526675D01*
X106093702Y-88566802D01*
X106078886Y-88622412D01*
X106077794Y-88646586D01*
X105881141Y-88646586D01*
X105880690Y-88640318D01*
X105879055Y-88591493D01*
X105878799Y-88564392D01*
X105883231Y-88478533D01*
X105897890Y-88409428D01*
X105924544Y-88352345D01*
X105964962Y-88302551D01*
X105982989Y-88285705D01*
X106043337Y-88243640D01*
X106112009Y-88217925D01*
X106192945Y-88207442D01*
X106255536Y-88208355D01*
X106255536Y-88208355D01*
G37*
X106255536Y-88208355D02*
X106357030Y-88223042D01*
X106444697Y-88253548D01*
X106517181Y-88298655D01*
X106573127Y-88357146D01*
X106611180Y-88427803D01*
X106629985Y-88509409D01*
X106631818Y-88546470D01*
X106624787Y-88620018D01*
X106601957Y-88682545D01*
X106572120Y-88727978D01*
X106553102Y-88755583D01*
X106551291Y-88769872D01*
X106567287Y-88773571D01*
X106581879Y-88772335D01*
X106594371Y-88774546D01*
X106602901Y-88786931D01*
X106608099Y-88812676D01*
X106610593Y-88854971D01*
X106611014Y-88917002D01*
X106610997Y-88919833D01*
X106610875Y-88974079D01*
X106608819Y-89010727D01*
X106601093Y-89032753D01*
X106583959Y-89043129D01*
X106553683Y-89044830D01*
X106506528Y-89040830D01*
X106464409Y-89036518D01*
X106418668Y-89032653D01*
X106356991Y-89028330D01*
X106286517Y-89024006D01*
X106214383Y-89020139D01*
X106193091Y-89019119D01*
X106130085Y-89016030D01*
X106074480Y-89012998D01*
X106030717Y-89010289D01*
X106003240Y-89008169D01*
X105996818Y-89007379D01*
X105979462Y-89006083D01*
X105943703Y-89004881D01*
X105894233Y-89003884D01*
X105835740Y-89003203D01*
X105814977Y-89003065D01*
X105650454Y-89002182D01*
X105650454Y-88710787D01*
X105895220Y-88727471D01*
X105887063Y-88701769D01*
X105883491Y-88679281D01*
X105881141Y-88646586D01*
X106077794Y-88646586D01*
X106079222Y-88694815D01*
X106085686Y-88724680D01*
X106101013Y-88740877D01*
X106129032Y-88748102D01*
X106162551Y-88750549D01*
X106252996Y-88750531D01*
X106322704Y-88740766D01*
X106371890Y-88721213D01*
X106388361Y-88708251D01*
X106409569Y-88679668D01*
X106417694Y-88644676D01*
X106418227Y-88627905D01*
X106408258Y-88576034D01*
X106379233Y-88536008D01*
X106332475Y-88508815D01*
X106269306Y-88495441D01*
X106239070Y-88494182D01*
X106174140Y-88502360D01*
X106125568Y-88526675D01*
X106093702Y-88566802D01*
X106078886Y-88622412D01*
X106077794Y-88646586D01*
X105881141Y-88646586D01*
X105880690Y-88640318D01*
X105879055Y-88591493D01*
X105878799Y-88564392D01*
X105883231Y-88478533D01*
X105897890Y-88409428D01*
X105924544Y-88352345D01*
X105964962Y-88302551D01*
X105982989Y-88285705D01*
X106043337Y-88243640D01*
X106112009Y-88217925D01*
X106192945Y-88207442D01*
X106255536Y-88208355D01*
G36*
X106755932Y-89101351D02*
G01*
X106793453Y-89103107D01*
X106821189Y-89104555D01*
X106830977Y-89105202D01*
X106833113Y-89116510D01*
X106835057Y-89148123D01*
X106836743Y-89197256D01*
X106838103Y-89261124D01*
X106839070Y-89336941D01*
X106839576Y-89421921D01*
X106839636Y-89464000D01*
X106839636Y-89821909D01*
X106689545Y-89821909D01*
X106689545Y-89098389D01*
X106755932Y-89101351D01*
X106755932Y-89101351D01*
G37*
X106755932Y-89101351D02*
X106793453Y-89103107D01*
X106821189Y-89104555D01*
X106830977Y-89105202D01*
X106833113Y-89116510D01*
X106835057Y-89148123D01*
X106836743Y-89197256D01*
X106838103Y-89261124D01*
X106839070Y-89336941D01*
X106839576Y-89421921D01*
X106839636Y-89464000D01*
X106839636Y-89821909D01*
X106689545Y-89821909D01*
X106689545Y-89098389D01*
X106755932Y-89101351D01*
G36*
X106047800Y-89857857D02*
G01*
X106078108Y-89862024D01*
X106090024Y-89869400D01*
X106090383Y-89870978D01*
X106091297Y-89889723D01*
X106092424Y-89923370D01*
X106093269Y-89954682D01*
X106094954Y-90023955D01*
X106237499Y-90027623D01*
X106298633Y-90028802D01*
X106341124Y-90028329D01*
X106369392Y-90025743D01*
X106387854Y-90020582D01*
X106400927Y-90012385D01*
X106403324Y-90010305D01*
X106416721Y-89994425D01*
X106422259Y-89973820D01*
X106421433Y-89940834D01*
X106419944Y-89925205D01*
X106413284Y-89861092D01*
X106510502Y-89878045D01*
X106567076Y-89889836D01*
X106601693Y-89901770D01*
X106615158Y-89913295D01*
X106618766Y-89932026D01*
X106622602Y-89968061D01*
X106626129Y-90015628D01*
X106628133Y-90052818D01*
X106630207Y-90108908D01*
X106629839Y-90148150D01*
X106626265Y-90176726D01*
X106618725Y-90200817D01*
X106606767Y-90226000D01*
X106587328Y-90259275D01*
X106566030Y-90283644D01*
X106539212Y-90300231D01*
X106503210Y-90310162D01*
X106454360Y-90314563D01*
X106389001Y-90314557D01*
X106325863Y-90312291D01*
X106262669Y-90309481D01*
X106205727Y-90306882D01*
X106159956Y-90304724D01*
X106130278Y-90303236D01*
X106123818Y-90302868D01*
X106105983Y-90303829D01*
X106097315Y-90313665D01*
X106094247Y-90338336D01*
X106093803Y-90353000D01*
X106092653Y-90404955D01*
X106047622Y-90405016D01*
X106004786Y-90404123D01*
X105959073Y-90401855D01*
X105953523Y-90401466D01*
X105904454Y-90397854D01*
X105904454Y-90340791D01*
X105902940Y-90305799D01*
X105897146Y-90288426D01*
X105885191Y-90283324D01*
X105884250Y-90283291D01*
X105850575Y-90280836D01*
X105814100Y-90275703D01*
X105783067Y-90269333D01*
X105765722Y-90263167D01*
X105764895Y-90262446D01*
X105760255Y-90249299D01*
X105752261Y-90219369D01*
X105742252Y-90178485D01*
X105731564Y-90132474D01*
X105721535Y-90087164D01*
X105713501Y-90048382D01*
X105708800Y-90021956D01*
X105708116Y-90014977D01*
X105718764Y-90011712D01*
X105747129Y-90010707D01*
X105787941Y-90012055D01*
X105806318Y-90013254D01*
X105904454Y-90020510D01*
X105904454Y-89856546D01*
X105996818Y-89856546D01*
X106047800Y-89857857D01*
X106047800Y-89857857D01*
G37*
X106047800Y-89857857D02*
X106078108Y-89862024D01*
X106090024Y-89869400D01*
X106090383Y-89870978D01*
X106091297Y-89889723D01*
X106092424Y-89923370D01*
X106093269Y-89954682D01*
X106094954Y-90023955D01*
X106237499Y-90027623D01*
X106298633Y-90028802D01*
X106341124Y-90028329D01*
X106369392Y-90025743D01*
X106387854Y-90020582D01*
X106400927Y-90012385D01*
X106403324Y-90010305D01*
X106416721Y-89994425D01*
X106422259Y-89973820D01*
X106421433Y-89940834D01*
X106419944Y-89925205D01*
X106413284Y-89861092D01*
X106510502Y-89878045D01*
X106567076Y-89889836D01*
X106601693Y-89901770D01*
X106615158Y-89913295D01*
X106618766Y-89932026D01*
X106622602Y-89968061D01*
X106626129Y-90015628D01*
X106628133Y-90052818D01*
X106630207Y-90108908D01*
X106629839Y-90148150D01*
X106626265Y-90176726D01*
X106618725Y-90200817D01*
X106606767Y-90226000D01*
X106587328Y-90259275D01*
X106566030Y-90283644D01*
X106539212Y-90300231D01*
X106503210Y-90310162D01*
X106454360Y-90314563D01*
X106389001Y-90314557D01*
X106325863Y-90312291D01*
X106262669Y-90309481D01*
X106205727Y-90306882D01*
X106159956Y-90304724D01*
X106130278Y-90303236D01*
X106123818Y-90302868D01*
X106105983Y-90303829D01*
X106097315Y-90313665D01*
X106094247Y-90338336D01*
X106093803Y-90353000D01*
X106092653Y-90404955D01*
X106047622Y-90405016D01*
X106004786Y-90404123D01*
X105959073Y-90401855D01*
X105953523Y-90401466D01*
X105904454Y-90397854D01*
X105904454Y-90340791D01*
X105902940Y-90305799D01*
X105897146Y-90288426D01*
X105885191Y-90283324D01*
X105884250Y-90283291D01*
X105850575Y-90280836D01*
X105814100Y-90275703D01*
X105783067Y-90269333D01*
X105765722Y-90263167D01*
X105764895Y-90262446D01*
X105760255Y-90249299D01*
X105752261Y-90219369D01*
X105742252Y-90178485D01*
X105731564Y-90132474D01*
X105721535Y-90087164D01*
X105713501Y-90048382D01*
X105708800Y-90021956D01*
X105708116Y-90014977D01*
X105718764Y-90011712D01*
X105747129Y-90010707D01*
X105787941Y-90012055D01*
X105806318Y-90013254D01*
X105904454Y-90020510D01*
X105904454Y-89856546D01*
X105996818Y-89856546D01*
X106047800Y-89857857D01*
G36*
X105713126Y-90489278D02*
G01*
X105756576Y-90492105D01*
X105768390Y-90493079D01*
X105813586Y-90496441D01*
X105874983Y-90500281D01*
X105945707Y-90504207D01*
X106018885Y-90507821D01*
X106047359Y-90509094D01*
X106113325Y-90512099D01*
X106173563Y-90515131D01*
X106223213Y-90517923D01*
X106257417Y-90520211D01*
X106268136Y-90521186D01*
X106292851Y-90522905D01*
X106334869Y-90524623D01*
X106388405Y-90526146D01*
X106447673Y-90527279D01*
X106450288Y-90527317D01*
X106506365Y-90528903D01*
X106553727Y-90531745D01*
X106587785Y-90535459D01*
X106603949Y-90539661D01*
X106604503Y-90540233D01*
X106607144Y-90555486D01*
X106609297Y-90588807D01*
X106610729Y-90635175D01*
X106611211Y-90685831D01*
X106611222Y-90820591D01*
X106581311Y-90821753D01*
X106557760Y-90821487D01*
X106548052Y-90819567D01*
X106535950Y-90817853D01*
X106505021Y-90815444D01*
X106459510Y-90812622D01*
X106403661Y-90809666D01*
X106383329Y-90808692D01*
X106322245Y-90805629D01*
X106267432Y-90802486D01*
X106224043Y-90799587D01*
X106197231Y-90797255D01*
X106193609Y-90796782D01*
X106174067Y-90795155D01*
X106135212Y-90793054D01*
X106080813Y-90790639D01*
X106014642Y-90788073D01*
X105940466Y-90785519D01*
X105907859Y-90784489D01*
X105650454Y-90776581D01*
X105650454Y-90635026D01*
X105651485Y-90567498D01*
X105654515Y-90520170D01*
X105659448Y-90494144D01*
X105663007Y-90489286D01*
X105679793Y-90488261D01*
X105713126Y-90489278D01*
X105713126Y-90489278D01*
G37*
X105713126Y-90489278D02*
X105756576Y-90492105D01*
X105768390Y-90493079D01*
X105813586Y-90496441D01*
X105874983Y-90500281D01*
X105945707Y-90504207D01*
X106018885Y-90507821D01*
X106047359Y-90509094D01*
X106113325Y-90512099D01*
X106173563Y-90515131D01*
X106223213Y-90517923D01*
X106257417Y-90520211D01*
X106268136Y-90521186D01*
X106292851Y-90522905D01*
X106334869Y-90524623D01*
X106388405Y-90526146D01*
X106447673Y-90527279D01*
X106450288Y-90527317D01*
X106506365Y-90528903D01*
X106553727Y-90531745D01*
X106587785Y-90535459D01*
X106603949Y-90539661D01*
X106604503Y-90540233D01*
X106607144Y-90555486D01*
X106609297Y-90588807D01*
X106610729Y-90635175D01*
X106611211Y-90685831D01*
X106611222Y-90820591D01*
X106581311Y-90821753D01*
X106557760Y-90821487D01*
X106548052Y-90819567D01*
X106535950Y-90817853D01*
X106505021Y-90815444D01*
X106459510Y-90812622D01*
X106403661Y-90809666D01*
X106383329Y-90808692D01*
X106322245Y-90805629D01*
X106267432Y-90802486D01*
X106224043Y-90799587D01*
X106197231Y-90797255D01*
X106193609Y-90796782D01*
X106174067Y-90795155D01*
X106135212Y-90793054D01*
X106080813Y-90790639D01*
X106014642Y-90788073D01*
X105940466Y-90785519D01*
X105907859Y-90784489D01*
X105650454Y-90776581D01*
X105650454Y-90635026D01*
X105651485Y-90567498D01*
X105654515Y-90520170D01*
X105659448Y-90494144D01*
X105663007Y-90489286D01*
X105679793Y-90488261D01*
X105713126Y-90489278D01*
G36*
X106136741Y-90957265D02*
G01*
X106180661Y-90959480D01*
X106236247Y-90962846D01*
X106283109Y-90966185D01*
X106316624Y-90969132D01*
X106332170Y-90971321D01*
X106332564Y-90971487D01*
X106346104Y-90973254D01*
X106377904Y-90975132D01*
X106423134Y-90976892D01*
X106473996Y-90978240D01*
X106532806Y-90979942D01*
X106572143Y-90982472D01*
X106595623Y-90986383D01*
X106606860Y-90992229D01*
X106609481Y-90998974D01*
X106609768Y-91017532D01*
X106609944Y-91053426D01*
X106609991Y-91100902D01*
X106609936Y-91138091D01*
X106609437Y-91192365D01*
X106607810Y-91227487D01*
X106604374Y-91247393D01*
X106598449Y-91256018D01*
X106589356Y-91257296D01*
X106589341Y-91257294D01*
X106570143Y-91255826D01*
X106533366Y-91253368D01*
X106484484Y-91250278D01*
X106434593Y-91247246D01*
X106300141Y-91239221D01*
X106327816Y-91324315D01*
X106345009Y-91369688D01*
X106364407Y-91409606D01*
X106382057Y-91436022D01*
X106383443Y-91437481D01*
X106405250Y-91455795D01*
X106423808Y-91458371D01*
X106440788Y-91452160D01*
X106458410Y-91441042D01*
X106468388Y-91424053D01*
X106472252Y-91395741D01*
X106471527Y-91350649D01*
X106471192Y-91343593D01*
X106469076Y-91300868D01*
X106541788Y-91325204D01*
X106580253Y-91339468D01*
X106609629Y-91352934D01*
X106622982Y-91362156D01*
X106628196Y-91382147D01*
X106630895Y-91418136D01*
X106631182Y-91463180D01*
X106629160Y-91510336D01*
X106624931Y-91552660D01*
X106619764Y-91579346D01*
X106595870Y-91631719D01*
X106557927Y-91678711D01*
X106516092Y-91709731D01*
X106453744Y-91730733D01*
X106390879Y-91728944D01*
X106334582Y-91708897D01*
X106293505Y-91683884D01*
X106259763Y-91651853D01*
X106231570Y-91609539D01*
X106207138Y-91553672D01*
X106184683Y-91480987D01*
X106164547Y-91397864D01*
X106153647Y-91352398D01*
X106142559Y-91311826D01*
X106133954Y-91285680D01*
X106113285Y-91255819D01*
X106085965Y-91246084D01*
X106056366Y-91257786D01*
X106052341Y-91261164D01*
X106040250Y-91274687D01*
X106033883Y-91291887D01*
X106032239Y-91318921D01*
X106034316Y-91361947D01*
X106034805Y-91369000D01*
X106041891Y-91425235D01*
X106054571Y-91489078D01*
X106069918Y-91546094D01*
X106098926Y-91636597D01*
X106073849Y-91630444D01*
X106048056Y-91625418D01*
X106010089Y-91619423D01*
X105987262Y-91616267D01*
X105957846Y-91611622D01*
X105936740Y-91604161D01*
X105921888Y-91590187D01*
X105911237Y-91566001D01*
X105902732Y-91527906D01*
X105894317Y-91472205D01*
X105890162Y-91441522D01*
X105878289Y-91317237D01*
X105878212Y-91210436D01*
X105889813Y-91121662D01*
X105912973Y-91051456D01*
X105947576Y-91000359D01*
X105993300Y-90968996D01*
X106016418Y-90961454D01*
X106044779Y-90957150D01*
X106083261Y-90955836D01*
X106136741Y-90957265D01*
X106136741Y-90957265D01*
G37*
X106136741Y-90957265D02*
X106180661Y-90959480D01*
X106236247Y-90962846D01*
X106283109Y-90966185D01*
X106316624Y-90969132D01*
X106332170Y-90971321D01*
X106332564Y-90971487D01*
X106346104Y-90973254D01*
X106377904Y-90975132D01*
X106423134Y-90976892D01*
X106473996Y-90978240D01*
X106532806Y-90979942D01*
X106572143Y-90982472D01*
X106595623Y-90986383D01*
X106606860Y-90992229D01*
X106609481Y-90998974D01*
X106609768Y-91017532D01*
X106609944Y-91053426D01*
X106609991Y-91100902D01*
X106609936Y-91138091D01*
X106609437Y-91192365D01*
X106607810Y-91227487D01*
X106604374Y-91247393D01*
X106598449Y-91256018D01*
X106589356Y-91257296D01*
X106589341Y-91257294D01*
X106570143Y-91255826D01*
X106533366Y-91253368D01*
X106484484Y-91250278D01*
X106434593Y-91247246D01*
X106300141Y-91239221D01*
X106327816Y-91324315D01*
X106345009Y-91369688D01*
X106364407Y-91409606D01*
X106382057Y-91436022D01*
X106383443Y-91437481D01*
X106405250Y-91455795D01*
X106423808Y-91458371D01*
X106440788Y-91452160D01*
X106458410Y-91441042D01*
X106468388Y-91424053D01*
X106472252Y-91395741D01*
X106471527Y-91350649D01*
X106471192Y-91343593D01*
X106469076Y-91300868D01*
X106541788Y-91325204D01*
X106580253Y-91339468D01*
X106609629Y-91352934D01*
X106622982Y-91362156D01*
X106628196Y-91382147D01*
X106630895Y-91418136D01*
X106631182Y-91463180D01*
X106629160Y-91510336D01*
X106624931Y-91552660D01*
X106619764Y-91579346D01*
X106595870Y-91631719D01*
X106557927Y-91678711D01*
X106516092Y-91709731D01*
X106453744Y-91730733D01*
X106390879Y-91728944D01*
X106334582Y-91708897D01*
X106293505Y-91683884D01*
X106259763Y-91651853D01*
X106231570Y-91609539D01*
X106207138Y-91553672D01*
X106184683Y-91480987D01*
X106164547Y-91397864D01*
X106153647Y-91352398D01*
X106142559Y-91311826D01*
X106133954Y-91285680D01*
X106113285Y-91255819D01*
X106085965Y-91246084D01*
X106056366Y-91257786D01*
X106052341Y-91261164D01*
X106040250Y-91274687D01*
X106033883Y-91291887D01*
X106032239Y-91318921D01*
X106034316Y-91361947D01*
X106034805Y-91369000D01*
X106041891Y-91425235D01*
X106054571Y-91489078D01*
X106069918Y-91546094D01*
X106098926Y-91636597D01*
X106073849Y-91630444D01*
X106048056Y-91625418D01*
X106010089Y-91619423D01*
X105987262Y-91616267D01*
X105957846Y-91611622D01*
X105936740Y-91604161D01*
X105921888Y-91590187D01*
X105911237Y-91566001D01*
X105902732Y-91527906D01*
X105894317Y-91472205D01*
X105890162Y-91441522D01*
X105878289Y-91317237D01*
X105878212Y-91210436D01*
X105889813Y-91121662D01*
X105912973Y-91051456D01*
X105947576Y-91000359D01*
X105993300Y-90968996D01*
X106016418Y-90961454D01*
X106044779Y-90957150D01*
X106083261Y-90955836D01*
X106136741Y-90957265D01*
G36*
X106052136Y-91826333D02*
G01*
X106088138Y-91830619D01*
X106120106Y-91840770D01*
X106157545Y-91859029D01*
X106168081Y-91864693D01*
X106246356Y-91919586D01*
X106307625Y-91989223D01*
X106350321Y-92071339D01*
X106372428Y-92160157D01*
X106374305Y-92212162D01*
X106367525Y-92261974D01*
X106353660Y-92302897D01*
X106334283Y-92328233D01*
X106332701Y-92329287D01*
X106320312Y-92339008D01*
X106319567Y-92350553D01*
X106331243Y-92371131D01*
X106338379Y-92381755D01*
X106363856Y-92436195D01*
X106374492Y-92497480D01*
X106368755Y-92555736D01*
X106366516Y-92563216D01*
X106339711Y-92611453D01*
X106298241Y-92645521D01*
X106245816Y-92665242D01*
X106186142Y-92670434D01*
X106122929Y-92660918D01*
X106059883Y-92636514D01*
X106000712Y-92597042D01*
X105983817Y-92581795D01*
X105947098Y-92540475D01*
X105920951Y-92495745D01*
X105904235Y-92443349D01*
X105895810Y-92379029D01*
X105895342Y-92349450D01*
X106031454Y-92349450D01*
X106037050Y-92386761D01*
X106049520Y-92421081D01*
X106075624Y-92452625D01*
X106112807Y-92475207D01*
X106154229Y-92486850D01*
X106193053Y-92485574D01*
X106221130Y-92470766D01*
X106237957Y-92439783D01*
X106235715Y-92404552D01*
X106216151Y-92370821D01*
X106183008Y-92345348D01*
X106151978Y-92333810D01*
X106110642Y-92323852D01*
X106090987Y-92320650D01*
X106031454Y-92312753D01*
X106031454Y-92349450D01*
X105895342Y-92349450D01*
X105894536Y-92298527D01*
X105896074Y-92254109D01*
X105899341Y-92199711D01*
X105903530Y-92153745D01*
X105908094Y-92121136D01*
X105912380Y-92106911D01*
X105927450Y-92104800D01*
X105960060Y-92107417D01*
X106005267Y-92114231D01*
X106037523Y-92120346D01*
X106112377Y-92134530D01*
X106167199Y-92142000D01*
X106204166Y-92142355D01*
X106225458Y-92135198D01*
X106233252Y-92120128D01*
X106229726Y-92096745D01*
X106225941Y-92085782D01*
X106194909Y-92034440D01*
X106147907Y-91994447D01*
X106089867Y-91967343D01*
X106025723Y-91954668D01*
X105960408Y-91957963D01*
X105898855Y-91978767D01*
X105893094Y-91981871D01*
X105845087Y-92021348D01*
X105806830Y-92078302D01*
X105778856Y-92149037D01*
X105761703Y-92229859D01*
X105755906Y-92317070D01*
X105762001Y-92406976D01*
X105780523Y-92495880D01*
X105807729Y-92570801D01*
X105847701Y-92637418D01*
X105903468Y-92699900D01*
X105968504Y-92752068D01*
X106036281Y-92787743D01*
X106037261Y-92788112D01*
X106104010Y-92805159D01*
X106179541Y-92812001D01*
X106253205Y-92808204D01*
X106298634Y-92798783D01*
X106353803Y-92772108D01*
X106406785Y-92728300D01*
X106451392Y-92672968D01*
X106466797Y-92646365D01*
X106481264Y-92614682D01*
X106490931Y-92582853D01*
X106497098Y-92544204D01*
X106501065Y-92492060D01*
X106502439Y-92463316D01*
X106503368Y-92375988D01*
X106497135Y-92304021D01*
X106482743Y-92240525D01*
X106462340Y-92185723D01*
X106451625Y-92157783D01*
X106447597Y-92140314D01*
X106448171Y-92138135D01*
X106461413Y-92134140D01*
X106489584Y-92128803D01*
X106506083Y-92126243D01*
X106559302Y-92118526D01*
X106582746Y-92173831D01*
X106613124Y-92269202D01*
X106629197Y-92373983D01*
X106631114Y-92482144D01*
X106619025Y-92587654D01*
X106593079Y-92684485D01*
X106568681Y-92740244D01*
X106539730Y-92790240D01*
X106509823Y-92827867D01*
X106470893Y-92862725D01*
X106456103Y-92874188D01*
X106390623Y-92911225D01*
X106310994Y-92936249D01*
X106223307Y-92948360D01*
X106133654Y-92946661D01*
X106057715Y-92932959D01*
X105950084Y-92892720D01*
X105856046Y-92834439D01*
X105777018Y-92759692D01*
X105714412Y-92670057D01*
X105669646Y-92567109D01*
X105647602Y-92476072D01*
X105639842Y-92404067D01*
X105637832Y-92323001D01*
X105641159Y-92239728D01*
X105649412Y-92161102D01*
X105662178Y-92093978D01*
X105672600Y-92060029D01*
X105711088Y-91986474D01*
X105765469Y-91920576D01*
X105829923Y-91868959D01*
X105851076Y-91856875D01*
X105887835Y-91840182D01*
X105923321Y-91830678D01*
X105966743Y-91826464D01*
X106002591Y-91825671D01*
X106052136Y-91826333D01*
X106052136Y-91826333D01*
G37*
X106052136Y-91826333D02*
X106088138Y-91830619D01*
X106120106Y-91840770D01*
X106157545Y-91859029D01*
X106168081Y-91864693D01*
X106246356Y-91919586D01*
X106307625Y-91989223D01*
X106350321Y-92071339D01*
X106372428Y-92160157D01*
X106374305Y-92212162D01*
X106367525Y-92261974D01*
X106353660Y-92302897D01*
X106334283Y-92328233D01*
X106332701Y-92329287D01*
X106320312Y-92339008D01*
X106319567Y-92350553D01*
X106331243Y-92371131D01*
X106338379Y-92381755D01*
X106363856Y-92436195D01*
X106374492Y-92497480D01*
X106368755Y-92555736D01*
X106366516Y-92563216D01*
X106339711Y-92611453D01*
X106298241Y-92645521D01*
X106245816Y-92665242D01*
X106186142Y-92670434D01*
X106122929Y-92660918D01*
X106059883Y-92636514D01*
X106000712Y-92597042D01*
X105983817Y-92581795D01*
X105947098Y-92540475D01*
X105920951Y-92495745D01*
X105904235Y-92443349D01*
X105895810Y-92379029D01*
X105895342Y-92349450D01*
X106031454Y-92349450D01*
X106037050Y-92386761D01*
X106049520Y-92421081D01*
X106075624Y-92452625D01*
X106112807Y-92475207D01*
X106154229Y-92486850D01*
X106193053Y-92485574D01*
X106221130Y-92470766D01*
X106237957Y-92439783D01*
X106235715Y-92404552D01*
X106216151Y-92370821D01*
X106183008Y-92345348D01*
X106151978Y-92333810D01*
X106110642Y-92323852D01*
X106090987Y-92320650D01*
X106031454Y-92312753D01*
X106031454Y-92349450D01*
X105895342Y-92349450D01*
X105894536Y-92298527D01*
X105896074Y-92254109D01*
X105899341Y-92199711D01*
X105903530Y-92153745D01*
X105908094Y-92121136D01*
X105912380Y-92106911D01*
X105927450Y-92104800D01*
X105960060Y-92107417D01*
X106005267Y-92114231D01*
X106037523Y-92120346D01*
X106112377Y-92134530D01*
X106167199Y-92142000D01*
X106204166Y-92142355D01*
X106225458Y-92135198D01*
X106233252Y-92120128D01*
X106229726Y-92096745D01*
X106225941Y-92085782D01*
X106194909Y-92034440D01*
X106147907Y-91994447D01*
X106089867Y-91967343D01*
X106025723Y-91954668D01*
X105960408Y-91957963D01*
X105898855Y-91978767D01*
X105893094Y-91981871D01*
X105845087Y-92021348D01*
X105806830Y-92078302D01*
X105778856Y-92149037D01*
X105761703Y-92229859D01*
X105755906Y-92317070D01*
X105762001Y-92406976D01*
X105780523Y-92495880D01*
X105807729Y-92570801D01*
X105847701Y-92637418D01*
X105903468Y-92699900D01*
X105968504Y-92752068D01*
X106036281Y-92787743D01*
X106037261Y-92788112D01*
X106104010Y-92805159D01*
X106179541Y-92812001D01*
X106253205Y-92808204D01*
X106298634Y-92798783D01*
X106353803Y-92772108D01*
X106406785Y-92728300D01*
X106451392Y-92672968D01*
X106466797Y-92646365D01*
X106481264Y-92614682D01*
X106490931Y-92582853D01*
X106497098Y-92544204D01*
X106501065Y-92492060D01*
X106502439Y-92463316D01*
X106503368Y-92375988D01*
X106497135Y-92304021D01*
X106482743Y-92240525D01*
X106462340Y-92185723D01*
X106451625Y-92157783D01*
X106447597Y-92140314D01*
X106448171Y-92138135D01*
X106461413Y-92134140D01*
X106489584Y-92128803D01*
X106506083Y-92126243D01*
X106559302Y-92118526D01*
X106582746Y-92173831D01*
X106613124Y-92269202D01*
X106629197Y-92373983D01*
X106631114Y-92482144D01*
X106619025Y-92587654D01*
X106593079Y-92684485D01*
X106568681Y-92740244D01*
X106539730Y-92790240D01*
X106509823Y-92827867D01*
X106470893Y-92862725D01*
X106456103Y-92874188D01*
X106390623Y-92911225D01*
X106310994Y-92936249D01*
X106223307Y-92948360D01*
X106133654Y-92946661D01*
X106057715Y-92932959D01*
X105950084Y-92892720D01*
X105856046Y-92834439D01*
X105777018Y-92759692D01*
X105714412Y-92670057D01*
X105669646Y-92567109D01*
X105647602Y-92476072D01*
X105639842Y-92404067D01*
X105637832Y-92323001D01*
X105641159Y-92239728D01*
X105649412Y-92161102D01*
X105662178Y-92093978D01*
X105672600Y-92060029D01*
X105711088Y-91986474D01*
X105765469Y-91920576D01*
X105829923Y-91868959D01*
X105851076Y-91856875D01*
X105887835Y-91840182D01*
X105923321Y-91830678D01*
X105966743Y-91826464D01*
X106002591Y-91825671D01*
X106052136Y-91826333D01*
G36*
X104434809Y-90645625D02*
G01*
X104446267Y-90657367D01*
X104459472Y-90667092D01*
X104488870Y-90683172D01*
X104529276Y-90703231D01*
X104575505Y-90724898D01*
X104622372Y-90745799D01*
X104664690Y-90763561D01*
X104697276Y-90775810D01*
X104714625Y-90780182D01*
X104725439Y-90770841D01*
X104726818Y-90762864D01*
X104736347Y-90748534D01*
X104748466Y-90745546D01*
X104765466Y-90754045D01*
X104776845Y-90780626D01*
X104783035Y-90826918D01*
X104784545Y-90880565D01*
X104783784Y-90916572D01*
X104779954Y-90934791D01*
X104770732Y-90940510D01*
X104758568Y-90939735D01*
X104740173Y-90932138D01*
X104731339Y-90911867D01*
X104729075Y-90893890D01*
X104722553Y-90862539D01*
X104705705Y-90844538D01*
X104691856Y-90837774D01*
X104674444Y-90832119D01*
X104657310Y-90832233D01*
X104635272Y-90839781D01*
X104603152Y-90856430D01*
X104564474Y-90878733D01*
X104522931Y-90904314D01*
X104489442Y-90927233D01*
X104468823Y-90944082D01*
X104464799Y-90949281D01*
X104449571Y-90962762D01*
X104438516Y-90964909D01*
X104424494Y-90958699D01*
X104415416Y-90937026D01*
X104410944Y-90911760D01*
X104407865Y-90877881D01*
X104408500Y-90853656D01*
X104410056Y-90848260D01*
X104427058Y-90838294D01*
X104447393Y-90843276D01*
X104457023Y-90855034D01*
X104464258Y-90863221D01*
X104479307Y-90861004D01*
X104507169Y-90847267D01*
X104517274Y-90841588D01*
X104556064Y-90818871D01*
X104575670Y-90803722D01*
X104577064Y-90792435D01*
X104561214Y-90781306D01*
X104536077Y-90769719D01*
X104489967Y-90751620D01*
X104461744Y-90746274D01*
X104450167Y-90753499D01*
X104449727Y-90757091D01*
X104440125Y-90766676D01*
X104428112Y-90768637D01*
X104412165Y-90762102D01*
X104402348Y-90739335D01*
X104399258Y-90723372D01*
X104396244Y-90689518D01*
X104397991Y-90663375D01*
X104399018Y-90659872D01*
X104414444Y-90643632D01*
X104434809Y-90645625D01*
X104434809Y-90645625D01*
G37*
X104434809Y-90645625D02*
X104446267Y-90657367D01*
X104459472Y-90667092D01*
X104488870Y-90683172D01*
X104529276Y-90703231D01*
X104575505Y-90724898D01*
X104622372Y-90745799D01*
X104664690Y-90763561D01*
X104697276Y-90775810D01*
X104714625Y-90780182D01*
X104725439Y-90770841D01*
X104726818Y-90762864D01*
X104736347Y-90748534D01*
X104748466Y-90745546D01*
X104765466Y-90754045D01*
X104776845Y-90780626D01*
X104783035Y-90826918D01*
X104784545Y-90880565D01*
X104783784Y-90916572D01*
X104779954Y-90934791D01*
X104770732Y-90940510D01*
X104758568Y-90939735D01*
X104740173Y-90932138D01*
X104731339Y-90911867D01*
X104729075Y-90893890D01*
X104722553Y-90862539D01*
X104705705Y-90844538D01*
X104691856Y-90837774D01*
X104674444Y-90832119D01*
X104657310Y-90832233D01*
X104635272Y-90839781D01*
X104603152Y-90856430D01*
X104564474Y-90878733D01*
X104522931Y-90904314D01*
X104489442Y-90927233D01*
X104468823Y-90944082D01*
X104464799Y-90949281D01*
X104449571Y-90962762D01*
X104438516Y-90964909D01*
X104424494Y-90958699D01*
X104415416Y-90937026D01*
X104410944Y-90911760D01*
X104407865Y-90877881D01*
X104408500Y-90853656D01*
X104410056Y-90848260D01*
X104427058Y-90838294D01*
X104447393Y-90843276D01*
X104457023Y-90855034D01*
X104464258Y-90863221D01*
X104479307Y-90861004D01*
X104507169Y-90847267D01*
X104517274Y-90841588D01*
X104556064Y-90818871D01*
X104575670Y-90803722D01*
X104577064Y-90792435D01*
X104561214Y-90781306D01*
X104536077Y-90769719D01*
X104489967Y-90751620D01*
X104461744Y-90746274D01*
X104450167Y-90753499D01*
X104449727Y-90757091D01*
X104440125Y-90766676D01*
X104428112Y-90768637D01*
X104412165Y-90762102D01*
X104402348Y-90739335D01*
X104399258Y-90723372D01*
X104396244Y-90689518D01*
X104397991Y-90663375D01*
X104399018Y-90659872D01*
X104414444Y-90643632D01*
X104434809Y-90645625D01*
G36*
X104592878Y-90993380D02*
G01*
X104635711Y-91013161D01*
X104665065Y-91044242D01*
X104673945Y-91068638D01*
X104681049Y-91108100D01*
X104686043Y-91156253D01*
X104688596Y-91206723D01*
X104688376Y-91253134D01*
X104685048Y-91289113D01*
X104678810Y-91307700D01*
X104660353Y-91316239D01*
X104641806Y-91309199D01*
X104634454Y-91292720D01*
X104628096Y-91283417D01*
X104606552Y-91278330D01*
X104566119Y-91276649D01*
X104561020Y-91276637D01*
X104483788Y-91278615D01*
X104428531Y-91284656D01*
X104394465Y-91294917D01*
X104380807Y-91309553D01*
X104380454Y-91312842D01*
X104371365Y-91329304D01*
X104351300Y-91335116D01*
X104331068Y-91327290D01*
X104330424Y-91326667D01*
X104325439Y-91311076D01*
X104322836Y-91282233D01*
X104322727Y-91274712D01*
X104322727Y-91230455D01*
X104381801Y-91230455D01*
X104416231Y-91229712D01*
X104432641Y-91225787D01*
X104436095Y-91216136D01*
X104433477Y-91204478D01*
X104421851Y-91157309D01*
X104419756Y-91132318D01*
X104472818Y-91132318D01*
X104482793Y-91165468D01*
X104507662Y-91195688D01*
X104539844Y-91215349D01*
X104558884Y-91218909D01*
X104589182Y-91210862D01*
X104611363Y-91195818D01*
X104629309Y-91163179D01*
X104631996Y-91122941D01*
X104620432Y-91083899D01*
X104595623Y-91054846D01*
X104595203Y-91054563D01*
X104564208Y-91046170D01*
X104530107Y-91054719D01*
X104499331Y-91076126D01*
X104478312Y-91106304D01*
X104472818Y-91132318D01*
X104419756Y-91132318D01*
X104418972Y-91122974D01*
X104424654Y-91093010D01*
X104430688Y-91076929D01*
X104459416Y-91033099D01*
X104499507Y-91004078D01*
X104545736Y-90990596D01*
X104592878Y-90993380D01*
X104592878Y-90993380D01*
G37*
X104592878Y-90993380D02*
X104635711Y-91013161D01*
X104665065Y-91044242D01*
X104673945Y-91068638D01*
X104681049Y-91108100D01*
X104686043Y-91156253D01*
X104688596Y-91206723D01*
X104688376Y-91253134D01*
X104685048Y-91289113D01*
X104678810Y-91307700D01*
X104660353Y-91316239D01*
X104641806Y-91309199D01*
X104634454Y-91292720D01*
X104628096Y-91283417D01*
X104606552Y-91278330D01*
X104566119Y-91276649D01*
X104561020Y-91276637D01*
X104483788Y-91278615D01*
X104428531Y-91284656D01*
X104394465Y-91294917D01*
X104380807Y-91309553D01*
X104380454Y-91312842D01*
X104371365Y-91329304D01*
X104351300Y-91335116D01*
X104331068Y-91327290D01*
X104330424Y-91326667D01*
X104325439Y-91311076D01*
X104322836Y-91282233D01*
X104322727Y-91274712D01*
X104322727Y-91230455D01*
X104381801Y-91230455D01*
X104416231Y-91229712D01*
X104432641Y-91225787D01*
X104436095Y-91216136D01*
X104433477Y-91204478D01*
X104421851Y-91157309D01*
X104419756Y-91132318D01*
X104472818Y-91132318D01*
X104482793Y-91165468D01*
X104507662Y-91195688D01*
X104539844Y-91215349D01*
X104558884Y-91218909D01*
X104589182Y-91210862D01*
X104611363Y-91195818D01*
X104629309Y-91163179D01*
X104631996Y-91122941D01*
X104620432Y-91083899D01*
X104595623Y-91054846D01*
X104595203Y-91054563D01*
X104564208Y-91046170D01*
X104530107Y-91054719D01*
X104499331Y-91076126D01*
X104478312Y-91106304D01*
X104472818Y-91132318D01*
X104419756Y-91132318D01*
X104418972Y-91122974D01*
X104424654Y-91093010D01*
X104430688Y-91076929D01*
X104459416Y-91033099D01*
X104499507Y-91004078D01*
X104545736Y-90990596D01*
X104592878Y-90993380D01*
G36*
X104699406Y-91665139D02*
G01*
X104708016Y-91679667D01*
X104712314Y-91709445D01*
X104713135Y-91721137D01*
X104716441Y-91767820D01*
X104720723Y-91820999D01*
X104722867Y-91845332D01*
X104725455Y-91883842D01*
X104722374Y-91908572D01*
X104710693Y-91928670D01*
X104688637Y-91952127D01*
X104643137Y-91983762D01*
X104593583Y-91992909D01*
X104541960Y-91979368D01*
X104523148Y-91968835D01*
X104484521Y-91931643D01*
X104465397Y-91882186D01*
X104465333Y-91845344D01*
X104519000Y-91845344D01*
X104527853Y-91884555D01*
X104550714Y-91913923D01*
X104582032Y-91930711D01*
X104616258Y-91932180D01*
X104647841Y-91915591D01*
X104652256Y-91911102D01*
X104669934Y-91877658D01*
X104671971Y-91839601D01*
X104660607Y-91803347D01*
X104638077Y-91775311D01*
X104606621Y-91761909D01*
X104600096Y-91761546D01*
X104567008Y-91771725D01*
X104538196Y-91797206D01*
X104520997Y-91830406D01*
X104519000Y-91845344D01*
X104465333Y-91845344D01*
X104465297Y-91824740D01*
X104468770Y-91793051D01*
X104465859Y-91777991D01*
X104453858Y-91773394D01*
X104442653Y-91773091D01*
X104415933Y-91780932D01*
X104406891Y-91796182D01*
X104393369Y-91814969D01*
X104380371Y-91819273D01*
X104364959Y-91812005D01*
X104356182Y-91787383D01*
X104354463Y-91775978D01*
X104352104Y-91745638D01*
X104353194Y-91725898D01*
X104353882Y-91724023D01*
X104367198Y-91719163D01*
X104396149Y-91716022D01*
X104419803Y-91715364D01*
X104463283Y-91714317D01*
X104517691Y-91711577D01*
X104569212Y-91707897D01*
X104614361Y-91703379D01*
X104641052Y-91698245D01*
X104653898Y-91690945D01*
X104657513Y-91679931D01*
X104657545Y-91678230D01*
X104663683Y-91661553D01*
X104683523Y-91659720D01*
X104699406Y-91665139D01*
X104699406Y-91665139D01*
G37*
X104699406Y-91665139D02*
X104708016Y-91679667D01*
X104712314Y-91709445D01*
X104713135Y-91721137D01*
X104716441Y-91767820D01*
X104720723Y-91820999D01*
X104722867Y-91845332D01*
X104725455Y-91883842D01*
X104722374Y-91908572D01*
X104710693Y-91928670D01*
X104688637Y-91952127D01*
X104643137Y-91983762D01*
X104593583Y-91992909D01*
X104541960Y-91979368D01*
X104523148Y-91968835D01*
X104484521Y-91931643D01*
X104465397Y-91882186D01*
X104465333Y-91845344D01*
X104519000Y-91845344D01*
X104527853Y-91884555D01*
X104550714Y-91913923D01*
X104582032Y-91930711D01*
X104616258Y-91932180D01*
X104647841Y-91915591D01*
X104652256Y-91911102D01*
X104669934Y-91877658D01*
X104671971Y-91839601D01*
X104660607Y-91803347D01*
X104638077Y-91775311D01*
X104606621Y-91761909D01*
X104600096Y-91761546D01*
X104567008Y-91771725D01*
X104538196Y-91797206D01*
X104520997Y-91830406D01*
X104519000Y-91845344D01*
X104465333Y-91845344D01*
X104465297Y-91824740D01*
X104468770Y-91793051D01*
X104465859Y-91777991D01*
X104453858Y-91773394D01*
X104442653Y-91773091D01*
X104415933Y-91780932D01*
X104406891Y-91796182D01*
X104393369Y-91814969D01*
X104380371Y-91819273D01*
X104364959Y-91812005D01*
X104356182Y-91787383D01*
X104354463Y-91775978D01*
X104352104Y-91745638D01*
X104353194Y-91725898D01*
X104353882Y-91724023D01*
X104367198Y-91719163D01*
X104396149Y-91716022D01*
X104419803Y-91715364D01*
X104463283Y-91714317D01*
X104517691Y-91711577D01*
X104569212Y-91707897D01*
X104614361Y-91703379D01*
X104641052Y-91698245D01*
X104653898Y-91690945D01*
X104657513Y-91679931D01*
X104657545Y-91678230D01*
X104663683Y-91661553D01*
X104683523Y-91659720D01*
X104699406Y-91665139D01*
G36*
X104623014Y-92046296D02*
G01*
X104632056Y-92072163D01*
X104637872Y-92116946D01*
X104640789Y-92154091D01*
X104645119Y-92202528D01*
X104650260Y-92240963D01*
X104655458Y-92264517D01*
X104658626Y-92269546D01*
X104670872Y-92260544D01*
X104681537Y-92244771D01*
X104688752Y-92215830D01*
X104687930Y-92169657D01*
X104678986Y-92104421D01*
X104673616Y-92075165D01*
X104670123Y-92049422D01*
X104675821Y-92039951D01*
X104693287Y-92040529D01*
X104715991Y-92054868D01*
X104733785Y-92088386D01*
X104745279Y-92137443D01*
X104749022Y-92186414D01*
X104740890Y-92244023D01*
X104716701Y-92290088D01*
X104680115Y-92322130D01*
X104634792Y-92337665D01*
X104584393Y-92334212D01*
X104550895Y-92320745D01*
X104514746Y-92289158D01*
X104492551Y-92245143D01*
X104484255Y-92194597D01*
X104486004Y-92178467D01*
X104537022Y-92178467D01*
X104537960Y-92203438D01*
X104547119Y-92229137D01*
X104563013Y-92259860D01*
X104575302Y-92267981D01*
X104583683Y-92253750D01*
X104587851Y-92217418D01*
X104588273Y-92195182D01*
X104585932Y-92147428D01*
X104579282Y-92120359D01*
X104568883Y-92114629D01*
X104555292Y-92130889D01*
X104547467Y-92147487D01*
X104537022Y-92178467D01*
X104486004Y-92178467D01*
X104489807Y-92143415D01*
X104509153Y-92097492D01*
X104542242Y-92062723D01*
X104553258Y-92056150D01*
X104585942Y-92040893D01*
X104608418Y-92036741D01*
X104623014Y-92046296D01*
X104623014Y-92046296D01*
G37*
X104623014Y-92046296D02*
X104632056Y-92072163D01*
X104637872Y-92116946D01*
X104640789Y-92154091D01*
X104645119Y-92202528D01*
X104650260Y-92240963D01*
X104655458Y-92264517D01*
X104658626Y-92269546D01*
X104670872Y-92260544D01*
X104681537Y-92244771D01*
X104688752Y-92215830D01*
X104687930Y-92169657D01*
X104678986Y-92104421D01*
X104673616Y-92075165D01*
X104670123Y-92049422D01*
X104675821Y-92039951D01*
X104693287Y-92040529D01*
X104715991Y-92054868D01*
X104733785Y-92088386D01*
X104745279Y-92137443D01*
X104749022Y-92186414D01*
X104740890Y-92244023D01*
X104716701Y-92290088D01*
X104680115Y-92322130D01*
X104634792Y-92337665D01*
X104584393Y-92334212D01*
X104550895Y-92320745D01*
X104514746Y-92289158D01*
X104492551Y-92245143D01*
X104484255Y-92194597D01*
X104486004Y-92178467D01*
X104537022Y-92178467D01*
X104537960Y-92203438D01*
X104547119Y-92229137D01*
X104563013Y-92259860D01*
X104575302Y-92267981D01*
X104583683Y-92253750D01*
X104587851Y-92217418D01*
X104588273Y-92195182D01*
X104585932Y-92147428D01*
X104579282Y-92120359D01*
X104568883Y-92114629D01*
X104555292Y-92130889D01*
X104547467Y-92147487D01*
X104537022Y-92178467D01*
X104486004Y-92178467D01*
X104489807Y-92143415D01*
X104509153Y-92097492D01*
X104542242Y-92062723D01*
X104553258Y-92056150D01*
X104585942Y-92040893D01*
X104608418Y-92036741D01*
X104623014Y-92046296D01*
G36*
X104730183Y-92374897D02*
G01*
X104748380Y-92402077D01*
X104762828Y-92439950D01*
X104771104Y-92484472D01*
X104772121Y-92502062D01*
X104766992Y-92545632D01*
X104747747Y-92575353D01*
X104711818Y-92593403D01*
X104656634Y-92601959D01*
X104653947Y-92602137D01*
X104612660Y-92605619D01*
X104589147Y-92610766D01*
X104578090Y-92619551D01*
X104574473Y-92631646D01*
X104564232Y-92651501D01*
X104546063Y-92660931D01*
X104528261Y-92658613D01*
X104519121Y-92643222D01*
X104519000Y-92640500D01*
X104514080Y-92624320D01*
X104495439Y-92616192D01*
X104475704Y-92613720D01*
X104446242Y-92608632D01*
X104433953Y-92597604D01*
X104432409Y-92587046D01*
X104438448Y-92569739D01*
X104460208Y-92561538D01*
X104469932Y-92560337D01*
X104507454Y-92556719D01*
X104507454Y-92482405D01*
X104508252Y-92441888D01*
X104511637Y-92419378D01*
X104519096Y-92409817D01*
X104529310Y-92408091D01*
X104548560Y-92414198D01*
X104559915Y-92434769D01*
X104564757Y-92473177D01*
X104565182Y-92495626D01*
X104565182Y-92546637D01*
X104621965Y-92546637D01*
X104659211Y-92545263D01*
X104688640Y-92541782D01*
X104697010Y-92539629D01*
X104711187Y-92522806D01*
X104714545Y-92490951D01*
X104707052Y-92449447D01*
X104697689Y-92422994D01*
X104687310Y-92389228D01*
X104691168Y-92369956D01*
X104692234Y-92368784D01*
X104710660Y-92362451D01*
X104730183Y-92374897D01*
X104730183Y-92374897D01*
G37*
X104730183Y-92374897D02*
X104748380Y-92402077D01*
X104762828Y-92439950D01*
X104771104Y-92484472D01*
X104772121Y-92502062D01*
X104766992Y-92545632D01*
X104747747Y-92575353D01*
X104711818Y-92593403D01*
X104656634Y-92601959D01*
X104653947Y-92602137D01*
X104612660Y-92605619D01*
X104589147Y-92610766D01*
X104578090Y-92619551D01*
X104574473Y-92631646D01*
X104564232Y-92651501D01*
X104546063Y-92660931D01*
X104528261Y-92658613D01*
X104519121Y-92643222D01*
X104519000Y-92640500D01*
X104514080Y-92624320D01*
X104495439Y-92616192D01*
X104475704Y-92613720D01*
X104446242Y-92608632D01*
X104433953Y-92597604D01*
X104432409Y-92587046D01*
X104438448Y-92569739D01*
X104460208Y-92561538D01*
X104469932Y-92560337D01*
X104507454Y-92556719D01*
X104507454Y-92482405D01*
X104508252Y-92441888D01*
X104511637Y-92419378D01*
X104519096Y-92409817D01*
X104529310Y-92408091D01*
X104548560Y-92414198D01*
X104559915Y-92434769D01*
X104564757Y-92473177D01*
X104565182Y-92495626D01*
X104565182Y-92546637D01*
X104621965Y-92546637D01*
X104659211Y-92545263D01*
X104688640Y-92541782D01*
X104697010Y-92539629D01*
X104711187Y-92522806D01*
X104714545Y-92490951D01*
X104707052Y-92449447D01*
X104697689Y-92422994D01*
X104687310Y-92389228D01*
X104691168Y-92369956D01*
X104692234Y-92368784D01*
X104710660Y-92362451D01*
X104730183Y-92374897D01*
G36*
X104462186Y-92740897D02*
G01*
X104470854Y-92766798D01*
X104472818Y-92796304D01*
X104477279Y-92844826D01*
X104489748Y-92878028D01*
X104508849Y-92892608D01*
X104513057Y-92893000D01*
X104523516Y-92885274D01*
X104529995Y-92860042D01*
X104532855Y-92826614D01*
X104536612Y-92786682D01*
X104543400Y-92765863D01*
X104553636Y-92760228D01*
X104566735Y-92770082D01*
X104577276Y-92800697D01*
X104581325Y-92821366D01*
X104591695Y-92882505D01*
X104656370Y-92879094D01*
X104721045Y-92875682D01*
X104724535Y-92815068D01*
X104728033Y-92778835D01*
X104734557Y-92760422D01*
X104746252Y-92754578D01*
X104749277Y-92754455D01*
X104764383Y-92757674D01*
X104774561Y-92769707D01*
X104780714Y-92794119D01*
X104783741Y-92834475D01*
X104784545Y-92893945D01*
X104784153Y-92943046D01*
X104782315Y-92973474D01*
X104778043Y-92989645D01*
X104770346Y-92995970D01*
X104761454Y-92996909D01*
X104743194Y-92989963D01*
X104738363Y-92968727D01*
X104736214Y-92947391D01*
X104726598Y-92935817D01*
X104704759Y-92932124D01*
X104665943Y-92934434D01*
X104654491Y-92935578D01*
X104617289Y-92940394D01*
X104597274Y-92947086D01*
X104588579Y-92958809D01*
X104586003Y-92972385D01*
X104576343Y-92999056D01*
X104560173Y-93006419D01*
X104544058Y-92994199D01*
X104536459Y-92974461D01*
X104526935Y-92949050D01*
X104508947Y-92939857D01*
X104496781Y-92939182D01*
X104464889Y-92930890D01*
X104443792Y-92915912D01*
X104428440Y-92886805D01*
X104419251Y-92845798D01*
X104417007Y-92802121D01*
X104422489Y-92765000D01*
X104429742Y-92749805D01*
X104447978Y-92734690D01*
X104462186Y-92740897D01*
X104462186Y-92740897D01*
G37*
X104462186Y-92740897D02*
X104470854Y-92766798D01*
X104472818Y-92796304D01*
X104477279Y-92844826D01*
X104489748Y-92878028D01*
X104508849Y-92892608D01*
X104513057Y-92893000D01*
X104523516Y-92885274D01*
X104529995Y-92860042D01*
X104532855Y-92826614D01*
X104536612Y-92786682D01*
X104543400Y-92765863D01*
X104553636Y-92760228D01*
X104566735Y-92770082D01*
X104577276Y-92800697D01*
X104581325Y-92821366D01*
X104591695Y-92882505D01*
X104656370Y-92879094D01*
X104721045Y-92875682D01*
X104724535Y-92815068D01*
X104728033Y-92778835D01*
X104734557Y-92760422D01*
X104746252Y-92754578D01*
X104749277Y-92754455D01*
X104764383Y-92757674D01*
X104774561Y-92769707D01*
X104780714Y-92794119D01*
X104783741Y-92834475D01*
X104784545Y-92893945D01*
X104784153Y-92943046D01*
X104782315Y-92973474D01*
X104778043Y-92989645D01*
X104770346Y-92995970D01*
X104761454Y-92996909D01*
X104743194Y-92989963D01*
X104738363Y-92968727D01*
X104736214Y-92947391D01*
X104726598Y-92935817D01*
X104704759Y-92932124D01*
X104665943Y-92934434D01*
X104654491Y-92935578D01*
X104617289Y-92940394D01*
X104597274Y-92947086D01*
X104588579Y-92958809D01*
X104586003Y-92972385D01*
X104576343Y-92999056D01*
X104560173Y-93006419D01*
X104544058Y-92994199D01*
X104536459Y-92974461D01*
X104526935Y-92949050D01*
X104508947Y-92939857D01*
X104496781Y-92939182D01*
X104464889Y-92930890D01*
X104443792Y-92915912D01*
X104428440Y-92886805D01*
X104419251Y-92845798D01*
X104417007Y-92802121D01*
X104422489Y-92765000D01*
X104429742Y-92749805D01*
X104447978Y-92734690D01*
X104462186Y-92740897D01*
G36*
X104783532Y-93069339D02*
G01*
X104791723Y-93082170D01*
X104797232Y-93109718D01*
X104800404Y-93138341D01*
X104805426Y-93186029D01*
X104810925Y-93232260D01*
X104814243Y-93256805D01*
X104812553Y-93301597D01*
X104796022Y-93336593D01*
X104769064Y-93359030D01*
X104736091Y-93366147D01*
X104701516Y-93355182D01*
X104682373Y-93339349D01*
X104655935Y-93298063D01*
X104638887Y-93244854D01*
X104634454Y-93202280D01*
X104632566Y-93188863D01*
X104692799Y-93188863D01*
X104694886Y-93220721D01*
X104695034Y-93222039D01*
X104703473Y-93261490D01*
X104716897Y-93290277D01*
X104732322Y-93305837D01*
X104746766Y-93305607D01*
X104757244Y-93287025D01*
X104759216Y-93277163D01*
X104757295Y-93247796D01*
X104746592Y-93215101D01*
X104730831Y-93186950D01*
X104713735Y-93171217D01*
X104708587Y-93170091D01*
X104696880Y-93173852D01*
X104692799Y-93188863D01*
X104632566Y-93188863D01*
X104631353Y-93180254D01*
X104619941Y-93176633D01*
X104615738Y-93177998D01*
X104604479Y-93187248D01*
X104601273Y-93207123D01*
X104604145Y-93238249D01*
X104609147Y-93275781D01*
X104613225Y-93306815D01*
X104614202Y-93314404D01*
X104608968Y-93334371D01*
X104591897Y-93341087D01*
X104573920Y-93339200D01*
X104562021Y-93323522D01*
X104554438Y-93300684D01*
X104542552Y-93234028D01*
X104548272Y-93182244D01*
X104571849Y-93144981D01*
X104613531Y-93121883D01*
X104673566Y-93112596D01*
X104686785Y-93112364D01*
X104719567Y-93110055D01*
X104736118Y-93101289D01*
X104741709Y-93089273D01*
X104756585Y-93069993D01*
X104770574Y-93066182D01*
X104783532Y-93069339D01*
X104783532Y-93069339D01*
G37*
X104783532Y-93069339D02*
X104791723Y-93082170D01*
X104797232Y-93109718D01*
X104800404Y-93138341D01*
X104805426Y-93186029D01*
X104810925Y-93232260D01*
X104814243Y-93256805D01*
X104812553Y-93301597D01*
X104796022Y-93336593D01*
X104769064Y-93359030D01*
X104736091Y-93366147D01*
X104701516Y-93355182D01*
X104682373Y-93339349D01*
X104655935Y-93298063D01*
X104638887Y-93244854D01*
X104634454Y-93202280D01*
X104632566Y-93188863D01*
X104692799Y-93188863D01*
X104694886Y-93220721D01*
X104695034Y-93222039D01*
X104703473Y-93261490D01*
X104716897Y-93290277D01*
X104732322Y-93305837D01*
X104746766Y-93305607D01*
X104757244Y-93287025D01*
X104759216Y-93277163D01*
X104757295Y-93247796D01*
X104746592Y-93215101D01*
X104730831Y-93186950D01*
X104713735Y-93171217D01*
X104708587Y-93170091D01*
X104696880Y-93173852D01*
X104692799Y-93188863D01*
X104632566Y-93188863D01*
X104631353Y-93180254D01*
X104619941Y-93176633D01*
X104615738Y-93177998D01*
X104604479Y-93187248D01*
X104601273Y-93207123D01*
X104604145Y-93238249D01*
X104609147Y-93275781D01*
X104613225Y-93306815D01*
X104614202Y-93314404D01*
X104608968Y-93334371D01*
X104591897Y-93341087D01*
X104573920Y-93339200D01*
X104562021Y-93323522D01*
X104554438Y-93300684D01*
X104542552Y-93234028D01*
X104548272Y-93182244D01*
X104571849Y-93144981D01*
X104613531Y-93121883D01*
X104673566Y-93112596D01*
X104686785Y-93112364D01*
X104719567Y-93110055D01*
X104736118Y-93101289D01*
X104741709Y-93089273D01*
X104756585Y-93069993D01*
X104770574Y-93066182D01*
X104783532Y-93069339D01*
G36*
X104629066Y-93427227D02*
G01*
X104632732Y-93440850D01*
X104629276Y-93465392D01*
X104627005Y-93496941D01*
X104636485Y-93523994D01*
X104652153Y-93546843D01*
X104674816Y-93572570D01*
X104696027Y-93583112D01*
X104725002Y-93583474D01*
X104767227Y-93579955D01*
X104770717Y-93519341D01*
X104774247Y-93483037D01*
X104780828Y-93464599D01*
X104792561Y-93458824D01*
X104795183Y-93458728D01*
X104810370Y-93466812D01*
X104821064Y-93492196D01*
X104827632Y-93536577D01*
X104830439Y-93601652D01*
X104830600Y-93623250D01*
X104830015Y-93664771D01*
X104827089Y-93688245D01*
X104820321Y-93698704D01*
X104808211Y-93701178D01*
X104807348Y-93701182D01*
X104788088Y-93693463D01*
X104777252Y-93667528D01*
X104776819Y-93665436D01*
X104769501Y-93641049D01*
X104755959Y-93633866D01*
X104735255Y-93636572D01*
X104697262Y-93641818D01*
X104667648Y-93643455D01*
X104643565Y-93646891D01*
X104635063Y-93661256D01*
X104634454Y-93672318D01*
X104628638Y-93695381D01*
X104613288Y-93701182D01*
X104591335Y-93697413D01*
X104584424Y-93693485D01*
X104578341Y-93676237D01*
X104576605Y-93647428D01*
X104578719Y-93616194D01*
X104584185Y-93591670D01*
X104590442Y-93583080D01*
X104596431Y-93573331D01*
X104585363Y-93551681D01*
X104584670Y-93550685D01*
X104567768Y-93513721D01*
X104565276Y-93476914D01*
X104575789Y-93446140D01*
X104597901Y-93427269D01*
X104614957Y-93424091D01*
X104629066Y-93427227D01*
X104629066Y-93427227D01*
G37*
X104629066Y-93427227D02*
X104632732Y-93440850D01*
X104629276Y-93465392D01*
X104627005Y-93496941D01*
X104636485Y-93523994D01*
X104652153Y-93546843D01*
X104674816Y-93572570D01*
X104696027Y-93583112D01*
X104725002Y-93583474D01*
X104767227Y-93579955D01*
X104770717Y-93519341D01*
X104774247Y-93483037D01*
X104780828Y-93464599D01*
X104792561Y-93458824D01*
X104795183Y-93458728D01*
X104810370Y-93466812D01*
X104821064Y-93492196D01*
X104827632Y-93536577D01*
X104830439Y-93601652D01*
X104830600Y-93623250D01*
X104830015Y-93664771D01*
X104827089Y-93688245D01*
X104820321Y-93698704D01*
X104808211Y-93701178D01*
X104807348Y-93701182D01*
X104788088Y-93693463D01*
X104777252Y-93667528D01*
X104776819Y-93665436D01*
X104769501Y-93641049D01*
X104755959Y-93633866D01*
X104735255Y-93636572D01*
X104697262Y-93641818D01*
X104667648Y-93643455D01*
X104643565Y-93646891D01*
X104635063Y-93661256D01*
X104634454Y-93672318D01*
X104628638Y-93695381D01*
X104613288Y-93701182D01*
X104591335Y-93697413D01*
X104584424Y-93693485D01*
X104578341Y-93676237D01*
X104576605Y-93647428D01*
X104578719Y-93616194D01*
X104584185Y-93591670D01*
X104590442Y-93583080D01*
X104596431Y-93573331D01*
X104585363Y-93551681D01*
X104584670Y-93550685D01*
X104567768Y-93513721D01*
X104565276Y-93476914D01*
X104575789Y-93446140D01*
X104597901Y-93427269D01*
X104614957Y-93424091D01*
X104629066Y-93427227D01*
G36*
X104781218Y-93761022D02*
G01*
X104807419Y-93776622D01*
X104830500Y-93808863D01*
X104847086Y-93851298D01*
X104853802Y-93897478D01*
X104853818Y-93899735D01*
X104845303Y-93965391D01*
X104819877Y-94015348D01*
X104777718Y-94049437D01*
X104719002Y-94067487D01*
X104674863Y-94070550D01*
X104615739Y-94065680D01*
X104572581Y-94050353D01*
X104569396Y-94048480D01*
X104534995Y-94015747D01*
X104510763Y-93970117D01*
X104500074Y-93920267D01*
X104504228Y-93880817D01*
X104509759Y-93850519D01*
X104507396Y-93828284D01*
X104506661Y-93826898D01*
X104503641Y-93806273D01*
X104520585Y-93790909D01*
X104554601Y-93782782D01*
X104572368Y-93782000D01*
X104604257Y-93783579D01*
X104619117Y-93790151D01*
X104622903Y-93804470D01*
X104622909Y-93805377D01*
X104612483Y-93828326D01*
X104595115Y-93839321D01*
X104570527Y-93859521D01*
X104558498Y-93891959D01*
X104558668Y-93929733D01*
X104570678Y-93965942D01*
X104594166Y-93993686D01*
X104603466Y-93999360D01*
X104653055Y-94014489D01*
X104704168Y-94014075D01*
X104748908Y-93998832D01*
X104767752Y-93984570D01*
X104789976Y-93947457D01*
X104797047Y-93901252D01*
X104788746Y-93854476D01*
X104771895Y-93823627D01*
X104756718Y-93795556D01*
X104756038Y-93772798D01*
X104769022Y-93760952D01*
X104781218Y-93761022D01*
X104781218Y-93761022D01*
G37*
X104781218Y-93761022D02*
X104807419Y-93776622D01*
X104830500Y-93808863D01*
X104847086Y-93851298D01*
X104853802Y-93897478D01*
X104853818Y-93899735D01*
X104845303Y-93965391D01*
X104819877Y-94015348D01*
X104777718Y-94049437D01*
X104719002Y-94067487D01*
X104674863Y-94070550D01*
X104615739Y-94065680D01*
X104572581Y-94050353D01*
X104569396Y-94048480D01*
X104534995Y-94015747D01*
X104510763Y-93970117D01*
X104500074Y-93920267D01*
X104504228Y-93880817D01*
X104509759Y-93850519D01*
X104507396Y-93828284D01*
X104506661Y-93826898D01*
X104503641Y-93806273D01*
X104520585Y-93790909D01*
X104554601Y-93782782D01*
X104572368Y-93782000D01*
X104604257Y-93783579D01*
X104619117Y-93790151D01*
X104622903Y-93804470D01*
X104622909Y-93805377D01*
X104612483Y-93828326D01*
X104595115Y-93839321D01*
X104570527Y-93859521D01*
X104558498Y-93891959D01*
X104558668Y-93929733D01*
X104570678Y-93965942D01*
X104594166Y-93993686D01*
X104603466Y-93999360D01*
X104653055Y-94014489D01*
X104704168Y-94014075D01*
X104748908Y-93998832D01*
X104767752Y-93984570D01*
X104789976Y-93947457D01*
X104797047Y-93901252D01*
X104788746Y-93854476D01*
X104771895Y-93823627D01*
X104756718Y-93795556D01*
X104756038Y-93772798D01*
X104769022Y-93760952D01*
X104781218Y-93761022D01*
G36*
X106873658Y-85337081D02*
G01*
X106990446Y-85337783D01*
X107095699Y-85338914D01*
X107186945Y-85340493D01*
X107261710Y-85342537D01*
X107317521Y-85345064D01*
X107324545Y-85345516D01*
X107479431Y-85358925D01*
X107633138Y-85377706D01*
X107779902Y-85400969D01*
X107913958Y-85427822D01*
X108006649Y-85450869D01*
X108096175Y-85479119D01*
X108164719Y-85509591D01*
X108214393Y-85544215D01*
X108247303Y-85584923D01*
X108265560Y-85633646D01*
X108271272Y-85692315D01*
X108271273Y-85693190D01*
X108269047Y-85724125D01*
X108262845Y-85773036D01*
X108253377Y-85835288D01*
X108241354Y-85906247D01*
X108227486Y-85981278D01*
X108225591Y-85991059D01*
X108210248Y-86070508D01*
X108195067Y-86150399D01*
X108181126Y-86224964D01*
X108169502Y-86288434D01*
X108161275Y-86335042D01*
X108161251Y-86335182D01*
X108153314Y-86379778D01*
X108141785Y-86441792D01*
X108127659Y-86516011D01*
X108111930Y-86597222D01*
X108095595Y-86680212D01*
X108090733Y-86704637D01*
X108069065Y-86816761D01*
X108044749Y-86948953D01*
X108018231Y-87098396D01*
X107989959Y-87262276D01*
X107960381Y-87437776D01*
X107929945Y-87622082D01*
X107899099Y-87812379D01*
X107868289Y-88005850D01*
X107837964Y-88199681D01*
X107808572Y-88391056D01*
X107780560Y-88577160D01*
X107754375Y-88755178D01*
X107730467Y-88922294D01*
X107709281Y-89075693D01*
X107691266Y-89212560D01*
X107688663Y-89233091D01*
X107680494Y-89300740D01*
X107670475Y-89388339D01*
X107658920Y-89492848D01*
X107646141Y-89611229D01*
X107632453Y-89740442D01*
X107618169Y-89877448D01*
X107603603Y-90019208D01*
X107589067Y-90162682D01*
X107574876Y-90304832D01*
X107561343Y-90442617D01*
X107548781Y-90572998D01*
X107537504Y-90692937D01*
X107532672Y-90745546D01*
X107525490Y-90824435D01*
X107518696Y-90899054D01*
X107512678Y-90965132D01*
X107507825Y-91018398D01*
X107504526Y-91054581D01*
X107503753Y-91063046D01*
X107500654Y-91101324D01*
X107496954Y-91153455D01*
X107493294Y-91210234D01*
X107492086Y-91230455D01*
X107488484Y-91291997D01*
X107484630Y-91357441D01*
X107481228Y-91414834D01*
X107480518Y-91426728D01*
X107478170Y-91470743D01*
X107475362Y-91530700D01*
X107472408Y-91599459D01*
X107469627Y-91669884D01*
X107469011Y-91686500D01*
X107466186Y-91763010D01*
X107463072Y-91846110D01*
X107460034Y-91926172D01*
X107457433Y-91993572D01*
X107457251Y-91998228D01*
X107455112Y-92055874D01*
X107452547Y-92129753D01*
X107449786Y-92213013D01*
X107447055Y-92298804D01*
X107444956Y-92367682D01*
X107442552Y-92441177D01*
X107439918Y-92509230D01*
X107437255Y-92567533D01*
X107434760Y-92611777D01*
X107432632Y-92637655D01*
X107432456Y-92639000D01*
X107431304Y-92657829D01*
X107430008Y-92697529D01*
X107428605Y-92755883D01*
X107427134Y-92830673D01*
X107425633Y-92919680D01*
X107424141Y-93020686D01*
X107422694Y-93131474D01*
X107421332Y-93249823D01*
X107420435Y-93337500D01*
X107419099Y-93477618D01*
X107418061Y-93596621D01*
X107417367Y-93696485D01*
X107417062Y-93779184D01*
X107417192Y-93846693D01*
X107417803Y-93900988D01*
X107418940Y-93944043D01*
X107420649Y-93977834D01*
X107422976Y-94004335D01*
X107425967Y-94025521D01*
X107429666Y-94043367D01*
X107434121Y-94059848D01*
X107437403Y-94070637D01*
X107459735Y-94136047D01*
X107489903Y-94215263D01*
X107525843Y-94303616D01*
X107565489Y-94396436D01*
X107606778Y-94489051D01*
X107647645Y-94576793D01*
X107686025Y-94654992D01*
X107719853Y-94718976D01*
X107737244Y-94748827D01*
X107775763Y-94820633D01*
X107797446Y-94886648D01*
X107802321Y-94951668D01*
X107790419Y-95020483D01*
X107761766Y-95097890D01*
X107739634Y-95144364D01*
X107699242Y-95212609D01*
X107650623Y-95270068D01*
X107588514Y-95322180D01*
X107529802Y-95361093D01*
X107399448Y-95430628D01*
X107250117Y-95491598D01*
X107084571Y-95543219D01*
X106905576Y-95584706D01*
X106715893Y-95615275D01*
X106585636Y-95629136D01*
X106506395Y-95634111D01*
X106409708Y-95637375D01*
X106301153Y-95638975D01*
X106186307Y-95638959D01*
X106070748Y-95637373D01*
X105960053Y-95634264D01*
X105859801Y-95629680D01*
X105775570Y-95623666D01*
X105760136Y-95622196D01*
X105688649Y-95613919D01*
X105611268Y-95603204D01*
X105538304Y-95591564D01*
X105489834Y-95582559D01*
X105396813Y-95560158D01*
X105290806Y-95528953D01*
X105178969Y-95491437D01*
X105068453Y-95450101D01*
X105063926Y-95448208D01*
X105285034Y-95448208D01*
X105292476Y-95453605D01*
X105317911Y-95462824D01*
X105356808Y-95474607D01*
X105404634Y-95487694D01*
X105456858Y-95500826D01*
X105508949Y-95512743D01*
X105540773Y-95519277D01*
X105638419Y-95536169D01*
X105738154Y-95549084D01*
X105843970Y-95558274D01*
X105959856Y-95563989D01*
X106089802Y-95566483D01*
X106237799Y-95566006D01*
X106273909Y-95565516D01*
X106360541Y-95564027D01*
X106441093Y-95562317D01*
X106512249Y-95560481D01*
X106570693Y-95558615D01*
X106613110Y-95556815D01*
X106636184Y-95555177D01*
X106637591Y-95554981D01*
X106665698Y-95550716D01*
X106708238Y-95544517D01*
X106756769Y-95537613D01*
X106764591Y-95536515D01*
X106857370Y-95520797D01*
X106957116Y-95499137D01*
X107059376Y-95472903D01*
X107159694Y-95443460D01*
X107253618Y-95412175D01*
X107336693Y-95380414D01*
X107404464Y-95349543D01*
X107440333Y-95329246D01*
X107459547Y-95315641D01*
X107462487Y-95310507D01*
X107457318Y-95311793D01*
X107283535Y-95371018D01*
X107122933Y-95419156D01*
X106970174Y-95457117D01*
X106819921Y-95485811D01*
X106666836Y-95506148D01*
X106505583Y-95519039D01*
X106330825Y-95525394D01*
X106198863Y-95526443D01*
X106039274Y-95524501D01*
X105886838Y-95519305D01*
X105744611Y-95511080D01*
X105615650Y-95500049D01*
X105503010Y-95486440D01*
X105409747Y-95470475D01*
X105394906Y-95467292D01*
X105348694Y-95457536D01*
X105311766Y-95450753D01*
X105289316Y-95447845D01*
X105285034Y-95448208D01*
X105063926Y-95448208D01*
X104966414Y-95407438D01*
X104905773Y-95379067D01*
X104847136Y-95349061D01*
X104803915Y-95323809D01*
X104770228Y-95299135D01*
X104740196Y-95270868D01*
X104716490Y-95244750D01*
X104651315Y-95155679D01*
X104606402Y-95062364D01*
X104605895Y-95060334D01*
X104842366Y-95060334D01*
X104850797Y-95142558D01*
X104855529Y-95163695D01*
X104862841Y-95189239D01*
X104872462Y-95207459D01*
X104889045Y-95222589D01*
X104917245Y-95238859D01*
X104961716Y-95260501D01*
X104962325Y-95260791D01*
X105060810Y-95301539D01*
X105177330Y-95339539D01*
X105306881Y-95373587D01*
X105444457Y-95402479D01*
X105585055Y-95425010D01*
X105697764Y-95437775D01*
X105768906Y-95442933D01*
X105855567Y-95447168D01*
X105953416Y-95450449D01*
X106058118Y-95452742D01*
X106165341Y-95454014D01*
X106270749Y-95454234D01*
X106370011Y-95453369D01*
X106458793Y-95451386D01*
X106532760Y-95448254D01*
X106583205Y-95444411D01*
X106692211Y-95430609D01*
X106813046Y-95411178D01*
X106935673Y-95387907D01*
X107050054Y-95362585D01*
X107070790Y-95357499D01*
X107111256Y-95346582D01*
X107162573Y-95331562D01*
X107220399Y-95313847D01*
X107280394Y-95294846D01*
X107338216Y-95275967D01*
X107389524Y-95258618D01*
X107429977Y-95244209D01*
X107455234Y-95234148D01*
X107461277Y-95230796D01*
X107466568Y-95215515D01*
X107472746Y-95182253D01*
X107479245Y-95136074D01*
X107485500Y-95082043D01*
X107490946Y-95025224D01*
X107495018Y-94970682D01*
X107497150Y-94923481D01*
X107497333Y-94907682D01*
X107495035Y-94852387D01*
X107488959Y-94792873D01*
X107479992Y-94733334D01*
X107469017Y-94677965D01*
X107456920Y-94630959D01*
X107444585Y-94596509D01*
X107432899Y-94578810D01*
X107427660Y-94577528D01*
X107410453Y-94582674D01*
X107376352Y-94593084D01*
X107330516Y-94607177D01*
X107284949Y-94621252D01*
X107151467Y-94657857D01*
X107007271Y-94689168D01*
X106862849Y-94713160D01*
X106735727Y-94727274D01*
X106691170Y-94729774D01*
X106630556Y-94731740D01*
X106557522Y-94733184D01*
X106475709Y-94734115D01*
X106388755Y-94734543D01*
X106300299Y-94734480D01*
X106213981Y-94733934D01*
X106133439Y-94732916D01*
X106062312Y-94731437D01*
X106004240Y-94729506D01*
X105962861Y-94727135D01*
X105944863Y-94725052D01*
X105912052Y-94719876D01*
X105869868Y-94714499D01*
X105852500Y-94712608D01*
X105816330Y-94708907D01*
X105765081Y-94703648D01*
X105706644Y-94697640D01*
X105667773Y-94693638D01*
X105531383Y-94675099D01*
X105377623Y-94646005D01*
X105209333Y-94606968D01*
X105029352Y-94558602D01*
X104991897Y-94547774D01*
X104978776Y-94552709D01*
X104963051Y-94575399D01*
X104944118Y-94617126D01*
X104921374Y-94679174D01*
X104901307Y-94740273D01*
X104867361Y-94861600D01*
X104847800Y-94967484D01*
X104842366Y-95060334D01*
X104605895Y-95060334D01*
X104582593Y-94967194D01*
X104580733Y-94872556D01*
X104581774Y-94863309D01*
X104591543Y-94824027D01*
X104613079Y-94766323D01*
X104645852Y-94691323D01*
X104689338Y-94600153D01*
X104743007Y-94493937D01*
X104806334Y-94373801D01*
X104817296Y-94353535D01*
X105084727Y-94353535D01*
X105094680Y-94365849D01*
X105121549Y-94384400D01*
X105160851Y-94406751D01*
X105208103Y-94430467D01*
X105258821Y-94453110D01*
X105292545Y-94466481D01*
X105369637Y-94492924D01*
X105451779Y-94516191D01*
X105542083Y-94536868D01*
X105643661Y-94555540D01*
X105759624Y-94572790D01*
X105893084Y-94589205D01*
X106014136Y-94602087D01*
X106068059Y-94607598D01*
X106115198Y-94612566D01*
X106149735Y-94616369D01*
X106164227Y-94618132D01*
X106191419Y-94620073D01*
X106236915Y-94621288D01*
X106295945Y-94621827D01*
X106363734Y-94621742D01*
X106435511Y-94621083D01*
X106506502Y-94619903D01*
X106571936Y-94618251D01*
X106627039Y-94616178D01*
X106667040Y-94613737D01*
X106678000Y-94612637D01*
X106732090Y-94606155D01*
X106790121Y-94599439D01*
X106822318Y-94595838D01*
X106870805Y-94589383D01*
X106928482Y-94580079D01*
X106977119Y-94571056D01*
X107028640Y-94558538D01*
X107086086Y-94541084D01*
X107145330Y-94520381D01*
X107202246Y-94498117D01*
X107252708Y-94475978D01*
X107292591Y-94455652D01*
X107317766Y-94438826D01*
X107324545Y-94428992D01*
X107315737Y-94413119D01*
X107294478Y-94410719D01*
X107280335Y-94415945D01*
X107253111Y-94426753D01*
X107209146Y-94440119D01*
X107154427Y-94454517D01*
X107094941Y-94468424D01*
X107036675Y-94480318D01*
X107007045Y-94485493D01*
X106936837Y-94494734D01*
X106853303Y-94502368D01*
X106760613Y-94508322D01*
X106662933Y-94512523D01*
X106564432Y-94514898D01*
X106469279Y-94515374D01*
X106381642Y-94513879D01*
X106305688Y-94510340D01*
X106245587Y-94504683D01*
X106214807Y-94499338D01*
X106187010Y-94495535D01*
X106140578Y-94492207D01*
X106079967Y-94489542D01*
X106009631Y-94487728D01*
X105934025Y-94486953D01*
X105920398Y-94486938D01*
X105844917Y-94486682D01*
X105774478Y-94485918D01*
X105713383Y-94484733D01*
X105665934Y-94483214D01*
X105636433Y-94481451D01*
X105633136Y-94481086D01*
X105534646Y-94468310D01*
X105456147Y-94457823D01*
X105394702Y-94449160D01*
X105347378Y-94441858D01*
X105311238Y-94435451D01*
X105283346Y-94429476D01*
X105260768Y-94423468D01*
X105252136Y-94420814D01*
X105217068Y-94408702D01*
X105190845Y-94397970D01*
X105182863Y-94393587D01*
X105165895Y-94383878D01*
X105139881Y-94371918D01*
X105112558Y-94360865D01*
X105091661Y-94353877D01*
X105084727Y-94353535D01*
X104817296Y-94353535D01*
X104842297Y-94307318D01*
X104909891Y-94163744D01*
X105424621Y-94163744D01*
X105427779Y-94189320D01*
X105433713Y-94209217D01*
X105445258Y-94226814D01*
X105465510Y-94244252D01*
X105497563Y-94263675D01*
X105544513Y-94287225D01*
X105609452Y-94317043D01*
X105617536Y-94320667D01*
X105680479Y-94348125D01*
X105729518Y-94367235D01*
X105771395Y-94379994D01*
X105812850Y-94388398D01*
X105860625Y-94394443D01*
X105869818Y-94395375D01*
X105922999Y-94401267D01*
X105972086Y-94407792D01*
X106009321Y-94413879D01*
X106019909Y-94416132D01*
X106056685Y-94421339D01*
X106101405Y-94422745D01*
X106118045Y-94422049D01*
X106151768Y-94420003D01*
X106202011Y-94417292D01*
X106262227Y-94414257D01*
X106325867Y-94411236D01*
X106331636Y-94410972D01*
X106487500Y-94403866D01*
X106664968Y-94333326D01*
X106757757Y-94294556D01*
X106837273Y-94257492D01*
X106901532Y-94223231D01*
X106948550Y-94192873D01*
X106976343Y-94167514D01*
X106982142Y-94157788D01*
X106982130Y-94128513D01*
X106959357Y-94100579D01*
X106914122Y-94074157D01*
X106846725Y-94049419D01*
X106757466Y-94026535D01*
X106749257Y-94024761D01*
X106668646Y-94008997D01*
X106589834Y-93996912D01*
X106508558Y-93988220D01*
X106420557Y-93982635D01*
X106321565Y-93979871D01*
X106207321Y-93979641D01*
X106099560Y-93981137D01*
X105995277Y-93983441D01*
X105910087Y-93986337D01*
X105839988Y-93990390D01*
X105780984Y-93996168D01*
X105729074Y-94004235D01*
X105680259Y-94015160D01*
X105630540Y-94029507D01*
X105575918Y-94047844D01*
X105541369Y-94060185D01*
X105485044Y-94083299D01*
X105448702Y-94106114D01*
X105429506Y-94131854D01*
X105424621Y-94163744D01*
X104909891Y-94163744D01*
X104913357Y-94156383D01*
X104967593Y-93994230D01*
X105005307Y-93822409D01*
X105010870Y-93787765D01*
X105015317Y-93754088D01*
X105018722Y-93718554D01*
X105021162Y-93678338D01*
X105022709Y-93630616D01*
X105023440Y-93572564D01*
X105023429Y-93501358D01*
X105022752Y-93414173D01*
X105021483Y-93308185D01*
X105020620Y-93245137D01*
X105019099Y-93144026D01*
X105017478Y-93049063D01*
X105015820Y-92962983D01*
X105014185Y-92888522D01*
X105012633Y-92828415D01*
X105011226Y-92785396D01*
X105010024Y-92762200D01*
X105009820Y-92760228D01*
X105007742Y-92736345D01*
X105005116Y-92694639D01*
X105002237Y-92640361D01*
X104999397Y-92578765D01*
X104998537Y-92558182D01*
X104995636Y-92490658D01*
X104992514Y-92424215D01*
X104989511Y-92365727D01*
X104986966Y-92322066D01*
X104986543Y-92315728D01*
X104983871Y-92272792D01*
X104980681Y-92215114D01*
X104977418Y-92151019D01*
X104975118Y-92102137D01*
X104971018Y-92014243D01*
X104966812Y-91931331D01*
X104962281Y-91850208D01*
X104957203Y-91767681D01*
X104951357Y-91680557D01*
X104944524Y-91585645D01*
X104936483Y-91479750D01*
X104927013Y-91359681D01*
X104915894Y-91222245D01*
X104912795Y-91184489D01*
X104983900Y-91184489D01*
X104986330Y-91207364D01*
X104989899Y-91240121D01*
X104994116Y-91285494D01*
X104997668Y-91328591D01*
X105010999Y-91505608D01*
X105022120Y-91660479D01*
X105031086Y-91794042D01*
X105037952Y-91907129D01*
X105042775Y-92000577D01*
X105043682Y-92021318D01*
X105047545Y-92110109D01*
X105051544Y-92194074D01*
X105056049Y-92280337D01*
X105061432Y-92376024D01*
X105067409Y-92477364D01*
X105069103Y-92507319D01*
X105070849Y-92542023D01*
X105072740Y-92583867D01*
X105074870Y-92635237D01*
X105077333Y-92698524D01*
X105080223Y-92776116D01*
X105083633Y-92870401D01*
X105087658Y-92983769D01*
X105090758Y-93071955D01*
X105092792Y-93141572D01*
X105094644Y-93226565D01*
X105096184Y-93319219D01*
X105097278Y-93411820D01*
X105097750Y-93481818D01*
X105098671Y-93718500D01*
X105120848Y-93662441D01*
X105133818Y-93621865D01*
X105146377Y-93569714D01*
X105155669Y-93518123D01*
X105159001Y-93480212D01*
X105161297Y-93422966D01*
X105162608Y-93350116D01*
X105162987Y-93265392D01*
X105162485Y-93172525D01*
X105161153Y-93075245D01*
X105159044Y-92977284D01*
X105156210Y-92882370D01*
X105152701Y-92794236D01*
X105148571Y-92716611D01*
X105143870Y-92653225D01*
X105143626Y-92650546D01*
X105137890Y-92585712D01*
X105132109Y-92515961D01*
X105127228Y-92452832D01*
X105125681Y-92431182D01*
X105115548Y-92285197D01*
X105106716Y-92160463D01*
X105099045Y-92055187D01*
X105092395Y-91967574D01*
X105086627Y-91895830D01*
X105081599Y-91838160D01*
X105077172Y-91792771D01*
X105073206Y-91757867D01*
X105072942Y-91755773D01*
X105055435Y-91618708D01*
X105040403Y-91503278D01*
X105027658Y-91408180D01*
X105017015Y-91332111D01*
X105008287Y-91273769D01*
X105001287Y-91231850D01*
X104995828Y-91205054D01*
X104992371Y-91193449D01*
X104985502Y-91179326D01*
X104983900Y-91184489D01*
X104912795Y-91184489D01*
X104906143Y-91103455D01*
X104903125Y-91063042D01*
X104899492Y-91008764D01*
X104895847Y-90949814D01*
X104894381Y-90924500D01*
X104890938Y-90866427D01*
X104887261Y-90808936D01*
X104883947Y-90761221D01*
X104882746Y-90745546D01*
X104876499Y-90661001D01*
X104869830Y-90558132D01*
X104863039Y-90441694D01*
X104859188Y-90370318D01*
X104853947Y-90290355D01*
X104845658Y-90190211D01*
X104834622Y-90072550D01*
X104821141Y-89940041D01*
X104805514Y-89795346D01*
X104788045Y-89641134D01*
X104769033Y-89480068D01*
X104748780Y-89314815D01*
X104727587Y-89148040D01*
X104705755Y-88982409D01*
X104686369Y-88840546D01*
X104671574Y-88733260D01*
X104655770Y-88617031D01*
X104639812Y-88498270D01*
X104624558Y-88383390D01*
X104610864Y-88278802D01*
X104599978Y-88194000D01*
X104590885Y-88123295D01*
X104582082Y-88057956D01*
X104573131Y-87995708D01*
X104563590Y-87934275D01*
X104553020Y-87871383D01*
X104540981Y-87804755D01*
X104527033Y-87732118D01*
X104510736Y-87651195D01*
X104491651Y-87559712D01*
X104469337Y-87455394D01*
X104443354Y-87335965D01*
X104413264Y-87199150D01*
X104378625Y-87042674D01*
X104368943Y-86999046D01*
X104349696Y-86911134D01*
X104328861Y-86813838D01*
X104307038Y-86710148D01*
X104284830Y-86603056D01*
X104262837Y-86495553D01*
X104241659Y-86390631D01*
X104221898Y-86291282D01*
X104204154Y-86200497D01*
X104189029Y-86121268D01*
X104177124Y-86056586D01*
X104169039Y-86009443D01*
X104166015Y-85988818D01*
X104158041Y-85948549D01*
X104143616Y-85896268D01*
X104141120Y-85888730D01*
X104224488Y-85888730D01*
X104228424Y-85923131D01*
X104236502Y-85975871D01*
X104248308Y-86044844D01*
X104263431Y-86127944D01*
X104281456Y-86223066D01*
X104301972Y-86328104D01*
X104324565Y-86440951D01*
X104348823Y-86559502D01*
X104374333Y-86681652D01*
X104400683Y-86805294D01*
X104427459Y-86928323D01*
X104454249Y-87048633D01*
X104461315Y-87079864D01*
X104483637Y-87179246D01*
X104507527Y-87287437D01*
X104531491Y-87397556D01*
X104554039Y-87502723D01*
X104573679Y-87596058D01*
X104582693Y-87639818D01*
X104598637Y-87719079D01*
X104612348Y-87790144D01*
X104624466Y-87857134D01*
X104635632Y-87924171D01*
X104646487Y-87995376D01*
X104657671Y-88074871D01*
X104669825Y-88166778D01*
X104683590Y-88275217D01*
X104692165Y-88344091D01*
X104706051Y-88454592D01*
X104719674Y-88559424D01*
X104733893Y-88664914D01*
X104749568Y-88777385D01*
X104767559Y-88903163D01*
X104777736Y-88973318D01*
X104788551Y-89049676D01*
X104799275Y-89129058D01*
X104808938Y-89204025D01*
X104816567Y-89267137D01*
X104819198Y-89290818D01*
X104826901Y-89359916D01*
X104836174Y-89438174D01*
X104845378Y-89511885D01*
X104848174Y-89533273D01*
X104855474Y-89588638D01*
X104861619Y-89636481D01*
X104867135Y-89681404D01*
X104872549Y-89728009D01*
X104878384Y-89780899D01*
X104885167Y-89844674D01*
X104893423Y-89923938D01*
X104899580Y-89983546D01*
X104911525Y-90086502D01*
X104925742Y-90181618D01*
X104943759Y-90277532D01*
X104967106Y-90382881D01*
X104979308Y-90433818D01*
X105023585Y-90618871D01*
X105061545Y-90785667D01*
X105093808Y-90937972D01*
X105120999Y-91079553D01*
X105143740Y-91214175D01*
X105162655Y-91345606D01*
X105178366Y-91477610D01*
X105191495Y-91613954D01*
X105202667Y-91758404D01*
X105205604Y-91801955D01*
X105210386Y-91872031D01*
X105215248Y-91935973D01*
X105220766Y-92000321D01*
X105227513Y-92071614D01*
X105236065Y-92156391D01*
X105240612Y-92200273D01*
X105256971Y-92368614D01*
X105269704Y-92527251D01*
X105279627Y-92687512D01*
X105286770Y-92841046D01*
X105291800Y-92961853D01*
X105296370Y-93062288D01*
X105300748Y-93145060D01*
X105305200Y-93212876D01*
X105309992Y-93268444D01*
X105315392Y-93314472D01*
X105321666Y-93353668D01*
X105329081Y-93388740D01*
X105337903Y-93422395D01*
X105347031Y-93452955D01*
X105372928Y-93524274D01*
X105401965Y-93577526D01*
X105437579Y-93617734D01*
X105480877Y-93648567D01*
X105508254Y-93661701D01*
X105543370Y-93672713D01*
X105589148Y-93682071D01*
X105648514Y-93690236D01*
X105724392Y-93697674D01*
X105819709Y-93704850D01*
X105846727Y-93706644D01*
X105913212Y-93711351D01*
X105973181Y-93716308D01*
X106022640Y-93721122D01*
X106057597Y-93725399D01*
X106074060Y-93728745D01*
X106074665Y-93729119D01*
X106065125Y-93732079D01*
X106037054Y-93738228D01*
X105994655Y-93746696D01*
X105942130Y-93756618D01*
X105936119Y-93757723D01*
X105814538Y-93781304D01*
X105713453Y-93803938D01*
X105630338Y-93826458D01*
X105562668Y-93849696D01*
X105507916Y-93874485D01*
X105463557Y-93901658D01*
X105438052Y-93921912D01*
X105405587Y-93952519D01*
X105388785Y-93972779D01*
X105388113Y-93981341D01*
X105404038Y-93976857D01*
X105422432Y-93966946D01*
X105448905Y-93954156D01*
X105490992Y-93936937D01*
X105542284Y-93917812D01*
X105582675Y-93903825D01*
X105661238Y-93880513D01*
X105744510Y-93862011D01*
X105835461Y-93848044D01*
X105937061Y-93838338D01*
X106052278Y-93832618D01*
X106184084Y-93830610D01*
X106335448Y-93832038D01*
X106354727Y-93832420D01*
X106439912Y-93834412D01*
X106520483Y-93836707D01*
X106592635Y-93839167D01*
X106652563Y-93841650D01*
X106696461Y-93844016D01*
X106718409Y-93845840D01*
X106785755Y-93857320D01*
X106852766Y-93874394D01*
X106912820Y-93894971D01*
X106959296Y-93916963D01*
X106973411Y-93926300D01*
X106999764Y-93944006D01*
X107011236Y-93946878D01*
X107008354Y-93937280D01*
X106991645Y-93917575D01*
X106966193Y-93893981D01*
X106946989Y-93878248D01*
X106927653Y-93864766D01*
X106904943Y-93852197D01*
X106875619Y-93839205D01*
X106836441Y-93824451D01*
X106784169Y-93806597D01*
X106715562Y-93784306D01*
X106649677Y-93763313D01*
X106591821Y-93744559D01*
X106543607Y-93728177D01*
X106508459Y-93715393D01*
X106489796Y-93707430D01*
X106488041Y-93705443D01*
X106502748Y-93703348D01*
X106536326Y-93699536D01*
X106584656Y-93694444D01*
X106643616Y-93688511D01*
X106686141Y-93684368D01*
X106764925Y-93676415D01*
X106824887Y-93669113D01*
X106870237Y-93661434D01*
X106905184Y-93652349D01*
X106933936Y-93640831D01*
X106960702Y-93625853D01*
X106981118Y-93612341D01*
X107020271Y-93580179D01*
X107046993Y-93543616D01*
X107063917Y-93497082D01*
X107073681Y-93435003D01*
X107075605Y-93412546D01*
X107079643Y-93361488D01*
X107080387Y-93353020D01*
X107270086Y-93353020D01*
X107274135Y-93465796D01*
X107283396Y-93572175D01*
X107297394Y-93666640D01*
X107315025Y-93741591D01*
X107326996Y-93778807D01*
X107336629Y-93803645D01*
X107342130Y-93811591D01*
X107342547Y-93810864D01*
X107343309Y-93797407D01*
X107344255Y-93763059D01*
X107345351Y-93710018D01*
X107346561Y-93640484D01*
X107347852Y-93556654D01*
X107349187Y-93460728D01*
X107350531Y-93354904D01*
X107351850Y-93241381D01*
X107352313Y-93198955D01*
X107353641Y-93082503D01*
X107355050Y-92972398D01*
X107356501Y-92870924D01*
X107357952Y-92780362D01*
X107359365Y-92702997D01*
X107360700Y-92641111D01*
X107361917Y-92596987D01*
X107362976Y-92572908D01*
X107363287Y-92569728D01*
X107364914Y-92550153D01*
X107366975Y-92511200D01*
X107369316Y-92456573D01*
X107371785Y-92389978D01*
X107374230Y-92315120D01*
X107375407Y-92275318D01*
X107377902Y-92190786D01*
X107380542Y-92106206D01*
X107383150Y-92026959D01*
X107385546Y-91958431D01*
X107387553Y-91906002D01*
X107388048Y-91894318D01*
X107390652Y-91834536D01*
X107393803Y-91761719D01*
X107397068Y-91685899D01*
X107399515Y-91628773D01*
X107405064Y-91504520D01*
X107410794Y-91386670D01*
X107416536Y-91278197D01*
X107422121Y-91182076D01*
X107427378Y-91101282D01*
X107432140Y-91038789D01*
X107434711Y-91011091D01*
X107436143Y-90990469D01*
X107433890Y-90989702D01*
X107427501Y-91009722D01*
X107417985Y-91045728D01*
X107399590Y-91131754D01*
X107382558Y-91239983D01*
X107366981Y-91369562D01*
X107352948Y-91519637D01*
X107340550Y-91689356D01*
X107330209Y-91871228D01*
X107327037Y-91931990D01*
X107323645Y-91992507D01*
X107320532Y-92044052D01*
X107318974Y-92067500D01*
X107316223Y-92109194D01*
X107312788Y-92165222D01*
X107309195Y-92226859D01*
X107307134Y-92263773D01*
X107303876Y-92319379D01*
X107300538Y-92369722D01*
X107297571Y-92408300D01*
X107295885Y-92425409D01*
X107294494Y-92445965D01*
X107292776Y-92486177D01*
X107290839Y-92542615D01*
X107288793Y-92611847D01*
X107286746Y-92690444D01*
X107284877Y-92771773D01*
X107282752Y-92864847D01*
X107280364Y-92959813D01*
X107277862Y-93051347D01*
X107275397Y-93134128D01*
X107273117Y-93202831D01*
X107271726Y-93239364D01*
X107270086Y-93353020D01*
X107080387Y-93353020D01*
X107083795Y-93314236D01*
X107087293Y-93279404D01*
X107087932Y-93274000D01*
X107091725Y-93234657D01*
X107096048Y-93173988D01*
X107100794Y-93093747D01*
X107105861Y-92995689D01*
X107110894Y-92887228D01*
X107116047Y-92772969D01*
X107120678Y-92676465D01*
X107125131Y-92592393D01*
X107129748Y-92515432D01*
X107134873Y-92440263D01*
X107140849Y-92361563D01*
X107148018Y-92274012D01*
X107156725Y-92172288D01*
X107157804Y-92159864D01*
X107165511Y-92070689D01*
X107172888Y-91984436D01*
X107179596Y-91905141D01*
X107185294Y-91836842D01*
X107189644Y-91783577D01*
X107192261Y-91750000D01*
X107196106Y-91699906D01*
X107200049Y-91652100D01*
X107203208Y-91617228D01*
X107206634Y-91581106D01*
X107210978Y-91533170D01*
X107214742Y-91490228D01*
X107224743Y-91381175D01*
X107234945Y-91290340D01*
X107246544Y-91212869D01*
X107260735Y-91143909D01*
X107278715Y-91078608D01*
X107301681Y-91012113D01*
X107330829Y-90939573D01*
X107367355Y-90856133D01*
X107375561Y-90837909D01*
X107472043Y-90624318D01*
X107526410Y-90071083D01*
X107537380Y-89959772D01*
X107547770Y-89854957D01*
X107557341Y-89758984D01*
X107565859Y-89674203D01*
X107573086Y-89602959D01*
X107578784Y-89547601D01*
X107582718Y-89510476D01*
X107584650Y-89493931D01*
X107584669Y-89493811D01*
X107587369Y-89473915D01*
X107592078Y-89436019D01*
X107598195Y-89385066D01*
X107605122Y-89325998D01*
X107607187Y-89308137D01*
X107618027Y-89218887D01*
X107632131Y-89110335D01*
X107648995Y-88985963D01*
X107668114Y-88849250D01*
X107688982Y-88703675D01*
X107711094Y-88552719D01*
X107733947Y-88399862D01*
X107757033Y-88248583D01*
X107779850Y-88102364D01*
X107801891Y-87964683D01*
X107804029Y-87951546D01*
X107817522Y-87868576D01*
X107833585Y-87769515D01*
X107851133Y-87661071D01*
X107869081Y-87549953D01*
X107886345Y-87442867D01*
X107896453Y-87380046D01*
X107913358Y-87277716D01*
X107933546Y-87160090D01*
X107955708Y-87034502D01*
X107978540Y-86908285D01*
X108000733Y-86788775D01*
X108016817Y-86704637D01*
X108036911Y-86600712D01*
X108058332Y-86489118D01*
X108079908Y-86376010D01*
X108100468Y-86267545D01*
X108118842Y-86169879D01*
X108132895Y-86094383D01*
X108146924Y-86019250D01*
X108159923Y-85951154D01*
X108171204Y-85893581D01*
X108180076Y-85850021D01*
X108185852Y-85823961D01*
X108187356Y-85818603D01*
X108190432Y-85808932D01*
X108187536Y-85805671D01*
X108174862Y-85809972D01*
X108148607Y-85822986D01*
X108115409Y-85840369D01*
X108057415Y-85866538D01*
X107985278Y-85891175D01*
X107897693Y-85914537D01*
X107793357Y-85936878D01*
X107670967Y-85958454D01*
X107529219Y-85979523D01*
X107366808Y-86000339D01*
X107209091Y-86018291D01*
X107164003Y-86023231D01*
X107118823Y-86028260D01*
X107110954Y-86029147D01*
X107065308Y-86033971D01*
X107018691Y-86038098D01*
X106968963Y-86041577D01*
X106913982Y-86044462D01*
X106851608Y-86046803D01*
X106779700Y-86048651D01*
X106696117Y-86050058D01*
X106598719Y-86051076D01*
X106485366Y-86051757D01*
X106353915Y-86052150D01*
X106202228Y-86052309D01*
X106146909Y-86052318D01*
X105953462Y-86052089D01*
X105781868Y-86051382D01*
X105630895Y-86050172D01*
X105499310Y-86048430D01*
X105385879Y-86046132D01*
X105289370Y-86043249D01*
X105208549Y-86039754D01*
X105142184Y-86035622D01*
X105089042Y-86030825D01*
X105073182Y-86028964D01*
X105047933Y-86026136D01*
X105004692Y-86021658D01*
X104948456Y-86016033D01*
X104884223Y-86009764D01*
X104845871Y-86006088D01*
X104776507Y-85999128D01*
X104709603Y-85991774D01*
X104651041Y-85984718D01*
X104606701Y-85978651D01*
X104591871Y-85976234D01*
X104538602Y-85965329D01*
X104477044Y-85950663D01*
X104413302Y-85933917D01*
X104353479Y-85916769D01*
X104303679Y-85900897D01*
X104270008Y-85887981D01*
X104268625Y-85887333D01*
X104242417Y-85876846D01*
X104226361Y-85874147D01*
X104225106Y-85874773D01*
X104224488Y-85888730D01*
X104141120Y-85888730D01*
X104125378Y-85841190D01*
X104118405Y-85822497D01*
X104097946Y-85765775D01*
X104087569Y-85723645D01*
X104087337Y-85703331D01*
X104157192Y-85703331D01*
X104159960Y-85726528D01*
X104180924Y-85754566D01*
X104222182Y-85783459D01*
X104281007Y-85812292D01*
X104354671Y-85840151D01*
X104440447Y-85866122D01*
X104535605Y-85889290D01*
X104637418Y-85908739D01*
X104743159Y-85923557D01*
X104749909Y-85924316D01*
X104819049Y-85931541D01*
X104901876Y-85939499D01*
X104993462Y-85947780D01*
X105088881Y-85955978D01*
X105183204Y-85963683D01*
X105271504Y-85970487D01*
X105348854Y-85975982D01*
X105410326Y-85979759D01*
X105431091Y-85980773D01*
X105456861Y-85981417D01*
X105503281Y-85982089D01*
X105567913Y-85982770D01*
X105648317Y-85983442D01*
X105742052Y-85984088D01*
X105846678Y-85984690D01*
X105959757Y-85985230D01*
X106078847Y-85985692D01*
X106135363Y-85985873D01*
X106297460Y-85986144D01*
X106438472Y-85985890D01*
X106560399Y-85985075D01*
X106665243Y-85983664D01*
X106755004Y-85981622D01*
X106831682Y-85978911D01*
X106897279Y-85975497D01*
X106953796Y-85971343D01*
X106955091Y-85971231D01*
X107153969Y-85952500D01*
X107337628Y-85932212D01*
X107504991Y-85910550D01*
X107654985Y-85887698D01*
X107786535Y-85863840D01*
X107898567Y-85839157D01*
X107990006Y-85813835D01*
X108059777Y-85788056D01*
X108077565Y-85779632D01*
X108118651Y-85754946D01*
X108156198Y-85725844D01*
X108185212Y-85696892D01*
X108200698Y-85672653D01*
X108202000Y-85665907D01*
X108192287Y-85636216D01*
X108166755Y-85603589D01*
X108130814Y-85574173D01*
X108111431Y-85562988D01*
X108047620Y-85537206D01*
X107960899Y-85512170D01*
X107851437Y-85487914D01*
X107719405Y-85464473D01*
X107564974Y-85441882D01*
X107463091Y-85428927D01*
X107381611Y-85420704D01*
X107285718Y-85414098D01*
X107174092Y-85409077D01*
X107045412Y-85405613D01*
X106898358Y-85403673D01*
X106731610Y-85403230D01*
X106543849Y-85404251D01*
X106433218Y-85405402D01*
X106315418Y-85406875D01*
X106202229Y-85408420D01*
X106096219Y-85409994D01*
X105999956Y-85411552D01*
X105916008Y-85413050D01*
X105846945Y-85414446D01*
X105795334Y-85415694D01*
X105763743Y-85416750D01*
X105760136Y-85416930D01*
X105717903Y-85419119D01*
X105659725Y-85421936D01*
X105592730Y-85425047D01*
X105524043Y-85428113D01*
X105511909Y-85428641D01*
X105447784Y-85431597D01*
X105388028Y-85434680D01*
X105338330Y-85437573D01*
X105304377Y-85439961D01*
X105298318Y-85440511D01*
X105266388Y-85443231D01*
X105219253Y-85446671D01*
X105164764Y-85450274D01*
X105136682Y-85451993D01*
X105044071Y-85458299D01*
X104935710Y-85467034D01*
X104818741Y-85477591D01*
X104722782Y-85487044D01*
X104674019Y-85493998D01*
X104610298Y-85505822D01*
X104538824Y-85520906D01*
X104466801Y-85537637D01*
X104401434Y-85554405D01*
X104349928Y-85569596D01*
X104342395Y-85572140D01*
X104265694Y-85603203D01*
X104208645Y-85635943D01*
X104172171Y-85669578D01*
X104157192Y-85703331D01*
X104087337Y-85703331D01*
X104087183Y-85689968D01*
X104096699Y-85658606D01*
X104115519Y-85624243D01*
X104147225Y-85590488D01*
X104199134Y-85556829D01*
X104268369Y-85524187D01*
X104352058Y-85493481D01*
X104447324Y-85465631D01*
X104551295Y-85441556D01*
X104661094Y-85422178D01*
X104773849Y-85408415D01*
X104796087Y-85406451D01*
X104939935Y-85394773D01*
X105063342Y-85385189D01*
X105168842Y-85377507D01*
X105258972Y-85371539D01*
X105269454Y-85370893D01*
X105324818Y-85367325D01*
X105375827Y-85363700D01*
X105415360Y-85360541D01*
X105431091Y-85359034D01*
X105472765Y-85355755D01*
X105535057Y-85352677D01*
X105615493Y-85349816D01*
X105711599Y-85347191D01*
X105820903Y-85344820D01*
X105940930Y-85342719D01*
X106069209Y-85340907D01*
X106203266Y-85339401D01*
X106340628Y-85338218D01*
X106478821Y-85337378D01*
X106615373Y-85336896D01*
X106747810Y-85336791D01*
X106873658Y-85337081D01*
X106873658Y-85337081D01*
G37*
X106873658Y-85337081D02*
X106990446Y-85337783D01*
X107095699Y-85338914D01*
X107186945Y-85340493D01*
X107261710Y-85342537D01*
X107317521Y-85345064D01*
X107324545Y-85345516D01*
X107479431Y-85358925D01*
X107633138Y-85377706D01*
X107779902Y-85400969D01*
X107913958Y-85427822D01*
X108006649Y-85450869D01*
X108096175Y-85479119D01*
X108164719Y-85509591D01*
X108214393Y-85544215D01*
X108247303Y-85584923D01*
X108265560Y-85633646D01*
X108271272Y-85692315D01*
X108271273Y-85693190D01*
X108269047Y-85724125D01*
X108262845Y-85773036D01*
X108253377Y-85835288D01*
X108241354Y-85906247D01*
X108227486Y-85981278D01*
X108225591Y-85991059D01*
X108210248Y-86070508D01*
X108195067Y-86150399D01*
X108181126Y-86224964D01*
X108169502Y-86288434D01*
X108161275Y-86335042D01*
X108161251Y-86335182D01*
X108153314Y-86379778D01*
X108141785Y-86441792D01*
X108127659Y-86516011D01*
X108111930Y-86597222D01*
X108095595Y-86680212D01*
X108090733Y-86704637D01*
X108069065Y-86816761D01*
X108044749Y-86948953D01*
X108018231Y-87098396D01*
X107989959Y-87262276D01*
X107960381Y-87437776D01*
X107929945Y-87622082D01*
X107899099Y-87812379D01*
X107868289Y-88005850D01*
X107837964Y-88199681D01*
X107808572Y-88391056D01*
X107780560Y-88577160D01*
X107754375Y-88755178D01*
X107730467Y-88922294D01*
X107709281Y-89075693D01*
X107691266Y-89212560D01*
X107688663Y-89233091D01*
X107680494Y-89300740D01*
X107670475Y-89388339D01*
X107658920Y-89492848D01*
X107646141Y-89611229D01*
X107632453Y-89740442D01*
X107618169Y-89877448D01*
X107603603Y-90019208D01*
X107589067Y-90162682D01*
X107574876Y-90304832D01*
X107561343Y-90442617D01*
X107548781Y-90572998D01*
X107537504Y-90692937D01*
X107532672Y-90745546D01*
X107525490Y-90824435D01*
X107518696Y-90899054D01*
X107512678Y-90965132D01*
X107507825Y-91018398D01*
X107504526Y-91054581D01*
X107503753Y-91063046D01*
X107500654Y-91101324D01*
X107496954Y-91153455D01*
X107493294Y-91210234D01*
X107492086Y-91230455D01*
X107488484Y-91291997D01*
X107484630Y-91357441D01*
X107481228Y-91414834D01*
X107480518Y-91426728D01*
X107478170Y-91470743D01*
X107475362Y-91530700D01*
X107472408Y-91599459D01*
X107469627Y-91669884D01*
X107469011Y-91686500D01*
X107466186Y-91763010D01*
X107463072Y-91846110D01*
X107460034Y-91926172D01*
X107457433Y-91993572D01*
X107457251Y-91998228D01*
X107455112Y-92055874D01*
X107452547Y-92129753D01*
X107449786Y-92213013D01*
X107447055Y-92298804D01*
X107444956Y-92367682D01*
X107442552Y-92441177D01*
X107439918Y-92509230D01*
X107437255Y-92567533D01*
X107434760Y-92611777D01*
X107432632Y-92637655D01*
X107432456Y-92639000D01*
X107431304Y-92657829D01*
X107430008Y-92697529D01*
X107428605Y-92755883D01*
X107427134Y-92830673D01*
X107425633Y-92919680D01*
X107424141Y-93020686D01*
X107422694Y-93131474D01*
X107421332Y-93249823D01*
X107420435Y-93337500D01*
X107419099Y-93477618D01*
X107418061Y-93596621D01*
X107417367Y-93696485D01*
X107417062Y-93779184D01*
X107417192Y-93846693D01*
X107417803Y-93900988D01*
X107418940Y-93944043D01*
X107420649Y-93977834D01*
X107422976Y-94004335D01*
X107425967Y-94025521D01*
X107429666Y-94043367D01*
X107434121Y-94059848D01*
X107437403Y-94070637D01*
X107459735Y-94136047D01*
X107489903Y-94215263D01*
X107525843Y-94303616D01*
X107565489Y-94396436D01*
X107606778Y-94489051D01*
X107647645Y-94576793D01*
X107686025Y-94654992D01*
X107719853Y-94718976D01*
X107737244Y-94748827D01*
X107775763Y-94820633D01*
X107797446Y-94886648D01*
X107802321Y-94951668D01*
X107790419Y-95020483D01*
X107761766Y-95097890D01*
X107739634Y-95144364D01*
X107699242Y-95212609D01*
X107650623Y-95270068D01*
X107588514Y-95322180D01*
X107529802Y-95361093D01*
X107399448Y-95430628D01*
X107250117Y-95491598D01*
X107084571Y-95543219D01*
X106905576Y-95584706D01*
X106715893Y-95615275D01*
X106585636Y-95629136D01*
X106506395Y-95634111D01*
X106409708Y-95637375D01*
X106301153Y-95638975D01*
X106186307Y-95638959D01*
X106070748Y-95637373D01*
X105960053Y-95634264D01*
X105859801Y-95629680D01*
X105775570Y-95623666D01*
X105760136Y-95622196D01*
X105688649Y-95613919D01*
X105611268Y-95603204D01*
X105538304Y-95591564D01*
X105489834Y-95582559D01*
X105396813Y-95560158D01*
X105290806Y-95528953D01*
X105178969Y-95491437D01*
X105068453Y-95450101D01*
X105063926Y-95448208D01*
X105285034Y-95448208D01*
X105292476Y-95453605D01*
X105317911Y-95462824D01*
X105356808Y-95474607D01*
X105404634Y-95487694D01*
X105456858Y-95500826D01*
X105508949Y-95512743D01*
X105540773Y-95519277D01*
X105638419Y-95536169D01*
X105738154Y-95549084D01*
X105843970Y-95558274D01*
X105959856Y-95563989D01*
X106089802Y-95566483D01*
X106237799Y-95566006D01*
X106273909Y-95565516D01*
X106360541Y-95564027D01*
X106441093Y-95562317D01*
X106512249Y-95560481D01*
X106570693Y-95558615D01*
X106613110Y-95556815D01*
X106636184Y-95555177D01*
X106637591Y-95554981D01*
X106665698Y-95550716D01*
X106708238Y-95544517D01*
X106756769Y-95537613D01*
X106764591Y-95536515D01*
X106857370Y-95520797D01*
X106957116Y-95499137D01*
X107059376Y-95472903D01*
X107159694Y-95443460D01*
X107253618Y-95412175D01*
X107336693Y-95380414D01*
X107404464Y-95349543D01*
X107440333Y-95329246D01*
X107459547Y-95315641D01*
X107462487Y-95310507D01*
X107457318Y-95311793D01*
X107283535Y-95371018D01*
X107122933Y-95419156D01*
X106970174Y-95457117D01*
X106819921Y-95485811D01*
X106666836Y-95506148D01*
X106505583Y-95519039D01*
X106330825Y-95525394D01*
X106198863Y-95526443D01*
X106039274Y-95524501D01*
X105886838Y-95519305D01*
X105744611Y-95511080D01*
X105615650Y-95500049D01*
X105503010Y-95486440D01*
X105409747Y-95470475D01*
X105394906Y-95467292D01*
X105348694Y-95457536D01*
X105311766Y-95450753D01*
X105289316Y-95447845D01*
X105285034Y-95448208D01*
X105063926Y-95448208D01*
X104966414Y-95407438D01*
X104905773Y-95379067D01*
X104847136Y-95349061D01*
X104803915Y-95323809D01*
X104770228Y-95299135D01*
X104740196Y-95270868D01*
X104716490Y-95244750D01*
X104651315Y-95155679D01*
X104606402Y-95062364D01*
X104605895Y-95060334D01*
X104842366Y-95060334D01*
X104850797Y-95142558D01*
X104855529Y-95163695D01*
X104862841Y-95189239D01*
X104872462Y-95207459D01*
X104889045Y-95222589D01*
X104917245Y-95238859D01*
X104961716Y-95260501D01*
X104962325Y-95260791D01*
X105060810Y-95301539D01*
X105177330Y-95339539D01*
X105306881Y-95373587D01*
X105444457Y-95402479D01*
X105585055Y-95425010D01*
X105697764Y-95437775D01*
X105768906Y-95442933D01*
X105855567Y-95447168D01*
X105953416Y-95450449D01*
X106058118Y-95452742D01*
X106165341Y-95454014D01*
X106270749Y-95454234D01*
X106370011Y-95453369D01*
X106458793Y-95451386D01*
X106532760Y-95448254D01*
X106583205Y-95444411D01*
X106692211Y-95430609D01*
X106813046Y-95411178D01*
X106935673Y-95387907D01*
X107050054Y-95362585D01*
X107070790Y-95357499D01*
X107111256Y-95346582D01*
X107162573Y-95331562D01*
X107220399Y-95313847D01*
X107280394Y-95294846D01*
X107338216Y-95275967D01*
X107389524Y-95258618D01*
X107429977Y-95244209D01*
X107455234Y-95234148D01*
X107461277Y-95230796D01*
X107466568Y-95215515D01*
X107472746Y-95182253D01*
X107479245Y-95136074D01*
X107485500Y-95082043D01*
X107490946Y-95025224D01*
X107495018Y-94970682D01*
X107497150Y-94923481D01*
X107497333Y-94907682D01*
X107495035Y-94852387D01*
X107488959Y-94792873D01*
X107479992Y-94733334D01*
X107469017Y-94677965D01*
X107456920Y-94630959D01*
X107444585Y-94596509D01*
X107432899Y-94578810D01*
X107427660Y-94577528D01*
X107410453Y-94582674D01*
X107376352Y-94593084D01*
X107330516Y-94607177D01*
X107284949Y-94621252D01*
X107151467Y-94657857D01*
X107007271Y-94689168D01*
X106862849Y-94713160D01*
X106735727Y-94727274D01*
X106691170Y-94729774D01*
X106630556Y-94731740D01*
X106557522Y-94733184D01*
X106475709Y-94734115D01*
X106388755Y-94734543D01*
X106300299Y-94734480D01*
X106213981Y-94733934D01*
X106133439Y-94732916D01*
X106062312Y-94731437D01*
X106004240Y-94729506D01*
X105962861Y-94727135D01*
X105944863Y-94725052D01*
X105912052Y-94719876D01*
X105869868Y-94714499D01*
X105852500Y-94712608D01*
X105816330Y-94708907D01*
X105765081Y-94703648D01*
X105706644Y-94697640D01*
X105667773Y-94693638D01*
X105531383Y-94675099D01*
X105377623Y-94646005D01*
X105209333Y-94606968D01*
X105029352Y-94558602D01*
X104991897Y-94547774D01*
X104978776Y-94552709D01*
X104963051Y-94575399D01*
X104944118Y-94617126D01*
X104921374Y-94679174D01*
X104901307Y-94740273D01*
X104867361Y-94861600D01*
X104847800Y-94967484D01*
X104842366Y-95060334D01*
X104605895Y-95060334D01*
X104582593Y-94967194D01*
X104580733Y-94872556D01*
X104581774Y-94863309D01*
X104591543Y-94824027D01*
X104613079Y-94766323D01*
X104645852Y-94691323D01*
X104689338Y-94600153D01*
X104743007Y-94493937D01*
X104806334Y-94373801D01*
X104817296Y-94353535D01*
X105084727Y-94353535D01*
X105094680Y-94365849D01*
X105121549Y-94384400D01*
X105160851Y-94406751D01*
X105208103Y-94430467D01*
X105258821Y-94453110D01*
X105292545Y-94466481D01*
X105369637Y-94492924D01*
X105451779Y-94516191D01*
X105542083Y-94536868D01*
X105643661Y-94555540D01*
X105759624Y-94572790D01*
X105893084Y-94589205D01*
X106014136Y-94602087D01*
X106068059Y-94607598D01*
X106115198Y-94612566D01*
X106149735Y-94616369D01*
X106164227Y-94618132D01*
X106191419Y-94620073D01*
X106236915Y-94621288D01*
X106295945Y-94621827D01*
X106363734Y-94621742D01*
X106435511Y-94621083D01*
X106506502Y-94619903D01*
X106571936Y-94618251D01*
X106627039Y-94616178D01*
X106667040Y-94613737D01*
X106678000Y-94612637D01*
X106732090Y-94606155D01*
X106790121Y-94599439D01*
X106822318Y-94595838D01*
X106870805Y-94589383D01*
X106928482Y-94580079D01*
X106977119Y-94571056D01*
X107028640Y-94558538D01*
X107086086Y-94541084D01*
X107145330Y-94520381D01*
X107202246Y-94498117D01*
X107252708Y-94475978D01*
X107292591Y-94455652D01*
X107317766Y-94438826D01*
X107324545Y-94428992D01*
X107315737Y-94413119D01*
X107294478Y-94410719D01*
X107280335Y-94415945D01*
X107253111Y-94426753D01*
X107209146Y-94440119D01*
X107154427Y-94454517D01*
X107094941Y-94468424D01*
X107036675Y-94480318D01*
X107007045Y-94485493D01*
X106936837Y-94494734D01*
X106853303Y-94502368D01*
X106760613Y-94508322D01*
X106662933Y-94512523D01*
X106564432Y-94514898D01*
X106469279Y-94515374D01*
X106381642Y-94513879D01*
X106305688Y-94510340D01*
X106245587Y-94504683D01*
X106214807Y-94499338D01*
X106187010Y-94495535D01*
X106140578Y-94492207D01*
X106079967Y-94489542D01*
X106009631Y-94487728D01*
X105934025Y-94486953D01*
X105920398Y-94486938D01*
X105844917Y-94486682D01*
X105774478Y-94485918D01*
X105713383Y-94484733D01*
X105665934Y-94483214D01*
X105636433Y-94481451D01*
X105633136Y-94481086D01*
X105534646Y-94468310D01*
X105456147Y-94457823D01*
X105394702Y-94449160D01*
X105347378Y-94441858D01*
X105311238Y-94435451D01*
X105283346Y-94429476D01*
X105260768Y-94423468D01*
X105252136Y-94420814D01*
X105217068Y-94408702D01*
X105190845Y-94397970D01*
X105182863Y-94393587D01*
X105165895Y-94383878D01*
X105139881Y-94371918D01*
X105112558Y-94360865D01*
X105091661Y-94353877D01*
X105084727Y-94353535D01*
X104817296Y-94353535D01*
X104842297Y-94307318D01*
X104909891Y-94163744D01*
X105424621Y-94163744D01*
X105427779Y-94189320D01*
X105433713Y-94209217D01*
X105445258Y-94226814D01*
X105465510Y-94244252D01*
X105497563Y-94263675D01*
X105544513Y-94287225D01*
X105609452Y-94317043D01*
X105617536Y-94320667D01*
X105680479Y-94348125D01*
X105729518Y-94367235D01*
X105771395Y-94379994D01*
X105812850Y-94388398D01*
X105860625Y-94394443D01*
X105869818Y-94395375D01*
X105922999Y-94401267D01*
X105972086Y-94407792D01*
X106009321Y-94413879D01*
X106019909Y-94416132D01*
X106056685Y-94421339D01*
X106101405Y-94422745D01*
X106118045Y-94422049D01*
X106151768Y-94420003D01*
X106202011Y-94417292D01*
X106262227Y-94414257D01*
X106325867Y-94411236D01*
X106331636Y-94410972D01*
X106487500Y-94403866D01*
X106664968Y-94333326D01*
X106757757Y-94294556D01*
X106837273Y-94257492D01*
X106901532Y-94223231D01*
X106948550Y-94192873D01*
X106976343Y-94167514D01*
X106982142Y-94157788D01*
X106982130Y-94128513D01*
X106959357Y-94100579D01*
X106914122Y-94074157D01*
X106846725Y-94049419D01*
X106757466Y-94026535D01*
X106749257Y-94024761D01*
X106668646Y-94008997D01*
X106589834Y-93996912D01*
X106508558Y-93988220D01*
X106420557Y-93982635D01*
X106321565Y-93979871D01*
X106207321Y-93979641D01*
X106099560Y-93981137D01*
X105995277Y-93983441D01*
X105910087Y-93986337D01*
X105839988Y-93990390D01*
X105780984Y-93996168D01*
X105729074Y-94004235D01*
X105680259Y-94015160D01*
X105630540Y-94029507D01*
X105575918Y-94047844D01*
X105541369Y-94060185D01*
X105485044Y-94083299D01*
X105448702Y-94106114D01*
X105429506Y-94131854D01*
X105424621Y-94163744D01*
X104909891Y-94163744D01*
X104913357Y-94156383D01*
X104967593Y-93994230D01*
X105005307Y-93822409D01*
X105010870Y-93787765D01*
X105015317Y-93754088D01*
X105018722Y-93718554D01*
X105021162Y-93678338D01*
X105022709Y-93630616D01*
X105023440Y-93572564D01*
X105023429Y-93501358D01*
X105022752Y-93414173D01*
X105021483Y-93308185D01*
X105020620Y-93245137D01*
X105019099Y-93144026D01*
X105017478Y-93049063D01*
X105015820Y-92962983D01*
X105014185Y-92888522D01*
X105012633Y-92828415D01*
X105011226Y-92785396D01*
X105010024Y-92762200D01*
X105009820Y-92760228D01*
X105007742Y-92736345D01*
X105005116Y-92694639D01*
X105002237Y-92640361D01*
X104999397Y-92578765D01*
X104998537Y-92558182D01*
X104995636Y-92490658D01*
X104992514Y-92424215D01*
X104989511Y-92365727D01*
X104986966Y-92322066D01*
X104986543Y-92315728D01*
X104983871Y-92272792D01*
X104980681Y-92215114D01*
X104977418Y-92151019D01*
X104975118Y-92102137D01*
X104971018Y-92014243D01*
X104966812Y-91931331D01*
X104962281Y-91850208D01*
X104957203Y-91767681D01*
X104951357Y-91680557D01*
X104944524Y-91585645D01*
X104936483Y-91479750D01*
X104927013Y-91359681D01*
X104915894Y-91222245D01*
X104912795Y-91184489D01*
X104983900Y-91184489D01*
X104986330Y-91207364D01*
X104989899Y-91240121D01*
X104994116Y-91285494D01*
X104997668Y-91328591D01*
X105010999Y-91505608D01*
X105022120Y-91660479D01*
X105031086Y-91794042D01*
X105037952Y-91907129D01*
X105042775Y-92000577D01*
X105043682Y-92021318D01*
X105047545Y-92110109D01*
X105051544Y-92194074D01*
X105056049Y-92280337D01*
X105061432Y-92376024D01*
X105067409Y-92477364D01*
X105069103Y-92507319D01*
X105070849Y-92542023D01*
X105072740Y-92583867D01*
X105074870Y-92635237D01*
X105077333Y-92698524D01*
X105080223Y-92776116D01*
X105083633Y-92870401D01*
X105087658Y-92983769D01*
X105090758Y-93071955D01*
X105092792Y-93141572D01*
X105094644Y-93226565D01*
X105096184Y-93319219D01*
X105097278Y-93411820D01*
X105097750Y-93481818D01*
X105098671Y-93718500D01*
X105120848Y-93662441D01*
X105133818Y-93621865D01*
X105146377Y-93569714D01*
X105155669Y-93518123D01*
X105159001Y-93480212D01*
X105161297Y-93422966D01*
X105162608Y-93350116D01*
X105162987Y-93265392D01*
X105162485Y-93172525D01*
X105161153Y-93075245D01*
X105159044Y-92977284D01*
X105156210Y-92882370D01*
X105152701Y-92794236D01*
X105148571Y-92716611D01*
X105143870Y-92653225D01*
X105143626Y-92650546D01*
X105137890Y-92585712D01*
X105132109Y-92515961D01*
X105127228Y-92452832D01*
X105125681Y-92431182D01*
X105115548Y-92285197D01*
X105106716Y-92160463D01*
X105099045Y-92055187D01*
X105092395Y-91967574D01*
X105086627Y-91895830D01*
X105081599Y-91838160D01*
X105077172Y-91792771D01*
X105073206Y-91757867D01*
X105072942Y-91755773D01*
X105055435Y-91618708D01*
X105040403Y-91503278D01*
X105027658Y-91408180D01*
X105017015Y-91332111D01*
X105008287Y-91273769D01*
X105001287Y-91231850D01*
X104995828Y-91205054D01*
X104992371Y-91193449D01*
X104985502Y-91179326D01*
X104983900Y-91184489D01*
X104912795Y-91184489D01*
X104906143Y-91103455D01*
X104903125Y-91063042D01*
X104899492Y-91008764D01*
X104895847Y-90949814D01*
X104894381Y-90924500D01*
X104890938Y-90866427D01*
X104887261Y-90808936D01*
X104883947Y-90761221D01*
X104882746Y-90745546D01*
X104876499Y-90661001D01*
X104869830Y-90558132D01*
X104863039Y-90441694D01*
X104859188Y-90370318D01*
X104853947Y-90290355D01*
X104845658Y-90190211D01*
X104834622Y-90072550D01*
X104821141Y-89940041D01*
X104805514Y-89795346D01*
X104788045Y-89641134D01*
X104769033Y-89480068D01*
X104748780Y-89314815D01*
X104727587Y-89148040D01*
X104705755Y-88982409D01*
X104686369Y-88840546D01*
X104671574Y-88733260D01*
X104655770Y-88617031D01*
X104639812Y-88498270D01*
X104624558Y-88383390D01*
X104610864Y-88278802D01*
X104599978Y-88194000D01*
X104590885Y-88123295D01*
X104582082Y-88057956D01*
X104573131Y-87995708D01*
X104563590Y-87934275D01*
X104553020Y-87871383D01*
X104540981Y-87804755D01*
X104527033Y-87732118D01*
X104510736Y-87651195D01*
X104491651Y-87559712D01*
X104469337Y-87455394D01*
X104443354Y-87335965D01*
X104413264Y-87199150D01*
X104378625Y-87042674D01*
X104368943Y-86999046D01*
X104349696Y-86911134D01*
X104328861Y-86813838D01*
X104307038Y-86710148D01*
X104284830Y-86603056D01*
X104262837Y-86495553D01*
X104241659Y-86390631D01*
X104221898Y-86291282D01*
X104204154Y-86200497D01*
X104189029Y-86121268D01*
X104177124Y-86056586D01*
X104169039Y-86009443D01*
X104166015Y-85988818D01*
X104158041Y-85948549D01*
X104143616Y-85896268D01*
X104141120Y-85888730D01*
X104224488Y-85888730D01*
X104228424Y-85923131D01*
X104236502Y-85975871D01*
X104248308Y-86044844D01*
X104263431Y-86127944D01*
X104281456Y-86223066D01*
X104301972Y-86328104D01*
X104324565Y-86440951D01*
X104348823Y-86559502D01*
X104374333Y-86681652D01*
X104400683Y-86805294D01*
X104427459Y-86928323D01*
X104454249Y-87048633D01*
X104461315Y-87079864D01*
X104483637Y-87179246D01*
X104507527Y-87287437D01*
X104531491Y-87397556D01*
X104554039Y-87502723D01*
X104573679Y-87596058D01*
X104582693Y-87639818D01*
X104598637Y-87719079D01*
X104612348Y-87790144D01*
X104624466Y-87857134D01*
X104635632Y-87924171D01*
X104646487Y-87995376D01*
X104657671Y-88074871D01*
X104669825Y-88166778D01*
X104683590Y-88275217D01*
X104692165Y-88344091D01*
X104706051Y-88454592D01*
X104719674Y-88559424D01*
X104733893Y-88664914D01*
X104749568Y-88777385D01*
X104767559Y-88903163D01*
X104777736Y-88973318D01*
X104788551Y-89049676D01*
X104799275Y-89129058D01*
X104808938Y-89204025D01*
X104816567Y-89267137D01*
X104819198Y-89290818D01*
X104826901Y-89359916D01*
X104836174Y-89438174D01*
X104845378Y-89511885D01*
X104848174Y-89533273D01*
X104855474Y-89588638D01*
X104861619Y-89636481D01*
X104867135Y-89681404D01*
X104872549Y-89728009D01*
X104878384Y-89780899D01*
X104885167Y-89844674D01*
X104893423Y-89923938D01*
X104899580Y-89983546D01*
X104911525Y-90086502D01*
X104925742Y-90181618D01*
X104943759Y-90277532D01*
X104967106Y-90382881D01*
X104979308Y-90433818D01*
X105023585Y-90618871D01*
X105061545Y-90785667D01*
X105093808Y-90937972D01*
X105120999Y-91079553D01*
X105143740Y-91214175D01*
X105162655Y-91345606D01*
X105178366Y-91477610D01*
X105191495Y-91613954D01*
X105202667Y-91758404D01*
X105205604Y-91801955D01*
X105210386Y-91872031D01*
X105215248Y-91935973D01*
X105220766Y-92000321D01*
X105227513Y-92071614D01*
X105236065Y-92156391D01*
X105240612Y-92200273D01*
X105256971Y-92368614D01*
X105269704Y-92527251D01*
X105279627Y-92687512D01*
X105286770Y-92841046D01*
X105291800Y-92961853D01*
X105296370Y-93062288D01*
X105300748Y-93145060D01*
X105305200Y-93212876D01*
X105309992Y-93268444D01*
X105315392Y-93314472D01*
X105321666Y-93353668D01*
X105329081Y-93388740D01*
X105337903Y-93422395D01*
X105347031Y-93452955D01*
X105372928Y-93524274D01*
X105401965Y-93577526D01*
X105437579Y-93617734D01*
X105480877Y-93648567D01*
X105508254Y-93661701D01*
X105543370Y-93672713D01*
X105589148Y-93682071D01*
X105648514Y-93690236D01*
X105724392Y-93697674D01*
X105819709Y-93704850D01*
X105846727Y-93706644D01*
X105913212Y-93711351D01*
X105973181Y-93716308D01*
X106022640Y-93721122D01*
X106057597Y-93725399D01*
X106074060Y-93728745D01*
X106074665Y-93729119D01*
X106065125Y-93732079D01*
X106037054Y-93738228D01*
X105994655Y-93746696D01*
X105942130Y-93756618D01*
X105936119Y-93757723D01*
X105814538Y-93781304D01*
X105713453Y-93803938D01*
X105630338Y-93826458D01*
X105562668Y-93849696D01*
X105507916Y-93874485D01*
X105463557Y-93901658D01*
X105438052Y-93921912D01*
X105405587Y-93952519D01*
X105388785Y-93972779D01*
X105388113Y-93981341D01*
X105404038Y-93976857D01*
X105422432Y-93966946D01*
X105448905Y-93954156D01*
X105490992Y-93936937D01*
X105542284Y-93917812D01*
X105582675Y-93903825D01*
X105661238Y-93880513D01*
X105744510Y-93862011D01*
X105835461Y-93848044D01*
X105937061Y-93838338D01*
X106052278Y-93832618D01*
X106184084Y-93830610D01*
X106335448Y-93832038D01*
X106354727Y-93832420D01*
X106439912Y-93834412D01*
X106520483Y-93836707D01*
X106592635Y-93839167D01*
X106652563Y-93841650D01*
X106696461Y-93844016D01*
X106718409Y-93845840D01*
X106785755Y-93857320D01*
X106852766Y-93874394D01*
X106912820Y-93894971D01*
X106959296Y-93916963D01*
X106973411Y-93926300D01*
X106999764Y-93944006D01*
X107011236Y-93946878D01*
X107008354Y-93937280D01*
X106991645Y-93917575D01*
X106966193Y-93893981D01*
X106946989Y-93878248D01*
X106927653Y-93864766D01*
X106904943Y-93852197D01*
X106875619Y-93839205D01*
X106836441Y-93824451D01*
X106784169Y-93806597D01*
X106715562Y-93784306D01*
X106649677Y-93763313D01*
X106591821Y-93744559D01*
X106543607Y-93728177D01*
X106508459Y-93715393D01*
X106489796Y-93707430D01*
X106488041Y-93705443D01*
X106502748Y-93703348D01*
X106536326Y-93699536D01*
X106584656Y-93694444D01*
X106643616Y-93688511D01*
X106686141Y-93684368D01*
X106764925Y-93676415D01*
X106824887Y-93669113D01*
X106870237Y-93661434D01*
X106905184Y-93652349D01*
X106933936Y-93640831D01*
X106960702Y-93625853D01*
X106981118Y-93612341D01*
X107020271Y-93580179D01*
X107046993Y-93543616D01*
X107063917Y-93497082D01*
X107073681Y-93435003D01*
X107075605Y-93412546D01*
X107079643Y-93361488D01*
X107080387Y-93353020D01*
X107270086Y-93353020D01*
X107274135Y-93465796D01*
X107283396Y-93572175D01*
X107297394Y-93666640D01*
X107315025Y-93741591D01*
X107326996Y-93778807D01*
X107336629Y-93803645D01*
X107342130Y-93811591D01*
X107342547Y-93810864D01*
X107343309Y-93797407D01*
X107344255Y-93763059D01*
X107345351Y-93710018D01*
X107346561Y-93640484D01*
X107347852Y-93556654D01*
X107349187Y-93460728D01*
X107350531Y-93354904D01*
X107351850Y-93241381D01*
X107352313Y-93198955D01*
X107353641Y-93082503D01*
X107355050Y-92972398D01*
X107356501Y-92870924D01*
X107357952Y-92780362D01*
X107359365Y-92702997D01*
X107360700Y-92641111D01*
X107361917Y-92596987D01*
X107362976Y-92572908D01*
X107363287Y-92569728D01*
X107364914Y-92550153D01*
X107366975Y-92511200D01*
X107369316Y-92456573D01*
X107371785Y-92389978D01*
X107374230Y-92315120D01*
X107375407Y-92275318D01*
X107377902Y-92190786D01*
X107380542Y-92106206D01*
X107383150Y-92026959D01*
X107385546Y-91958431D01*
X107387553Y-91906002D01*
X107388048Y-91894318D01*
X107390652Y-91834536D01*
X107393803Y-91761719D01*
X107397068Y-91685899D01*
X107399515Y-91628773D01*
X107405064Y-91504520D01*
X107410794Y-91386670D01*
X107416536Y-91278197D01*
X107422121Y-91182076D01*
X107427378Y-91101282D01*
X107432140Y-91038789D01*
X107434711Y-91011091D01*
X107436143Y-90990469D01*
X107433890Y-90989702D01*
X107427501Y-91009722D01*
X107417985Y-91045728D01*
X107399590Y-91131754D01*
X107382558Y-91239983D01*
X107366981Y-91369562D01*
X107352948Y-91519637D01*
X107340550Y-91689356D01*
X107330209Y-91871228D01*
X107327037Y-91931990D01*
X107323645Y-91992507D01*
X107320532Y-92044052D01*
X107318974Y-92067500D01*
X107316223Y-92109194D01*
X107312788Y-92165222D01*
X107309195Y-92226859D01*
X107307134Y-92263773D01*
X107303876Y-92319379D01*
X107300538Y-92369722D01*
X107297571Y-92408300D01*
X107295885Y-92425409D01*
X107294494Y-92445965D01*
X107292776Y-92486177D01*
X107290839Y-92542615D01*
X107288793Y-92611847D01*
X107286746Y-92690444D01*
X107284877Y-92771773D01*
X107282752Y-92864847D01*
X107280364Y-92959813D01*
X107277862Y-93051347D01*
X107275397Y-93134128D01*
X107273117Y-93202831D01*
X107271726Y-93239364D01*
X107270086Y-93353020D01*
X107080387Y-93353020D01*
X107083795Y-93314236D01*
X107087293Y-93279404D01*
X107087932Y-93274000D01*
X107091725Y-93234657D01*
X107096048Y-93173988D01*
X107100794Y-93093747D01*
X107105861Y-92995689D01*
X107110894Y-92887228D01*
X107116047Y-92772969D01*
X107120678Y-92676465D01*
X107125131Y-92592393D01*
X107129748Y-92515432D01*
X107134873Y-92440263D01*
X107140849Y-92361563D01*
X107148018Y-92274012D01*
X107156725Y-92172288D01*
X107157804Y-92159864D01*
X107165511Y-92070689D01*
X107172888Y-91984436D01*
X107179596Y-91905141D01*
X107185294Y-91836842D01*
X107189644Y-91783577D01*
X107192261Y-91750000D01*
X107196106Y-91699906D01*
X107200049Y-91652100D01*
X107203208Y-91617228D01*
X107206634Y-91581106D01*
X107210978Y-91533170D01*
X107214742Y-91490228D01*
X107224743Y-91381175D01*
X107234945Y-91290340D01*
X107246544Y-91212869D01*
X107260735Y-91143909D01*
X107278715Y-91078608D01*
X107301681Y-91012113D01*
X107330829Y-90939573D01*
X107367355Y-90856133D01*
X107375561Y-90837909D01*
X107472043Y-90624318D01*
X107526410Y-90071083D01*
X107537380Y-89959772D01*
X107547770Y-89854957D01*
X107557341Y-89758984D01*
X107565859Y-89674203D01*
X107573086Y-89602959D01*
X107578784Y-89547601D01*
X107582718Y-89510476D01*
X107584650Y-89493931D01*
X107584669Y-89493811D01*
X107587369Y-89473915D01*
X107592078Y-89436019D01*
X107598195Y-89385066D01*
X107605122Y-89325998D01*
X107607187Y-89308137D01*
X107618027Y-89218887D01*
X107632131Y-89110335D01*
X107648995Y-88985963D01*
X107668114Y-88849250D01*
X107688982Y-88703675D01*
X107711094Y-88552719D01*
X107733947Y-88399862D01*
X107757033Y-88248583D01*
X107779850Y-88102364D01*
X107801891Y-87964683D01*
X107804029Y-87951546D01*
X107817522Y-87868576D01*
X107833585Y-87769515D01*
X107851133Y-87661071D01*
X107869081Y-87549953D01*
X107886345Y-87442867D01*
X107896453Y-87380046D01*
X107913358Y-87277716D01*
X107933546Y-87160090D01*
X107955708Y-87034502D01*
X107978540Y-86908285D01*
X108000733Y-86788775D01*
X108016817Y-86704637D01*
X108036911Y-86600712D01*
X108058332Y-86489118D01*
X108079908Y-86376010D01*
X108100468Y-86267545D01*
X108118842Y-86169879D01*
X108132895Y-86094383D01*
X108146924Y-86019250D01*
X108159923Y-85951154D01*
X108171204Y-85893581D01*
X108180076Y-85850021D01*
X108185852Y-85823961D01*
X108187356Y-85818603D01*
X108190432Y-85808932D01*
X108187536Y-85805671D01*
X108174862Y-85809972D01*
X108148607Y-85822986D01*
X108115409Y-85840369D01*
X108057415Y-85866538D01*
X107985278Y-85891175D01*
X107897693Y-85914537D01*
X107793357Y-85936878D01*
X107670967Y-85958454D01*
X107529219Y-85979523D01*
X107366808Y-86000339D01*
X107209091Y-86018291D01*
X107164003Y-86023231D01*
X107118823Y-86028260D01*
X107110954Y-86029147D01*
X107065308Y-86033971D01*
X107018691Y-86038098D01*
X106968963Y-86041577D01*
X106913982Y-86044462D01*
X106851608Y-86046803D01*
X106779700Y-86048651D01*
X106696117Y-86050058D01*
X106598719Y-86051076D01*
X106485366Y-86051757D01*
X106353915Y-86052150D01*
X106202228Y-86052309D01*
X106146909Y-86052318D01*
X105953462Y-86052089D01*
X105781868Y-86051382D01*
X105630895Y-86050172D01*
X105499310Y-86048430D01*
X105385879Y-86046132D01*
X105289370Y-86043249D01*
X105208549Y-86039754D01*
X105142184Y-86035622D01*
X105089042Y-86030825D01*
X105073182Y-86028964D01*
X105047933Y-86026136D01*
X105004692Y-86021658D01*
X104948456Y-86016033D01*
X104884223Y-86009764D01*
X104845871Y-86006088D01*
X104776507Y-85999128D01*
X104709603Y-85991774D01*
X104651041Y-85984718D01*
X104606701Y-85978651D01*
X104591871Y-85976234D01*
X104538602Y-85965329D01*
X104477044Y-85950663D01*
X104413302Y-85933917D01*
X104353479Y-85916769D01*
X104303679Y-85900897D01*
X104270008Y-85887981D01*
X104268625Y-85887333D01*
X104242417Y-85876846D01*
X104226361Y-85874147D01*
X104225106Y-85874773D01*
X104224488Y-85888730D01*
X104141120Y-85888730D01*
X104125378Y-85841190D01*
X104118405Y-85822497D01*
X104097946Y-85765775D01*
X104087569Y-85723645D01*
X104087337Y-85703331D01*
X104157192Y-85703331D01*
X104159960Y-85726528D01*
X104180924Y-85754566D01*
X104222182Y-85783459D01*
X104281007Y-85812292D01*
X104354671Y-85840151D01*
X104440447Y-85866122D01*
X104535605Y-85889290D01*
X104637418Y-85908739D01*
X104743159Y-85923557D01*
X104749909Y-85924316D01*
X104819049Y-85931541D01*
X104901876Y-85939499D01*
X104993462Y-85947780D01*
X105088881Y-85955978D01*
X105183204Y-85963683D01*
X105271504Y-85970487D01*
X105348854Y-85975982D01*
X105410326Y-85979759D01*
X105431091Y-85980773D01*
X105456861Y-85981417D01*
X105503281Y-85982089D01*
X105567913Y-85982770D01*
X105648317Y-85983442D01*
X105742052Y-85984088D01*
X105846678Y-85984690D01*
X105959757Y-85985230D01*
X106078847Y-85985692D01*
X106135363Y-85985873D01*
X106297460Y-85986144D01*
X106438472Y-85985890D01*
X106560399Y-85985075D01*
X106665243Y-85983664D01*
X106755004Y-85981622D01*
X106831682Y-85978911D01*
X106897279Y-85975497D01*
X106953796Y-85971343D01*
X106955091Y-85971231D01*
X107153969Y-85952500D01*
X107337628Y-85932212D01*
X107504991Y-85910550D01*
X107654985Y-85887698D01*
X107786535Y-85863840D01*
X107898567Y-85839157D01*
X107990006Y-85813835D01*
X108059777Y-85788056D01*
X108077565Y-85779632D01*
X108118651Y-85754946D01*
X108156198Y-85725844D01*
X108185212Y-85696892D01*
X108200698Y-85672653D01*
X108202000Y-85665907D01*
X108192287Y-85636216D01*
X108166755Y-85603589D01*
X108130814Y-85574173D01*
X108111431Y-85562988D01*
X108047620Y-85537206D01*
X107960899Y-85512170D01*
X107851437Y-85487914D01*
X107719405Y-85464473D01*
X107564974Y-85441882D01*
X107463091Y-85428927D01*
X107381611Y-85420704D01*
X107285718Y-85414098D01*
X107174092Y-85409077D01*
X107045412Y-85405613D01*
X106898358Y-85403673D01*
X106731610Y-85403230D01*
X106543849Y-85404251D01*
X106433218Y-85405402D01*
X106315418Y-85406875D01*
X106202229Y-85408420D01*
X106096219Y-85409994D01*
X105999956Y-85411552D01*
X105916008Y-85413050D01*
X105846945Y-85414446D01*
X105795334Y-85415694D01*
X105763743Y-85416750D01*
X105760136Y-85416930D01*
X105717903Y-85419119D01*
X105659725Y-85421936D01*
X105592730Y-85425047D01*
X105524043Y-85428113D01*
X105511909Y-85428641D01*
X105447784Y-85431597D01*
X105388028Y-85434680D01*
X105338330Y-85437573D01*
X105304377Y-85439961D01*
X105298318Y-85440511D01*
X105266388Y-85443231D01*
X105219253Y-85446671D01*
X105164764Y-85450274D01*
X105136682Y-85451993D01*
X105044071Y-85458299D01*
X104935710Y-85467034D01*
X104818741Y-85477591D01*
X104722782Y-85487044D01*
X104674019Y-85493998D01*
X104610298Y-85505822D01*
X104538824Y-85520906D01*
X104466801Y-85537637D01*
X104401434Y-85554405D01*
X104349928Y-85569596D01*
X104342395Y-85572140D01*
X104265694Y-85603203D01*
X104208645Y-85635943D01*
X104172171Y-85669578D01*
X104157192Y-85703331D01*
X104087337Y-85703331D01*
X104087183Y-85689968D01*
X104096699Y-85658606D01*
X104115519Y-85624243D01*
X104147225Y-85590488D01*
X104199134Y-85556829D01*
X104268369Y-85524187D01*
X104352058Y-85493481D01*
X104447324Y-85465631D01*
X104551295Y-85441556D01*
X104661094Y-85422178D01*
X104773849Y-85408415D01*
X104796087Y-85406451D01*
X104939935Y-85394773D01*
X105063342Y-85385189D01*
X105168842Y-85377507D01*
X105258972Y-85371539D01*
X105269454Y-85370893D01*
X105324818Y-85367325D01*
X105375827Y-85363700D01*
X105415360Y-85360541D01*
X105431091Y-85359034D01*
X105472765Y-85355755D01*
X105535057Y-85352677D01*
X105615493Y-85349816D01*
X105711599Y-85347191D01*
X105820903Y-85344820D01*
X105940930Y-85342719D01*
X106069209Y-85340907D01*
X106203266Y-85339401D01*
X106340628Y-85338218D01*
X106478821Y-85337378D01*
X106615373Y-85336896D01*
X106747810Y-85336791D01*
X106873658Y-85337081D01*
D14*
G04 #@! TO.C,C1*
X124602064Y-83690000D02*
X123397936Y-83690000D01*
X124602064Y-85510000D02*
X123397936Y-85510000D01*
G04 #@! TO.C,C2*
X124602064Y-81710000D02*
X123397936Y-81710000D01*
X124602064Y-79890000D02*
X123397936Y-79890000D01*
G04 #@! TO.C,D14*
X98735000Y-119485000D02*
X98735000Y-115600000D01*
X96465000Y-119485000D02*
X98735000Y-119485000D01*
X96465000Y-115600000D02*
X96465000Y-119485000D01*
G04 #@! TO.C,D15*
X100265000Y-115600000D02*
X100265000Y-119485000D01*
X100265000Y-119485000D02*
X102535000Y-119485000D01*
X102535000Y-119485000D02*
X102535000Y-115600000D01*
G04 #@! TO.C,D16*
X106335000Y-119485000D02*
X106335000Y-115600000D01*
X104065000Y-119485000D02*
X106335000Y-119485000D01*
X104065000Y-115600000D02*
X104065000Y-119485000D01*
G04 #@! TO.C,D17*
X107865000Y-115600000D02*
X107865000Y-119485000D01*
X107865000Y-119485000D02*
X110135000Y-119485000D01*
X110135000Y-119485000D02*
X110135000Y-115600000D01*
G04 #@! TO.C,D30*
X113935000Y-119485000D02*
X113935000Y-115600000D01*
X111665000Y-119485000D02*
X113935000Y-119485000D01*
X111665000Y-115600000D02*
X111665000Y-119485000D01*
G04 #@! TO.C,D31*
X115465000Y-115600000D02*
X115465000Y-119485000D01*
X115465000Y-119485000D02*
X117735000Y-119485000D01*
X117735000Y-119485000D02*
X117735000Y-115600000D01*
G04 #@! TO.C,D32*
X121535000Y-119485000D02*
X121535000Y-115600000D01*
X119265000Y-119485000D02*
X121535000Y-119485000D01*
X119265000Y-115600000D02*
X119265000Y-119485000D01*
G04 #@! TO.C,D33*
X123065000Y-115600000D02*
X123065000Y-119485000D01*
X123065000Y-119485000D02*
X125335000Y-119485000D01*
X125335000Y-119485000D02*
X125335000Y-115600000D01*
D10*
G04 #@! TO.C,IC1*
X110124000Y-105372000D02*
X110124000Y-95974000D01*
X110124000Y-95974000D02*
X107076000Y-95974000D01*
X107076000Y-95974000D02*
X107076000Y-105372000D01*
X107076000Y-105372000D02*
X107076000Y-105626000D01*
X107076000Y-105626000D02*
X110124000Y-105626000D01*
X110124000Y-105626000D02*
X110124000Y-105372000D01*
X108197210Y-96736000D02*
G75*
G03X108197210Y-96736000I-359210J0D01*
G01*
D14*
G04 #@! TO.C,J1*
X112460000Y-79800000D02*
X112460000Y-80060000D01*
X112810000Y-82840000D02*
X112810000Y-84610000D01*
X112810000Y-84610000D02*
X112430000Y-84610000D01*
X104490000Y-84610000D02*
X104490000Y-82840000D01*
X104840000Y-80060000D02*
X104840000Y-79800000D01*
X104490000Y-84610000D02*
X104870000Y-84610000D01*
G04 #@! TO.C,J2*
X98890000Y-86030000D02*
X100220000Y-86030000D01*
X98890000Y-87360000D02*
X98890000Y-86030000D01*
X98890000Y-88630000D02*
X101550000Y-88630000D01*
X101550000Y-88630000D02*
X101550000Y-106470000D01*
X98890000Y-88630000D02*
X98890000Y-106470000D01*
X98890000Y-106470000D02*
X101550000Y-106470000D01*
G04 #@! TO.C,J3*
X119330000Y-86030000D02*
X116670000Y-86030000D01*
X119330000Y-103870000D02*
X119330000Y-86030000D01*
X116670000Y-103870000D02*
X116670000Y-86030000D01*
X119330000Y-103870000D02*
X116670000Y-103870000D01*
X119330000Y-105140000D02*
X119330000Y-106470000D01*
X119330000Y-106470000D02*
X118000000Y-106470000D01*
G04 #@! TO.C,J4*
X122930000Y-93730000D02*
X121600000Y-93730000D01*
X122930000Y-92400000D02*
X122930000Y-93730000D01*
X122930000Y-91130000D02*
X120270000Y-91130000D01*
X120270000Y-91130000D02*
X120270000Y-88530000D01*
X122930000Y-91130000D02*
X122930000Y-88530000D01*
X122930000Y-88530000D02*
X120270000Y-88530000D01*
G04 #@! TO.C,R1*
X113010000Y-87597936D02*
X113010000Y-88802064D01*
X111190000Y-87597936D02*
X111190000Y-88802064D01*
G04 #@! TO.C,R14*
X96690000Y-112602064D02*
X96690000Y-111397936D01*
X98510000Y-112602064D02*
X98510000Y-111397936D01*
G04 #@! TO.C,R15*
X102310000Y-112602064D02*
X102310000Y-111397936D01*
X100490000Y-112602064D02*
X100490000Y-111397936D01*
G04 #@! TO.C,R16*
X104290000Y-112602064D02*
X104290000Y-111397936D01*
X106110000Y-112602064D02*
X106110000Y-111397936D01*
G04 #@! TO.C,R17*
X108090000Y-112602064D02*
X108090000Y-111397936D01*
X109910000Y-112602064D02*
X109910000Y-111397936D01*
G04 #@! TO.C,R30*
X111890000Y-112602064D02*
X111890000Y-111397936D01*
X113710000Y-112602064D02*
X113710000Y-111397936D01*
G04 #@! TO.C,R31*
X117510000Y-112602064D02*
X117510000Y-111397936D01*
X115690000Y-112602064D02*
X115690000Y-111397936D01*
G04 #@! TO.C,R32*
X121310000Y-112602064D02*
X121310000Y-111397936D01*
X119490000Y-112602064D02*
X119490000Y-111397936D01*
G04 #@! TO.C,R33*
X123290000Y-111397936D02*
X123290000Y-112602064D01*
X125110000Y-111397936D02*
X125110000Y-112602064D01*
D12*
G04 #@! TO.C,SW1*
X117850000Y-82100000D02*
X115350000Y-82100000D01*
X115350000Y-82100000D02*
X115350000Y-82100000D01*
X115350000Y-82100000D02*
X117850000Y-82100000D01*
X117850000Y-82100000D02*
X117850000Y-82100000D01*
X117850000Y-79900000D02*
X115350000Y-79900000D01*
X115350000Y-79900000D02*
X115350000Y-79900000D01*
X115350000Y-79900000D02*
X117850000Y-79900000D01*
X117850000Y-79900000D02*
X117850000Y-79900000D01*
D15*
X119200000Y-80900000D02*
X119200000Y-80900000D01*
X119200000Y-80800000D02*
X119200000Y-80800000D01*
X119200000Y-80900000D02*
X119200000Y-80900000D01*
X119200000Y-80800000D02*
G75*
G02X119200000Y-80900000I0J-50000D01*
G01*
X119200000Y-80900000D02*
G75*
G02X119200000Y-80800000I0J50000D01*
G01*
X119200000Y-80800000D02*
G75*
G02X119200000Y-80900000I0J-50000D01*
G01*
G04 #@! TO.C,SW11*
X120200000Y-105400000D02*
G75*
G02X120200000Y-105300000I0J50000D01*
G01*
X120200000Y-105300000D02*
G75*
G02X120200000Y-105400000I0J-50000D01*
G01*
X120200000Y-105400000D02*
G75*
G02X120200000Y-105300000I0J50000D01*
G01*
X120200000Y-105300000D02*
X120200000Y-105300000D01*
X120200000Y-105400000D02*
X120200000Y-105400000D01*
X120200000Y-105300000D02*
X120200000Y-105300000D01*
D12*
X121550000Y-106300000D02*
X121550000Y-106300000D01*
X124050000Y-106300000D02*
X121550000Y-106300000D01*
X124050000Y-106300000D02*
X124050000Y-106300000D01*
X121550000Y-106300000D02*
X124050000Y-106300000D01*
X121550000Y-104100000D02*
X121550000Y-104100000D01*
X124050000Y-104100000D02*
X121550000Y-104100000D01*
X124050000Y-104100000D02*
X124050000Y-104100000D01*
X121550000Y-104100000D02*
X124050000Y-104100000D01*
G04 #@! TO.C,SW34*
X121550000Y-99300000D02*
X124050000Y-99300000D01*
X124050000Y-99300000D02*
X124050000Y-99300000D01*
X124050000Y-99300000D02*
X121550000Y-99300000D01*
X121550000Y-99300000D02*
X121550000Y-99300000D01*
X121550000Y-101500000D02*
X124050000Y-101500000D01*
X124050000Y-101500000D02*
X124050000Y-101500000D01*
X124050000Y-101500000D02*
X121550000Y-101500000D01*
X121550000Y-101500000D02*
X121550000Y-101500000D01*
D15*
X120200000Y-100500000D02*
X120200000Y-100500000D01*
X120200000Y-100600000D02*
X120200000Y-100600000D01*
X120200000Y-100500000D02*
X120200000Y-100500000D01*
X120200000Y-100600000D02*
G75*
G02X120200000Y-100500000I0J50000D01*
G01*
X120200000Y-100500000D02*
G75*
G02X120200000Y-100600000I0J-50000D01*
G01*
X120200000Y-100600000D02*
G75*
G02X120200000Y-100500000I0J50000D01*
G01*
G04 #@! TD*
G04 #@! TO.C,C1*
D10*
X123875000Y-86687857D02*
X123839285Y-86723571D01*
X123732142Y-86759285D01*
X123660714Y-86759285D01*
X123553571Y-86723571D01*
X123482142Y-86652142D01*
X123446428Y-86580714D01*
X123410714Y-86437857D01*
X123410714Y-86330714D01*
X123446428Y-86187857D01*
X123482142Y-86116428D01*
X123553571Y-86045000D01*
X123660714Y-86009285D01*
X123732142Y-86009285D01*
X123839285Y-86045000D01*
X123875000Y-86080714D01*
X124589285Y-86759285D02*
X124160714Y-86759285D01*
X124375000Y-86759285D02*
X124375000Y-86009285D01*
X124303571Y-86116428D01*
X124232142Y-86187857D01*
X124160714Y-86223571D01*
G04 #@! TO.C,C2*
X123875000Y-82887857D02*
X123839285Y-82923571D01*
X123732142Y-82959285D01*
X123660714Y-82959285D01*
X123553571Y-82923571D01*
X123482142Y-82852142D01*
X123446428Y-82780714D01*
X123410714Y-82637857D01*
X123410714Y-82530714D01*
X123446428Y-82387857D01*
X123482142Y-82316428D01*
X123553571Y-82245000D01*
X123660714Y-82209285D01*
X123732142Y-82209285D01*
X123839285Y-82245000D01*
X123875000Y-82280714D01*
X124160714Y-82280714D02*
X124196428Y-82245000D01*
X124267857Y-82209285D01*
X124446428Y-82209285D01*
X124517857Y-82245000D01*
X124553571Y-82280714D01*
X124589285Y-82352142D01*
X124589285Y-82423571D01*
X124553571Y-82530714D01*
X124125000Y-82959285D01*
X124589285Y-82959285D01*
G04 #@! TO.C,D14*
X96119285Y-118110714D02*
X95369285Y-118110714D01*
X95369285Y-117932142D01*
X95405000Y-117825000D01*
X95476428Y-117753571D01*
X95547857Y-117717857D01*
X95690714Y-117682142D01*
X95797857Y-117682142D01*
X95940714Y-117717857D01*
X96012142Y-117753571D01*
X96083571Y-117825000D01*
X96119285Y-117932142D01*
X96119285Y-118110714D01*
X96119285Y-116967857D02*
X96119285Y-117396428D01*
X96119285Y-117182142D02*
X95369285Y-117182142D01*
X95476428Y-117253571D01*
X95547857Y-117325000D01*
X95583571Y-117396428D01*
X95619285Y-116325000D02*
X96119285Y-116325000D01*
X95333571Y-116503571D02*
X95869285Y-116682142D01*
X95869285Y-116217857D01*
G04 #@! TO.C,D15*
X99919285Y-118110714D02*
X99169285Y-118110714D01*
X99169285Y-117932142D01*
X99205000Y-117825000D01*
X99276428Y-117753571D01*
X99347857Y-117717857D01*
X99490714Y-117682142D01*
X99597857Y-117682142D01*
X99740714Y-117717857D01*
X99812142Y-117753571D01*
X99883571Y-117825000D01*
X99919285Y-117932142D01*
X99919285Y-118110714D01*
X99919285Y-116967857D02*
X99919285Y-117396428D01*
X99919285Y-117182142D02*
X99169285Y-117182142D01*
X99276428Y-117253571D01*
X99347857Y-117325000D01*
X99383571Y-117396428D01*
X99169285Y-116289285D02*
X99169285Y-116646428D01*
X99526428Y-116682142D01*
X99490714Y-116646428D01*
X99455000Y-116575000D01*
X99455000Y-116396428D01*
X99490714Y-116325000D01*
X99526428Y-116289285D01*
X99597857Y-116253571D01*
X99776428Y-116253571D01*
X99847857Y-116289285D01*
X99883571Y-116325000D01*
X99919285Y-116396428D01*
X99919285Y-116575000D01*
X99883571Y-116646428D01*
X99847857Y-116682142D01*
G04 #@! TO.C,D16*
X103719285Y-118110714D02*
X102969285Y-118110714D01*
X102969285Y-117932142D01*
X103005000Y-117825000D01*
X103076428Y-117753571D01*
X103147857Y-117717857D01*
X103290714Y-117682142D01*
X103397857Y-117682142D01*
X103540714Y-117717857D01*
X103612142Y-117753571D01*
X103683571Y-117825000D01*
X103719285Y-117932142D01*
X103719285Y-118110714D01*
X103719285Y-116967857D02*
X103719285Y-117396428D01*
X103719285Y-117182142D02*
X102969285Y-117182142D01*
X103076428Y-117253571D01*
X103147857Y-117325000D01*
X103183571Y-117396428D01*
X102969285Y-116325000D02*
X102969285Y-116467857D01*
X103005000Y-116539285D01*
X103040714Y-116575000D01*
X103147857Y-116646428D01*
X103290714Y-116682142D01*
X103576428Y-116682142D01*
X103647857Y-116646428D01*
X103683571Y-116610714D01*
X103719285Y-116539285D01*
X103719285Y-116396428D01*
X103683571Y-116325000D01*
X103647857Y-116289285D01*
X103576428Y-116253571D01*
X103397857Y-116253571D01*
X103326428Y-116289285D01*
X103290714Y-116325000D01*
X103255000Y-116396428D01*
X103255000Y-116539285D01*
X103290714Y-116610714D01*
X103326428Y-116646428D01*
X103397857Y-116682142D01*
G04 #@! TO.C,D17*
X107519285Y-118110714D02*
X106769285Y-118110714D01*
X106769285Y-117932142D01*
X106805000Y-117825000D01*
X106876428Y-117753571D01*
X106947857Y-117717857D01*
X107090714Y-117682142D01*
X107197857Y-117682142D01*
X107340714Y-117717857D01*
X107412142Y-117753571D01*
X107483571Y-117825000D01*
X107519285Y-117932142D01*
X107519285Y-118110714D01*
X107519285Y-116967857D02*
X107519285Y-117396428D01*
X107519285Y-117182142D02*
X106769285Y-117182142D01*
X106876428Y-117253571D01*
X106947857Y-117325000D01*
X106983571Y-117396428D01*
X106769285Y-116717857D02*
X106769285Y-116217857D01*
X107519285Y-116539285D01*
G04 #@! TO.C,D30*
X115039285Y-118110714D02*
X114289285Y-118110714D01*
X114289285Y-117932142D01*
X114325000Y-117825000D01*
X114396428Y-117753571D01*
X114467857Y-117717857D01*
X114610714Y-117682142D01*
X114717857Y-117682142D01*
X114860714Y-117717857D01*
X114932142Y-117753571D01*
X115003571Y-117825000D01*
X115039285Y-117932142D01*
X115039285Y-118110714D01*
X114289285Y-117432142D02*
X114289285Y-116967857D01*
X114575000Y-117217857D01*
X114575000Y-117110714D01*
X114610714Y-117039285D01*
X114646428Y-117003571D01*
X114717857Y-116967857D01*
X114896428Y-116967857D01*
X114967857Y-117003571D01*
X115003571Y-117039285D01*
X115039285Y-117110714D01*
X115039285Y-117325000D01*
X115003571Y-117396428D01*
X114967857Y-117432142D01*
X114289285Y-116503571D02*
X114289285Y-116432142D01*
X114325000Y-116360714D01*
X114360714Y-116325000D01*
X114432142Y-116289285D01*
X114575000Y-116253571D01*
X114753571Y-116253571D01*
X114896428Y-116289285D01*
X114967857Y-116325000D01*
X115003571Y-116360714D01*
X115039285Y-116432142D01*
X115039285Y-116503571D01*
X115003571Y-116575000D01*
X114967857Y-116610714D01*
X114896428Y-116646428D01*
X114753571Y-116682142D01*
X114575000Y-116682142D01*
X114432142Y-116646428D01*
X114360714Y-116610714D01*
X114325000Y-116575000D01*
X114289285Y-116503571D01*
G04 #@! TO.C,D31*
X118839285Y-118110714D02*
X118089285Y-118110714D01*
X118089285Y-117932142D01*
X118125000Y-117825000D01*
X118196428Y-117753571D01*
X118267857Y-117717857D01*
X118410714Y-117682142D01*
X118517857Y-117682142D01*
X118660714Y-117717857D01*
X118732142Y-117753571D01*
X118803571Y-117825000D01*
X118839285Y-117932142D01*
X118839285Y-118110714D01*
X118089285Y-117432142D02*
X118089285Y-116967857D01*
X118375000Y-117217857D01*
X118375000Y-117110714D01*
X118410714Y-117039285D01*
X118446428Y-117003571D01*
X118517857Y-116967857D01*
X118696428Y-116967857D01*
X118767857Y-117003571D01*
X118803571Y-117039285D01*
X118839285Y-117110714D01*
X118839285Y-117325000D01*
X118803571Y-117396428D01*
X118767857Y-117432142D01*
X118839285Y-116253571D02*
X118839285Y-116682142D01*
X118839285Y-116467857D02*
X118089285Y-116467857D01*
X118196428Y-116539285D01*
X118267857Y-116610714D01*
X118303571Y-116682142D01*
G04 #@! TO.C,D32*
X122639285Y-118110714D02*
X121889285Y-118110714D01*
X121889285Y-117932142D01*
X121925000Y-117825000D01*
X121996428Y-117753571D01*
X122067857Y-117717857D01*
X122210714Y-117682142D01*
X122317857Y-117682142D01*
X122460714Y-117717857D01*
X122532142Y-117753571D01*
X122603571Y-117825000D01*
X122639285Y-117932142D01*
X122639285Y-118110714D01*
X121889285Y-117432142D02*
X121889285Y-116967857D01*
X122175000Y-117217857D01*
X122175000Y-117110714D01*
X122210714Y-117039285D01*
X122246428Y-117003571D01*
X122317857Y-116967857D01*
X122496428Y-116967857D01*
X122567857Y-117003571D01*
X122603571Y-117039285D01*
X122639285Y-117110714D01*
X122639285Y-117325000D01*
X122603571Y-117396428D01*
X122567857Y-117432142D01*
X121960714Y-116682142D02*
X121925000Y-116646428D01*
X121889285Y-116575000D01*
X121889285Y-116396428D01*
X121925000Y-116325000D01*
X121960714Y-116289285D01*
X122032142Y-116253571D01*
X122103571Y-116253571D01*
X122210714Y-116289285D01*
X122639285Y-116717857D01*
X122639285Y-116253571D01*
G04 #@! TO.C,D33*
X126439285Y-118110714D02*
X125689285Y-118110714D01*
X125689285Y-117932142D01*
X125725000Y-117825000D01*
X125796428Y-117753571D01*
X125867857Y-117717857D01*
X126010714Y-117682142D01*
X126117857Y-117682142D01*
X126260714Y-117717857D01*
X126332142Y-117753571D01*
X126403571Y-117825000D01*
X126439285Y-117932142D01*
X126439285Y-118110714D01*
X125689285Y-117432142D02*
X125689285Y-116967857D01*
X125975000Y-117217857D01*
X125975000Y-117110714D01*
X126010714Y-117039285D01*
X126046428Y-117003571D01*
X126117857Y-116967857D01*
X126296428Y-116967857D01*
X126367857Y-117003571D01*
X126403571Y-117039285D01*
X126439285Y-117110714D01*
X126439285Y-117325000D01*
X126403571Y-117396428D01*
X126367857Y-117432142D01*
X125689285Y-116717857D02*
X125689285Y-116253571D01*
X125975000Y-116503571D01*
X125975000Y-116396428D01*
X126010714Y-116325000D01*
X126046428Y-116289285D01*
X126117857Y-116253571D01*
X126296428Y-116253571D01*
X126367857Y-116289285D01*
X126403571Y-116325000D01*
X126439285Y-116396428D01*
X126439285Y-116610714D01*
X126403571Y-116682142D01*
X126367857Y-116717857D01*
G04 #@! TO.C,IC1*
X108939285Y-104232142D02*
X108189285Y-104232142D01*
X108867857Y-103446428D02*
X108903571Y-103482142D01*
X108939285Y-103589285D01*
X108939285Y-103660714D01*
X108903571Y-103767857D01*
X108832142Y-103839285D01*
X108760714Y-103875000D01*
X108617857Y-103910714D01*
X108510714Y-103910714D01*
X108367857Y-103875000D01*
X108296428Y-103839285D01*
X108225000Y-103767857D01*
X108189285Y-103660714D01*
X108189285Y-103589285D01*
X108225000Y-103482142D01*
X108260714Y-103446428D01*
X108939285Y-102732142D02*
X108939285Y-103160714D01*
X108939285Y-102946428D02*
X108189285Y-102946428D01*
X108296428Y-103017857D01*
X108367857Y-103089285D01*
X108403571Y-103160714D01*
G04 #@! TO.C,J1*
X102950000Y-83289285D02*
X102950000Y-83825000D01*
X102914285Y-83932142D01*
X102842857Y-84003571D01*
X102735714Y-84039285D01*
X102664285Y-84039285D01*
X103700000Y-84039285D02*
X103271428Y-84039285D01*
X103485714Y-84039285D02*
X103485714Y-83289285D01*
X103414285Y-83396428D01*
X103342857Y-83467857D01*
X103271428Y-83503571D01*
G04 #@! TO.C,J2*
X99970000Y-84619285D02*
X99970000Y-85155000D01*
X99934285Y-85262142D01*
X99862857Y-85333571D01*
X99755714Y-85369285D01*
X99684285Y-85369285D01*
X100291428Y-84690714D02*
X100327142Y-84655000D01*
X100398571Y-84619285D01*
X100577142Y-84619285D01*
X100648571Y-84655000D01*
X100684285Y-84690714D01*
X100720000Y-84762142D01*
X100720000Y-84833571D01*
X100684285Y-84940714D01*
X100255714Y-85369285D01*
X100720000Y-85369285D01*
G04 #@! TO.C,J3*
X117750000Y-84789285D02*
X117750000Y-85325000D01*
X117714285Y-85432142D01*
X117642857Y-85503571D01*
X117535714Y-85539285D01*
X117464285Y-85539285D01*
X118035714Y-84789285D02*
X118500000Y-84789285D01*
X118250000Y-85075000D01*
X118357142Y-85075000D01*
X118428571Y-85110714D01*
X118464285Y-85146428D01*
X118500000Y-85217857D01*
X118500000Y-85396428D01*
X118464285Y-85467857D01*
X118428571Y-85503571D01*
X118357142Y-85539285D01*
X118142857Y-85539285D01*
X118071428Y-85503571D01*
X118035714Y-85467857D01*
G04 #@! TO.C,J4*
X121350000Y-86989285D02*
X121350000Y-87525000D01*
X121314285Y-87632142D01*
X121242857Y-87703571D01*
X121135714Y-87739285D01*
X121064285Y-87739285D01*
X122028571Y-87239285D02*
X122028571Y-87739285D01*
X121850000Y-86953571D02*
X121671428Y-87489285D01*
X122135714Y-87489285D01*
G04 #@! TO.C,R1*
X110639285Y-88325000D02*
X110282142Y-88575000D01*
X110639285Y-88753571D02*
X109889285Y-88753571D01*
X109889285Y-88467857D01*
X109925000Y-88396428D01*
X109960714Y-88360714D01*
X110032142Y-88325000D01*
X110139285Y-88325000D01*
X110210714Y-88360714D01*
X110246428Y-88396428D01*
X110282142Y-88467857D01*
X110282142Y-88753571D01*
X110639285Y-87610714D02*
X110639285Y-88039285D01*
X110639285Y-87825000D02*
X109889285Y-87825000D01*
X109996428Y-87896428D01*
X110067857Y-87967857D01*
X110103571Y-88039285D01*
G04 #@! TO.C,R14*
X96119285Y-112482142D02*
X95762142Y-112732142D01*
X96119285Y-112910714D02*
X95369285Y-112910714D01*
X95369285Y-112625000D01*
X95405000Y-112553571D01*
X95440714Y-112517857D01*
X95512142Y-112482142D01*
X95619285Y-112482142D01*
X95690714Y-112517857D01*
X95726428Y-112553571D01*
X95762142Y-112625000D01*
X95762142Y-112910714D01*
X96119285Y-111767857D02*
X96119285Y-112196428D01*
X96119285Y-111982142D02*
X95369285Y-111982142D01*
X95476428Y-112053571D01*
X95547857Y-112125000D01*
X95583571Y-112196428D01*
X95619285Y-111125000D02*
X96119285Y-111125000D01*
X95333571Y-111303571D02*
X95869285Y-111482142D01*
X95869285Y-111017857D01*
G04 #@! TO.C,R15*
X99919285Y-112482142D02*
X99562142Y-112732142D01*
X99919285Y-112910714D02*
X99169285Y-112910714D01*
X99169285Y-112625000D01*
X99205000Y-112553571D01*
X99240714Y-112517857D01*
X99312142Y-112482142D01*
X99419285Y-112482142D01*
X99490714Y-112517857D01*
X99526428Y-112553571D01*
X99562142Y-112625000D01*
X99562142Y-112910714D01*
X99919285Y-111767857D02*
X99919285Y-112196428D01*
X99919285Y-111982142D02*
X99169285Y-111982142D01*
X99276428Y-112053571D01*
X99347857Y-112125000D01*
X99383571Y-112196428D01*
X99169285Y-111089285D02*
X99169285Y-111446428D01*
X99526428Y-111482142D01*
X99490714Y-111446428D01*
X99455000Y-111375000D01*
X99455000Y-111196428D01*
X99490714Y-111125000D01*
X99526428Y-111089285D01*
X99597857Y-111053571D01*
X99776428Y-111053571D01*
X99847857Y-111089285D01*
X99883571Y-111125000D01*
X99919285Y-111196428D01*
X99919285Y-111375000D01*
X99883571Y-111446428D01*
X99847857Y-111482142D01*
G04 #@! TO.C,R16*
X103719285Y-112482142D02*
X103362142Y-112732142D01*
X103719285Y-112910714D02*
X102969285Y-112910714D01*
X102969285Y-112625000D01*
X103005000Y-112553571D01*
X103040714Y-112517857D01*
X103112142Y-112482142D01*
X103219285Y-112482142D01*
X103290714Y-112517857D01*
X103326428Y-112553571D01*
X103362142Y-112625000D01*
X103362142Y-112910714D01*
X103719285Y-111767857D02*
X103719285Y-112196428D01*
X103719285Y-111982142D02*
X102969285Y-111982142D01*
X103076428Y-112053571D01*
X103147857Y-112125000D01*
X103183571Y-112196428D01*
X102969285Y-111125000D02*
X102969285Y-111267857D01*
X103005000Y-111339285D01*
X103040714Y-111375000D01*
X103147857Y-111446428D01*
X103290714Y-111482142D01*
X103576428Y-111482142D01*
X103647857Y-111446428D01*
X103683571Y-111410714D01*
X103719285Y-111339285D01*
X103719285Y-111196428D01*
X103683571Y-111125000D01*
X103647857Y-111089285D01*
X103576428Y-111053571D01*
X103397857Y-111053571D01*
X103326428Y-111089285D01*
X103290714Y-111125000D01*
X103255000Y-111196428D01*
X103255000Y-111339285D01*
X103290714Y-111410714D01*
X103326428Y-111446428D01*
X103397857Y-111482142D01*
G04 #@! TO.C,R17*
X107519285Y-112482142D02*
X107162142Y-112732142D01*
X107519285Y-112910714D02*
X106769285Y-112910714D01*
X106769285Y-112625000D01*
X106805000Y-112553571D01*
X106840714Y-112517857D01*
X106912142Y-112482142D01*
X107019285Y-112482142D01*
X107090714Y-112517857D01*
X107126428Y-112553571D01*
X107162142Y-112625000D01*
X107162142Y-112910714D01*
X107519285Y-111767857D02*
X107519285Y-112196428D01*
X107519285Y-111982142D02*
X106769285Y-111982142D01*
X106876428Y-112053571D01*
X106947857Y-112125000D01*
X106983571Y-112196428D01*
X106769285Y-111517857D02*
X106769285Y-111017857D01*
X107519285Y-111339285D01*
G04 #@! TO.C,R30*
X115039285Y-112482142D02*
X114682142Y-112732142D01*
X115039285Y-112910714D02*
X114289285Y-112910714D01*
X114289285Y-112625000D01*
X114325000Y-112553571D01*
X114360714Y-112517857D01*
X114432142Y-112482142D01*
X114539285Y-112482142D01*
X114610714Y-112517857D01*
X114646428Y-112553571D01*
X114682142Y-112625000D01*
X114682142Y-112910714D01*
X114289285Y-112232142D02*
X114289285Y-111767857D01*
X114575000Y-112017857D01*
X114575000Y-111910714D01*
X114610714Y-111839285D01*
X114646428Y-111803571D01*
X114717857Y-111767857D01*
X114896428Y-111767857D01*
X114967857Y-111803571D01*
X115003571Y-111839285D01*
X115039285Y-111910714D01*
X115039285Y-112125000D01*
X115003571Y-112196428D01*
X114967857Y-112232142D01*
X114289285Y-111303571D02*
X114289285Y-111232142D01*
X114325000Y-111160714D01*
X114360714Y-111125000D01*
X114432142Y-111089285D01*
X114575000Y-111053571D01*
X114753571Y-111053571D01*
X114896428Y-111089285D01*
X114967857Y-111125000D01*
X115003571Y-111160714D01*
X115039285Y-111232142D01*
X115039285Y-111303571D01*
X115003571Y-111375000D01*
X114967857Y-111410714D01*
X114896428Y-111446428D01*
X114753571Y-111482142D01*
X114575000Y-111482142D01*
X114432142Y-111446428D01*
X114360714Y-111410714D01*
X114325000Y-111375000D01*
X114289285Y-111303571D01*
G04 #@! TO.C,R31*
X118839285Y-112482142D02*
X118482142Y-112732142D01*
X118839285Y-112910714D02*
X118089285Y-112910714D01*
X118089285Y-112625000D01*
X118125000Y-112553571D01*
X118160714Y-112517857D01*
X118232142Y-112482142D01*
X118339285Y-112482142D01*
X118410714Y-112517857D01*
X118446428Y-112553571D01*
X118482142Y-112625000D01*
X118482142Y-112910714D01*
X118089285Y-112232142D02*
X118089285Y-111767857D01*
X118375000Y-112017857D01*
X118375000Y-111910714D01*
X118410714Y-111839285D01*
X118446428Y-111803571D01*
X118517857Y-111767857D01*
X118696428Y-111767857D01*
X118767857Y-111803571D01*
X118803571Y-111839285D01*
X118839285Y-111910714D01*
X118839285Y-112125000D01*
X118803571Y-112196428D01*
X118767857Y-112232142D01*
X118839285Y-111053571D02*
X118839285Y-111482142D01*
X118839285Y-111267857D02*
X118089285Y-111267857D01*
X118196428Y-111339285D01*
X118267857Y-111410714D01*
X118303571Y-111482142D01*
G04 #@! TO.C,R32*
X122639285Y-112482142D02*
X122282142Y-112732142D01*
X122639285Y-112910714D02*
X121889285Y-112910714D01*
X121889285Y-112625000D01*
X121925000Y-112553571D01*
X121960714Y-112517857D01*
X122032142Y-112482142D01*
X122139285Y-112482142D01*
X122210714Y-112517857D01*
X122246428Y-112553571D01*
X122282142Y-112625000D01*
X122282142Y-112910714D01*
X121889285Y-112232142D02*
X121889285Y-111767857D01*
X122175000Y-112017857D01*
X122175000Y-111910714D01*
X122210714Y-111839285D01*
X122246428Y-111803571D01*
X122317857Y-111767857D01*
X122496428Y-111767857D01*
X122567857Y-111803571D01*
X122603571Y-111839285D01*
X122639285Y-111910714D01*
X122639285Y-112125000D01*
X122603571Y-112196428D01*
X122567857Y-112232142D01*
X121960714Y-111482142D02*
X121925000Y-111446428D01*
X121889285Y-111375000D01*
X121889285Y-111196428D01*
X121925000Y-111125000D01*
X121960714Y-111089285D01*
X122032142Y-111053571D01*
X122103571Y-111053571D01*
X122210714Y-111089285D01*
X122639285Y-111517857D01*
X122639285Y-111053571D01*
G04 #@! TO.C,R33*
X126439285Y-112482142D02*
X126082142Y-112732142D01*
X126439285Y-112910714D02*
X125689285Y-112910714D01*
X125689285Y-112625000D01*
X125725000Y-112553571D01*
X125760714Y-112517857D01*
X125832142Y-112482142D01*
X125939285Y-112482142D01*
X126010714Y-112517857D01*
X126046428Y-112553571D01*
X126082142Y-112625000D01*
X126082142Y-112910714D01*
X125689285Y-112232142D02*
X125689285Y-111767857D01*
X125975000Y-112017857D01*
X125975000Y-111910714D01*
X126010714Y-111839285D01*
X126046428Y-111803571D01*
X126117857Y-111767857D01*
X126296428Y-111767857D01*
X126367857Y-111803571D01*
X126403571Y-111839285D01*
X126439285Y-111910714D01*
X126439285Y-112125000D01*
X126403571Y-112196428D01*
X126367857Y-112232142D01*
X125689285Y-111517857D02*
X125689285Y-111053571D01*
X125975000Y-111303571D01*
X125975000Y-111196428D01*
X126010714Y-111125000D01*
X126046428Y-111089285D01*
X126117857Y-111053571D01*
X126296428Y-111053571D01*
X126367857Y-111089285D01*
X126403571Y-111125000D01*
X126439285Y-111196428D01*
X126439285Y-111410714D01*
X126403571Y-111482142D01*
X126367857Y-111517857D01*
G04 #@! TO.C,SW1*
X115600000Y-83303571D02*
X115707142Y-83339285D01*
X115885714Y-83339285D01*
X115957142Y-83303571D01*
X115992857Y-83267857D01*
X116028571Y-83196428D01*
X116028571Y-83125000D01*
X115992857Y-83053571D01*
X115957142Y-83017857D01*
X115885714Y-82982142D01*
X115742857Y-82946428D01*
X115671428Y-82910714D01*
X115635714Y-82875000D01*
X115600000Y-82803571D01*
X115600000Y-82732142D01*
X115635714Y-82660714D01*
X115671428Y-82625000D01*
X115742857Y-82589285D01*
X115921428Y-82589285D01*
X116028571Y-82625000D01*
X116278571Y-82589285D02*
X116457142Y-83339285D01*
X116600000Y-82803571D01*
X116742857Y-83339285D01*
X116921428Y-82589285D01*
X117600000Y-83339285D02*
X117171428Y-83339285D01*
X117385714Y-83339285D02*
X117385714Y-82589285D01*
X117314285Y-82696428D01*
X117242857Y-82767857D01*
X117171428Y-82803571D01*
G04 #@! TO.C,SW11*
X121442857Y-103503571D02*
X121550000Y-103539285D01*
X121728571Y-103539285D01*
X121800000Y-103503571D01*
X121835714Y-103467857D01*
X121871428Y-103396428D01*
X121871428Y-103325000D01*
X121835714Y-103253571D01*
X121800000Y-103217857D01*
X121728571Y-103182142D01*
X121585714Y-103146428D01*
X121514285Y-103110714D01*
X121478571Y-103075000D01*
X121442857Y-103003571D01*
X121442857Y-102932142D01*
X121478571Y-102860714D01*
X121514285Y-102825000D01*
X121585714Y-102789285D01*
X121764285Y-102789285D01*
X121871428Y-102825000D01*
X122121428Y-102789285D02*
X122300000Y-103539285D01*
X122442857Y-103003571D01*
X122585714Y-103539285D01*
X122764285Y-102789285D01*
X123442857Y-103539285D02*
X123014285Y-103539285D01*
X123228571Y-103539285D02*
X123228571Y-102789285D01*
X123157142Y-102896428D01*
X123085714Y-102967857D01*
X123014285Y-103003571D01*
X124157142Y-103539285D02*
X123728571Y-103539285D01*
X123942857Y-103539285D02*
X123942857Y-102789285D01*
X123871428Y-102896428D01*
X123800000Y-102967857D01*
X123728571Y-103003571D01*
G04 #@! TO.C,SW34*
X121442857Y-98703571D02*
X121550000Y-98739285D01*
X121728571Y-98739285D01*
X121800000Y-98703571D01*
X121835714Y-98667857D01*
X121871428Y-98596428D01*
X121871428Y-98525000D01*
X121835714Y-98453571D01*
X121800000Y-98417857D01*
X121728571Y-98382142D01*
X121585714Y-98346428D01*
X121514285Y-98310714D01*
X121478571Y-98275000D01*
X121442857Y-98203571D01*
X121442857Y-98132142D01*
X121478571Y-98060714D01*
X121514285Y-98025000D01*
X121585714Y-97989285D01*
X121764285Y-97989285D01*
X121871428Y-98025000D01*
X122121428Y-97989285D02*
X122300000Y-98739285D01*
X122442857Y-98203571D01*
X122585714Y-98739285D01*
X122764285Y-97989285D01*
X122978571Y-97989285D02*
X123442857Y-97989285D01*
X123192857Y-98275000D01*
X123300000Y-98275000D01*
X123371428Y-98310714D01*
X123407142Y-98346428D01*
X123442857Y-98417857D01*
X123442857Y-98596428D01*
X123407142Y-98667857D01*
X123371428Y-98703571D01*
X123300000Y-98739285D01*
X123085714Y-98739285D01*
X123014285Y-98703571D01*
X122978571Y-98667857D01*
X124085714Y-98239285D02*
X124085714Y-98739285D01*
X123907142Y-97953571D02*
X123728571Y-98489285D01*
X124192857Y-98489285D01*
G04 #@! TD*
M02*
