G04 #@! TF.GenerationSoftware,KiCad,Pcbnew,(5.1.0)-1*
G04 #@! TF.CreationDate,2019-09-06T23:09:27-05:00*
G04 #@! TF.ProjectId,CH552G_dev,43483535-3247-45f6-9465-762e6b696361,rev?*
G04 #@! TF.SameCoordinates,Original*
G04 #@! TF.FileFunction,Copper,L1,Top*
G04 #@! TF.FilePolarity,Positive*
%FSLAX46Y46*%
G04 Gerber Fmt 4.6, Leading zero omitted, Abs format (unit mm)*
G04 Created by KiCad (PCBNEW (5.1.0)-1) date 2019-09-06 23:09:27*
%MOMM*%
%LPD*%
G04 APERTURE LIST*
G04 #@! TA.AperFunction,NonConductor*
%ADD10C,0.050000*%
G04 #@! TD*
G04 #@! TA.AperFunction,Conductor*
%ADD11C,0.100000*%
G04 #@! TD*
G04 #@! TA.AperFunction,SMDPad,CuDef*
%ADD12C,1.250000*%
G04 #@! TD*
G04 #@! TA.AperFunction,SMDPad,CuDef*
%ADD13R,1.500000X0.600000*%
G04 #@! TD*
G04 #@! TA.AperFunction,SMDPad,CuDef*
%ADD14R,1.100000X1.000000*%
G04 #@! TD*
G04 #@! TA.AperFunction,SMDPad,CuDef*
%ADD15R,1.350000X1.500000*%
G04 #@! TD*
G04 #@! TA.AperFunction,SMDPad,CuDef*
%ADD16R,0.400000X1.800000*%
G04 #@! TD*
G04 #@! TA.AperFunction,SMDPad,CuDef*
%ADD17R,1.500000X1.400000*%
G04 #@! TD*
G04 #@! TA.AperFunction,ComponentPad*
%ADD18O,1.700000X1.700000*%
G04 #@! TD*
G04 #@! TA.AperFunction,ComponentPad*
%ADD19R,1.700000X1.700000*%
G04 #@! TD*
G04 #@! TA.AperFunction,SMDPad,CuDef*
%ADD20R,1.250000X1.500000*%
G04 #@! TD*
G04 #@! TA.AperFunction,Conductor*
%ADD21C,0.350000*%
G04 #@! TD*
G04 #@! TA.AperFunction,Conductor*
%ADD22C,0.500000*%
G04 #@! TD*
G04 APERTURE END LIST*
D10*
X94500000Y-121500000D02*
X127500000Y-121500000D01*
X94500000Y-78000000D02*
X94500000Y-121500000D01*
X127500000Y-78000000D02*
X94500000Y-78000000D01*
X127500000Y-121500000D02*
X127500000Y-78000000D01*
D11*
G04 #@! TO.N,VCC*
G04 #@! TO.C,C1*
G36*
X122999504Y-83726204D02*
G01*
X123023773Y-83729804D01*
X123047571Y-83735765D01*
X123070671Y-83744030D01*
X123092849Y-83754520D01*
X123113893Y-83767133D01*
X123133598Y-83781747D01*
X123151777Y-83798223D01*
X123168253Y-83816402D01*
X123182867Y-83836107D01*
X123195480Y-83857151D01*
X123205970Y-83879329D01*
X123214235Y-83902429D01*
X123220196Y-83926227D01*
X123223796Y-83950496D01*
X123225000Y-83975000D01*
X123225000Y-85225000D01*
X123223796Y-85249504D01*
X123220196Y-85273773D01*
X123214235Y-85297571D01*
X123205970Y-85320671D01*
X123195480Y-85342849D01*
X123182867Y-85363893D01*
X123168253Y-85383598D01*
X123151777Y-85401777D01*
X123133598Y-85418253D01*
X123113893Y-85432867D01*
X123092849Y-85445480D01*
X123070671Y-85455970D01*
X123047571Y-85464235D01*
X123023773Y-85470196D01*
X122999504Y-85473796D01*
X122975000Y-85475000D01*
X122225000Y-85475000D01*
X122200496Y-85473796D01*
X122176227Y-85470196D01*
X122152429Y-85464235D01*
X122129329Y-85455970D01*
X122107151Y-85445480D01*
X122086107Y-85432867D01*
X122066402Y-85418253D01*
X122048223Y-85401777D01*
X122031747Y-85383598D01*
X122017133Y-85363893D01*
X122004520Y-85342849D01*
X121994030Y-85320671D01*
X121985765Y-85297571D01*
X121979804Y-85273773D01*
X121976204Y-85249504D01*
X121975000Y-85225000D01*
X121975000Y-83975000D01*
X121976204Y-83950496D01*
X121979804Y-83926227D01*
X121985765Y-83902429D01*
X121994030Y-83879329D01*
X122004520Y-83857151D01*
X122017133Y-83836107D01*
X122031747Y-83816402D01*
X122048223Y-83798223D01*
X122066402Y-83781747D01*
X122086107Y-83767133D01*
X122107151Y-83754520D01*
X122129329Y-83744030D01*
X122152429Y-83735765D01*
X122176227Y-83729804D01*
X122200496Y-83726204D01*
X122225000Y-83725000D01*
X122975000Y-83725000D01*
X122999504Y-83726204D01*
X122999504Y-83726204D01*
G37*
D12*
G04 #@! TD*
G04 #@! TO.P,C1,2*
G04 #@! TO.N,VCC*
X122600000Y-84600000D03*
D11*
G04 #@! TO.N,GND*
G04 #@! TO.C,C1*
G36*
X125799504Y-83726204D02*
G01*
X125823773Y-83729804D01*
X125847571Y-83735765D01*
X125870671Y-83744030D01*
X125892849Y-83754520D01*
X125913893Y-83767133D01*
X125933598Y-83781747D01*
X125951777Y-83798223D01*
X125968253Y-83816402D01*
X125982867Y-83836107D01*
X125995480Y-83857151D01*
X126005970Y-83879329D01*
X126014235Y-83902429D01*
X126020196Y-83926227D01*
X126023796Y-83950496D01*
X126025000Y-83975000D01*
X126025000Y-85225000D01*
X126023796Y-85249504D01*
X126020196Y-85273773D01*
X126014235Y-85297571D01*
X126005970Y-85320671D01*
X125995480Y-85342849D01*
X125982867Y-85363893D01*
X125968253Y-85383598D01*
X125951777Y-85401777D01*
X125933598Y-85418253D01*
X125913893Y-85432867D01*
X125892849Y-85445480D01*
X125870671Y-85455970D01*
X125847571Y-85464235D01*
X125823773Y-85470196D01*
X125799504Y-85473796D01*
X125775000Y-85475000D01*
X125025000Y-85475000D01*
X125000496Y-85473796D01*
X124976227Y-85470196D01*
X124952429Y-85464235D01*
X124929329Y-85455970D01*
X124907151Y-85445480D01*
X124886107Y-85432867D01*
X124866402Y-85418253D01*
X124848223Y-85401777D01*
X124831747Y-85383598D01*
X124817133Y-85363893D01*
X124804520Y-85342849D01*
X124794030Y-85320671D01*
X124785765Y-85297571D01*
X124779804Y-85273773D01*
X124776204Y-85249504D01*
X124775000Y-85225000D01*
X124775000Y-83975000D01*
X124776204Y-83950496D01*
X124779804Y-83926227D01*
X124785765Y-83902429D01*
X124794030Y-83879329D01*
X124804520Y-83857151D01*
X124817133Y-83836107D01*
X124831747Y-83816402D01*
X124848223Y-83798223D01*
X124866402Y-83781747D01*
X124886107Y-83767133D01*
X124907151Y-83754520D01*
X124929329Y-83744030D01*
X124952429Y-83735765D01*
X124976227Y-83729804D01*
X125000496Y-83726204D01*
X125025000Y-83725000D01*
X125775000Y-83725000D01*
X125799504Y-83726204D01*
X125799504Y-83726204D01*
G37*
D12*
G04 #@! TD*
G04 #@! TO.P,C1,1*
G04 #@! TO.N,GND*
X125400000Y-84600000D03*
D11*
G04 #@! TO.N,GND*
G04 #@! TO.C,C2*
G36*
X125799504Y-79926204D02*
G01*
X125823773Y-79929804D01*
X125847571Y-79935765D01*
X125870671Y-79944030D01*
X125892849Y-79954520D01*
X125913893Y-79967133D01*
X125933598Y-79981747D01*
X125951777Y-79998223D01*
X125968253Y-80016402D01*
X125982867Y-80036107D01*
X125995480Y-80057151D01*
X126005970Y-80079329D01*
X126014235Y-80102429D01*
X126020196Y-80126227D01*
X126023796Y-80150496D01*
X126025000Y-80175000D01*
X126025000Y-81425000D01*
X126023796Y-81449504D01*
X126020196Y-81473773D01*
X126014235Y-81497571D01*
X126005970Y-81520671D01*
X125995480Y-81542849D01*
X125982867Y-81563893D01*
X125968253Y-81583598D01*
X125951777Y-81601777D01*
X125933598Y-81618253D01*
X125913893Y-81632867D01*
X125892849Y-81645480D01*
X125870671Y-81655970D01*
X125847571Y-81664235D01*
X125823773Y-81670196D01*
X125799504Y-81673796D01*
X125775000Y-81675000D01*
X125025000Y-81675000D01*
X125000496Y-81673796D01*
X124976227Y-81670196D01*
X124952429Y-81664235D01*
X124929329Y-81655970D01*
X124907151Y-81645480D01*
X124886107Y-81632867D01*
X124866402Y-81618253D01*
X124848223Y-81601777D01*
X124831747Y-81583598D01*
X124817133Y-81563893D01*
X124804520Y-81542849D01*
X124794030Y-81520671D01*
X124785765Y-81497571D01*
X124779804Y-81473773D01*
X124776204Y-81449504D01*
X124775000Y-81425000D01*
X124775000Y-80175000D01*
X124776204Y-80150496D01*
X124779804Y-80126227D01*
X124785765Y-80102429D01*
X124794030Y-80079329D01*
X124804520Y-80057151D01*
X124817133Y-80036107D01*
X124831747Y-80016402D01*
X124848223Y-79998223D01*
X124866402Y-79981747D01*
X124886107Y-79967133D01*
X124907151Y-79954520D01*
X124929329Y-79944030D01*
X124952429Y-79935765D01*
X124976227Y-79929804D01*
X125000496Y-79926204D01*
X125025000Y-79925000D01*
X125775000Y-79925000D01*
X125799504Y-79926204D01*
X125799504Y-79926204D01*
G37*
D12*
G04 #@! TD*
G04 #@! TO.P,C2,1*
G04 #@! TO.N,GND*
X125400000Y-80800000D03*
D11*
G04 #@! TO.N,3V3*
G04 #@! TO.C,C2*
G36*
X122999504Y-79926204D02*
G01*
X123023773Y-79929804D01*
X123047571Y-79935765D01*
X123070671Y-79944030D01*
X123092849Y-79954520D01*
X123113893Y-79967133D01*
X123133598Y-79981747D01*
X123151777Y-79998223D01*
X123168253Y-80016402D01*
X123182867Y-80036107D01*
X123195480Y-80057151D01*
X123205970Y-80079329D01*
X123214235Y-80102429D01*
X123220196Y-80126227D01*
X123223796Y-80150496D01*
X123225000Y-80175000D01*
X123225000Y-81425000D01*
X123223796Y-81449504D01*
X123220196Y-81473773D01*
X123214235Y-81497571D01*
X123205970Y-81520671D01*
X123195480Y-81542849D01*
X123182867Y-81563893D01*
X123168253Y-81583598D01*
X123151777Y-81601777D01*
X123133598Y-81618253D01*
X123113893Y-81632867D01*
X123092849Y-81645480D01*
X123070671Y-81655970D01*
X123047571Y-81664235D01*
X123023773Y-81670196D01*
X122999504Y-81673796D01*
X122975000Y-81675000D01*
X122225000Y-81675000D01*
X122200496Y-81673796D01*
X122176227Y-81670196D01*
X122152429Y-81664235D01*
X122129329Y-81655970D01*
X122107151Y-81645480D01*
X122086107Y-81632867D01*
X122066402Y-81618253D01*
X122048223Y-81601777D01*
X122031747Y-81583598D01*
X122017133Y-81563893D01*
X122004520Y-81542849D01*
X121994030Y-81520671D01*
X121985765Y-81497571D01*
X121979804Y-81473773D01*
X121976204Y-81449504D01*
X121975000Y-81425000D01*
X121975000Y-80175000D01*
X121976204Y-80150496D01*
X121979804Y-80126227D01*
X121985765Y-80102429D01*
X121994030Y-80079329D01*
X122004520Y-80057151D01*
X122017133Y-80036107D01*
X122031747Y-80016402D01*
X122048223Y-79998223D01*
X122066402Y-79981747D01*
X122086107Y-79967133D01*
X122107151Y-79954520D01*
X122129329Y-79944030D01*
X122152429Y-79935765D01*
X122176227Y-79929804D01*
X122200496Y-79926204D01*
X122225000Y-79925000D01*
X122975000Y-79925000D01*
X122999504Y-79926204D01*
X122999504Y-79926204D01*
G37*
D12*
G04 #@! TD*
G04 #@! TO.P,C2,2*
G04 #@! TO.N,3V3*
X122600000Y-80800000D03*
D11*
G04 #@! TO.N,Net-(D14-Pad2)*
G04 #@! TO.C,D14*
G36*
X98249504Y-115176204D02*
G01*
X98273773Y-115179804D01*
X98297571Y-115185765D01*
X98320671Y-115194030D01*
X98342849Y-115204520D01*
X98363893Y-115217133D01*
X98383598Y-115231747D01*
X98401777Y-115248223D01*
X98418253Y-115266402D01*
X98432867Y-115286107D01*
X98445480Y-115307151D01*
X98455970Y-115329329D01*
X98464235Y-115352429D01*
X98470196Y-115376227D01*
X98473796Y-115400496D01*
X98475000Y-115425000D01*
X98475000Y-116175000D01*
X98473796Y-116199504D01*
X98470196Y-116223773D01*
X98464235Y-116247571D01*
X98455970Y-116270671D01*
X98445480Y-116292849D01*
X98432867Y-116313893D01*
X98418253Y-116333598D01*
X98401777Y-116351777D01*
X98383598Y-116368253D01*
X98363893Y-116382867D01*
X98342849Y-116395480D01*
X98320671Y-116405970D01*
X98297571Y-116414235D01*
X98273773Y-116420196D01*
X98249504Y-116423796D01*
X98225000Y-116425000D01*
X96975000Y-116425000D01*
X96950496Y-116423796D01*
X96926227Y-116420196D01*
X96902429Y-116414235D01*
X96879329Y-116405970D01*
X96857151Y-116395480D01*
X96836107Y-116382867D01*
X96816402Y-116368253D01*
X96798223Y-116351777D01*
X96781747Y-116333598D01*
X96767133Y-116313893D01*
X96754520Y-116292849D01*
X96744030Y-116270671D01*
X96735765Y-116247571D01*
X96729804Y-116223773D01*
X96726204Y-116199504D01*
X96725000Y-116175000D01*
X96725000Y-115425000D01*
X96726204Y-115400496D01*
X96729804Y-115376227D01*
X96735765Y-115352429D01*
X96744030Y-115329329D01*
X96754520Y-115307151D01*
X96767133Y-115286107D01*
X96781747Y-115266402D01*
X96798223Y-115248223D01*
X96816402Y-115231747D01*
X96836107Y-115217133D01*
X96857151Y-115204520D01*
X96879329Y-115194030D01*
X96902429Y-115185765D01*
X96926227Y-115179804D01*
X96950496Y-115176204D01*
X96975000Y-115175000D01*
X98225000Y-115175000D01*
X98249504Y-115176204D01*
X98249504Y-115176204D01*
G37*
D12*
G04 #@! TD*
G04 #@! TO.P,D14,2*
G04 #@! TO.N,Net-(D14-Pad2)*
X97600000Y-115800000D03*
D11*
G04 #@! TO.N,GND*
G04 #@! TO.C,D14*
G36*
X98249504Y-117976204D02*
G01*
X98273773Y-117979804D01*
X98297571Y-117985765D01*
X98320671Y-117994030D01*
X98342849Y-118004520D01*
X98363893Y-118017133D01*
X98383598Y-118031747D01*
X98401777Y-118048223D01*
X98418253Y-118066402D01*
X98432867Y-118086107D01*
X98445480Y-118107151D01*
X98455970Y-118129329D01*
X98464235Y-118152429D01*
X98470196Y-118176227D01*
X98473796Y-118200496D01*
X98475000Y-118225000D01*
X98475000Y-118975000D01*
X98473796Y-118999504D01*
X98470196Y-119023773D01*
X98464235Y-119047571D01*
X98455970Y-119070671D01*
X98445480Y-119092849D01*
X98432867Y-119113893D01*
X98418253Y-119133598D01*
X98401777Y-119151777D01*
X98383598Y-119168253D01*
X98363893Y-119182867D01*
X98342849Y-119195480D01*
X98320671Y-119205970D01*
X98297571Y-119214235D01*
X98273773Y-119220196D01*
X98249504Y-119223796D01*
X98225000Y-119225000D01*
X96975000Y-119225000D01*
X96950496Y-119223796D01*
X96926227Y-119220196D01*
X96902429Y-119214235D01*
X96879329Y-119205970D01*
X96857151Y-119195480D01*
X96836107Y-119182867D01*
X96816402Y-119168253D01*
X96798223Y-119151777D01*
X96781747Y-119133598D01*
X96767133Y-119113893D01*
X96754520Y-119092849D01*
X96744030Y-119070671D01*
X96735765Y-119047571D01*
X96729804Y-119023773D01*
X96726204Y-118999504D01*
X96725000Y-118975000D01*
X96725000Y-118225000D01*
X96726204Y-118200496D01*
X96729804Y-118176227D01*
X96735765Y-118152429D01*
X96744030Y-118129329D01*
X96754520Y-118107151D01*
X96767133Y-118086107D01*
X96781747Y-118066402D01*
X96798223Y-118048223D01*
X96816402Y-118031747D01*
X96836107Y-118017133D01*
X96857151Y-118004520D01*
X96879329Y-117994030D01*
X96902429Y-117985765D01*
X96926227Y-117979804D01*
X96950496Y-117976204D01*
X96975000Y-117975000D01*
X98225000Y-117975000D01*
X98249504Y-117976204D01*
X98249504Y-117976204D01*
G37*
D12*
G04 #@! TD*
G04 #@! TO.P,D14,1*
G04 #@! TO.N,GND*
X97600000Y-118600000D03*
D11*
G04 #@! TO.N,GND*
G04 #@! TO.C,D15*
G36*
X102049504Y-117976204D02*
G01*
X102073773Y-117979804D01*
X102097571Y-117985765D01*
X102120671Y-117994030D01*
X102142849Y-118004520D01*
X102163893Y-118017133D01*
X102183598Y-118031747D01*
X102201777Y-118048223D01*
X102218253Y-118066402D01*
X102232867Y-118086107D01*
X102245480Y-118107151D01*
X102255970Y-118129329D01*
X102264235Y-118152429D01*
X102270196Y-118176227D01*
X102273796Y-118200496D01*
X102275000Y-118225000D01*
X102275000Y-118975000D01*
X102273796Y-118999504D01*
X102270196Y-119023773D01*
X102264235Y-119047571D01*
X102255970Y-119070671D01*
X102245480Y-119092849D01*
X102232867Y-119113893D01*
X102218253Y-119133598D01*
X102201777Y-119151777D01*
X102183598Y-119168253D01*
X102163893Y-119182867D01*
X102142849Y-119195480D01*
X102120671Y-119205970D01*
X102097571Y-119214235D01*
X102073773Y-119220196D01*
X102049504Y-119223796D01*
X102025000Y-119225000D01*
X100775000Y-119225000D01*
X100750496Y-119223796D01*
X100726227Y-119220196D01*
X100702429Y-119214235D01*
X100679329Y-119205970D01*
X100657151Y-119195480D01*
X100636107Y-119182867D01*
X100616402Y-119168253D01*
X100598223Y-119151777D01*
X100581747Y-119133598D01*
X100567133Y-119113893D01*
X100554520Y-119092849D01*
X100544030Y-119070671D01*
X100535765Y-119047571D01*
X100529804Y-119023773D01*
X100526204Y-118999504D01*
X100525000Y-118975000D01*
X100525000Y-118225000D01*
X100526204Y-118200496D01*
X100529804Y-118176227D01*
X100535765Y-118152429D01*
X100544030Y-118129329D01*
X100554520Y-118107151D01*
X100567133Y-118086107D01*
X100581747Y-118066402D01*
X100598223Y-118048223D01*
X100616402Y-118031747D01*
X100636107Y-118017133D01*
X100657151Y-118004520D01*
X100679329Y-117994030D01*
X100702429Y-117985765D01*
X100726227Y-117979804D01*
X100750496Y-117976204D01*
X100775000Y-117975000D01*
X102025000Y-117975000D01*
X102049504Y-117976204D01*
X102049504Y-117976204D01*
G37*
D12*
G04 #@! TD*
G04 #@! TO.P,D15,1*
G04 #@! TO.N,GND*
X101400000Y-118600000D03*
D11*
G04 #@! TO.N,Net-(D15-Pad2)*
G04 #@! TO.C,D15*
G36*
X102049504Y-115176204D02*
G01*
X102073773Y-115179804D01*
X102097571Y-115185765D01*
X102120671Y-115194030D01*
X102142849Y-115204520D01*
X102163893Y-115217133D01*
X102183598Y-115231747D01*
X102201777Y-115248223D01*
X102218253Y-115266402D01*
X102232867Y-115286107D01*
X102245480Y-115307151D01*
X102255970Y-115329329D01*
X102264235Y-115352429D01*
X102270196Y-115376227D01*
X102273796Y-115400496D01*
X102275000Y-115425000D01*
X102275000Y-116175000D01*
X102273796Y-116199504D01*
X102270196Y-116223773D01*
X102264235Y-116247571D01*
X102255970Y-116270671D01*
X102245480Y-116292849D01*
X102232867Y-116313893D01*
X102218253Y-116333598D01*
X102201777Y-116351777D01*
X102183598Y-116368253D01*
X102163893Y-116382867D01*
X102142849Y-116395480D01*
X102120671Y-116405970D01*
X102097571Y-116414235D01*
X102073773Y-116420196D01*
X102049504Y-116423796D01*
X102025000Y-116425000D01*
X100775000Y-116425000D01*
X100750496Y-116423796D01*
X100726227Y-116420196D01*
X100702429Y-116414235D01*
X100679329Y-116405970D01*
X100657151Y-116395480D01*
X100636107Y-116382867D01*
X100616402Y-116368253D01*
X100598223Y-116351777D01*
X100581747Y-116333598D01*
X100567133Y-116313893D01*
X100554520Y-116292849D01*
X100544030Y-116270671D01*
X100535765Y-116247571D01*
X100529804Y-116223773D01*
X100526204Y-116199504D01*
X100525000Y-116175000D01*
X100525000Y-115425000D01*
X100526204Y-115400496D01*
X100529804Y-115376227D01*
X100535765Y-115352429D01*
X100544030Y-115329329D01*
X100554520Y-115307151D01*
X100567133Y-115286107D01*
X100581747Y-115266402D01*
X100598223Y-115248223D01*
X100616402Y-115231747D01*
X100636107Y-115217133D01*
X100657151Y-115204520D01*
X100679329Y-115194030D01*
X100702429Y-115185765D01*
X100726227Y-115179804D01*
X100750496Y-115176204D01*
X100775000Y-115175000D01*
X102025000Y-115175000D01*
X102049504Y-115176204D01*
X102049504Y-115176204D01*
G37*
D12*
G04 #@! TD*
G04 #@! TO.P,D15,2*
G04 #@! TO.N,Net-(D15-Pad2)*
X101400000Y-115800000D03*
D11*
G04 #@! TO.N,Net-(D16-Pad2)*
G04 #@! TO.C,D16*
G36*
X105849504Y-115176204D02*
G01*
X105873773Y-115179804D01*
X105897571Y-115185765D01*
X105920671Y-115194030D01*
X105942849Y-115204520D01*
X105963893Y-115217133D01*
X105983598Y-115231747D01*
X106001777Y-115248223D01*
X106018253Y-115266402D01*
X106032867Y-115286107D01*
X106045480Y-115307151D01*
X106055970Y-115329329D01*
X106064235Y-115352429D01*
X106070196Y-115376227D01*
X106073796Y-115400496D01*
X106075000Y-115425000D01*
X106075000Y-116175000D01*
X106073796Y-116199504D01*
X106070196Y-116223773D01*
X106064235Y-116247571D01*
X106055970Y-116270671D01*
X106045480Y-116292849D01*
X106032867Y-116313893D01*
X106018253Y-116333598D01*
X106001777Y-116351777D01*
X105983598Y-116368253D01*
X105963893Y-116382867D01*
X105942849Y-116395480D01*
X105920671Y-116405970D01*
X105897571Y-116414235D01*
X105873773Y-116420196D01*
X105849504Y-116423796D01*
X105825000Y-116425000D01*
X104575000Y-116425000D01*
X104550496Y-116423796D01*
X104526227Y-116420196D01*
X104502429Y-116414235D01*
X104479329Y-116405970D01*
X104457151Y-116395480D01*
X104436107Y-116382867D01*
X104416402Y-116368253D01*
X104398223Y-116351777D01*
X104381747Y-116333598D01*
X104367133Y-116313893D01*
X104354520Y-116292849D01*
X104344030Y-116270671D01*
X104335765Y-116247571D01*
X104329804Y-116223773D01*
X104326204Y-116199504D01*
X104325000Y-116175000D01*
X104325000Y-115425000D01*
X104326204Y-115400496D01*
X104329804Y-115376227D01*
X104335765Y-115352429D01*
X104344030Y-115329329D01*
X104354520Y-115307151D01*
X104367133Y-115286107D01*
X104381747Y-115266402D01*
X104398223Y-115248223D01*
X104416402Y-115231747D01*
X104436107Y-115217133D01*
X104457151Y-115204520D01*
X104479329Y-115194030D01*
X104502429Y-115185765D01*
X104526227Y-115179804D01*
X104550496Y-115176204D01*
X104575000Y-115175000D01*
X105825000Y-115175000D01*
X105849504Y-115176204D01*
X105849504Y-115176204D01*
G37*
D12*
G04 #@! TD*
G04 #@! TO.P,D16,2*
G04 #@! TO.N,Net-(D16-Pad2)*
X105200000Y-115800000D03*
D11*
G04 #@! TO.N,GND*
G04 #@! TO.C,D16*
G36*
X105849504Y-117976204D02*
G01*
X105873773Y-117979804D01*
X105897571Y-117985765D01*
X105920671Y-117994030D01*
X105942849Y-118004520D01*
X105963893Y-118017133D01*
X105983598Y-118031747D01*
X106001777Y-118048223D01*
X106018253Y-118066402D01*
X106032867Y-118086107D01*
X106045480Y-118107151D01*
X106055970Y-118129329D01*
X106064235Y-118152429D01*
X106070196Y-118176227D01*
X106073796Y-118200496D01*
X106075000Y-118225000D01*
X106075000Y-118975000D01*
X106073796Y-118999504D01*
X106070196Y-119023773D01*
X106064235Y-119047571D01*
X106055970Y-119070671D01*
X106045480Y-119092849D01*
X106032867Y-119113893D01*
X106018253Y-119133598D01*
X106001777Y-119151777D01*
X105983598Y-119168253D01*
X105963893Y-119182867D01*
X105942849Y-119195480D01*
X105920671Y-119205970D01*
X105897571Y-119214235D01*
X105873773Y-119220196D01*
X105849504Y-119223796D01*
X105825000Y-119225000D01*
X104575000Y-119225000D01*
X104550496Y-119223796D01*
X104526227Y-119220196D01*
X104502429Y-119214235D01*
X104479329Y-119205970D01*
X104457151Y-119195480D01*
X104436107Y-119182867D01*
X104416402Y-119168253D01*
X104398223Y-119151777D01*
X104381747Y-119133598D01*
X104367133Y-119113893D01*
X104354520Y-119092849D01*
X104344030Y-119070671D01*
X104335765Y-119047571D01*
X104329804Y-119023773D01*
X104326204Y-118999504D01*
X104325000Y-118975000D01*
X104325000Y-118225000D01*
X104326204Y-118200496D01*
X104329804Y-118176227D01*
X104335765Y-118152429D01*
X104344030Y-118129329D01*
X104354520Y-118107151D01*
X104367133Y-118086107D01*
X104381747Y-118066402D01*
X104398223Y-118048223D01*
X104416402Y-118031747D01*
X104436107Y-118017133D01*
X104457151Y-118004520D01*
X104479329Y-117994030D01*
X104502429Y-117985765D01*
X104526227Y-117979804D01*
X104550496Y-117976204D01*
X104575000Y-117975000D01*
X105825000Y-117975000D01*
X105849504Y-117976204D01*
X105849504Y-117976204D01*
G37*
D12*
G04 #@! TD*
G04 #@! TO.P,D16,1*
G04 #@! TO.N,GND*
X105200000Y-118600000D03*
D11*
G04 #@! TO.N,GND*
G04 #@! TO.C,D17*
G36*
X109649504Y-117976204D02*
G01*
X109673773Y-117979804D01*
X109697571Y-117985765D01*
X109720671Y-117994030D01*
X109742849Y-118004520D01*
X109763893Y-118017133D01*
X109783598Y-118031747D01*
X109801777Y-118048223D01*
X109818253Y-118066402D01*
X109832867Y-118086107D01*
X109845480Y-118107151D01*
X109855970Y-118129329D01*
X109864235Y-118152429D01*
X109870196Y-118176227D01*
X109873796Y-118200496D01*
X109875000Y-118225000D01*
X109875000Y-118975000D01*
X109873796Y-118999504D01*
X109870196Y-119023773D01*
X109864235Y-119047571D01*
X109855970Y-119070671D01*
X109845480Y-119092849D01*
X109832867Y-119113893D01*
X109818253Y-119133598D01*
X109801777Y-119151777D01*
X109783598Y-119168253D01*
X109763893Y-119182867D01*
X109742849Y-119195480D01*
X109720671Y-119205970D01*
X109697571Y-119214235D01*
X109673773Y-119220196D01*
X109649504Y-119223796D01*
X109625000Y-119225000D01*
X108375000Y-119225000D01*
X108350496Y-119223796D01*
X108326227Y-119220196D01*
X108302429Y-119214235D01*
X108279329Y-119205970D01*
X108257151Y-119195480D01*
X108236107Y-119182867D01*
X108216402Y-119168253D01*
X108198223Y-119151777D01*
X108181747Y-119133598D01*
X108167133Y-119113893D01*
X108154520Y-119092849D01*
X108144030Y-119070671D01*
X108135765Y-119047571D01*
X108129804Y-119023773D01*
X108126204Y-118999504D01*
X108125000Y-118975000D01*
X108125000Y-118225000D01*
X108126204Y-118200496D01*
X108129804Y-118176227D01*
X108135765Y-118152429D01*
X108144030Y-118129329D01*
X108154520Y-118107151D01*
X108167133Y-118086107D01*
X108181747Y-118066402D01*
X108198223Y-118048223D01*
X108216402Y-118031747D01*
X108236107Y-118017133D01*
X108257151Y-118004520D01*
X108279329Y-117994030D01*
X108302429Y-117985765D01*
X108326227Y-117979804D01*
X108350496Y-117976204D01*
X108375000Y-117975000D01*
X109625000Y-117975000D01*
X109649504Y-117976204D01*
X109649504Y-117976204D01*
G37*
D12*
G04 #@! TD*
G04 #@! TO.P,D17,1*
G04 #@! TO.N,GND*
X109000000Y-118600000D03*
D11*
G04 #@! TO.N,Net-(D17-Pad2)*
G04 #@! TO.C,D17*
G36*
X109649504Y-115176204D02*
G01*
X109673773Y-115179804D01*
X109697571Y-115185765D01*
X109720671Y-115194030D01*
X109742849Y-115204520D01*
X109763893Y-115217133D01*
X109783598Y-115231747D01*
X109801777Y-115248223D01*
X109818253Y-115266402D01*
X109832867Y-115286107D01*
X109845480Y-115307151D01*
X109855970Y-115329329D01*
X109864235Y-115352429D01*
X109870196Y-115376227D01*
X109873796Y-115400496D01*
X109875000Y-115425000D01*
X109875000Y-116175000D01*
X109873796Y-116199504D01*
X109870196Y-116223773D01*
X109864235Y-116247571D01*
X109855970Y-116270671D01*
X109845480Y-116292849D01*
X109832867Y-116313893D01*
X109818253Y-116333598D01*
X109801777Y-116351777D01*
X109783598Y-116368253D01*
X109763893Y-116382867D01*
X109742849Y-116395480D01*
X109720671Y-116405970D01*
X109697571Y-116414235D01*
X109673773Y-116420196D01*
X109649504Y-116423796D01*
X109625000Y-116425000D01*
X108375000Y-116425000D01*
X108350496Y-116423796D01*
X108326227Y-116420196D01*
X108302429Y-116414235D01*
X108279329Y-116405970D01*
X108257151Y-116395480D01*
X108236107Y-116382867D01*
X108216402Y-116368253D01*
X108198223Y-116351777D01*
X108181747Y-116333598D01*
X108167133Y-116313893D01*
X108154520Y-116292849D01*
X108144030Y-116270671D01*
X108135765Y-116247571D01*
X108129804Y-116223773D01*
X108126204Y-116199504D01*
X108125000Y-116175000D01*
X108125000Y-115425000D01*
X108126204Y-115400496D01*
X108129804Y-115376227D01*
X108135765Y-115352429D01*
X108144030Y-115329329D01*
X108154520Y-115307151D01*
X108167133Y-115286107D01*
X108181747Y-115266402D01*
X108198223Y-115248223D01*
X108216402Y-115231747D01*
X108236107Y-115217133D01*
X108257151Y-115204520D01*
X108279329Y-115194030D01*
X108302429Y-115185765D01*
X108326227Y-115179804D01*
X108350496Y-115176204D01*
X108375000Y-115175000D01*
X109625000Y-115175000D01*
X109649504Y-115176204D01*
X109649504Y-115176204D01*
G37*
D12*
G04 #@! TD*
G04 #@! TO.P,D17,2*
G04 #@! TO.N,Net-(D17-Pad2)*
X109000000Y-115800000D03*
D11*
G04 #@! TO.N,Net-(D30-Pad2)*
G04 #@! TO.C,D30*
G36*
X113449504Y-115176204D02*
G01*
X113473773Y-115179804D01*
X113497571Y-115185765D01*
X113520671Y-115194030D01*
X113542849Y-115204520D01*
X113563893Y-115217133D01*
X113583598Y-115231747D01*
X113601777Y-115248223D01*
X113618253Y-115266402D01*
X113632867Y-115286107D01*
X113645480Y-115307151D01*
X113655970Y-115329329D01*
X113664235Y-115352429D01*
X113670196Y-115376227D01*
X113673796Y-115400496D01*
X113675000Y-115425000D01*
X113675000Y-116175000D01*
X113673796Y-116199504D01*
X113670196Y-116223773D01*
X113664235Y-116247571D01*
X113655970Y-116270671D01*
X113645480Y-116292849D01*
X113632867Y-116313893D01*
X113618253Y-116333598D01*
X113601777Y-116351777D01*
X113583598Y-116368253D01*
X113563893Y-116382867D01*
X113542849Y-116395480D01*
X113520671Y-116405970D01*
X113497571Y-116414235D01*
X113473773Y-116420196D01*
X113449504Y-116423796D01*
X113425000Y-116425000D01*
X112175000Y-116425000D01*
X112150496Y-116423796D01*
X112126227Y-116420196D01*
X112102429Y-116414235D01*
X112079329Y-116405970D01*
X112057151Y-116395480D01*
X112036107Y-116382867D01*
X112016402Y-116368253D01*
X111998223Y-116351777D01*
X111981747Y-116333598D01*
X111967133Y-116313893D01*
X111954520Y-116292849D01*
X111944030Y-116270671D01*
X111935765Y-116247571D01*
X111929804Y-116223773D01*
X111926204Y-116199504D01*
X111925000Y-116175000D01*
X111925000Y-115425000D01*
X111926204Y-115400496D01*
X111929804Y-115376227D01*
X111935765Y-115352429D01*
X111944030Y-115329329D01*
X111954520Y-115307151D01*
X111967133Y-115286107D01*
X111981747Y-115266402D01*
X111998223Y-115248223D01*
X112016402Y-115231747D01*
X112036107Y-115217133D01*
X112057151Y-115204520D01*
X112079329Y-115194030D01*
X112102429Y-115185765D01*
X112126227Y-115179804D01*
X112150496Y-115176204D01*
X112175000Y-115175000D01*
X113425000Y-115175000D01*
X113449504Y-115176204D01*
X113449504Y-115176204D01*
G37*
D12*
G04 #@! TD*
G04 #@! TO.P,D30,2*
G04 #@! TO.N,Net-(D30-Pad2)*
X112800000Y-115800000D03*
D11*
G04 #@! TO.N,GND*
G04 #@! TO.C,D30*
G36*
X113449504Y-117976204D02*
G01*
X113473773Y-117979804D01*
X113497571Y-117985765D01*
X113520671Y-117994030D01*
X113542849Y-118004520D01*
X113563893Y-118017133D01*
X113583598Y-118031747D01*
X113601777Y-118048223D01*
X113618253Y-118066402D01*
X113632867Y-118086107D01*
X113645480Y-118107151D01*
X113655970Y-118129329D01*
X113664235Y-118152429D01*
X113670196Y-118176227D01*
X113673796Y-118200496D01*
X113675000Y-118225000D01*
X113675000Y-118975000D01*
X113673796Y-118999504D01*
X113670196Y-119023773D01*
X113664235Y-119047571D01*
X113655970Y-119070671D01*
X113645480Y-119092849D01*
X113632867Y-119113893D01*
X113618253Y-119133598D01*
X113601777Y-119151777D01*
X113583598Y-119168253D01*
X113563893Y-119182867D01*
X113542849Y-119195480D01*
X113520671Y-119205970D01*
X113497571Y-119214235D01*
X113473773Y-119220196D01*
X113449504Y-119223796D01*
X113425000Y-119225000D01*
X112175000Y-119225000D01*
X112150496Y-119223796D01*
X112126227Y-119220196D01*
X112102429Y-119214235D01*
X112079329Y-119205970D01*
X112057151Y-119195480D01*
X112036107Y-119182867D01*
X112016402Y-119168253D01*
X111998223Y-119151777D01*
X111981747Y-119133598D01*
X111967133Y-119113893D01*
X111954520Y-119092849D01*
X111944030Y-119070671D01*
X111935765Y-119047571D01*
X111929804Y-119023773D01*
X111926204Y-118999504D01*
X111925000Y-118975000D01*
X111925000Y-118225000D01*
X111926204Y-118200496D01*
X111929804Y-118176227D01*
X111935765Y-118152429D01*
X111944030Y-118129329D01*
X111954520Y-118107151D01*
X111967133Y-118086107D01*
X111981747Y-118066402D01*
X111998223Y-118048223D01*
X112016402Y-118031747D01*
X112036107Y-118017133D01*
X112057151Y-118004520D01*
X112079329Y-117994030D01*
X112102429Y-117985765D01*
X112126227Y-117979804D01*
X112150496Y-117976204D01*
X112175000Y-117975000D01*
X113425000Y-117975000D01*
X113449504Y-117976204D01*
X113449504Y-117976204D01*
G37*
D12*
G04 #@! TD*
G04 #@! TO.P,D30,1*
G04 #@! TO.N,GND*
X112800000Y-118600000D03*
D11*
G04 #@! TO.N,GND*
G04 #@! TO.C,D31*
G36*
X117249504Y-117976204D02*
G01*
X117273773Y-117979804D01*
X117297571Y-117985765D01*
X117320671Y-117994030D01*
X117342849Y-118004520D01*
X117363893Y-118017133D01*
X117383598Y-118031747D01*
X117401777Y-118048223D01*
X117418253Y-118066402D01*
X117432867Y-118086107D01*
X117445480Y-118107151D01*
X117455970Y-118129329D01*
X117464235Y-118152429D01*
X117470196Y-118176227D01*
X117473796Y-118200496D01*
X117475000Y-118225000D01*
X117475000Y-118975000D01*
X117473796Y-118999504D01*
X117470196Y-119023773D01*
X117464235Y-119047571D01*
X117455970Y-119070671D01*
X117445480Y-119092849D01*
X117432867Y-119113893D01*
X117418253Y-119133598D01*
X117401777Y-119151777D01*
X117383598Y-119168253D01*
X117363893Y-119182867D01*
X117342849Y-119195480D01*
X117320671Y-119205970D01*
X117297571Y-119214235D01*
X117273773Y-119220196D01*
X117249504Y-119223796D01*
X117225000Y-119225000D01*
X115975000Y-119225000D01*
X115950496Y-119223796D01*
X115926227Y-119220196D01*
X115902429Y-119214235D01*
X115879329Y-119205970D01*
X115857151Y-119195480D01*
X115836107Y-119182867D01*
X115816402Y-119168253D01*
X115798223Y-119151777D01*
X115781747Y-119133598D01*
X115767133Y-119113893D01*
X115754520Y-119092849D01*
X115744030Y-119070671D01*
X115735765Y-119047571D01*
X115729804Y-119023773D01*
X115726204Y-118999504D01*
X115725000Y-118975000D01*
X115725000Y-118225000D01*
X115726204Y-118200496D01*
X115729804Y-118176227D01*
X115735765Y-118152429D01*
X115744030Y-118129329D01*
X115754520Y-118107151D01*
X115767133Y-118086107D01*
X115781747Y-118066402D01*
X115798223Y-118048223D01*
X115816402Y-118031747D01*
X115836107Y-118017133D01*
X115857151Y-118004520D01*
X115879329Y-117994030D01*
X115902429Y-117985765D01*
X115926227Y-117979804D01*
X115950496Y-117976204D01*
X115975000Y-117975000D01*
X117225000Y-117975000D01*
X117249504Y-117976204D01*
X117249504Y-117976204D01*
G37*
D12*
G04 #@! TD*
G04 #@! TO.P,D31,1*
G04 #@! TO.N,GND*
X116600000Y-118600000D03*
D11*
G04 #@! TO.N,Net-(D31-Pad2)*
G04 #@! TO.C,D31*
G36*
X117249504Y-115176204D02*
G01*
X117273773Y-115179804D01*
X117297571Y-115185765D01*
X117320671Y-115194030D01*
X117342849Y-115204520D01*
X117363893Y-115217133D01*
X117383598Y-115231747D01*
X117401777Y-115248223D01*
X117418253Y-115266402D01*
X117432867Y-115286107D01*
X117445480Y-115307151D01*
X117455970Y-115329329D01*
X117464235Y-115352429D01*
X117470196Y-115376227D01*
X117473796Y-115400496D01*
X117475000Y-115425000D01*
X117475000Y-116175000D01*
X117473796Y-116199504D01*
X117470196Y-116223773D01*
X117464235Y-116247571D01*
X117455970Y-116270671D01*
X117445480Y-116292849D01*
X117432867Y-116313893D01*
X117418253Y-116333598D01*
X117401777Y-116351777D01*
X117383598Y-116368253D01*
X117363893Y-116382867D01*
X117342849Y-116395480D01*
X117320671Y-116405970D01*
X117297571Y-116414235D01*
X117273773Y-116420196D01*
X117249504Y-116423796D01*
X117225000Y-116425000D01*
X115975000Y-116425000D01*
X115950496Y-116423796D01*
X115926227Y-116420196D01*
X115902429Y-116414235D01*
X115879329Y-116405970D01*
X115857151Y-116395480D01*
X115836107Y-116382867D01*
X115816402Y-116368253D01*
X115798223Y-116351777D01*
X115781747Y-116333598D01*
X115767133Y-116313893D01*
X115754520Y-116292849D01*
X115744030Y-116270671D01*
X115735765Y-116247571D01*
X115729804Y-116223773D01*
X115726204Y-116199504D01*
X115725000Y-116175000D01*
X115725000Y-115425000D01*
X115726204Y-115400496D01*
X115729804Y-115376227D01*
X115735765Y-115352429D01*
X115744030Y-115329329D01*
X115754520Y-115307151D01*
X115767133Y-115286107D01*
X115781747Y-115266402D01*
X115798223Y-115248223D01*
X115816402Y-115231747D01*
X115836107Y-115217133D01*
X115857151Y-115204520D01*
X115879329Y-115194030D01*
X115902429Y-115185765D01*
X115926227Y-115179804D01*
X115950496Y-115176204D01*
X115975000Y-115175000D01*
X117225000Y-115175000D01*
X117249504Y-115176204D01*
X117249504Y-115176204D01*
G37*
D12*
G04 #@! TD*
G04 #@! TO.P,D31,2*
G04 #@! TO.N,Net-(D31-Pad2)*
X116600000Y-115800000D03*
D11*
G04 #@! TO.N,Net-(D32-Pad2)*
G04 #@! TO.C,D32*
G36*
X121049504Y-115176204D02*
G01*
X121073773Y-115179804D01*
X121097571Y-115185765D01*
X121120671Y-115194030D01*
X121142849Y-115204520D01*
X121163893Y-115217133D01*
X121183598Y-115231747D01*
X121201777Y-115248223D01*
X121218253Y-115266402D01*
X121232867Y-115286107D01*
X121245480Y-115307151D01*
X121255970Y-115329329D01*
X121264235Y-115352429D01*
X121270196Y-115376227D01*
X121273796Y-115400496D01*
X121275000Y-115425000D01*
X121275000Y-116175000D01*
X121273796Y-116199504D01*
X121270196Y-116223773D01*
X121264235Y-116247571D01*
X121255970Y-116270671D01*
X121245480Y-116292849D01*
X121232867Y-116313893D01*
X121218253Y-116333598D01*
X121201777Y-116351777D01*
X121183598Y-116368253D01*
X121163893Y-116382867D01*
X121142849Y-116395480D01*
X121120671Y-116405970D01*
X121097571Y-116414235D01*
X121073773Y-116420196D01*
X121049504Y-116423796D01*
X121025000Y-116425000D01*
X119775000Y-116425000D01*
X119750496Y-116423796D01*
X119726227Y-116420196D01*
X119702429Y-116414235D01*
X119679329Y-116405970D01*
X119657151Y-116395480D01*
X119636107Y-116382867D01*
X119616402Y-116368253D01*
X119598223Y-116351777D01*
X119581747Y-116333598D01*
X119567133Y-116313893D01*
X119554520Y-116292849D01*
X119544030Y-116270671D01*
X119535765Y-116247571D01*
X119529804Y-116223773D01*
X119526204Y-116199504D01*
X119525000Y-116175000D01*
X119525000Y-115425000D01*
X119526204Y-115400496D01*
X119529804Y-115376227D01*
X119535765Y-115352429D01*
X119544030Y-115329329D01*
X119554520Y-115307151D01*
X119567133Y-115286107D01*
X119581747Y-115266402D01*
X119598223Y-115248223D01*
X119616402Y-115231747D01*
X119636107Y-115217133D01*
X119657151Y-115204520D01*
X119679329Y-115194030D01*
X119702429Y-115185765D01*
X119726227Y-115179804D01*
X119750496Y-115176204D01*
X119775000Y-115175000D01*
X121025000Y-115175000D01*
X121049504Y-115176204D01*
X121049504Y-115176204D01*
G37*
D12*
G04 #@! TD*
G04 #@! TO.P,D32,2*
G04 #@! TO.N,Net-(D32-Pad2)*
X120400000Y-115800000D03*
D11*
G04 #@! TO.N,GND*
G04 #@! TO.C,D32*
G36*
X121049504Y-117976204D02*
G01*
X121073773Y-117979804D01*
X121097571Y-117985765D01*
X121120671Y-117994030D01*
X121142849Y-118004520D01*
X121163893Y-118017133D01*
X121183598Y-118031747D01*
X121201777Y-118048223D01*
X121218253Y-118066402D01*
X121232867Y-118086107D01*
X121245480Y-118107151D01*
X121255970Y-118129329D01*
X121264235Y-118152429D01*
X121270196Y-118176227D01*
X121273796Y-118200496D01*
X121275000Y-118225000D01*
X121275000Y-118975000D01*
X121273796Y-118999504D01*
X121270196Y-119023773D01*
X121264235Y-119047571D01*
X121255970Y-119070671D01*
X121245480Y-119092849D01*
X121232867Y-119113893D01*
X121218253Y-119133598D01*
X121201777Y-119151777D01*
X121183598Y-119168253D01*
X121163893Y-119182867D01*
X121142849Y-119195480D01*
X121120671Y-119205970D01*
X121097571Y-119214235D01*
X121073773Y-119220196D01*
X121049504Y-119223796D01*
X121025000Y-119225000D01*
X119775000Y-119225000D01*
X119750496Y-119223796D01*
X119726227Y-119220196D01*
X119702429Y-119214235D01*
X119679329Y-119205970D01*
X119657151Y-119195480D01*
X119636107Y-119182867D01*
X119616402Y-119168253D01*
X119598223Y-119151777D01*
X119581747Y-119133598D01*
X119567133Y-119113893D01*
X119554520Y-119092849D01*
X119544030Y-119070671D01*
X119535765Y-119047571D01*
X119529804Y-119023773D01*
X119526204Y-118999504D01*
X119525000Y-118975000D01*
X119525000Y-118225000D01*
X119526204Y-118200496D01*
X119529804Y-118176227D01*
X119535765Y-118152429D01*
X119544030Y-118129329D01*
X119554520Y-118107151D01*
X119567133Y-118086107D01*
X119581747Y-118066402D01*
X119598223Y-118048223D01*
X119616402Y-118031747D01*
X119636107Y-118017133D01*
X119657151Y-118004520D01*
X119679329Y-117994030D01*
X119702429Y-117985765D01*
X119726227Y-117979804D01*
X119750496Y-117976204D01*
X119775000Y-117975000D01*
X121025000Y-117975000D01*
X121049504Y-117976204D01*
X121049504Y-117976204D01*
G37*
D12*
G04 #@! TD*
G04 #@! TO.P,D32,1*
G04 #@! TO.N,GND*
X120400000Y-118600000D03*
D11*
G04 #@! TO.N,GND*
G04 #@! TO.C,D33*
G36*
X124849504Y-117976204D02*
G01*
X124873773Y-117979804D01*
X124897571Y-117985765D01*
X124920671Y-117994030D01*
X124942849Y-118004520D01*
X124963893Y-118017133D01*
X124983598Y-118031747D01*
X125001777Y-118048223D01*
X125018253Y-118066402D01*
X125032867Y-118086107D01*
X125045480Y-118107151D01*
X125055970Y-118129329D01*
X125064235Y-118152429D01*
X125070196Y-118176227D01*
X125073796Y-118200496D01*
X125075000Y-118225000D01*
X125075000Y-118975000D01*
X125073796Y-118999504D01*
X125070196Y-119023773D01*
X125064235Y-119047571D01*
X125055970Y-119070671D01*
X125045480Y-119092849D01*
X125032867Y-119113893D01*
X125018253Y-119133598D01*
X125001777Y-119151777D01*
X124983598Y-119168253D01*
X124963893Y-119182867D01*
X124942849Y-119195480D01*
X124920671Y-119205970D01*
X124897571Y-119214235D01*
X124873773Y-119220196D01*
X124849504Y-119223796D01*
X124825000Y-119225000D01*
X123575000Y-119225000D01*
X123550496Y-119223796D01*
X123526227Y-119220196D01*
X123502429Y-119214235D01*
X123479329Y-119205970D01*
X123457151Y-119195480D01*
X123436107Y-119182867D01*
X123416402Y-119168253D01*
X123398223Y-119151777D01*
X123381747Y-119133598D01*
X123367133Y-119113893D01*
X123354520Y-119092849D01*
X123344030Y-119070671D01*
X123335765Y-119047571D01*
X123329804Y-119023773D01*
X123326204Y-118999504D01*
X123325000Y-118975000D01*
X123325000Y-118225000D01*
X123326204Y-118200496D01*
X123329804Y-118176227D01*
X123335765Y-118152429D01*
X123344030Y-118129329D01*
X123354520Y-118107151D01*
X123367133Y-118086107D01*
X123381747Y-118066402D01*
X123398223Y-118048223D01*
X123416402Y-118031747D01*
X123436107Y-118017133D01*
X123457151Y-118004520D01*
X123479329Y-117994030D01*
X123502429Y-117985765D01*
X123526227Y-117979804D01*
X123550496Y-117976204D01*
X123575000Y-117975000D01*
X124825000Y-117975000D01*
X124849504Y-117976204D01*
X124849504Y-117976204D01*
G37*
D12*
G04 #@! TD*
G04 #@! TO.P,D33,1*
G04 #@! TO.N,GND*
X124200000Y-118600000D03*
D11*
G04 #@! TO.N,Net-(D33-Pad2)*
G04 #@! TO.C,D33*
G36*
X124849504Y-115176204D02*
G01*
X124873773Y-115179804D01*
X124897571Y-115185765D01*
X124920671Y-115194030D01*
X124942849Y-115204520D01*
X124963893Y-115217133D01*
X124983598Y-115231747D01*
X125001777Y-115248223D01*
X125018253Y-115266402D01*
X125032867Y-115286107D01*
X125045480Y-115307151D01*
X125055970Y-115329329D01*
X125064235Y-115352429D01*
X125070196Y-115376227D01*
X125073796Y-115400496D01*
X125075000Y-115425000D01*
X125075000Y-116175000D01*
X125073796Y-116199504D01*
X125070196Y-116223773D01*
X125064235Y-116247571D01*
X125055970Y-116270671D01*
X125045480Y-116292849D01*
X125032867Y-116313893D01*
X125018253Y-116333598D01*
X125001777Y-116351777D01*
X124983598Y-116368253D01*
X124963893Y-116382867D01*
X124942849Y-116395480D01*
X124920671Y-116405970D01*
X124897571Y-116414235D01*
X124873773Y-116420196D01*
X124849504Y-116423796D01*
X124825000Y-116425000D01*
X123575000Y-116425000D01*
X123550496Y-116423796D01*
X123526227Y-116420196D01*
X123502429Y-116414235D01*
X123479329Y-116405970D01*
X123457151Y-116395480D01*
X123436107Y-116382867D01*
X123416402Y-116368253D01*
X123398223Y-116351777D01*
X123381747Y-116333598D01*
X123367133Y-116313893D01*
X123354520Y-116292849D01*
X123344030Y-116270671D01*
X123335765Y-116247571D01*
X123329804Y-116223773D01*
X123326204Y-116199504D01*
X123325000Y-116175000D01*
X123325000Y-115425000D01*
X123326204Y-115400496D01*
X123329804Y-115376227D01*
X123335765Y-115352429D01*
X123344030Y-115329329D01*
X123354520Y-115307151D01*
X123367133Y-115286107D01*
X123381747Y-115266402D01*
X123398223Y-115248223D01*
X123416402Y-115231747D01*
X123436107Y-115217133D01*
X123457151Y-115204520D01*
X123479329Y-115194030D01*
X123502429Y-115185765D01*
X123526227Y-115179804D01*
X123550496Y-115176204D01*
X123575000Y-115175000D01*
X124825000Y-115175000D01*
X124849504Y-115176204D01*
X124849504Y-115176204D01*
G37*
D12*
G04 #@! TD*
G04 #@! TO.P,D33,2*
G04 #@! TO.N,Net-(D33-Pad2)*
X124200000Y-115800000D03*
D13*
G04 #@! TO.P,IC1,16*
G04 #@! TO.N,3V3*
X111300000Y-96355000D03*
G04 #@! TO.P,IC1,15*
G04 #@! TO.N,VCC*
X111300000Y-97625000D03*
G04 #@! TO.P,IC1,14*
G04 #@! TO.N,GND*
X111300000Y-98895000D03*
G04 #@! TO.P,IC1,13*
G04 #@! TO.N,D-*
X111300000Y-100165000D03*
G04 #@! TO.P,IC1,12*
G04 #@! TO.N,D+*
X111300000Y-101435000D03*
G04 #@! TO.P,IC1,11*
G04 #@! TO.N,P3.4*
X111300000Y-102705000D03*
G04 #@! TO.P,IC1,10*
G04 #@! TO.N,P3.3*
X111300000Y-103975000D03*
G04 #@! TO.P,IC1,9*
G04 #@! TO.N,P1.1*
X111300000Y-105245000D03*
G04 #@! TO.P,IC1,8*
G04 #@! TO.N,P3.0*
X105900000Y-105245000D03*
G04 #@! TO.P,IC1,7*
G04 #@! TO.N,P3.1*
X105900000Y-103975000D03*
G04 #@! TO.P,IC1,6*
G04 #@! TO.N,RST*
X105900000Y-102705000D03*
G04 #@! TO.P,IC1,5*
G04 #@! TO.N,P1.7*
X105900000Y-101435000D03*
G04 #@! TO.P,IC1,4*
G04 #@! TO.N,P1.6*
X105900000Y-100165000D03*
G04 #@! TO.P,IC1,3*
G04 #@! TO.N,P1.5*
X105900000Y-98895000D03*
G04 #@! TO.P,IC1,2*
G04 #@! TO.N,P1.4*
X105900000Y-97625000D03*
G04 #@! TO.P,IC1,1*
G04 #@! TO.N,P3.2*
X105900000Y-96355000D03*
G04 #@! TD*
D14*
G04 #@! TO.P,J1,6*
G04 #@! TO.N,GND*
X107150000Y-79750000D03*
X110150000Y-79750000D03*
D15*
X104575000Y-80930000D03*
X112725000Y-80930000D03*
D16*
G04 #@! TO.P,J1,5*
X107350000Y-83800000D03*
G04 #@! TO.P,J1,1*
G04 #@! TO.N,VCC*
X109950000Y-83800000D03*
G04 #@! TO.P,J1,4*
G04 #@! TO.N,Net-(J1-Pad4)*
X108000000Y-83800000D03*
G04 #@! TO.P,J1,2*
G04 #@! TO.N,D-*
X109300000Y-83800000D03*
G04 #@! TO.P,J1,3*
G04 #@! TO.N,D+*
X108650000Y-83800000D03*
D17*
G04 #@! TO.P,J1,6*
G04 #@! TO.N,GND*
X105400000Y-83600000D03*
X111900000Y-83600000D03*
G04 #@! TD*
D18*
G04 #@! TO.P,J2,8*
G04 #@! TO.N,P3.0*
X100220000Y-105140000D03*
G04 #@! TO.P,J2,7*
G04 #@! TO.N,P3.1*
X100220000Y-102600000D03*
G04 #@! TO.P,J2,6*
G04 #@! TO.N,RST*
X100220000Y-100060000D03*
G04 #@! TO.P,J2,5*
G04 #@! TO.N,P1.7*
X100220000Y-97520000D03*
G04 #@! TO.P,J2,4*
G04 #@! TO.N,P1.6*
X100220000Y-94980000D03*
G04 #@! TO.P,J2,3*
G04 #@! TO.N,P1.5*
X100220000Y-92440000D03*
G04 #@! TO.P,J2,2*
G04 #@! TO.N,P1.4*
X100220000Y-89900000D03*
D19*
G04 #@! TO.P,J2,1*
G04 #@! TO.N,P3.2*
X100220000Y-87360000D03*
G04 #@! TD*
G04 #@! TO.P,J3,1*
G04 #@! TO.N,P1.1*
X118000000Y-105140000D03*
D18*
G04 #@! TO.P,J3,2*
G04 #@! TO.N,P3.3*
X118000000Y-102600000D03*
G04 #@! TO.P,J3,3*
G04 #@! TO.N,P3.4*
X118000000Y-100060000D03*
G04 #@! TO.P,J3,4*
G04 #@! TO.N,D+*
X118000000Y-97520000D03*
G04 #@! TO.P,J3,5*
G04 #@! TO.N,D-*
X118000000Y-94980000D03*
G04 #@! TO.P,J3,6*
G04 #@! TO.N,GND*
X118000000Y-92440000D03*
G04 #@! TO.P,J3,7*
G04 #@! TO.N,VCC*
X118000000Y-89900000D03*
G04 #@! TO.P,J3,8*
G04 #@! TO.N,3V3*
X118000000Y-87360000D03*
G04 #@! TD*
G04 #@! TO.P,J4,2*
G04 #@! TO.N,VCC*
X121600000Y-89860000D03*
D19*
G04 #@! TO.P,J4,1*
G04 #@! TO.N,GND*
X121600000Y-92400000D03*
G04 #@! TD*
D11*
G04 #@! TO.N,D+*
G04 #@! TO.C,R1*
G36*
X112749504Y-86176204D02*
G01*
X112773773Y-86179804D01*
X112797571Y-86185765D01*
X112820671Y-86194030D01*
X112842849Y-86204520D01*
X112863893Y-86217133D01*
X112883598Y-86231747D01*
X112901777Y-86248223D01*
X112918253Y-86266402D01*
X112932867Y-86286107D01*
X112945480Y-86307151D01*
X112955970Y-86329329D01*
X112964235Y-86352429D01*
X112970196Y-86376227D01*
X112973796Y-86400496D01*
X112975000Y-86425000D01*
X112975000Y-87175000D01*
X112973796Y-87199504D01*
X112970196Y-87223773D01*
X112964235Y-87247571D01*
X112955970Y-87270671D01*
X112945480Y-87292849D01*
X112932867Y-87313893D01*
X112918253Y-87333598D01*
X112901777Y-87351777D01*
X112883598Y-87368253D01*
X112863893Y-87382867D01*
X112842849Y-87395480D01*
X112820671Y-87405970D01*
X112797571Y-87414235D01*
X112773773Y-87420196D01*
X112749504Y-87423796D01*
X112725000Y-87425000D01*
X111475000Y-87425000D01*
X111450496Y-87423796D01*
X111426227Y-87420196D01*
X111402429Y-87414235D01*
X111379329Y-87405970D01*
X111357151Y-87395480D01*
X111336107Y-87382867D01*
X111316402Y-87368253D01*
X111298223Y-87351777D01*
X111281747Y-87333598D01*
X111267133Y-87313893D01*
X111254520Y-87292849D01*
X111244030Y-87270671D01*
X111235765Y-87247571D01*
X111229804Y-87223773D01*
X111226204Y-87199504D01*
X111225000Y-87175000D01*
X111225000Y-86425000D01*
X111226204Y-86400496D01*
X111229804Y-86376227D01*
X111235765Y-86352429D01*
X111244030Y-86329329D01*
X111254520Y-86307151D01*
X111267133Y-86286107D01*
X111281747Y-86266402D01*
X111298223Y-86248223D01*
X111316402Y-86231747D01*
X111336107Y-86217133D01*
X111357151Y-86204520D01*
X111379329Y-86194030D01*
X111402429Y-86185765D01*
X111426227Y-86179804D01*
X111450496Y-86176204D01*
X111475000Y-86175000D01*
X112725000Y-86175000D01*
X112749504Y-86176204D01*
X112749504Y-86176204D01*
G37*
D12*
G04 #@! TD*
G04 #@! TO.P,R1,1*
G04 #@! TO.N,D+*
X112100000Y-86800000D03*
D11*
G04 #@! TO.N,Net-(R1-Pad2)*
G04 #@! TO.C,R1*
G36*
X112749504Y-88976204D02*
G01*
X112773773Y-88979804D01*
X112797571Y-88985765D01*
X112820671Y-88994030D01*
X112842849Y-89004520D01*
X112863893Y-89017133D01*
X112883598Y-89031747D01*
X112901777Y-89048223D01*
X112918253Y-89066402D01*
X112932867Y-89086107D01*
X112945480Y-89107151D01*
X112955970Y-89129329D01*
X112964235Y-89152429D01*
X112970196Y-89176227D01*
X112973796Y-89200496D01*
X112975000Y-89225000D01*
X112975000Y-89975000D01*
X112973796Y-89999504D01*
X112970196Y-90023773D01*
X112964235Y-90047571D01*
X112955970Y-90070671D01*
X112945480Y-90092849D01*
X112932867Y-90113893D01*
X112918253Y-90133598D01*
X112901777Y-90151777D01*
X112883598Y-90168253D01*
X112863893Y-90182867D01*
X112842849Y-90195480D01*
X112820671Y-90205970D01*
X112797571Y-90214235D01*
X112773773Y-90220196D01*
X112749504Y-90223796D01*
X112725000Y-90225000D01*
X111475000Y-90225000D01*
X111450496Y-90223796D01*
X111426227Y-90220196D01*
X111402429Y-90214235D01*
X111379329Y-90205970D01*
X111357151Y-90195480D01*
X111336107Y-90182867D01*
X111316402Y-90168253D01*
X111298223Y-90151777D01*
X111281747Y-90133598D01*
X111267133Y-90113893D01*
X111254520Y-90092849D01*
X111244030Y-90070671D01*
X111235765Y-90047571D01*
X111229804Y-90023773D01*
X111226204Y-89999504D01*
X111225000Y-89975000D01*
X111225000Y-89225000D01*
X111226204Y-89200496D01*
X111229804Y-89176227D01*
X111235765Y-89152429D01*
X111244030Y-89129329D01*
X111254520Y-89107151D01*
X111267133Y-89086107D01*
X111281747Y-89066402D01*
X111298223Y-89048223D01*
X111316402Y-89031747D01*
X111336107Y-89017133D01*
X111357151Y-89004520D01*
X111379329Y-88994030D01*
X111402429Y-88985765D01*
X111426227Y-88979804D01*
X111450496Y-88976204D01*
X111475000Y-88975000D01*
X112725000Y-88975000D01*
X112749504Y-88976204D01*
X112749504Y-88976204D01*
G37*
D12*
G04 #@! TD*
G04 #@! TO.P,R1,2*
G04 #@! TO.N,Net-(R1-Pad2)*
X112100000Y-89600000D03*
D11*
G04 #@! TO.N,Net-(D14-Pad2)*
G04 #@! TO.C,R14*
G36*
X98249504Y-112776204D02*
G01*
X98273773Y-112779804D01*
X98297571Y-112785765D01*
X98320671Y-112794030D01*
X98342849Y-112804520D01*
X98363893Y-112817133D01*
X98383598Y-112831747D01*
X98401777Y-112848223D01*
X98418253Y-112866402D01*
X98432867Y-112886107D01*
X98445480Y-112907151D01*
X98455970Y-112929329D01*
X98464235Y-112952429D01*
X98470196Y-112976227D01*
X98473796Y-113000496D01*
X98475000Y-113025000D01*
X98475000Y-113775000D01*
X98473796Y-113799504D01*
X98470196Y-113823773D01*
X98464235Y-113847571D01*
X98455970Y-113870671D01*
X98445480Y-113892849D01*
X98432867Y-113913893D01*
X98418253Y-113933598D01*
X98401777Y-113951777D01*
X98383598Y-113968253D01*
X98363893Y-113982867D01*
X98342849Y-113995480D01*
X98320671Y-114005970D01*
X98297571Y-114014235D01*
X98273773Y-114020196D01*
X98249504Y-114023796D01*
X98225000Y-114025000D01*
X96975000Y-114025000D01*
X96950496Y-114023796D01*
X96926227Y-114020196D01*
X96902429Y-114014235D01*
X96879329Y-114005970D01*
X96857151Y-113995480D01*
X96836107Y-113982867D01*
X96816402Y-113968253D01*
X96798223Y-113951777D01*
X96781747Y-113933598D01*
X96767133Y-113913893D01*
X96754520Y-113892849D01*
X96744030Y-113870671D01*
X96735765Y-113847571D01*
X96729804Y-113823773D01*
X96726204Y-113799504D01*
X96725000Y-113775000D01*
X96725000Y-113025000D01*
X96726204Y-113000496D01*
X96729804Y-112976227D01*
X96735765Y-112952429D01*
X96744030Y-112929329D01*
X96754520Y-112907151D01*
X96767133Y-112886107D01*
X96781747Y-112866402D01*
X96798223Y-112848223D01*
X96816402Y-112831747D01*
X96836107Y-112817133D01*
X96857151Y-112804520D01*
X96879329Y-112794030D01*
X96902429Y-112785765D01*
X96926227Y-112779804D01*
X96950496Y-112776204D01*
X96975000Y-112775000D01*
X98225000Y-112775000D01*
X98249504Y-112776204D01*
X98249504Y-112776204D01*
G37*
D12*
G04 #@! TD*
G04 #@! TO.P,R14,1*
G04 #@! TO.N,Net-(D14-Pad2)*
X97600000Y-113400000D03*
D11*
G04 #@! TO.N,P1.4*
G04 #@! TO.C,R14*
G36*
X98249504Y-109976204D02*
G01*
X98273773Y-109979804D01*
X98297571Y-109985765D01*
X98320671Y-109994030D01*
X98342849Y-110004520D01*
X98363893Y-110017133D01*
X98383598Y-110031747D01*
X98401777Y-110048223D01*
X98418253Y-110066402D01*
X98432867Y-110086107D01*
X98445480Y-110107151D01*
X98455970Y-110129329D01*
X98464235Y-110152429D01*
X98470196Y-110176227D01*
X98473796Y-110200496D01*
X98475000Y-110225000D01*
X98475000Y-110975000D01*
X98473796Y-110999504D01*
X98470196Y-111023773D01*
X98464235Y-111047571D01*
X98455970Y-111070671D01*
X98445480Y-111092849D01*
X98432867Y-111113893D01*
X98418253Y-111133598D01*
X98401777Y-111151777D01*
X98383598Y-111168253D01*
X98363893Y-111182867D01*
X98342849Y-111195480D01*
X98320671Y-111205970D01*
X98297571Y-111214235D01*
X98273773Y-111220196D01*
X98249504Y-111223796D01*
X98225000Y-111225000D01*
X96975000Y-111225000D01*
X96950496Y-111223796D01*
X96926227Y-111220196D01*
X96902429Y-111214235D01*
X96879329Y-111205970D01*
X96857151Y-111195480D01*
X96836107Y-111182867D01*
X96816402Y-111168253D01*
X96798223Y-111151777D01*
X96781747Y-111133598D01*
X96767133Y-111113893D01*
X96754520Y-111092849D01*
X96744030Y-111070671D01*
X96735765Y-111047571D01*
X96729804Y-111023773D01*
X96726204Y-110999504D01*
X96725000Y-110975000D01*
X96725000Y-110225000D01*
X96726204Y-110200496D01*
X96729804Y-110176227D01*
X96735765Y-110152429D01*
X96744030Y-110129329D01*
X96754520Y-110107151D01*
X96767133Y-110086107D01*
X96781747Y-110066402D01*
X96798223Y-110048223D01*
X96816402Y-110031747D01*
X96836107Y-110017133D01*
X96857151Y-110004520D01*
X96879329Y-109994030D01*
X96902429Y-109985765D01*
X96926227Y-109979804D01*
X96950496Y-109976204D01*
X96975000Y-109975000D01*
X98225000Y-109975000D01*
X98249504Y-109976204D01*
X98249504Y-109976204D01*
G37*
D12*
G04 #@! TD*
G04 #@! TO.P,R14,2*
G04 #@! TO.N,P1.4*
X97600000Y-110600000D03*
D11*
G04 #@! TO.N,P1.5*
G04 #@! TO.C,R15*
G36*
X102049504Y-109976204D02*
G01*
X102073773Y-109979804D01*
X102097571Y-109985765D01*
X102120671Y-109994030D01*
X102142849Y-110004520D01*
X102163893Y-110017133D01*
X102183598Y-110031747D01*
X102201777Y-110048223D01*
X102218253Y-110066402D01*
X102232867Y-110086107D01*
X102245480Y-110107151D01*
X102255970Y-110129329D01*
X102264235Y-110152429D01*
X102270196Y-110176227D01*
X102273796Y-110200496D01*
X102275000Y-110225000D01*
X102275000Y-110975000D01*
X102273796Y-110999504D01*
X102270196Y-111023773D01*
X102264235Y-111047571D01*
X102255970Y-111070671D01*
X102245480Y-111092849D01*
X102232867Y-111113893D01*
X102218253Y-111133598D01*
X102201777Y-111151777D01*
X102183598Y-111168253D01*
X102163893Y-111182867D01*
X102142849Y-111195480D01*
X102120671Y-111205970D01*
X102097571Y-111214235D01*
X102073773Y-111220196D01*
X102049504Y-111223796D01*
X102025000Y-111225000D01*
X100775000Y-111225000D01*
X100750496Y-111223796D01*
X100726227Y-111220196D01*
X100702429Y-111214235D01*
X100679329Y-111205970D01*
X100657151Y-111195480D01*
X100636107Y-111182867D01*
X100616402Y-111168253D01*
X100598223Y-111151777D01*
X100581747Y-111133598D01*
X100567133Y-111113893D01*
X100554520Y-111092849D01*
X100544030Y-111070671D01*
X100535765Y-111047571D01*
X100529804Y-111023773D01*
X100526204Y-110999504D01*
X100525000Y-110975000D01*
X100525000Y-110225000D01*
X100526204Y-110200496D01*
X100529804Y-110176227D01*
X100535765Y-110152429D01*
X100544030Y-110129329D01*
X100554520Y-110107151D01*
X100567133Y-110086107D01*
X100581747Y-110066402D01*
X100598223Y-110048223D01*
X100616402Y-110031747D01*
X100636107Y-110017133D01*
X100657151Y-110004520D01*
X100679329Y-109994030D01*
X100702429Y-109985765D01*
X100726227Y-109979804D01*
X100750496Y-109976204D01*
X100775000Y-109975000D01*
X102025000Y-109975000D01*
X102049504Y-109976204D01*
X102049504Y-109976204D01*
G37*
D12*
G04 #@! TD*
G04 #@! TO.P,R15,2*
G04 #@! TO.N,P1.5*
X101400000Y-110600000D03*
D11*
G04 #@! TO.N,Net-(D15-Pad2)*
G04 #@! TO.C,R15*
G36*
X102049504Y-112776204D02*
G01*
X102073773Y-112779804D01*
X102097571Y-112785765D01*
X102120671Y-112794030D01*
X102142849Y-112804520D01*
X102163893Y-112817133D01*
X102183598Y-112831747D01*
X102201777Y-112848223D01*
X102218253Y-112866402D01*
X102232867Y-112886107D01*
X102245480Y-112907151D01*
X102255970Y-112929329D01*
X102264235Y-112952429D01*
X102270196Y-112976227D01*
X102273796Y-113000496D01*
X102275000Y-113025000D01*
X102275000Y-113775000D01*
X102273796Y-113799504D01*
X102270196Y-113823773D01*
X102264235Y-113847571D01*
X102255970Y-113870671D01*
X102245480Y-113892849D01*
X102232867Y-113913893D01*
X102218253Y-113933598D01*
X102201777Y-113951777D01*
X102183598Y-113968253D01*
X102163893Y-113982867D01*
X102142849Y-113995480D01*
X102120671Y-114005970D01*
X102097571Y-114014235D01*
X102073773Y-114020196D01*
X102049504Y-114023796D01*
X102025000Y-114025000D01*
X100775000Y-114025000D01*
X100750496Y-114023796D01*
X100726227Y-114020196D01*
X100702429Y-114014235D01*
X100679329Y-114005970D01*
X100657151Y-113995480D01*
X100636107Y-113982867D01*
X100616402Y-113968253D01*
X100598223Y-113951777D01*
X100581747Y-113933598D01*
X100567133Y-113913893D01*
X100554520Y-113892849D01*
X100544030Y-113870671D01*
X100535765Y-113847571D01*
X100529804Y-113823773D01*
X100526204Y-113799504D01*
X100525000Y-113775000D01*
X100525000Y-113025000D01*
X100526204Y-113000496D01*
X100529804Y-112976227D01*
X100535765Y-112952429D01*
X100544030Y-112929329D01*
X100554520Y-112907151D01*
X100567133Y-112886107D01*
X100581747Y-112866402D01*
X100598223Y-112848223D01*
X100616402Y-112831747D01*
X100636107Y-112817133D01*
X100657151Y-112804520D01*
X100679329Y-112794030D01*
X100702429Y-112785765D01*
X100726227Y-112779804D01*
X100750496Y-112776204D01*
X100775000Y-112775000D01*
X102025000Y-112775000D01*
X102049504Y-112776204D01*
X102049504Y-112776204D01*
G37*
D12*
G04 #@! TD*
G04 #@! TO.P,R15,1*
G04 #@! TO.N,Net-(D15-Pad2)*
X101400000Y-113400000D03*
D11*
G04 #@! TO.N,Net-(D16-Pad2)*
G04 #@! TO.C,R16*
G36*
X105849504Y-112776204D02*
G01*
X105873773Y-112779804D01*
X105897571Y-112785765D01*
X105920671Y-112794030D01*
X105942849Y-112804520D01*
X105963893Y-112817133D01*
X105983598Y-112831747D01*
X106001777Y-112848223D01*
X106018253Y-112866402D01*
X106032867Y-112886107D01*
X106045480Y-112907151D01*
X106055970Y-112929329D01*
X106064235Y-112952429D01*
X106070196Y-112976227D01*
X106073796Y-113000496D01*
X106075000Y-113025000D01*
X106075000Y-113775000D01*
X106073796Y-113799504D01*
X106070196Y-113823773D01*
X106064235Y-113847571D01*
X106055970Y-113870671D01*
X106045480Y-113892849D01*
X106032867Y-113913893D01*
X106018253Y-113933598D01*
X106001777Y-113951777D01*
X105983598Y-113968253D01*
X105963893Y-113982867D01*
X105942849Y-113995480D01*
X105920671Y-114005970D01*
X105897571Y-114014235D01*
X105873773Y-114020196D01*
X105849504Y-114023796D01*
X105825000Y-114025000D01*
X104575000Y-114025000D01*
X104550496Y-114023796D01*
X104526227Y-114020196D01*
X104502429Y-114014235D01*
X104479329Y-114005970D01*
X104457151Y-113995480D01*
X104436107Y-113982867D01*
X104416402Y-113968253D01*
X104398223Y-113951777D01*
X104381747Y-113933598D01*
X104367133Y-113913893D01*
X104354520Y-113892849D01*
X104344030Y-113870671D01*
X104335765Y-113847571D01*
X104329804Y-113823773D01*
X104326204Y-113799504D01*
X104325000Y-113775000D01*
X104325000Y-113025000D01*
X104326204Y-113000496D01*
X104329804Y-112976227D01*
X104335765Y-112952429D01*
X104344030Y-112929329D01*
X104354520Y-112907151D01*
X104367133Y-112886107D01*
X104381747Y-112866402D01*
X104398223Y-112848223D01*
X104416402Y-112831747D01*
X104436107Y-112817133D01*
X104457151Y-112804520D01*
X104479329Y-112794030D01*
X104502429Y-112785765D01*
X104526227Y-112779804D01*
X104550496Y-112776204D01*
X104575000Y-112775000D01*
X105825000Y-112775000D01*
X105849504Y-112776204D01*
X105849504Y-112776204D01*
G37*
D12*
G04 #@! TD*
G04 #@! TO.P,R16,1*
G04 #@! TO.N,Net-(D16-Pad2)*
X105200000Y-113400000D03*
D11*
G04 #@! TO.N,P1.6*
G04 #@! TO.C,R16*
G36*
X105849504Y-109976204D02*
G01*
X105873773Y-109979804D01*
X105897571Y-109985765D01*
X105920671Y-109994030D01*
X105942849Y-110004520D01*
X105963893Y-110017133D01*
X105983598Y-110031747D01*
X106001777Y-110048223D01*
X106018253Y-110066402D01*
X106032867Y-110086107D01*
X106045480Y-110107151D01*
X106055970Y-110129329D01*
X106064235Y-110152429D01*
X106070196Y-110176227D01*
X106073796Y-110200496D01*
X106075000Y-110225000D01*
X106075000Y-110975000D01*
X106073796Y-110999504D01*
X106070196Y-111023773D01*
X106064235Y-111047571D01*
X106055970Y-111070671D01*
X106045480Y-111092849D01*
X106032867Y-111113893D01*
X106018253Y-111133598D01*
X106001777Y-111151777D01*
X105983598Y-111168253D01*
X105963893Y-111182867D01*
X105942849Y-111195480D01*
X105920671Y-111205970D01*
X105897571Y-111214235D01*
X105873773Y-111220196D01*
X105849504Y-111223796D01*
X105825000Y-111225000D01*
X104575000Y-111225000D01*
X104550496Y-111223796D01*
X104526227Y-111220196D01*
X104502429Y-111214235D01*
X104479329Y-111205970D01*
X104457151Y-111195480D01*
X104436107Y-111182867D01*
X104416402Y-111168253D01*
X104398223Y-111151777D01*
X104381747Y-111133598D01*
X104367133Y-111113893D01*
X104354520Y-111092849D01*
X104344030Y-111070671D01*
X104335765Y-111047571D01*
X104329804Y-111023773D01*
X104326204Y-110999504D01*
X104325000Y-110975000D01*
X104325000Y-110225000D01*
X104326204Y-110200496D01*
X104329804Y-110176227D01*
X104335765Y-110152429D01*
X104344030Y-110129329D01*
X104354520Y-110107151D01*
X104367133Y-110086107D01*
X104381747Y-110066402D01*
X104398223Y-110048223D01*
X104416402Y-110031747D01*
X104436107Y-110017133D01*
X104457151Y-110004520D01*
X104479329Y-109994030D01*
X104502429Y-109985765D01*
X104526227Y-109979804D01*
X104550496Y-109976204D01*
X104575000Y-109975000D01*
X105825000Y-109975000D01*
X105849504Y-109976204D01*
X105849504Y-109976204D01*
G37*
D12*
G04 #@! TD*
G04 #@! TO.P,R16,2*
G04 #@! TO.N,P1.6*
X105200000Y-110600000D03*
D11*
G04 #@! TO.N,Net-(D17-Pad2)*
G04 #@! TO.C,R17*
G36*
X109649504Y-112776204D02*
G01*
X109673773Y-112779804D01*
X109697571Y-112785765D01*
X109720671Y-112794030D01*
X109742849Y-112804520D01*
X109763893Y-112817133D01*
X109783598Y-112831747D01*
X109801777Y-112848223D01*
X109818253Y-112866402D01*
X109832867Y-112886107D01*
X109845480Y-112907151D01*
X109855970Y-112929329D01*
X109864235Y-112952429D01*
X109870196Y-112976227D01*
X109873796Y-113000496D01*
X109875000Y-113025000D01*
X109875000Y-113775000D01*
X109873796Y-113799504D01*
X109870196Y-113823773D01*
X109864235Y-113847571D01*
X109855970Y-113870671D01*
X109845480Y-113892849D01*
X109832867Y-113913893D01*
X109818253Y-113933598D01*
X109801777Y-113951777D01*
X109783598Y-113968253D01*
X109763893Y-113982867D01*
X109742849Y-113995480D01*
X109720671Y-114005970D01*
X109697571Y-114014235D01*
X109673773Y-114020196D01*
X109649504Y-114023796D01*
X109625000Y-114025000D01*
X108375000Y-114025000D01*
X108350496Y-114023796D01*
X108326227Y-114020196D01*
X108302429Y-114014235D01*
X108279329Y-114005970D01*
X108257151Y-113995480D01*
X108236107Y-113982867D01*
X108216402Y-113968253D01*
X108198223Y-113951777D01*
X108181747Y-113933598D01*
X108167133Y-113913893D01*
X108154520Y-113892849D01*
X108144030Y-113870671D01*
X108135765Y-113847571D01*
X108129804Y-113823773D01*
X108126204Y-113799504D01*
X108125000Y-113775000D01*
X108125000Y-113025000D01*
X108126204Y-113000496D01*
X108129804Y-112976227D01*
X108135765Y-112952429D01*
X108144030Y-112929329D01*
X108154520Y-112907151D01*
X108167133Y-112886107D01*
X108181747Y-112866402D01*
X108198223Y-112848223D01*
X108216402Y-112831747D01*
X108236107Y-112817133D01*
X108257151Y-112804520D01*
X108279329Y-112794030D01*
X108302429Y-112785765D01*
X108326227Y-112779804D01*
X108350496Y-112776204D01*
X108375000Y-112775000D01*
X109625000Y-112775000D01*
X109649504Y-112776204D01*
X109649504Y-112776204D01*
G37*
D12*
G04 #@! TD*
G04 #@! TO.P,R17,1*
G04 #@! TO.N,Net-(D17-Pad2)*
X109000000Y-113400000D03*
D11*
G04 #@! TO.N,P1.7*
G04 #@! TO.C,R17*
G36*
X109649504Y-109976204D02*
G01*
X109673773Y-109979804D01*
X109697571Y-109985765D01*
X109720671Y-109994030D01*
X109742849Y-110004520D01*
X109763893Y-110017133D01*
X109783598Y-110031747D01*
X109801777Y-110048223D01*
X109818253Y-110066402D01*
X109832867Y-110086107D01*
X109845480Y-110107151D01*
X109855970Y-110129329D01*
X109864235Y-110152429D01*
X109870196Y-110176227D01*
X109873796Y-110200496D01*
X109875000Y-110225000D01*
X109875000Y-110975000D01*
X109873796Y-110999504D01*
X109870196Y-111023773D01*
X109864235Y-111047571D01*
X109855970Y-111070671D01*
X109845480Y-111092849D01*
X109832867Y-111113893D01*
X109818253Y-111133598D01*
X109801777Y-111151777D01*
X109783598Y-111168253D01*
X109763893Y-111182867D01*
X109742849Y-111195480D01*
X109720671Y-111205970D01*
X109697571Y-111214235D01*
X109673773Y-111220196D01*
X109649504Y-111223796D01*
X109625000Y-111225000D01*
X108375000Y-111225000D01*
X108350496Y-111223796D01*
X108326227Y-111220196D01*
X108302429Y-111214235D01*
X108279329Y-111205970D01*
X108257151Y-111195480D01*
X108236107Y-111182867D01*
X108216402Y-111168253D01*
X108198223Y-111151777D01*
X108181747Y-111133598D01*
X108167133Y-111113893D01*
X108154520Y-111092849D01*
X108144030Y-111070671D01*
X108135765Y-111047571D01*
X108129804Y-111023773D01*
X108126204Y-110999504D01*
X108125000Y-110975000D01*
X108125000Y-110225000D01*
X108126204Y-110200496D01*
X108129804Y-110176227D01*
X108135765Y-110152429D01*
X108144030Y-110129329D01*
X108154520Y-110107151D01*
X108167133Y-110086107D01*
X108181747Y-110066402D01*
X108198223Y-110048223D01*
X108216402Y-110031747D01*
X108236107Y-110017133D01*
X108257151Y-110004520D01*
X108279329Y-109994030D01*
X108302429Y-109985765D01*
X108326227Y-109979804D01*
X108350496Y-109976204D01*
X108375000Y-109975000D01*
X109625000Y-109975000D01*
X109649504Y-109976204D01*
X109649504Y-109976204D01*
G37*
D12*
G04 #@! TD*
G04 #@! TO.P,R17,2*
G04 #@! TO.N,P1.7*
X109000000Y-110600000D03*
D11*
G04 #@! TO.N,Net-(D30-Pad2)*
G04 #@! TO.C,R30*
G36*
X113449504Y-112776204D02*
G01*
X113473773Y-112779804D01*
X113497571Y-112785765D01*
X113520671Y-112794030D01*
X113542849Y-112804520D01*
X113563893Y-112817133D01*
X113583598Y-112831747D01*
X113601777Y-112848223D01*
X113618253Y-112866402D01*
X113632867Y-112886107D01*
X113645480Y-112907151D01*
X113655970Y-112929329D01*
X113664235Y-112952429D01*
X113670196Y-112976227D01*
X113673796Y-113000496D01*
X113675000Y-113025000D01*
X113675000Y-113775000D01*
X113673796Y-113799504D01*
X113670196Y-113823773D01*
X113664235Y-113847571D01*
X113655970Y-113870671D01*
X113645480Y-113892849D01*
X113632867Y-113913893D01*
X113618253Y-113933598D01*
X113601777Y-113951777D01*
X113583598Y-113968253D01*
X113563893Y-113982867D01*
X113542849Y-113995480D01*
X113520671Y-114005970D01*
X113497571Y-114014235D01*
X113473773Y-114020196D01*
X113449504Y-114023796D01*
X113425000Y-114025000D01*
X112175000Y-114025000D01*
X112150496Y-114023796D01*
X112126227Y-114020196D01*
X112102429Y-114014235D01*
X112079329Y-114005970D01*
X112057151Y-113995480D01*
X112036107Y-113982867D01*
X112016402Y-113968253D01*
X111998223Y-113951777D01*
X111981747Y-113933598D01*
X111967133Y-113913893D01*
X111954520Y-113892849D01*
X111944030Y-113870671D01*
X111935765Y-113847571D01*
X111929804Y-113823773D01*
X111926204Y-113799504D01*
X111925000Y-113775000D01*
X111925000Y-113025000D01*
X111926204Y-113000496D01*
X111929804Y-112976227D01*
X111935765Y-112952429D01*
X111944030Y-112929329D01*
X111954520Y-112907151D01*
X111967133Y-112886107D01*
X111981747Y-112866402D01*
X111998223Y-112848223D01*
X112016402Y-112831747D01*
X112036107Y-112817133D01*
X112057151Y-112804520D01*
X112079329Y-112794030D01*
X112102429Y-112785765D01*
X112126227Y-112779804D01*
X112150496Y-112776204D01*
X112175000Y-112775000D01*
X113425000Y-112775000D01*
X113449504Y-112776204D01*
X113449504Y-112776204D01*
G37*
D12*
G04 #@! TD*
G04 #@! TO.P,R30,1*
G04 #@! TO.N,Net-(D30-Pad2)*
X112800000Y-113400000D03*
D11*
G04 #@! TO.N,P3.0*
G04 #@! TO.C,R30*
G36*
X113449504Y-109976204D02*
G01*
X113473773Y-109979804D01*
X113497571Y-109985765D01*
X113520671Y-109994030D01*
X113542849Y-110004520D01*
X113563893Y-110017133D01*
X113583598Y-110031747D01*
X113601777Y-110048223D01*
X113618253Y-110066402D01*
X113632867Y-110086107D01*
X113645480Y-110107151D01*
X113655970Y-110129329D01*
X113664235Y-110152429D01*
X113670196Y-110176227D01*
X113673796Y-110200496D01*
X113675000Y-110225000D01*
X113675000Y-110975000D01*
X113673796Y-110999504D01*
X113670196Y-111023773D01*
X113664235Y-111047571D01*
X113655970Y-111070671D01*
X113645480Y-111092849D01*
X113632867Y-111113893D01*
X113618253Y-111133598D01*
X113601777Y-111151777D01*
X113583598Y-111168253D01*
X113563893Y-111182867D01*
X113542849Y-111195480D01*
X113520671Y-111205970D01*
X113497571Y-111214235D01*
X113473773Y-111220196D01*
X113449504Y-111223796D01*
X113425000Y-111225000D01*
X112175000Y-111225000D01*
X112150496Y-111223796D01*
X112126227Y-111220196D01*
X112102429Y-111214235D01*
X112079329Y-111205970D01*
X112057151Y-111195480D01*
X112036107Y-111182867D01*
X112016402Y-111168253D01*
X111998223Y-111151777D01*
X111981747Y-111133598D01*
X111967133Y-111113893D01*
X111954520Y-111092849D01*
X111944030Y-111070671D01*
X111935765Y-111047571D01*
X111929804Y-111023773D01*
X111926204Y-110999504D01*
X111925000Y-110975000D01*
X111925000Y-110225000D01*
X111926204Y-110200496D01*
X111929804Y-110176227D01*
X111935765Y-110152429D01*
X111944030Y-110129329D01*
X111954520Y-110107151D01*
X111967133Y-110086107D01*
X111981747Y-110066402D01*
X111998223Y-110048223D01*
X112016402Y-110031747D01*
X112036107Y-110017133D01*
X112057151Y-110004520D01*
X112079329Y-109994030D01*
X112102429Y-109985765D01*
X112126227Y-109979804D01*
X112150496Y-109976204D01*
X112175000Y-109975000D01*
X113425000Y-109975000D01*
X113449504Y-109976204D01*
X113449504Y-109976204D01*
G37*
D12*
G04 #@! TD*
G04 #@! TO.P,R30,2*
G04 #@! TO.N,P3.0*
X112800000Y-110600000D03*
D11*
G04 #@! TO.N,P3.1*
G04 #@! TO.C,R31*
G36*
X117249504Y-109976204D02*
G01*
X117273773Y-109979804D01*
X117297571Y-109985765D01*
X117320671Y-109994030D01*
X117342849Y-110004520D01*
X117363893Y-110017133D01*
X117383598Y-110031747D01*
X117401777Y-110048223D01*
X117418253Y-110066402D01*
X117432867Y-110086107D01*
X117445480Y-110107151D01*
X117455970Y-110129329D01*
X117464235Y-110152429D01*
X117470196Y-110176227D01*
X117473796Y-110200496D01*
X117475000Y-110225000D01*
X117475000Y-110975000D01*
X117473796Y-110999504D01*
X117470196Y-111023773D01*
X117464235Y-111047571D01*
X117455970Y-111070671D01*
X117445480Y-111092849D01*
X117432867Y-111113893D01*
X117418253Y-111133598D01*
X117401777Y-111151777D01*
X117383598Y-111168253D01*
X117363893Y-111182867D01*
X117342849Y-111195480D01*
X117320671Y-111205970D01*
X117297571Y-111214235D01*
X117273773Y-111220196D01*
X117249504Y-111223796D01*
X117225000Y-111225000D01*
X115975000Y-111225000D01*
X115950496Y-111223796D01*
X115926227Y-111220196D01*
X115902429Y-111214235D01*
X115879329Y-111205970D01*
X115857151Y-111195480D01*
X115836107Y-111182867D01*
X115816402Y-111168253D01*
X115798223Y-111151777D01*
X115781747Y-111133598D01*
X115767133Y-111113893D01*
X115754520Y-111092849D01*
X115744030Y-111070671D01*
X115735765Y-111047571D01*
X115729804Y-111023773D01*
X115726204Y-110999504D01*
X115725000Y-110975000D01*
X115725000Y-110225000D01*
X115726204Y-110200496D01*
X115729804Y-110176227D01*
X115735765Y-110152429D01*
X115744030Y-110129329D01*
X115754520Y-110107151D01*
X115767133Y-110086107D01*
X115781747Y-110066402D01*
X115798223Y-110048223D01*
X115816402Y-110031747D01*
X115836107Y-110017133D01*
X115857151Y-110004520D01*
X115879329Y-109994030D01*
X115902429Y-109985765D01*
X115926227Y-109979804D01*
X115950496Y-109976204D01*
X115975000Y-109975000D01*
X117225000Y-109975000D01*
X117249504Y-109976204D01*
X117249504Y-109976204D01*
G37*
D12*
G04 #@! TD*
G04 #@! TO.P,R31,2*
G04 #@! TO.N,P3.1*
X116600000Y-110600000D03*
D11*
G04 #@! TO.N,Net-(D31-Pad2)*
G04 #@! TO.C,R31*
G36*
X117249504Y-112776204D02*
G01*
X117273773Y-112779804D01*
X117297571Y-112785765D01*
X117320671Y-112794030D01*
X117342849Y-112804520D01*
X117363893Y-112817133D01*
X117383598Y-112831747D01*
X117401777Y-112848223D01*
X117418253Y-112866402D01*
X117432867Y-112886107D01*
X117445480Y-112907151D01*
X117455970Y-112929329D01*
X117464235Y-112952429D01*
X117470196Y-112976227D01*
X117473796Y-113000496D01*
X117475000Y-113025000D01*
X117475000Y-113775000D01*
X117473796Y-113799504D01*
X117470196Y-113823773D01*
X117464235Y-113847571D01*
X117455970Y-113870671D01*
X117445480Y-113892849D01*
X117432867Y-113913893D01*
X117418253Y-113933598D01*
X117401777Y-113951777D01*
X117383598Y-113968253D01*
X117363893Y-113982867D01*
X117342849Y-113995480D01*
X117320671Y-114005970D01*
X117297571Y-114014235D01*
X117273773Y-114020196D01*
X117249504Y-114023796D01*
X117225000Y-114025000D01*
X115975000Y-114025000D01*
X115950496Y-114023796D01*
X115926227Y-114020196D01*
X115902429Y-114014235D01*
X115879329Y-114005970D01*
X115857151Y-113995480D01*
X115836107Y-113982867D01*
X115816402Y-113968253D01*
X115798223Y-113951777D01*
X115781747Y-113933598D01*
X115767133Y-113913893D01*
X115754520Y-113892849D01*
X115744030Y-113870671D01*
X115735765Y-113847571D01*
X115729804Y-113823773D01*
X115726204Y-113799504D01*
X115725000Y-113775000D01*
X115725000Y-113025000D01*
X115726204Y-113000496D01*
X115729804Y-112976227D01*
X115735765Y-112952429D01*
X115744030Y-112929329D01*
X115754520Y-112907151D01*
X115767133Y-112886107D01*
X115781747Y-112866402D01*
X115798223Y-112848223D01*
X115816402Y-112831747D01*
X115836107Y-112817133D01*
X115857151Y-112804520D01*
X115879329Y-112794030D01*
X115902429Y-112785765D01*
X115926227Y-112779804D01*
X115950496Y-112776204D01*
X115975000Y-112775000D01*
X117225000Y-112775000D01*
X117249504Y-112776204D01*
X117249504Y-112776204D01*
G37*
D12*
G04 #@! TD*
G04 #@! TO.P,R31,1*
G04 #@! TO.N,Net-(D31-Pad2)*
X116600000Y-113400000D03*
D11*
G04 #@! TO.N,P3.2*
G04 #@! TO.C,R32*
G36*
X121049504Y-109976204D02*
G01*
X121073773Y-109979804D01*
X121097571Y-109985765D01*
X121120671Y-109994030D01*
X121142849Y-110004520D01*
X121163893Y-110017133D01*
X121183598Y-110031747D01*
X121201777Y-110048223D01*
X121218253Y-110066402D01*
X121232867Y-110086107D01*
X121245480Y-110107151D01*
X121255970Y-110129329D01*
X121264235Y-110152429D01*
X121270196Y-110176227D01*
X121273796Y-110200496D01*
X121275000Y-110225000D01*
X121275000Y-110975000D01*
X121273796Y-110999504D01*
X121270196Y-111023773D01*
X121264235Y-111047571D01*
X121255970Y-111070671D01*
X121245480Y-111092849D01*
X121232867Y-111113893D01*
X121218253Y-111133598D01*
X121201777Y-111151777D01*
X121183598Y-111168253D01*
X121163893Y-111182867D01*
X121142849Y-111195480D01*
X121120671Y-111205970D01*
X121097571Y-111214235D01*
X121073773Y-111220196D01*
X121049504Y-111223796D01*
X121025000Y-111225000D01*
X119775000Y-111225000D01*
X119750496Y-111223796D01*
X119726227Y-111220196D01*
X119702429Y-111214235D01*
X119679329Y-111205970D01*
X119657151Y-111195480D01*
X119636107Y-111182867D01*
X119616402Y-111168253D01*
X119598223Y-111151777D01*
X119581747Y-111133598D01*
X119567133Y-111113893D01*
X119554520Y-111092849D01*
X119544030Y-111070671D01*
X119535765Y-111047571D01*
X119529804Y-111023773D01*
X119526204Y-110999504D01*
X119525000Y-110975000D01*
X119525000Y-110225000D01*
X119526204Y-110200496D01*
X119529804Y-110176227D01*
X119535765Y-110152429D01*
X119544030Y-110129329D01*
X119554520Y-110107151D01*
X119567133Y-110086107D01*
X119581747Y-110066402D01*
X119598223Y-110048223D01*
X119616402Y-110031747D01*
X119636107Y-110017133D01*
X119657151Y-110004520D01*
X119679329Y-109994030D01*
X119702429Y-109985765D01*
X119726227Y-109979804D01*
X119750496Y-109976204D01*
X119775000Y-109975000D01*
X121025000Y-109975000D01*
X121049504Y-109976204D01*
X121049504Y-109976204D01*
G37*
D12*
G04 #@! TD*
G04 #@! TO.P,R32,2*
G04 #@! TO.N,P3.2*
X120400000Y-110600000D03*
D11*
G04 #@! TO.N,Net-(D32-Pad2)*
G04 #@! TO.C,R32*
G36*
X121049504Y-112776204D02*
G01*
X121073773Y-112779804D01*
X121097571Y-112785765D01*
X121120671Y-112794030D01*
X121142849Y-112804520D01*
X121163893Y-112817133D01*
X121183598Y-112831747D01*
X121201777Y-112848223D01*
X121218253Y-112866402D01*
X121232867Y-112886107D01*
X121245480Y-112907151D01*
X121255970Y-112929329D01*
X121264235Y-112952429D01*
X121270196Y-112976227D01*
X121273796Y-113000496D01*
X121275000Y-113025000D01*
X121275000Y-113775000D01*
X121273796Y-113799504D01*
X121270196Y-113823773D01*
X121264235Y-113847571D01*
X121255970Y-113870671D01*
X121245480Y-113892849D01*
X121232867Y-113913893D01*
X121218253Y-113933598D01*
X121201777Y-113951777D01*
X121183598Y-113968253D01*
X121163893Y-113982867D01*
X121142849Y-113995480D01*
X121120671Y-114005970D01*
X121097571Y-114014235D01*
X121073773Y-114020196D01*
X121049504Y-114023796D01*
X121025000Y-114025000D01*
X119775000Y-114025000D01*
X119750496Y-114023796D01*
X119726227Y-114020196D01*
X119702429Y-114014235D01*
X119679329Y-114005970D01*
X119657151Y-113995480D01*
X119636107Y-113982867D01*
X119616402Y-113968253D01*
X119598223Y-113951777D01*
X119581747Y-113933598D01*
X119567133Y-113913893D01*
X119554520Y-113892849D01*
X119544030Y-113870671D01*
X119535765Y-113847571D01*
X119529804Y-113823773D01*
X119526204Y-113799504D01*
X119525000Y-113775000D01*
X119525000Y-113025000D01*
X119526204Y-113000496D01*
X119529804Y-112976227D01*
X119535765Y-112952429D01*
X119544030Y-112929329D01*
X119554520Y-112907151D01*
X119567133Y-112886107D01*
X119581747Y-112866402D01*
X119598223Y-112848223D01*
X119616402Y-112831747D01*
X119636107Y-112817133D01*
X119657151Y-112804520D01*
X119679329Y-112794030D01*
X119702429Y-112785765D01*
X119726227Y-112779804D01*
X119750496Y-112776204D01*
X119775000Y-112775000D01*
X121025000Y-112775000D01*
X121049504Y-112776204D01*
X121049504Y-112776204D01*
G37*
D12*
G04 #@! TD*
G04 #@! TO.P,R32,1*
G04 #@! TO.N,Net-(D32-Pad2)*
X120400000Y-113400000D03*
D11*
G04 #@! TO.N,Net-(D33-Pad2)*
G04 #@! TO.C,R33*
G36*
X124849504Y-112776204D02*
G01*
X124873773Y-112779804D01*
X124897571Y-112785765D01*
X124920671Y-112794030D01*
X124942849Y-112804520D01*
X124963893Y-112817133D01*
X124983598Y-112831747D01*
X125001777Y-112848223D01*
X125018253Y-112866402D01*
X125032867Y-112886107D01*
X125045480Y-112907151D01*
X125055970Y-112929329D01*
X125064235Y-112952429D01*
X125070196Y-112976227D01*
X125073796Y-113000496D01*
X125075000Y-113025000D01*
X125075000Y-113775000D01*
X125073796Y-113799504D01*
X125070196Y-113823773D01*
X125064235Y-113847571D01*
X125055970Y-113870671D01*
X125045480Y-113892849D01*
X125032867Y-113913893D01*
X125018253Y-113933598D01*
X125001777Y-113951777D01*
X124983598Y-113968253D01*
X124963893Y-113982867D01*
X124942849Y-113995480D01*
X124920671Y-114005970D01*
X124897571Y-114014235D01*
X124873773Y-114020196D01*
X124849504Y-114023796D01*
X124825000Y-114025000D01*
X123575000Y-114025000D01*
X123550496Y-114023796D01*
X123526227Y-114020196D01*
X123502429Y-114014235D01*
X123479329Y-114005970D01*
X123457151Y-113995480D01*
X123436107Y-113982867D01*
X123416402Y-113968253D01*
X123398223Y-113951777D01*
X123381747Y-113933598D01*
X123367133Y-113913893D01*
X123354520Y-113892849D01*
X123344030Y-113870671D01*
X123335765Y-113847571D01*
X123329804Y-113823773D01*
X123326204Y-113799504D01*
X123325000Y-113775000D01*
X123325000Y-113025000D01*
X123326204Y-113000496D01*
X123329804Y-112976227D01*
X123335765Y-112952429D01*
X123344030Y-112929329D01*
X123354520Y-112907151D01*
X123367133Y-112886107D01*
X123381747Y-112866402D01*
X123398223Y-112848223D01*
X123416402Y-112831747D01*
X123436107Y-112817133D01*
X123457151Y-112804520D01*
X123479329Y-112794030D01*
X123502429Y-112785765D01*
X123526227Y-112779804D01*
X123550496Y-112776204D01*
X123575000Y-112775000D01*
X124825000Y-112775000D01*
X124849504Y-112776204D01*
X124849504Y-112776204D01*
G37*
D12*
G04 #@! TD*
G04 #@! TO.P,R33,2*
G04 #@! TO.N,Net-(D33-Pad2)*
X124200000Y-113400000D03*
D11*
G04 #@! TO.N,P3.3*
G04 #@! TO.C,R33*
G36*
X124849504Y-109976204D02*
G01*
X124873773Y-109979804D01*
X124897571Y-109985765D01*
X124920671Y-109994030D01*
X124942849Y-110004520D01*
X124963893Y-110017133D01*
X124983598Y-110031747D01*
X125001777Y-110048223D01*
X125018253Y-110066402D01*
X125032867Y-110086107D01*
X125045480Y-110107151D01*
X125055970Y-110129329D01*
X125064235Y-110152429D01*
X125070196Y-110176227D01*
X125073796Y-110200496D01*
X125075000Y-110225000D01*
X125075000Y-110975000D01*
X125073796Y-110999504D01*
X125070196Y-111023773D01*
X125064235Y-111047571D01*
X125055970Y-111070671D01*
X125045480Y-111092849D01*
X125032867Y-111113893D01*
X125018253Y-111133598D01*
X125001777Y-111151777D01*
X124983598Y-111168253D01*
X124963893Y-111182867D01*
X124942849Y-111195480D01*
X124920671Y-111205970D01*
X124897571Y-111214235D01*
X124873773Y-111220196D01*
X124849504Y-111223796D01*
X124825000Y-111225000D01*
X123575000Y-111225000D01*
X123550496Y-111223796D01*
X123526227Y-111220196D01*
X123502429Y-111214235D01*
X123479329Y-111205970D01*
X123457151Y-111195480D01*
X123436107Y-111182867D01*
X123416402Y-111168253D01*
X123398223Y-111151777D01*
X123381747Y-111133598D01*
X123367133Y-111113893D01*
X123354520Y-111092849D01*
X123344030Y-111070671D01*
X123335765Y-111047571D01*
X123329804Y-111023773D01*
X123326204Y-110999504D01*
X123325000Y-110975000D01*
X123325000Y-110225000D01*
X123326204Y-110200496D01*
X123329804Y-110176227D01*
X123335765Y-110152429D01*
X123344030Y-110129329D01*
X123354520Y-110107151D01*
X123367133Y-110086107D01*
X123381747Y-110066402D01*
X123398223Y-110048223D01*
X123416402Y-110031747D01*
X123436107Y-110017133D01*
X123457151Y-110004520D01*
X123479329Y-109994030D01*
X123502429Y-109985765D01*
X123526227Y-109979804D01*
X123550496Y-109976204D01*
X123575000Y-109975000D01*
X124825000Y-109975000D01*
X124849504Y-109976204D01*
X124849504Y-109976204D01*
G37*
D12*
G04 #@! TD*
G04 #@! TO.P,R33,1*
G04 #@! TO.N,P3.3*
X124200000Y-110600000D03*
D20*
G04 #@! TO.P,SW1,1*
G04 #@! TO.N,3V3*
X118000000Y-81000000D03*
G04 #@! TO.P,SW1,2*
G04 #@! TO.N,Net-(R1-Pad2)*
X115200000Y-81000000D03*
G04 #@! TD*
G04 #@! TO.P,SW11,2*
G04 #@! TO.N,GND*
X124200000Y-105200000D03*
G04 #@! TO.P,SW11,1*
G04 #@! TO.N,P1.1*
X121400000Y-105200000D03*
G04 #@! TD*
G04 #@! TO.P,SW34,1*
G04 #@! TO.N,P3.4*
X121400000Y-100400000D03*
G04 #@! TO.P,SW34,2*
G04 #@! TO.N,GND*
X124200000Y-100400000D03*
G04 #@! TD*
D21*
G04 #@! TO.N,VCC*
X115400000Y-92500000D02*
X118000000Y-89900000D01*
X115400000Y-95600000D02*
X115400000Y-92500000D01*
X111300000Y-97625000D02*
X113375000Y-97625000D01*
X113375000Y-97625000D02*
X115400000Y-95600000D01*
X110200000Y-97625000D02*
X111300000Y-97625000D01*
X109950000Y-97375000D02*
X110200000Y-97625000D01*
X109950000Y-83800000D02*
X109950000Y-97375000D01*
X121560000Y-89900000D02*
X121600000Y-89860000D01*
X118000000Y-89900000D02*
X121560000Y-89900000D01*
X122600000Y-85300000D02*
X122600000Y-84600000D01*
X118000000Y-89900000D02*
X122600000Y-85300000D01*
D22*
G04 #@! TO.N,GND*
X113105000Y-98895000D02*
X111300000Y-98895000D01*
X116200000Y-95800000D02*
X113105000Y-98895000D01*
X116200000Y-94200000D02*
X116200000Y-95800000D01*
X118000000Y-92440000D02*
X117150001Y-93289999D01*
D21*
X117150001Y-93289999D02*
X117110001Y-93289999D01*
X121560000Y-92440000D02*
X121600000Y-92400000D01*
D22*
X111900000Y-84650000D02*
X110600000Y-85950000D01*
X111900000Y-83600000D02*
X111900000Y-84650000D01*
X110600000Y-85950000D02*
X110600000Y-90700000D01*
X110600000Y-90700000D02*
X110900000Y-91000000D01*
X110900000Y-91000000D02*
X113000000Y-91000000D01*
X113000000Y-91000000D02*
X116100000Y-87900000D01*
X116100000Y-87900000D02*
X116100000Y-85800000D01*
X116100000Y-85800000D02*
X116600000Y-85300000D01*
X116600000Y-85300000D02*
X116600000Y-79900000D01*
X117300000Y-79300000D02*
X123600000Y-79300000D01*
X110150000Y-79750000D02*
X107150000Y-79750000D01*
X105755000Y-79750000D02*
X104575000Y-80930000D01*
X107150000Y-79750000D02*
X105755000Y-79750000D01*
X104575000Y-82775000D02*
X105400000Y-83600000D01*
X104575000Y-80930000D02*
X104575000Y-82775000D01*
X126100000Y-108200000D02*
X126100000Y-119400000D01*
X126100000Y-119400000D02*
X125200000Y-120300000D01*
X99300000Y-120300000D02*
X97600000Y-118600000D01*
X101400000Y-118600000D02*
X101400000Y-120300000D01*
X101400000Y-120300000D02*
X99300000Y-120300000D01*
X105200000Y-119325000D02*
X105200000Y-120300000D01*
X105200000Y-118600000D02*
X105200000Y-119325000D01*
X105200000Y-120300000D02*
X101400000Y-120300000D01*
X109000000Y-118600000D02*
X109000000Y-120300000D01*
X109000000Y-120300000D02*
X105200000Y-120300000D01*
X112800000Y-119325000D02*
X112800000Y-120300000D01*
X112800000Y-118600000D02*
X112800000Y-119325000D01*
X112800000Y-120300000D02*
X109000000Y-120300000D01*
D21*
X116600000Y-120200000D02*
X116700000Y-120300000D01*
X116600000Y-118600000D02*
X116600000Y-120200000D01*
D22*
X116700000Y-120300000D02*
X112800000Y-120300000D01*
X120400000Y-119325000D02*
X120400000Y-120300000D01*
D21*
X120400000Y-118600000D02*
X120400000Y-119325000D01*
D22*
X120400000Y-120300000D02*
X116700000Y-120300000D01*
X124200000Y-118600000D02*
X124200000Y-120300000D01*
X125200000Y-120300000D02*
X124200000Y-120300000D01*
X124200000Y-120300000D02*
X120400000Y-120300000D01*
X125400000Y-107500000D02*
X125800000Y-107900000D01*
X125800000Y-107900000D02*
X126100000Y-108200000D01*
X125175000Y-100400000D02*
X125400000Y-100400000D01*
X124200000Y-100400000D02*
X125175000Y-100400000D01*
X125400000Y-97300000D02*
X125400000Y-100400000D01*
X125175000Y-105200000D02*
X125400000Y-105200000D01*
X124200000Y-105200000D02*
X125175000Y-105200000D01*
X125400000Y-100400000D02*
X125400000Y-105200000D01*
X125400000Y-105200000D02*
X125400000Y-107500000D01*
X116850000Y-93625000D02*
X119350000Y-93625000D01*
X116750000Y-93650000D02*
X116200000Y-94200000D01*
X117110001Y-93289999D02*
X116750000Y-93650000D01*
X119900000Y-94300000D02*
X125400000Y-94300000D01*
X119354999Y-93754999D02*
X119900000Y-94300000D01*
X125400000Y-94300000D02*
X125400000Y-97300000D01*
D21*
X119354999Y-92445001D02*
X119360000Y-92440000D01*
D22*
X119354999Y-93754999D02*
X119354999Y-92445001D01*
X118000000Y-92440000D02*
X119360000Y-92440000D01*
X119360000Y-92440000D02*
X121560000Y-92440000D01*
X112700000Y-79300000D02*
X112250000Y-79750000D01*
X112725000Y-79325000D02*
X112725000Y-80930000D01*
D21*
X112700000Y-79300000D02*
X112725000Y-79325000D01*
D22*
X116600000Y-79900000D02*
X116600000Y-79300000D01*
X117400000Y-79300000D02*
X116600000Y-79300000D01*
X116600000Y-79300000D02*
X112700000Y-79300000D01*
X123600000Y-79300000D02*
X123900000Y-79300000D01*
X124200000Y-79600000D02*
X124200000Y-83400000D01*
X124200000Y-83100000D02*
X124200000Y-86000000D01*
X125400000Y-84600000D02*
X125400000Y-87500000D01*
X125400000Y-87500000D02*
X125400000Y-94300000D01*
X123900000Y-79300000D02*
X125400000Y-80800000D01*
X124200000Y-86300000D02*
X125400000Y-87500000D01*
X124200000Y-86000000D02*
X124200000Y-86300000D01*
D21*
X107350000Y-83800000D02*
X107340000Y-83800000D01*
D22*
X107350000Y-82550000D02*
X108980000Y-80920000D01*
X107350000Y-83800000D02*
X107350000Y-82550000D01*
X110710000Y-80920000D02*
X111880000Y-79750000D01*
X108980000Y-80920000D02*
X110710000Y-80920000D01*
X112250000Y-79750000D02*
X111880000Y-79750000D01*
X111880000Y-79750000D02*
X110150000Y-79750000D01*
D21*
G04 #@! TO.N,3V3*
X118000000Y-87360000D02*
X114800000Y-90560000D01*
X114800000Y-90560000D02*
X114800000Y-95200000D01*
X113645000Y-96355000D02*
X111300000Y-96355000D01*
X114800000Y-95200000D02*
X113645000Y-96355000D01*
X118000000Y-86157919D02*
X118000000Y-81000000D01*
X118000000Y-87360000D02*
X118000000Y-86157919D01*
X121904290Y-81495710D02*
X122600000Y-80800000D01*
X118849999Y-84550001D02*
X121904290Y-81495710D01*
X118849999Y-86510001D02*
X118849999Y-84550001D01*
X118000000Y-87360000D02*
X118849999Y-86510001D01*
G04 #@! TO.N,Net-(D14-Pad2)*
X97600000Y-113400000D02*
X97600000Y-115800000D01*
G04 #@! TO.N,Net-(D15-Pad2)*
X101400000Y-113400000D02*
X101400000Y-115800000D01*
G04 #@! TO.N,Net-(D16-Pad2)*
X105200000Y-113400000D02*
X105200000Y-115800000D01*
G04 #@! TO.N,Net-(D17-Pad2)*
X109000000Y-113400000D02*
X109000000Y-115800000D01*
G04 #@! TO.N,Net-(D30-Pad2)*
X112800000Y-113400000D02*
X112800000Y-115800000D01*
G04 #@! TO.N,Net-(D31-Pad2)*
X116600000Y-113400000D02*
X116600000Y-115800000D01*
G04 #@! TO.N,Net-(D32-Pad2)*
X120400000Y-113400000D02*
X120400000Y-115800000D01*
G04 #@! TO.N,Net-(D33-Pad2)*
X124200000Y-113400000D02*
X124200000Y-115800000D01*
G04 #@! TO.N,D-*
X111300000Y-100165000D02*
X114035000Y-100165000D01*
X114035000Y-100165000D02*
X116400000Y-97800000D01*
X116400000Y-96580000D02*
X118000000Y-94980000D01*
X116400000Y-97800000D02*
X116400000Y-96580000D01*
X110850000Y-100165000D02*
X111300000Y-100165000D01*
X109300000Y-83800000D02*
X109300000Y-98615000D01*
X109300000Y-98615000D02*
X110850000Y-100165000D01*
G04 #@! TO.N,D+*
X114085000Y-101435000D02*
X111300000Y-101435000D01*
X118000000Y-97520000D02*
X114085000Y-101435000D01*
X110200000Y-101435000D02*
X111300000Y-101435000D01*
X108650000Y-99885000D02*
X110200000Y-101435000D01*
X108650000Y-83800000D02*
X108650000Y-99885000D01*
X113600000Y-85300000D02*
X112100000Y-86800000D01*
X113600000Y-83000000D02*
X113600000Y-85300000D01*
X112800000Y-82200000D02*
X113600000Y-83000000D01*
X109000000Y-82200000D02*
X112800000Y-82200000D01*
X108650000Y-83800000D02*
X108650000Y-82550000D01*
X108650000Y-82550000D02*
X109000000Y-82200000D01*
G04 #@! TO.N,P3.4*
X115355000Y-102705000D02*
X118000000Y-100060000D01*
X111300000Y-102705000D02*
X115355000Y-102705000D01*
X121060000Y-100060000D02*
X121400000Y-100400000D01*
X118000000Y-100060000D02*
X121060000Y-100060000D01*
G04 #@! TO.N,P3.3*
X111300000Y-103975000D02*
X115025000Y-103975000D01*
X116400000Y-102600000D02*
X118000000Y-102600000D01*
X115025000Y-103975000D02*
X116400000Y-102600000D01*
X118000000Y-102600000D02*
X121400000Y-102600000D01*
X121400000Y-102600000D02*
X122850000Y-104050000D01*
X122850000Y-109250000D02*
X124200000Y-110600000D01*
X122850000Y-104050000D02*
X122850000Y-109250000D01*
G04 #@! TO.N,P1.1*
X117895000Y-105245000D02*
X118000000Y-105140000D01*
X111300000Y-105245000D02*
X117895000Y-105245000D01*
X121340000Y-105140000D02*
X121400000Y-105200000D01*
X118000000Y-105140000D02*
X121340000Y-105140000D01*
G04 #@! TO.N,P3.0*
X100665000Y-105245000D02*
X100600000Y-105180000D01*
X112800000Y-109875000D02*
X112800000Y-110600000D01*
X111125000Y-108200000D02*
X112800000Y-109875000D01*
X108205000Y-108200000D02*
X111125000Y-108200000D01*
X105900000Y-105895000D02*
X108205000Y-108200000D01*
X105900000Y-105245000D02*
X105900000Y-105895000D01*
X100325000Y-105245000D02*
X100220000Y-105140000D01*
X105900000Y-105245000D02*
X100325000Y-105245000D01*
G04 #@! TO.N,P3.1*
X107449990Y-104424990D02*
X107000000Y-103975000D01*
X107449990Y-106227821D02*
X107449990Y-104424990D01*
X116600000Y-110600000D02*
X116600000Y-109875000D01*
X116600000Y-109875000D02*
X114325000Y-107600000D01*
X114325000Y-107600000D02*
X108800000Y-107600000D01*
X108800000Y-107600000D02*
X107600000Y-106400000D01*
X107000000Y-103975000D02*
X105900000Y-103975000D01*
X107600000Y-106400000D02*
X107600000Y-106377831D01*
X107600000Y-106377831D02*
X107449990Y-106227821D01*
X101620000Y-104000000D02*
X100220000Y-102600000D01*
X104775000Y-104000000D02*
X101620000Y-104000000D01*
X105900000Y-103975000D02*
X104800000Y-103975000D01*
X104800000Y-103975000D02*
X104775000Y-104000000D01*
G04 #@! TO.N,RST*
X102865000Y-102705000D02*
X100220000Y-100060000D01*
X105900000Y-102705000D02*
X102865000Y-102705000D01*
G04 #@! TO.N,P1.7*
X104135000Y-101435000D02*
X100220000Y-97520000D01*
X105900000Y-101435000D02*
X104135000Y-101435000D01*
X99370001Y-98369999D02*
X100220000Y-97520000D01*
X98627822Y-99112178D02*
X99370001Y-98369999D01*
X98627822Y-106027822D02*
X98627822Y-99112178D01*
X100200000Y-107600000D02*
X98627822Y-106027822D01*
X106000000Y-107600000D02*
X100200000Y-107600000D01*
X109000000Y-110600000D02*
X106000000Y-107600000D01*
G04 #@! TO.N,P1.6*
X105450000Y-100365000D02*
X105900000Y-100365000D01*
X104765000Y-100165000D02*
X105900000Y-100165000D01*
X102400000Y-97800000D02*
X104765000Y-100165000D01*
X102400000Y-97160000D02*
X100220000Y-94980000D01*
X102400000Y-97800000D02*
X102400000Y-97160000D01*
X99370001Y-95829999D02*
X100220000Y-94980000D01*
X98077814Y-97122186D02*
X99370001Y-95829999D01*
X98077814Y-106255644D02*
X98077814Y-97122186D01*
X100022170Y-108200000D02*
X98077814Y-106255644D01*
X102800000Y-108200000D02*
X100022170Y-108200000D01*
X105200000Y-110600000D02*
X102800000Y-108200000D01*
G04 #@! TO.N,P1.5*
X105450000Y-99095000D02*
X105900000Y-99095000D01*
X105900000Y-98895000D02*
X104695000Y-98895000D01*
X104695000Y-98895000D02*
X103200000Y-97400000D01*
X103200000Y-95420000D02*
X100220000Y-92440000D01*
X103200000Y-97400000D02*
X103200000Y-95420000D01*
X99370001Y-93289999D02*
X100220000Y-92440000D01*
X97527804Y-95132196D02*
X99370001Y-93289999D01*
X97527804Y-106727804D02*
X97527804Y-95132196D01*
X101400000Y-110600000D02*
X97527804Y-106727804D01*
G04 #@! TO.N,P1.4*
X105900000Y-97625000D02*
X104825000Y-97625000D01*
X104825000Y-97625000D02*
X103800000Y-96600000D01*
X103800000Y-93480000D02*
X100220000Y-89900000D01*
X103800000Y-96600000D02*
X103800000Y-93480000D01*
X99370001Y-90749999D02*
X100220000Y-89900000D01*
X96977794Y-93142206D02*
X99370001Y-90749999D01*
X96977794Y-106955625D02*
X96977794Y-93142206D01*
X97600000Y-107577831D02*
X96977794Y-106955625D01*
X97600000Y-110600000D02*
X97600000Y-107577831D01*
G04 #@! TO.N,P3.2*
X104400000Y-96000000D02*
X104400000Y-90000000D01*
X104755000Y-96355000D02*
X104400000Y-96000000D01*
X105900000Y-96355000D02*
X104755000Y-96355000D01*
X107000000Y-96355000D02*
X108000000Y-97355000D01*
X105900000Y-96355000D02*
X107000000Y-96355000D01*
X108000000Y-97355000D02*
X108000000Y-106000000D01*
X108000000Y-106000000D02*
X109000000Y-107000000D01*
X109000000Y-107000000D02*
X114400000Y-107000000D01*
X114552821Y-107049990D02*
X116400000Y-108897170D01*
X114400000Y-107000000D02*
X114449990Y-107049990D01*
X114449990Y-107049990D02*
X114552821Y-107049990D01*
X118697170Y-108897170D02*
X120400000Y-110600000D01*
X116400000Y-108897170D02*
X118697170Y-108897170D01*
X101760000Y-87360000D02*
X100220000Y-87360000D01*
X104400000Y-90000000D02*
X101760000Y-87360000D01*
G04 #@! TO.N,Net-(R1-Pad2)*
X115200000Y-86500000D02*
X112100000Y-89600000D01*
X115200000Y-81000000D02*
X115200000Y-86500000D01*
G04 #@! TD*
M02*
