G04 #@! TF.GenerationSoftware,KiCad,Pcbnew,(5.1.0)-1*
G04 #@! TF.CreationDate,2019-10-06T22:43:46-05:00*
G04 #@! TF.ProjectId,HHV_2019_SC,4848565f-3230-4313-995f-53432e6b6963,rev?*
G04 #@! TF.SameCoordinates,Original*
G04 #@! TF.FileFunction,Legend,Bot*
G04 #@! TF.FilePolarity,Positive*
%FSLAX46Y46*%
G04 Gerber Fmt 4.6, Leading zero omitted, Abs format (unit mm)*
G04 Created by KiCad (PCBNEW (5.1.0)-1) date 2019-10-06 22:43:46*
%MOMM*%
%LPD*%
G04 APERTURE LIST*
%ADD10C,0.150000*%
%ADD11C,0.050000*%
%ADD12C,0.010000*%
G04 APERTURE END LIST*
D10*
X96728690Y-54477380D02*
X96728690Y-55191666D01*
X96776309Y-55334523D01*
X96871547Y-55429761D01*
X97014404Y-55477380D01*
X97109642Y-55477380D01*
X95728690Y-55477380D02*
X96300119Y-55477380D01*
X96014404Y-55477380D02*
X96014404Y-54477380D01*
X96109642Y-54620238D01*
X96204880Y-54715476D01*
X96300119Y-54763095D01*
X94014404Y-55477380D02*
X94585833Y-55477380D01*
X94300119Y-55477380D02*
X94300119Y-54477380D01*
X94395357Y-54620238D01*
X94490595Y-54715476D01*
X94585833Y-54763095D01*
X93395357Y-54477380D02*
X93300119Y-54477380D01*
X93204880Y-54525000D01*
X93157261Y-54572619D01*
X93109642Y-54667857D01*
X93062023Y-54858333D01*
X93062023Y-55096428D01*
X93109642Y-55286904D01*
X93157261Y-55382142D01*
X93204880Y-55429761D01*
X93300119Y-55477380D01*
X93395357Y-55477380D01*
X93490595Y-55429761D01*
X93538214Y-55382142D01*
X93585833Y-55286904D01*
X93633452Y-55096428D01*
X93633452Y-54858333D01*
X93585833Y-54667857D01*
X93538214Y-54572619D01*
X93490595Y-54525000D01*
X93395357Y-54477380D01*
X92633452Y-54810714D02*
X92633452Y-55810714D01*
X92633452Y-54858333D02*
X92538214Y-54810714D01*
X92347738Y-54810714D01*
X92252500Y-54858333D01*
X92204880Y-54905952D01*
X92157261Y-55001190D01*
X92157261Y-55286904D01*
X92204880Y-55382142D01*
X92252500Y-55429761D01*
X92347738Y-55477380D01*
X92538214Y-55477380D01*
X92633452Y-55429761D01*
X91871547Y-54810714D02*
X91490595Y-54810714D01*
X91728690Y-54477380D02*
X91728690Y-55334523D01*
X91681071Y-55429761D01*
X91585833Y-55477380D01*
X91490595Y-55477380D01*
X96442976Y-57127380D02*
X96776309Y-56651190D01*
X97014404Y-57127380D02*
X97014404Y-56127380D01*
X96633452Y-56127380D01*
X96538214Y-56175000D01*
X96490595Y-56222619D01*
X96442976Y-56317857D01*
X96442976Y-56460714D01*
X96490595Y-56555952D01*
X96538214Y-56603571D01*
X96633452Y-56651190D01*
X97014404Y-56651190D01*
X95490595Y-57127380D02*
X96062023Y-57127380D01*
X95776309Y-57127380D02*
X95776309Y-56127380D01*
X95871547Y-56270238D01*
X95966785Y-56365476D01*
X96062023Y-56413095D01*
X93062023Y-56127380D02*
X93538214Y-56127380D01*
X93585833Y-56603571D01*
X93538214Y-56555952D01*
X93442976Y-56508333D01*
X93204880Y-56508333D01*
X93109642Y-56555952D01*
X93062023Y-56603571D01*
X93014404Y-56698809D01*
X93014404Y-56936904D01*
X93062023Y-57032142D01*
X93109642Y-57079761D01*
X93204880Y-57127380D01*
X93442976Y-57127380D01*
X93538214Y-57079761D01*
X93585833Y-57032142D01*
X92585833Y-56460714D02*
X92585833Y-57460714D01*
X92585833Y-56508333D02*
X92490595Y-56460714D01*
X92300119Y-56460714D01*
X92204880Y-56508333D01*
X92157261Y-56555952D01*
X92109642Y-56651190D01*
X92109642Y-56936904D01*
X92157261Y-57032142D01*
X92204880Y-57079761D01*
X92300119Y-57127380D01*
X92490595Y-57127380D01*
X92585833Y-57079761D01*
X91823928Y-56460714D02*
X91442976Y-56460714D01*
X91681071Y-56127380D02*
X91681071Y-56984523D01*
X91633452Y-57079761D01*
X91538214Y-57127380D01*
X91442976Y-57127380D01*
X96442976Y-58777380D02*
X96776309Y-58301190D01*
X97014404Y-58777380D02*
X97014404Y-57777380D01*
X96633452Y-57777380D01*
X96538214Y-57825000D01*
X96490595Y-57872619D01*
X96442976Y-57967857D01*
X96442976Y-58110714D01*
X96490595Y-58205952D01*
X96538214Y-58253571D01*
X96633452Y-58301190D01*
X97014404Y-58301190D01*
X96062023Y-57872619D02*
X96014404Y-57825000D01*
X95919166Y-57777380D01*
X95681071Y-57777380D01*
X95585833Y-57825000D01*
X95538214Y-57872619D01*
X95490595Y-57967857D01*
X95490595Y-58063095D01*
X95538214Y-58205952D01*
X96109642Y-58777380D01*
X95490595Y-58777380D01*
X93062023Y-57777380D02*
X93538214Y-57777380D01*
X93585833Y-58253571D01*
X93538214Y-58205952D01*
X93442976Y-58158333D01*
X93204880Y-58158333D01*
X93109642Y-58205952D01*
X93062023Y-58253571D01*
X93014404Y-58348809D01*
X93014404Y-58586904D01*
X93062023Y-58682142D01*
X93109642Y-58729761D01*
X93204880Y-58777380D01*
X93442976Y-58777380D01*
X93538214Y-58729761D01*
X93585833Y-58682142D01*
X92585833Y-58110714D02*
X92585833Y-59110714D01*
X92585833Y-58158333D02*
X92490595Y-58110714D01*
X92300119Y-58110714D01*
X92204880Y-58158333D01*
X92157261Y-58205952D01*
X92109642Y-58301190D01*
X92109642Y-58586904D01*
X92157261Y-58682142D01*
X92204880Y-58729761D01*
X92300119Y-58777380D01*
X92490595Y-58777380D01*
X92585833Y-58729761D01*
X91823928Y-58110714D02*
X91442976Y-58110714D01*
X91681071Y-57777380D02*
X91681071Y-58634523D01*
X91633452Y-58729761D01*
X91538214Y-58777380D01*
X91442976Y-58777380D01*
X96442976Y-60427380D02*
X96776309Y-59951190D01*
X97014404Y-60427380D02*
X97014404Y-59427380D01*
X96633452Y-59427380D01*
X96538214Y-59475000D01*
X96490595Y-59522619D01*
X96442976Y-59617857D01*
X96442976Y-59760714D01*
X96490595Y-59855952D01*
X96538214Y-59903571D01*
X96633452Y-59951190D01*
X97014404Y-59951190D01*
X96109642Y-59427380D02*
X95490595Y-59427380D01*
X95823928Y-59808333D01*
X95681071Y-59808333D01*
X95585833Y-59855952D01*
X95538214Y-59903571D01*
X95490595Y-59998809D01*
X95490595Y-60236904D01*
X95538214Y-60332142D01*
X95585833Y-60379761D01*
X95681071Y-60427380D01*
X95966785Y-60427380D01*
X96062023Y-60379761D01*
X96109642Y-60332142D01*
X93776309Y-60427380D02*
X94347738Y-60427380D01*
X94062023Y-60427380D02*
X94062023Y-59427380D01*
X94157261Y-59570238D01*
X94252500Y-59665476D01*
X94347738Y-59713095D01*
X92871547Y-59427380D02*
X93347738Y-59427380D01*
X93395357Y-59903571D01*
X93347738Y-59855952D01*
X93252500Y-59808333D01*
X93014404Y-59808333D01*
X92919166Y-59855952D01*
X92871547Y-59903571D01*
X92823928Y-59998809D01*
X92823928Y-60236904D01*
X92871547Y-60332142D01*
X92919166Y-60379761D01*
X93014404Y-60427380D01*
X93252500Y-60427380D01*
X93347738Y-60379761D01*
X93395357Y-60332142D01*
X92395357Y-59760714D02*
X92395357Y-60760714D01*
X92395357Y-59808333D02*
X92300119Y-59760714D01*
X92109642Y-59760714D01*
X92014404Y-59808333D01*
X91966785Y-59855952D01*
X91919166Y-59951190D01*
X91919166Y-60236904D01*
X91966785Y-60332142D01*
X92014404Y-60379761D01*
X92109642Y-60427380D01*
X92300119Y-60427380D01*
X92395357Y-60379761D01*
X91633452Y-59760714D02*
X91252500Y-59760714D01*
X91490595Y-59427380D02*
X91490595Y-60284523D01*
X91442976Y-60379761D01*
X91347738Y-60427380D01*
X91252500Y-60427380D01*
X96442976Y-62077380D02*
X96776309Y-61601190D01*
X97014404Y-62077380D02*
X97014404Y-61077380D01*
X96633452Y-61077380D01*
X96538214Y-61125000D01*
X96490595Y-61172619D01*
X96442976Y-61267857D01*
X96442976Y-61410714D01*
X96490595Y-61505952D01*
X96538214Y-61553571D01*
X96633452Y-61601190D01*
X97014404Y-61601190D01*
X95585833Y-61410714D02*
X95585833Y-62077380D01*
X95823928Y-61029761D02*
X96062023Y-61744047D01*
X95442976Y-61744047D01*
X94347738Y-61172619D02*
X94300119Y-61125000D01*
X94204880Y-61077380D01*
X93966785Y-61077380D01*
X93871547Y-61125000D01*
X93823928Y-61172619D01*
X93776309Y-61267857D01*
X93776309Y-61363095D01*
X93823928Y-61505952D01*
X94395357Y-62077380D01*
X93776309Y-62077380D01*
X93157261Y-61077380D02*
X93062023Y-61077380D01*
X92966785Y-61125000D01*
X92919166Y-61172619D01*
X92871547Y-61267857D01*
X92823928Y-61458333D01*
X92823928Y-61696428D01*
X92871547Y-61886904D01*
X92919166Y-61982142D01*
X92966785Y-62029761D01*
X93062023Y-62077380D01*
X93157261Y-62077380D01*
X93252500Y-62029761D01*
X93300119Y-61982142D01*
X93347738Y-61886904D01*
X93395357Y-61696428D01*
X93395357Y-61458333D01*
X93347738Y-61267857D01*
X93300119Y-61172619D01*
X93252500Y-61125000D01*
X93157261Y-61077380D01*
X92395357Y-61410714D02*
X92395357Y-62410714D01*
X92395357Y-61458333D02*
X92300119Y-61410714D01*
X92109642Y-61410714D01*
X92014404Y-61458333D01*
X91966785Y-61505952D01*
X91919166Y-61601190D01*
X91919166Y-61886904D01*
X91966785Y-61982142D01*
X92014404Y-62029761D01*
X92109642Y-62077380D01*
X92300119Y-62077380D01*
X92395357Y-62029761D01*
X91633452Y-61410714D02*
X91252500Y-61410714D01*
X91490595Y-61077380D02*
X91490595Y-61934523D01*
X91442976Y-62029761D01*
X91347738Y-62077380D01*
X91252500Y-62077380D01*
X96442976Y-63727380D02*
X96776309Y-63251190D01*
X97014404Y-63727380D02*
X97014404Y-62727380D01*
X96633452Y-62727380D01*
X96538214Y-62775000D01*
X96490595Y-62822619D01*
X96442976Y-62917857D01*
X96442976Y-63060714D01*
X96490595Y-63155952D01*
X96538214Y-63203571D01*
X96633452Y-63251190D01*
X97014404Y-63251190D01*
X95538214Y-62727380D02*
X96014404Y-62727380D01*
X96062023Y-63203571D01*
X96014404Y-63155952D01*
X95919166Y-63108333D01*
X95681071Y-63108333D01*
X95585833Y-63155952D01*
X95538214Y-63203571D01*
X95490595Y-63298809D01*
X95490595Y-63536904D01*
X95538214Y-63632142D01*
X95585833Y-63679761D01*
X95681071Y-63727380D01*
X95919166Y-63727380D01*
X96014404Y-63679761D01*
X96062023Y-63632142D01*
X93062023Y-62727380D02*
X93538214Y-62727380D01*
X93585833Y-63203571D01*
X93538214Y-63155952D01*
X93442976Y-63108333D01*
X93204880Y-63108333D01*
X93109642Y-63155952D01*
X93062023Y-63203571D01*
X93014404Y-63298809D01*
X93014404Y-63536904D01*
X93062023Y-63632142D01*
X93109642Y-63679761D01*
X93204880Y-63727380D01*
X93442976Y-63727380D01*
X93538214Y-63679761D01*
X93585833Y-63632142D01*
X92585833Y-63060714D02*
X92585833Y-64060714D01*
X92585833Y-63108333D02*
X92490595Y-63060714D01*
X92300119Y-63060714D01*
X92204880Y-63108333D01*
X92157261Y-63155952D01*
X92109642Y-63251190D01*
X92109642Y-63536904D01*
X92157261Y-63632142D01*
X92204880Y-63679761D01*
X92300119Y-63727380D01*
X92490595Y-63727380D01*
X92585833Y-63679761D01*
X91823928Y-63060714D02*
X91442976Y-63060714D01*
X91681071Y-62727380D02*
X91681071Y-63584523D01*
X91633452Y-63679761D01*
X91538214Y-63727380D01*
X91442976Y-63727380D01*
X96442976Y-65377380D02*
X96776309Y-64901190D01*
X97014404Y-65377380D02*
X97014404Y-64377380D01*
X96633452Y-64377380D01*
X96538214Y-64425000D01*
X96490595Y-64472619D01*
X96442976Y-64567857D01*
X96442976Y-64710714D01*
X96490595Y-64805952D01*
X96538214Y-64853571D01*
X96633452Y-64901190D01*
X97014404Y-64901190D01*
X95585833Y-64377380D02*
X95776309Y-64377380D01*
X95871547Y-64425000D01*
X95919166Y-64472619D01*
X96014404Y-64615476D01*
X96062023Y-64805952D01*
X96062023Y-65186904D01*
X96014404Y-65282142D01*
X95966785Y-65329761D01*
X95871547Y-65377380D01*
X95681071Y-65377380D01*
X95585833Y-65329761D01*
X95538214Y-65282142D01*
X95490595Y-65186904D01*
X95490595Y-64948809D01*
X95538214Y-64853571D01*
X95585833Y-64805952D01*
X95681071Y-64758333D01*
X95871547Y-64758333D01*
X95966785Y-64805952D01*
X96014404Y-64853571D01*
X96062023Y-64948809D01*
X93062023Y-64377380D02*
X93538214Y-64377380D01*
X93585833Y-64853571D01*
X93538214Y-64805952D01*
X93442976Y-64758333D01*
X93204880Y-64758333D01*
X93109642Y-64805952D01*
X93062023Y-64853571D01*
X93014404Y-64948809D01*
X93014404Y-65186904D01*
X93062023Y-65282142D01*
X93109642Y-65329761D01*
X93204880Y-65377380D01*
X93442976Y-65377380D01*
X93538214Y-65329761D01*
X93585833Y-65282142D01*
X92585833Y-64710714D02*
X92585833Y-65710714D01*
X92585833Y-64758333D02*
X92490595Y-64710714D01*
X92300119Y-64710714D01*
X92204880Y-64758333D01*
X92157261Y-64805952D01*
X92109642Y-64901190D01*
X92109642Y-65186904D01*
X92157261Y-65282142D01*
X92204880Y-65329761D01*
X92300119Y-65377380D01*
X92490595Y-65377380D01*
X92585833Y-65329761D01*
X91823928Y-64710714D02*
X91442976Y-64710714D01*
X91681071Y-64377380D02*
X91681071Y-65234523D01*
X91633452Y-65329761D01*
X91538214Y-65377380D01*
X91442976Y-65377380D01*
X96442976Y-67027380D02*
X96776309Y-66551190D01*
X97014404Y-67027380D02*
X97014404Y-66027380D01*
X96633452Y-66027380D01*
X96538214Y-66075000D01*
X96490595Y-66122619D01*
X96442976Y-66217857D01*
X96442976Y-66360714D01*
X96490595Y-66455952D01*
X96538214Y-66503571D01*
X96633452Y-66551190D01*
X97014404Y-66551190D01*
X96109642Y-66027380D02*
X95442976Y-66027380D01*
X95871547Y-67027380D01*
X93062023Y-66027380D02*
X93538214Y-66027380D01*
X93585833Y-66503571D01*
X93538214Y-66455952D01*
X93442976Y-66408333D01*
X93204880Y-66408333D01*
X93109642Y-66455952D01*
X93062023Y-66503571D01*
X93014404Y-66598809D01*
X93014404Y-66836904D01*
X93062023Y-66932142D01*
X93109642Y-66979761D01*
X93204880Y-67027380D01*
X93442976Y-67027380D01*
X93538214Y-66979761D01*
X93585833Y-66932142D01*
X92585833Y-66360714D02*
X92585833Y-67360714D01*
X92585833Y-66408333D02*
X92490595Y-66360714D01*
X92300119Y-66360714D01*
X92204880Y-66408333D01*
X92157261Y-66455952D01*
X92109642Y-66551190D01*
X92109642Y-66836904D01*
X92157261Y-66932142D01*
X92204880Y-66979761D01*
X92300119Y-67027380D01*
X92490595Y-67027380D01*
X92585833Y-66979761D01*
X91823928Y-66360714D02*
X91442976Y-66360714D01*
X91681071Y-66027380D02*
X91681071Y-66884523D01*
X91633452Y-66979761D01*
X91538214Y-67027380D01*
X91442976Y-67027380D01*
X97062023Y-68629761D02*
X96919166Y-68677380D01*
X96681071Y-68677380D01*
X96585833Y-68629761D01*
X96538214Y-68582142D01*
X96490595Y-68486904D01*
X96490595Y-68391666D01*
X96538214Y-68296428D01*
X96585833Y-68248809D01*
X96681071Y-68201190D01*
X96871547Y-68153571D01*
X96966785Y-68105952D01*
X97014404Y-68058333D01*
X97062023Y-67963095D01*
X97062023Y-67867857D01*
X97014404Y-67772619D01*
X96966785Y-67725000D01*
X96871547Y-67677380D01*
X96633452Y-67677380D01*
X96490595Y-67725000D01*
X95538214Y-68677380D02*
X96109642Y-68677380D01*
X95823928Y-68677380D02*
X95823928Y-67677380D01*
X95919166Y-67820238D01*
X96014404Y-67915476D01*
X96109642Y-67963095D01*
X93109642Y-67677380D02*
X93585833Y-67677380D01*
X93633452Y-68153571D01*
X93585833Y-68105952D01*
X93490595Y-68058333D01*
X93252500Y-68058333D01*
X93157261Y-68105952D01*
X93109642Y-68153571D01*
X93062023Y-68248809D01*
X93062023Y-68486904D01*
X93109642Y-68582142D01*
X93157261Y-68629761D01*
X93252500Y-68677380D01*
X93490595Y-68677380D01*
X93585833Y-68629761D01*
X93633452Y-68582142D01*
X92633452Y-68010714D02*
X92633452Y-69010714D01*
X92633452Y-68058333D02*
X92538214Y-68010714D01*
X92347738Y-68010714D01*
X92252500Y-68058333D01*
X92204880Y-68105952D01*
X92157261Y-68201190D01*
X92157261Y-68486904D01*
X92204880Y-68582142D01*
X92252500Y-68629761D01*
X92347738Y-68677380D01*
X92538214Y-68677380D01*
X92633452Y-68629761D01*
X91871547Y-68010714D02*
X91490595Y-68010714D01*
X91728690Y-67677380D02*
X91728690Y-68534523D01*
X91681071Y-68629761D01*
X91585833Y-68677380D01*
X91490595Y-68677380D01*
X97062023Y-70279761D02*
X96919166Y-70327380D01*
X96681071Y-70327380D01*
X96585833Y-70279761D01*
X96538214Y-70232142D01*
X96490595Y-70136904D01*
X96490595Y-70041666D01*
X96538214Y-69946428D01*
X96585833Y-69898809D01*
X96681071Y-69851190D01*
X96871547Y-69803571D01*
X96966785Y-69755952D01*
X97014404Y-69708333D01*
X97062023Y-69613095D01*
X97062023Y-69517857D01*
X97014404Y-69422619D01*
X96966785Y-69375000D01*
X96871547Y-69327380D01*
X96633452Y-69327380D01*
X96490595Y-69375000D01*
X96109642Y-69422619D02*
X96062023Y-69375000D01*
X95966785Y-69327380D01*
X95728690Y-69327380D01*
X95633452Y-69375000D01*
X95585833Y-69422619D01*
X95538214Y-69517857D01*
X95538214Y-69613095D01*
X95585833Y-69755952D01*
X96157261Y-70327380D01*
X95538214Y-70327380D01*
X93109642Y-69327380D02*
X93585833Y-69327380D01*
X93633452Y-69803571D01*
X93585833Y-69755952D01*
X93490595Y-69708333D01*
X93252500Y-69708333D01*
X93157261Y-69755952D01*
X93109642Y-69803571D01*
X93062023Y-69898809D01*
X93062023Y-70136904D01*
X93109642Y-70232142D01*
X93157261Y-70279761D01*
X93252500Y-70327380D01*
X93490595Y-70327380D01*
X93585833Y-70279761D01*
X93633452Y-70232142D01*
X92633452Y-69660714D02*
X92633452Y-70660714D01*
X92633452Y-69708333D02*
X92538214Y-69660714D01*
X92347738Y-69660714D01*
X92252500Y-69708333D01*
X92204880Y-69755952D01*
X92157261Y-69851190D01*
X92157261Y-70136904D01*
X92204880Y-70232142D01*
X92252500Y-70279761D01*
X92347738Y-70327380D01*
X92538214Y-70327380D01*
X92633452Y-70279761D01*
X91871547Y-69660714D02*
X91490595Y-69660714D01*
X91728690Y-69327380D02*
X91728690Y-70184523D01*
X91681071Y-70279761D01*
X91585833Y-70327380D01*
X91490595Y-70327380D01*
X97062023Y-71929761D02*
X96919166Y-71977380D01*
X96681071Y-71977380D01*
X96585833Y-71929761D01*
X96538214Y-71882142D01*
X96490595Y-71786904D01*
X96490595Y-71691666D01*
X96538214Y-71596428D01*
X96585833Y-71548809D01*
X96681071Y-71501190D01*
X96871547Y-71453571D01*
X96966785Y-71405952D01*
X97014404Y-71358333D01*
X97062023Y-71263095D01*
X97062023Y-71167857D01*
X97014404Y-71072619D01*
X96966785Y-71025000D01*
X96871547Y-70977380D01*
X96633452Y-70977380D01*
X96490595Y-71025000D01*
X96157261Y-70977380D02*
X95538214Y-70977380D01*
X95871547Y-71358333D01*
X95728690Y-71358333D01*
X95633452Y-71405952D01*
X95585833Y-71453571D01*
X95538214Y-71548809D01*
X95538214Y-71786904D01*
X95585833Y-71882142D01*
X95633452Y-71929761D01*
X95728690Y-71977380D01*
X96014404Y-71977380D01*
X96109642Y-71929761D01*
X96157261Y-71882142D01*
X93109642Y-70977380D02*
X93585833Y-70977380D01*
X93633452Y-71453571D01*
X93585833Y-71405952D01*
X93490595Y-71358333D01*
X93252500Y-71358333D01*
X93157261Y-71405952D01*
X93109642Y-71453571D01*
X93062023Y-71548809D01*
X93062023Y-71786904D01*
X93109642Y-71882142D01*
X93157261Y-71929761D01*
X93252500Y-71977380D01*
X93490595Y-71977380D01*
X93585833Y-71929761D01*
X93633452Y-71882142D01*
X92633452Y-71310714D02*
X92633452Y-72310714D01*
X92633452Y-71358333D02*
X92538214Y-71310714D01*
X92347738Y-71310714D01*
X92252500Y-71358333D01*
X92204880Y-71405952D01*
X92157261Y-71501190D01*
X92157261Y-71786904D01*
X92204880Y-71882142D01*
X92252500Y-71929761D01*
X92347738Y-71977380D01*
X92538214Y-71977380D01*
X92633452Y-71929761D01*
X91871547Y-71310714D02*
X91490595Y-71310714D01*
X91728690Y-70977380D02*
X91728690Y-71834523D01*
X91681071Y-71929761D01*
X91585833Y-71977380D01*
X91490595Y-71977380D01*
X97014404Y-73627380D02*
X97014404Y-72627380D01*
X96776309Y-72627380D01*
X96633452Y-72675000D01*
X96538214Y-72770238D01*
X96490595Y-72865476D01*
X96442976Y-73055952D01*
X96442976Y-73198809D01*
X96490595Y-73389285D01*
X96538214Y-73484523D01*
X96633452Y-73579761D01*
X96776309Y-73627380D01*
X97014404Y-73627380D01*
X95490595Y-73627380D02*
X96062023Y-73627380D01*
X95776309Y-73627380D02*
X95776309Y-72627380D01*
X95871547Y-72770238D01*
X95966785Y-72865476D01*
X96062023Y-72913095D01*
X93776309Y-73627380D02*
X94347738Y-73627380D01*
X94062023Y-73627380D02*
X94062023Y-72627380D01*
X94157261Y-72770238D01*
X94252500Y-72865476D01*
X94347738Y-72913095D01*
X93157261Y-72627380D02*
X93062023Y-72627380D01*
X92966785Y-72675000D01*
X92919166Y-72722619D01*
X92871547Y-72817857D01*
X92823928Y-73008333D01*
X92823928Y-73246428D01*
X92871547Y-73436904D01*
X92919166Y-73532142D01*
X92966785Y-73579761D01*
X93062023Y-73627380D01*
X93157261Y-73627380D01*
X93252500Y-73579761D01*
X93300119Y-73532142D01*
X93347738Y-73436904D01*
X93395357Y-73246428D01*
X93395357Y-73008333D01*
X93347738Y-72817857D01*
X93300119Y-72722619D01*
X93252500Y-72675000D01*
X93157261Y-72627380D01*
X92395357Y-72960714D02*
X92395357Y-73960714D01*
X92395357Y-73008333D02*
X92300119Y-72960714D01*
X92109642Y-72960714D01*
X92014404Y-73008333D01*
X91966785Y-73055952D01*
X91919166Y-73151190D01*
X91919166Y-73436904D01*
X91966785Y-73532142D01*
X92014404Y-73579761D01*
X92109642Y-73627380D01*
X92300119Y-73627380D01*
X92395357Y-73579761D01*
X91633452Y-72960714D02*
X91252500Y-72960714D01*
X91490595Y-72627380D02*
X91490595Y-73484523D01*
X91442976Y-73579761D01*
X91347738Y-73627380D01*
X91252500Y-73627380D01*
X97014404Y-75277380D02*
X97014404Y-74277380D01*
X96776309Y-74277380D01*
X96633452Y-74325000D01*
X96538214Y-74420238D01*
X96490595Y-74515476D01*
X96442976Y-74705952D01*
X96442976Y-74848809D01*
X96490595Y-75039285D01*
X96538214Y-75134523D01*
X96633452Y-75229761D01*
X96776309Y-75277380D01*
X97014404Y-75277380D01*
X96062023Y-74372619D02*
X96014404Y-74325000D01*
X95919166Y-74277380D01*
X95681071Y-74277380D01*
X95585833Y-74325000D01*
X95538214Y-74372619D01*
X95490595Y-74467857D01*
X95490595Y-74563095D01*
X95538214Y-74705952D01*
X96109642Y-75277380D01*
X95490595Y-75277380D01*
X93776309Y-75277380D02*
X94347738Y-75277380D01*
X94062023Y-75277380D02*
X94062023Y-74277380D01*
X94157261Y-74420238D01*
X94252500Y-74515476D01*
X94347738Y-74563095D01*
X93157261Y-74277380D02*
X93062023Y-74277380D01*
X92966785Y-74325000D01*
X92919166Y-74372619D01*
X92871547Y-74467857D01*
X92823928Y-74658333D01*
X92823928Y-74896428D01*
X92871547Y-75086904D01*
X92919166Y-75182142D01*
X92966785Y-75229761D01*
X93062023Y-75277380D01*
X93157261Y-75277380D01*
X93252500Y-75229761D01*
X93300119Y-75182142D01*
X93347738Y-75086904D01*
X93395357Y-74896428D01*
X93395357Y-74658333D01*
X93347738Y-74467857D01*
X93300119Y-74372619D01*
X93252500Y-74325000D01*
X93157261Y-74277380D01*
X92395357Y-74610714D02*
X92395357Y-75610714D01*
X92395357Y-74658333D02*
X92300119Y-74610714D01*
X92109642Y-74610714D01*
X92014404Y-74658333D01*
X91966785Y-74705952D01*
X91919166Y-74801190D01*
X91919166Y-75086904D01*
X91966785Y-75182142D01*
X92014404Y-75229761D01*
X92109642Y-75277380D01*
X92300119Y-75277380D01*
X92395357Y-75229761D01*
X91633452Y-74610714D02*
X91252500Y-74610714D01*
X91490595Y-74277380D02*
X91490595Y-75134523D01*
X91442976Y-75229761D01*
X91347738Y-75277380D01*
X91252500Y-75277380D01*
X97014404Y-76927380D02*
X97014404Y-75927380D01*
X96776309Y-75927380D01*
X96633452Y-75975000D01*
X96538214Y-76070238D01*
X96490595Y-76165476D01*
X96442976Y-76355952D01*
X96442976Y-76498809D01*
X96490595Y-76689285D01*
X96538214Y-76784523D01*
X96633452Y-76879761D01*
X96776309Y-76927380D01*
X97014404Y-76927380D01*
X96109642Y-75927380D02*
X95490595Y-75927380D01*
X95823928Y-76308333D01*
X95681071Y-76308333D01*
X95585833Y-76355952D01*
X95538214Y-76403571D01*
X95490595Y-76498809D01*
X95490595Y-76736904D01*
X95538214Y-76832142D01*
X95585833Y-76879761D01*
X95681071Y-76927380D01*
X95966785Y-76927380D01*
X96062023Y-76879761D01*
X96109642Y-76832142D01*
X94395357Y-75927380D02*
X93776309Y-75927380D01*
X94109642Y-76308333D01*
X93966785Y-76308333D01*
X93871547Y-76355952D01*
X93823928Y-76403571D01*
X93776309Y-76498809D01*
X93776309Y-76736904D01*
X93823928Y-76832142D01*
X93871547Y-76879761D01*
X93966785Y-76927380D01*
X94252500Y-76927380D01*
X94347738Y-76879761D01*
X94395357Y-76832142D01*
X93157261Y-75927380D02*
X93062023Y-75927380D01*
X92966785Y-75975000D01*
X92919166Y-76022619D01*
X92871547Y-76117857D01*
X92823928Y-76308333D01*
X92823928Y-76546428D01*
X92871547Y-76736904D01*
X92919166Y-76832142D01*
X92966785Y-76879761D01*
X93062023Y-76927380D01*
X93157261Y-76927380D01*
X93252500Y-76879761D01*
X93300119Y-76832142D01*
X93347738Y-76736904D01*
X93395357Y-76546428D01*
X93395357Y-76308333D01*
X93347738Y-76117857D01*
X93300119Y-76022619D01*
X93252500Y-75975000D01*
X93157261Y-75927380D01*
X92395357Y-76260714D02*
X92395357Y-77260714D01*
X92395357Y-76308333D02*
X92300119Y-76260714D01*
X92109642Y-76260714D01*
X92014404Y-76308333D01*
X91966785Y-76355952D01*
X91919166Y-76451190D01*
X91919166Y-76736904D01*
X91966785Y-76832142D01*
X92014404Y-76879761D01*
X92109642Y-76927380D01*
X92300119Y-76927380D01*
X92395357Y-76879761D01*
X91633452Y-76260714D02*
X91252500Y-76260714D01*
X91490595Y-75927380D02*
X91490595Y-76784523D01*
X91442976Y-76879761D01*
X91347738Y-76927380D01*
X91252500Y-76927380D01*
X97014404Y-78577380D02*
X97014404Y-77577380D01*
X96776309Y-77577380D01*
X96633452Y-77625000D01*
X96538214Y-77720238D01*
X96490595Y-77815476D01*
X96442976Y-78005952D01*
X96442976Y-78148809D01*
X96490595Y-78339285D01*
X96538214Y-78434523D01*
X96633452Y-78529761D01*
X96776309Y-78577380D01*
X97014404Y-78577380D01*
X95585833Y-77910714D02*
X95585833Y-78577380D01*
X95823928Y-77529761D02*
X96062023Y-78244047D01*
X95442976Y-78244047D01*
X93871547Y-77910714D02*
X93871547Y-78577380D01*
X94109642Y-77529761D02*
X94347738Y-78244047D01*
X93728690Y-78244047D01*
X93157261Y-77577380D02*
X93062023Y-77577380D01*
X92966785Y-77625000D01*
X92919166Y-77672619D01*
X92871547Y-77767857D01*
X92823928Y-77958333D01*
X92823928Y-78196428D01*
X92871547Y-78386904D01*
X92919166Y-78482142D01*
X92966785Y-78529761D01*
X93062023Y-78577380D01*
X93157261Y-78577380D01*
X93252500Y-78529761D01*
X93300119Y-78482142D01*
X93347738Y-78386904D01*
X93395357Y-78196428D01*
X93395357Y-77958333D01*
X93347738Y-77767857D01*
X93300119Y-77672619D01*
X93252500Y-77625000D01*
X93157261Y-77577380D01*
X92395357Y-77910714D02*
X92395357Y-78910714D01*
X92395357Y-77958333D02*
X92300119Y-77910714D01*
X92109642Y-77910714D01*
X92014404Y-77958333D01*
X91966785Y-78005952D01*
X91919166Y-78101190D01*
X91919166Y-78386904D01*
X91966785Y-78482142D01*
X92014404Y-78529761D01*
X92109642Y-78577380D01*
X92300119Y-78577380D01*
X92395357Y-78529761D01*
X91633452Y-77910714D02*
X91252500Y-77910714D01*
X91490595Y-77577380D02*
X91490595Y-78434523D01*
X91442976Y-78529761D01*
X91347738Y-78577380D01*
X91252500Y-78577380D01*
X97014404Y-80227380D02*
X97014404Y-79227380D01*
X96776309Y-79227380D01*
X96633452Y-79275000D01*
X96538214Y-79370238D01*
X96490595Y-79465476D01*
X96442976Y-79655952D01*
X96442976Y-79798809D01*
X96490595Y-79989285D01*
X96538214Y-80084523D01*
X96633452Y-80179761D01*
X96776309Y-80227380D01*
X97014404Y-80227380D01*
X95538214Y-79227380D02*
X96014404Y-79227380D01*
X96062023Y-79703571D01*
X96014404Y-79655952D01*
X95919166Y-79608333D01*
X95681071Y-79608333D01*
X95585833Y-79655952D01*
X95538214Y-79703571D01*
X95490595Y-79798809D01*
X95490595Y-80036904D01*
X95538214Y-80132142D01*
X95585833Y-80179761D01*
X95681071Y-80227380D01*
X95919166Y-80227380D01*
X96014404Y-80179761D01*
X96062023Y-80132142D01*
X94347738Y-79322619D02*
X94300119Y-79275000D01*
X94204880Y-79227380D01*
X93966785Y-79227380D01*
X93871547Y-79275000D01*
X93823928Y-79322619D01*
X93776309Y-79417857D01*
X93776309Y-79513095D01*
X93823928Y-79655952D01*
X94395357Y-80227380D01*
X93776309Y-80227380D01*
X92871547Y-79227380D02*
X93347738Y-79227380D01*
X93395357Y-79703571D01*
X93347738Y-79655952D01*
X93252500Y-79608333D01*
X93014404Y-79608333D01*
X92919166Y-79655952D01*
X92871547Y-79703571D01*
X92823928Y-79798809D01*
X92823928Y-80036904D01*
X92871547Y-80132142D01*
X92919166Y-80179761D01*
X93014404Y-80227380D01*
X93252500Y-80227380D01*
X93347738Y-80179761D01*
X93395357Y-80132142D01*
X92395357Y-79560714D02*
X92395357Y-80560714D01*
X92395357Y-79608333D02*
X92300119Y-79560714D01*
X92109642Y-79560714D01*
X92014404Y-79608333D01*
X91966785Y-79655952D01*
X91919166Y-79751190D01*
X91919166Y-80036904D01*
X91966785Y-80132142D01*
X92014404Y-80179761D01*
X92109642Y-80227380D01*
X92300119Y-80227380D01*
X92395357Y-80179761D01*
X91633452Y-79560714D02*
X91252500Y-79560714D01*
X91490595Y-79227380D02*
X91490595Y-80084523D01*
X91442976Y-80179761D01*
X91347738Y-80227380D01*
X91252500Y-80227380D01*
D11*
X90000000Y-98000000D02*
X90000000Y-50000000D01*
X138000000Y-98000000D02*
X90000000Y-98000000D01*
X138000000Y-50000000D02*
X138000000Y-98000000D01*
X90000000Y-50000000D02*
X138000000Y-50000000D01*
D12*
G04 #@! TO.C,G\002A\002A\002A*
G36*
X112849970Y-52509794D02*
G01*
X112509659Y-52510861D01*
X112191583Y-52512631D01*
X111903644Y-52515115D01*
X111653741Y-52518329D01*
X111449775Y-52522287D01*
X111299646Y-52527001D01*
X111211286Y-52532482D01*
X110706731Y-52588267D01*
X110271632Y-52640336D01*
X109902992Y-52689099D01*
X109597813Y-52734968D01*
X109353098Y-52778353D01*
X109233996Y-52803374D01*
X108959040Y-52867789D01*
X108747576Y-52923562D01*
X108591630Y-52974662D01*
X108483228Y-53025059D01*
X108414393Y-53078722D01*
X108377153Y-53139622D01*
X108363531Y-53211727D01*
X108362857Y-53237000D01*
X108376798Y-53327573D01*
X108423344Y-53404695D01*
X108509579Y-53471926D01*
X108642587Y-53532828D01*
X108829452Y-53590961D01*
X109077258Y-53649888D01*
X109258333Y-53687144D01*
X109467936Y-53727042D01*
X109672014Y-53763210D01*
X109850783Y-53792322D01*
X109984460Y-53811048D01*
X110013857Y-53814244D01*
X110152447Y-53828037D01*
X110331195Y-53846543D01*
X110518135Y-53866436D01*
X110576286Y-53872751D01*
X110769461Y-53892386D01*
X110968944Y-53909421D01*
X111181255Y-53924043D01*
X111412913Y-53936437D01*
X111670439Y-53946789D01*
X111960353Y-53955286D01*
X112289176Y-53962114D01*
X112663427Y-53967457D01*
X113089627Y-53971504D01*
X113574296Y-53974438D01*
X114123954Y-53976448D01*
X114219776Y-53976699D01*
X114622027Y-53977903D01*
X115004060Y-53979429D01*
X115359476Y-53981227D01*
X115681876Y-53983246D01*
X115964861Y-53985435D01*
X116202034Y-53987744D01*
X116386993Y-53990123D01*
X116513342Y-53992521D01*
X116574681Y-53994888D01*
X116578347Y-53995310D01*
X116644515Y-53997921D01*
X116764493Y-53994937D01*
X116919793Y-53987035D01*
X117053286Y-53977914D01*
X117284127Y-53957206D01*
X117557240Y-53927470D01*
X117861354Y-53890390D01*
X118185196Y-53847648D01*
X118517495Y-53800930D01*
X118846979Y-53751917D01*
X119162377Y-53702295D01*
X119452417Y-53653746D01*
X119705827Y-53607954D01*
X119911336Y-53566604D01*
X120057672Y-53531378D01*
X120073706Y-53526760D01*
X120191541Y-53484905D01*
X120256310Y-53439988D01*
X120286793Y-53378713D01*
X120287692Y-53375230D01*
X120291238Y-53306727D01*
X119961944Y-53306727D01*
X119916237Y-53328265D01*
X119850741Y-53345073D01*
X119723712Y-53370312D01*
X119545493Y-53402373D01*
X119326422Y-53439645D01*
X119076843Y-53480520D01*
X118807096Y-53523388D01*
X118527522Y-53566640D01*
X118248462Y-53608665D01*
X117980257Y-53647856D01*
X117733249Y-53682601D01*
X117517778Y-53711292D01*
X117344185Y-53732319D01*
X117271000Y-53739969D01*
X117205378Y-53742646D01*
X117075215Y-53744766D01*
X116887270Y-53746356D01*
X116648300Y-53747444D01*
X116365066Y-53748058D01*
X116044324Y-53748226D01*
X115692834Y-53747977D01*
X115317355Y-53747337D01*
X114924644Y-53746335D01*
X114521460Y-53744998D01*
X114114562Y-53743356D01*
X113710707Y-53741436D01*
X113316656Y-53739265D01*
X112939166Y-53736872D01*
X112584995Y-53734285D01*
X112260902Y-53731532D01*
X111973646Y-53728640D01*
X111729986Y-53725638D01*
X111536679Y-53722554D01*
X111400484Y-53719415D01*
X111328159Y-53716250D01*
X111320143Y-53715339D01*
X111231384Y-53703122D01*
X111097033Y-53688907D01*
X110943910Y-53675491D01*
X110921000Y-53673722D01*
X110575770Y-53643738D01*
X110237304Y-53607138D01*
X109912454Y-53565271D01*
X109608073Y-53519486D01*
X109331012Y-53471134D01*
X109088125Y-53421563D01*
X108886264Y-53372123D01*
X108732281Y-53324164D01*
X108633028Y-53279036D01*
X108595357Y-53238088D01*
X108603847Y-53217353D01*
X108655511Y-53192789D01*
X108764812Y-53157874D01*
X108918104Y-53115880D01*
X109101743Y-53070079D01*
X109302085Y-53023743D01*
X109505485Y-52980145D01*
X109698297Y-52942557D01*
X109866878Y-52914251D01*
X109869121Y-52913919D01*
X110160484Y-52872127D01*
X110428231Y-52837066D01*
X110682572Y-52808164D01*
X110933715Y-52784848D01*
X111191870Y-52766548D01*
X111467245Y-52752692D01*
X111770051Y-52742707D01*
X112110497Y-52736021D01*
X112498791Y-52732064D01*
X112945143Y-52730263D01*
X113152572Y-52730011D01*
X113670945Y-52730855D01*
X114166526Y-52733912D01*
X114632938Y-52739040D01*
X115063803Y-52746099D01*
X115452742Y-52754950D01*
X115793379Y-52765449D01*
X116079335Y-52777458D01*
X116304232Y-52790835D01*
X116436429Y-52802485D01*
X116543420Y-52813333D01*
X116678641Y-52825244D01*
X116851282Y-52838922D01*
X117070532Y-52855070D01*
X117345580Y-52874394D01*
X117615715Y-52892867D01*
X117960549Y-52921040D01*
X118313326Y-52958598D01*
X118662016Y-53003613D01*
X118994588Y-53054155D01*
X119299013Y-53108297D01*
X119563260Y-53164108D01*
X119775301Y-53219661D01*
X119884306Y-53256608D01*
X119954262Y-53287032D01*
X119961944Y-53306727D01*
X120291238Y-53306727D01*
X120292455Y-53283220D01*
X120252942Y-53203026D01*
X120163161Y-53130739D01*
X120017120Y-53062449D01*
X119808827Y-52994246D01*
X119630335Y-52946368D01*
X119362658Y-52887141D01*
X119039665Y-52829332D01*
X118678607Y-52775261D01*
X118296733Y-52727247D01*
X117911295Y-52687611D01*
X117539542Y-52658673D01*
X117452429Y-52653474D01*
X117282204Y-52643247D01*
X117139899Y-52633290D01*
X117040327Y-52624738D01*
X116998299Y-52618726D01*
X116998234Y-52618690D01*
X116957256Y-52613474D01*
X116856884Y-52606123D01*
X116710238Y-52597446D01*
X116530434Y-52588257D01*
X116435805Y-52583885D01*
X116237283Y-52574037D01*
X116058413Y-52563342D01*
X115914675Y-52552861D01*
X115821551Y-52543654D01*
X115801429Y-52540458D01*
X115737953Y-52534710D01*
X115609808Y-52529512D01*
X115424895Y-52524880D01*
X115191113Y-52520826D01*
X114916364Y-52517363D01*
X114608548Y-52514507D01*
X114275564Y-52512271D01*
X113925314Y-52510667D01*
X113565698Y-52509711D01*
X113204617Y-52509415D01*
X112849970Y-52509794D01*
X112849970Y-52509794D01*
G37*
X112849970Y-52509794D02*
X112509659Y-52510861D01*
X112191583Y-52512631D01*
X111903644Y-52515115D01*
X111653741Y-52518329D01*
X111449775Y-52522287D01*
X111299646Y-52527001D01*
X111211286Y-52532482D01*
X110706731Y-52588267D01*
X110271632Y-52640336D01*
X109902992Y-52689099D01*
X109597813Y-52734968D01*
X109353098Y-52778353D01*
X109233996Y-52803374D01*
X108959040Y-52867789D01*
X108747576Y-52923562D01*
X108591630Y-52974662D01*
X108483228Y-53025059D01*
X108414393Y-53078722D01*
X108377153Y-53139622D01*
X108363531Y-53211727D01*
X108362857Y-53237000D01*
X108376798Y-53327573D01*
X108423344Y-53404695D01*
X108509579Y-53471926D01*
X108642587Y-53532828D01*
X108829452Y-53590961D01*
X109077258Y-53649888D01*
X109258333Y-53687144D01*
X109467936Y-53727042D01*
X109672014Y-53763210D01*
X109850783Y-53792322D01*
X109984460Y-53811048D01*
X110013857Y-53814244D01*
X110152447Y-53828037D01*
X110331195Y-53846543D01*
X110518135Y-53866436D01*
X110576286Y-53872751D01*
X110769461Y-53892386D01*
X110968944Y-53909421D01*
X111181255Y-53924043D01*
X111412913Y-53936437D01*
X111670439Y-53946789D01*
X111960353Y-53955286D01*
X112289176Y-53962114D01*
X112663427Y-53967457D01*
X113089627Y-53971504D01*
X113574296Y-53974438D01*
X114123954Y-53976448D01*
X114219776Y-53976699D01*
X114622027Y-53977903D01*
X115004060Y-53979429D01*
X115359476Y-53981227D01*
X115681876Y-53983246D01*
X115964861Y-53985435D01*
X116202034Y-53987744D01*
X116386993Y-53990123D01*
X116513342Y-53992521D01*
X116574681Y-53994888D01*
X116578347Y-53995310D01*
X116644515Y-53997921D01*
X116764493Y-53994937D01*
X116919793Y-53987035D01*
X117053286Y-53977914D01*
X117284127Y-53957206D01*
X117557240Y-53927470D01*
X117861354Y-53890390D01*
X118185196Y-53847648D01*
X118517495Y-53800930D01*
X118846979Y-53751917D01*
X119162377Y-53702295D01*
X119452417Y-53653746D01*
X119705827Y-53607954D01*
X119911336Y-53566604D01*
X120057672Y-53531378D01*
X120073706Y-53526760D01*
X120191541Y-53484905D01*
X120256310Y-53439988D01*
X120286793Y-53378713D01*
X120287692Y-53375230D01*
X120291238Y-53306727D01*
X119961944Y-53306727D01*
X119916237Y-53328265D01*
X119850741Y-53345073D01*
X119723712Y-53370312D01*
X119545493Y-53402373D01*
X119326422Y-53439645D01*
X119076843Y-53480520D01*
X118807096Y-53523388D01*
X118527522Y-53566640D01*
X118248462Y-53608665D01*
X117980257Y-53647856D01*
X117733249Y-53682601D01*
X117517778Y-53711292D01*
X117344185Y-53732319D01*
X117271000Y-53739969D01*
X117205378Y-53742646D01*
X117075215Y-53744766D01*
X116887270Y-53746356D01*
X116648300Y-53747444D01*
X116365066Y-53748058D01*
X116044324Y-53748226D01*
X115692834Y-53747977D01*
X115317355Y-53747337D01*
X114924644Y-53746335D01*
X114521460Y-53744998D01*
X114114562Y-53743356D01*
X113710707Y-53741436D01*
X113316656Y-53739265D01*
X112939166Y-53736872D01*
X112584995Y-53734285D01*
X112260902Y-53731532D01*
X111973646Y-53728640D01*
X111729986Y-53725638D01*
X111536679Y-53722554D01*
X111400484Y-53719415D01*
X111328159Y-53716250D01*
X111320143Y-53715339D01*
X111231384Y-53703122D01*
X111097033Y-53688907D01*
X110943910Y-53675491D01*
X110921000Y-53673722D01*
X110575770Y-53643738D01*
X110237304Y-53607138D01*
X109912454Y-53565271D01*
X109608073Y-53519486D01*
X109331012Y-53471134D01*
X109088125Y-53421563D01*
X108886264Y-53372123D01*
X108732281Y-53324164D01*
X108633028Y-53279036D01*
X108595357Y-53238088D01*
X108603847Y-53217353D01*
X108655511Y-53192789D01*
X108764812Y-53157874D01*
X108918104Y-53115880D01*
X109101743Y-53070079D01*
X109302085Y-53023743D01*
X109505485Y-52980145D01*
X109698297Y-52942557D01*
X109866878Y-52914251D01*
X109869121Y-52913919D01*
X110160484Y-52872127D01*
X110428231Y-52837066D01*
X110682572Y-52808164D01*
X110933715Y-52784848D01*
X111191870Y-52766548D01*
X111467245Y-52752692D01*
X111770051Y-52742707D01*
X112110497Y-52736021D01*
X112498791Y-52732064D01*
X112945143Y-52730263D01*
X113152572Y-52730011D01*
X113670945Y-52730855D01*
X114166526Y-52733912D01*
X114632938Y-52739040D01*
X115063803Y-52746099D01*
X115452742Y-52754950D01*
X115793379Y-52765449D01*
X116079335Y-52777458D01*
X116304232Y-52790835D01*
X116436429Y-52802485D01*
X116543420Y-52813333D01*
X116678641Y-52825244D01*
X116851282Y-52838922D01*
X117070532Y-52855070D01*
X117345580Y-52874394D01*
X117615715Y-52892867D01*
X117960549Y-52921040D01*
X118313326Y-52958598D01*
X118662016Y-53003613D01*
X118994588Y-53054155D01*
X119299013Y-53108297D01*
X119563260Y-53164108D01*
X119775301Y-53219661D01*
X119884306Y-53256608D01*
X119954262Y-53287032D01*
X119961944Y-53306727D01*
X120291238Y-53306727D01*
X120292455Y-53283220D01*
X120252942Y-53203026D01*
X120163161Y-53130739D01*
X120017120Y-53062449D01*
X119808827Y-52994246D01*
X119630335Y-52946368D01*
X119362658Y-52887141D01*
X119039665Y-52829332D01*
X118678607Y-52775261D01*
X118296733Y-52727247D01*
X117911295Y-52687611D01*
X117539542Y-52658673D01*
X117452429Y-52653474D01*
X117282204Y-52643247D01*
X117139899Y-52633290D01*
X117040327Y-52624738D01*
X116998299Y-52618726D01*
X116998234Y-52618690D01*
X116957256Y-52613474D01*
X116856884Y-52606123D01*
X116710238Y-52597446D01*
X116530434Y-52588257D01*
X116435805Y-52583885D01*
X116237283Y-52574037D01*
X116058413Y-52563342D01*
X115914675Y-52552861D01*
X115821551Y-52543654D01*
X115801429Y-52540458D01*
X115737953Y-52534710D01*
X115609808Y-52529512D01*
X115424895Y-52524880D01*
X115191113Y-52520826D01*
X114916364Y-52517363D01*
X114608548Y-52514507D01*
X114275564Y-52512271D01*
X113925314Y-52510667D01*
X113565698Y-52509711D01*
X113204617Y-52509415D01*
X112849970Y-52509794D01*
G36*
X114608555Y-55066382D02*
G01*
X114594929Y-55066866D01*
X114559245Y-55079542D01*
X114539840Y-55124498D01*
X114532222Y-55217614D01*
X114531429Y-55291412D01*
X114527941Y-55419211D01*
X114510141Y-55503463D01*
X114467025Y-55573115D01*
X114395357Y-55649368D01*
X114301998Y-55727748D01*
X114193026Y-55785875D01*
X114056795Y-55826340D01*
X113881658Y-55851735D01*
X113655971Y-55864650D01*
X113413857Y-55867752D01*
X112953000Y-55867790D01*
X112959757Y-56239681D01*
X112962847Y-56405384D01*
X112965704Y-56550939D01*
X112967931Y-56656404D01*
X112968828Y-56693214D01*
X112990578Y-56757890D01*
X113055810Y-56774857D01*
X113127821Y-56769221D01*
X113155595Y-56760004D01*
X113196283Y-56752773D01*
X113297541Y-56744033D01*
X113447398Y-56734319D01*
X113633883Y-56724170D01*
X113845025Y-56714121D01*
X114068851Y-56704707D01*
X114293390Y-56696467D01*
X114506670Y-56689935D01*
X114696720Y-56685648D01*
X114848960Y-56684143D01*
X115220919Y-56684143D01*
X115220857Y-55831429D01*
X114989566Y-55831429D01*
X115082635Y-55731643D01*
X115158697Y-55639502D01*
X115217393Y-55550847D01*
X115220223Y-55545501D01*
X115242661Y-55471732D01*
X115259253Y-55363620D01*
X115268111Y-55247027D01*
X115267350Y-55147818D01*
X115255081Y-55091856D01*
X115253458Y-55089934D01*
X115213819Y-55083212D01*
X115121081Y-55076699D01*
X114994715Y-55071078D01*
X114854191Y-55067030D01*
X114718981Y-55065237D01*
X114608555Y-55066382D01*
X114608555Y-55066382D01*
G37*
X114608555Y-55066382D02*
X114594929Y-55066866D01*
X114559245Y-55079542D01*
X114539840Y-55124498D01*
X114532222Y-55217614D01*
X114531429Y-55291412D01*
X114527941Y-55419211D01*
X114510141Y-55503463D01*
X114467025Y-55573115D01*
X114395357Y-55649368D01*
X114301998Y-55727748D01*
X114193026Y-55785875D01*
X114056795Y-55826340D01*
X113881658Y-55851735D01*
X113655971Y-55864650D01*
X113413857Y-55867752D01*
X112953000Y-55867790D01*
X112959757Y-56239681D01*
X112962847Y-56405384D01*
X112965704Y-56550939D01*
X112967931Y-56656404D01*
X112968828Y-56693214D01*
X112990578Y-56757890D01*
X113055810Y-56774857D01*
X113127821Y-56769221D01*
X113155595Y-56760004D01*
X113196283Y-56752773D01*
X113297541Y-56744033D01*
X113447398Y-56734319D01*
X113633883Y-56724170D01*
X113845025Y-56714121D01*
X114068851Y-56704707D01*
X114293390Y-56696467D01*
X114506670Y-56689935D01*
X114696720Y-56685648D01*
X114848960Y-56684143D01*
X115220919Y-56684143D01*
X115220857Y-55831429D01*
X114989566Y-55831429D01*
X115082635Y-55731643D01*
X115158697Y-55639502D01*
X115217393Y-55550847D01*
X115220223Y-55545501D01*
X115242661Y-55471732D01*
X115259253Y-55363620D01*
X115268111Y-55247027D01*
X115267350Y-55147818D01*
X115255081Y-55091856D01*
X115253458Y-55089934D01*
X115213819Y-55083212D01*
X115121081Y-55076699D01*
X114994715Y-55071078D01*
X114854191Y-55067030D01*
X114718981Y-55065237D01*
X114608555Y-55066382D01*
G36*
X114105072Y-57060943D02*
G01*
X113987143Y-57065143D01*
X113987143Y-58625429D01*
X113883179Y-58625429D01*
X113778377Y-58602665D01*
X113688211Y-58553844D01*
X113570614Y-58419713D01*
X113502290Y-58239672D01*
X113482908Y-58011348D01*
X113512138Y-57732369D01*
X113549131Y-57555158D01*
X113580070Y-57420788D01*
X113601639Y-57317146D01*
X113610365Y-57261325D01*
X113609862Y-57256338D01*
X113572715Y-57257922D01*
X113484559Y-57270150D01*
X113365557Y-57289466D01*
X113235868Y-57312315D01*
X113115654Y-57335140D01*
X113025076Y-57354386D01*
X112984293Y-57366497D01*
X112984047Y-57366715D01*
X112963279Y-57420536D01*
X112942742Y-57530732D01*
X112924369Y-57681126D01*
X112910090Y-57855542D01*
X112901837Y-58037804D01*
X112901342Y-58059520D01*
X112908468Y-58372822D01*
X112941684Y-58650671D01*
X112998978Y-58880042D01*
X113045347Y-58991485D01*
X113158047Y-59149468D01*
X113318182Y-59293630D01*
X113500894Y-59403824D01*
X113602073Y-59442675D01*
X113814317Y-59482896D01*
X114055729Y-59492970D01*
X114293660Y-59473413D01*
X114484263Y-59428718D01*
X114749543Y-59306670D01*
X114958727Y-59141858D01*
X115113674Y-58931576D01*
X115216244Y-58673118D01*
X115268296Y-58363778D01*
X115273550Y-58280081D01*
X115272429Y-58247008D01*
X114749073Y-58247008D01*
X114692109Y-58385426D01*
X114625772Y-58465771D01*
X114536910Y-58539450D01*
X114454400Y-58583561D01*
X114426200Y-58589143D01*
X114391713Y-58584937D01*
X114369578Y-58563572D01*
X114357069Y-58511931D01*
X114351461Y-58416893D01*
X114350026Y-58265340D01*
X114350000Y-58222404D01*
X114351299Y-58055783D01*
X114356494Y-57950014D01*
X114367533Y-57893403D01*
X114386361Y-57874257D01*
X114407397Y-57877689D01*
X114490356Y-57897678D01*
X114517903Y-57899714D01*
X114578104Y-57923731D01*
X114653364Y-57982210D01*
X114660078Y-57988779D01*
X114738637Y-58111442D01*
X114749073Y-58247008D01*
X115272429Y-58247008D01*
X115262317Y-57948752D01*
X115196947Y-57665437D01*
X115077497Y-57430318D01*
X114960966Y-57293768D01*
X114829441Y-57187688D01*
X114684668Y-57115913D01*
X114511325Y-57074274D01*
X114294087Y-57058602D01*
X114105072Y-57060943D01*
X114105072Y-57060943D01*
G37*
X114105072Y-57060943D02*
X113987143Y-57065143D01*
X113987143Y-58625429D01*
X113883179Y-58625429D01*
X113778377Y-58602665D01*
X113688211Y-58553844D01*
X113570614Y-58419713D01*
X113502290Y-58239672D01*
X113482908Y-58011348D01*
X113512138Y-57732369D01*
X113549131Y-57555158D01*
X113580070Y-57420788D01*
X113601639Y-57317146D01*
X113610365Y-57261325D01*
X113609862Y-57256338D01*
X113572715Y-57257922D01*
X113484559Y-57270150D01*
X113365557Y-57289466D01*
X113235868Y-57312315D01*
X113115654Y-57335140D01*
X113025076Y-57354386D01*
X112984293Y-57366497D01*
X112984047Y-57366715D01*
X112963279Y-57420536D01*
X112942742Y-57530732D01*
X112924369Y-57681126D01*
X112910090Y-57855542D01*
X112901837Y-58037804D01*
X112901342Y-58059520D01*
X112908468Y-58372822D01*
X112941684Y-58650671D01*
X112998978Y-58880042D01*
X113045347Y-58991485D01*
X113158047Y-59149468D01*
X113318182Y-59293630D01*
X113500894Y-59403824D01*
X113602073Y-59442675D01*
X113814317Y-59482896D01*
X114055729Y-59492970D01*
X114293660Y-59473413D01*
X114484263Y-59428718D01*
X114749543Y-59306670D01*
X114958727Y-59141858D01*
X115113674Y-58931576D01*
X115216244Y-58673118D01*
X115268296Y-58363778D01*
X115273550Y-58280081D01*
X115272429Y-58247008D01*
X114749073Y-58247008D01*
X114692109Y-58385426D01*
X114625772Y-58465771D01*
X114536910Y-58539450D01*
X114454400Y-58583561D01*
X114426200Y-58589143D01*
X114391713Y-58584937D01*
X114369578Y-58563572D01*
X114357069Y-58511931D01*
X114351461Y-58416893D01*
X114350026Y-58265340D01*
X114350000Y-58222404D01*
X114351299Y-58055783D01*
X114356494Y-57950014D01*
X114367533Y-57893403D01*
X114386361Y-57874257D01*
X114407397Y-57877689D01*
X114490356Y-57897678D01*
X114517903Y-57899714D01*
X114578104Y-57923731D01*
X114653364Y-57982210D01*
X114660078Y-57988779D01*
X114738637Y-58111442D01*
X114749073Y-58247008D01*
X115272429Y-58247008D01*
X115262317Y-57948752D01*
X115196947Y-57665437D01*
X115077497Y-57430318D01*
X114960966Y-57293768D01*
X114829441Y-57187688D01*
X114684668Y-57115913D01*
X114511325Y-57074274D01*
X114294087Y-57058602D01*
X114105072Y-57060943D01*
G36*
X115765225Y-59853049D02*
G01*
X115511143Y-59865098D01*
X115511143Y-60730000D01*
X115765143Y-60730000D01*
X115913376Y-60725063D01*
X115996217Y-60709475D01*
X116020315Y-60684643D01*
X116021332Y-60611761D01*
X116022139Y-60492300D01*
X116022698Y-60346216D01*
X116022975Y-60193468D01*
X116022931Y-60054013D01*
X116022531Y-59947807D01*
X116021766Y-59895429D01*
X116007186Y-59866742D01*
X115957377Y-59852263D01*
X115858284Y-59849672D01*
X115765225Y-59853049D01*
X115765225Y-59853049D01*
G37*
X115765225Y-59853049D02*
X115511143Y-59865098D01*
X115511143Y-60730000D01*
X115765143Y-60730000D01*
X115913376Y-60725063D01*
X115996217Y-60709475D01*
X116020315Y-60684643D01*
X116021332Y-60611761D01*
X116022139Y-60492300D01*
X116022698Y-60346216D01*
X116022975Y-60193468D01*
X116022931Y-60054013D01*
X116022531Y-59947807D01*
X116021766Y-59895429D01*
X116007186Y-59866742D01*
X115957377Y-59852263D01*
X115858284Y-59849672D01*
X115765225Y-59853049D01*
G36*
X114885215Y-59872447D02*
G01*
X114743765Y-59880697D01*
X114547181Y-59890002D01*
X114312875Y-59899649D01*
X114058263Y-59908928D01*
X113800760Y-59917127D01*
X113769429Y-59918035D01*
X113539963Y-59924809D01*
X113336727Y-59931199D01*
X113170286Y-59936839D01*
X113051201Y-59941366D01*
X112990035Y-59944414D01*
X112984168Y-59945116D01*
X112981168Y-59980976D01*
X112976630Y-60075595D01*
X112971138Y-60215188D01*
X112965272Y-60385974D01*
X112964425Y-60412500D01*
X112949801Y-60875143D01*
X113063282Y-60875143D01*
X113147627Y-60870294D01*
X113193289Y-60858600D01*
X113193596Y-60858309D01*
X113233883Y-60851016D01*
X113333622Y-60842148D01*
X113479737Y-60832618D01*
X113659152Y-60823340D01*
X113753001Y-60819254D01*
X113961284Y-60810356D01*
X114159552Y-60801226D01*
X114329004Y-60792775D01*
X114450838Y-60785914D01*
X114477000Y-60784181D01*
X114607245Y-60777348D01*
X114773852Y-60771820D01*
X114939643Y-60768807D01*
X115220857Y-60766286D01*
X115220857Y-59849200D01*
X114885215Y-59872447D01*
X114885215Y-59872447D01*
G37*
X114885215Y-59872447D02*
X114743765Y-59880697D01*
X114547181Y-59890002D01*
X114312875Y-59899649D01*
X114058263Y-59908928D01*
X113800760Y-59917127D01*
X113769429Y-59918035D01*
X113539963Y-59924809D01*
X113336727Y-59931199D01*
X113170286Y-59936839D01*
X113051201Y-59941366D01*
X112990035Y-59944414D01*
X112984168Y-59945116D01*
X112981168Y-59980976D01*
X112976630Y-60075595D01*
X112971138Y-60215188D01*
X112965272Y-60385974D01*
X112964425Y-60412500D01*
X112949801Y-60875143D01*
X113063282Y-60875143D01*
X113147627Y-60870294D01*
X113193289Y-60858600D01*
X113193596Y-60858309D01*
X113233883Y-60851016D01*
X113333622Y-60842148D01*
X113479737Y-60832618D01*
X113659152Y-60823340D01*
X113753001Y-60819254D01*
X113961284Y-60810356D01*
X114159552Y-60801226D01*
X114329004Y-60792775D01*
X114450838Y-60785914D01*
X114477000Y-60784181D01*
X114607245Y-60777348D01*
X114773852Y-60771820D01*
X114939643Y-60768807D01*
X115220857Y-60766286D01*
X115220857Y-59849200D01*
X114885215Y-59872447D01*
G36*
X114081173Y-61210545D02*
G01*
X113762191Y-61256703D01*
X113486667Y-61352578D01*
X113258860Y-61494343D01*
X113083029Y-61678172D01*
X112963434Y-61900238D01*
X112904331Y-62156713D01*
X112898572Y-62273192D01*
X112920667Y-62504341D01*
X112992421Y-62700854D01*
X113086195Y-62843643D01*
X113145965Y-62930403D01*
X113151656Y-62975310D01*
X113101384Y-62986935D01*
X113055522Y-62983051D01*
X113016262Y-62990002D01*
X112989452Y-63028925D01*
X112973117Y-63109840D01*
X112965277Y-63242765D01*
X112963955Y-63437719D01*
X112964008Y-63446617D01*
X112964392Y-63617104D01*
X112970854Y-63732285D01*
X112995137Y-63801507D01*
X113048984Y-63834118D01*
X113144138Y-63839464D01*
X113292341Y-63826893D01*
X113424715Y-63813341D01*
X113568473Y-63801194D01*
X113762313Y-63787608D01*
X113983803Y-63774019D01*
X114210510Y-63761866D01*
X114277429Y-63758658D01*
X114475446Y-63748950D01*
X114650206Y-63739422D01*
X114787745Y-63730909D01*
X114874102Y-63724245D01*
X114894286Y-63721761D01*
X114948835Y-63717688D01*
X115061217Y-63713910D01*
X115216695Y-63710777D01*
X115400532Y-63708638D01*
X115465786Y-63708205D01*
X115982857Y-63705429D01*
X115982857Y-62789617D01*
X115598225Y-62815834D01*
X115213593Y-62842050D01*
X115239231Y-62761274D01*
X115250455Y-62690596D01*
X115257843Y-62587841D01*
X114639790Y-62587841D01*
X114635300Y-62739417D01*
X114614986Y-62833278D01*
X114566815Y-62884184D01*
X114478756Y-62906891D01*
X114373409Y-62914582D01*
X114089155Y-62914527D01*
X113870072Y-62883836D01*
X113715488Y-62822382D01*
X113663723Y-62781645D01*
X113597069Y-62691812D01*
X113571532Y-62581839D01*
X113569857Y-62529128D01*
X113601188Y-62366105D01*
X113692410Y-62240309D01*
X113839364Y-62154845D01*
X114037894Y-62112815D01*
X114132922Y-62108857D01*
X114336989Y-62134559D01*
X114489642Y-62210978D01*
X114589794Y-62337090D01*
X114636358Y-62511866D01*
X114639790Y-62587841D01*
X115257843Y-62587841D01*
X115259260Y-62568140D01*
X115264397Y-62414693D01*
X115265202Y-62329517D01*
X115251273Y-62059674D01*
X115205204Y-61842487D01*
X115121434Y-61663083D01*
X114994404Y-61506589D01*
X114937750Y-61453643D01*
X114748085Y-61321439D01*
X114532258Y-61240620D01*
X114277886Y-61207673D01*
X114081173Y-61210545D01*
X114081173Y-61210545D01*
G37*
X114081173Y-61210545D02*
X113762191Y-61256703D01*
X113486667Y-61352578D01*
X113258860Y-61494343D01*
X113083029Y-61678172D01*
X112963434Y-61900238D01*
X112904331Y-62156713D01*
X112898572Y-62273192D01*
X112920667Y-62504341D01*
X112992421Y-62700854D01*
X113086195Y-62843643D01*
X113145965Y-62930403D01*
X113151656Y-62975310D01*
X113101384Y-62986935D01*
X113055522Y-62983051D01*
X113016262Y-62990002D01*
X112989452Y-63028925D01*
X112973117Y-63109840D01*
X112965277Y-63242765D01*
X112963955Y-63437719D01*
X112964008Y-63446617D01*
X112964392Y-63617104D01*
X112970854Y-63732285D01*
X112995137Y-63801507D01*
X113048984Y-63834118D01*
X113144138Y-63839464D01*
X113292341Y-63826893D01*
X113424715Y-63813341D01*
X113568473Y-63801194D01*
X113762313Y-63787608D01*
X113983803Y-63774019D01*
X114210510Y-63761866D01*
X114277429Y-63758658D01*
X114475446Y-63748950D01*
X114650206Y-63739422D01*
X114787745Y-63730909D01*
X114874102Y-63724245D01*
X114894286Y-63721761D01*
X114948835Y-63717688D01*
X115061217Y-63713910D01*
X115216695Y-63710777D01*
X115400532Y-63708638D01*
X115465786Y-63708205D01*
X115982857Y-63705429D01*
X115982857Y-62789617D01*
X115598225Y-62815834D01*
X115213593Y-62842050D01*
X115239231Y-62761274D01*
X115250455Y-62690596D01*
X115257843Y-62587841D01*
X114639790Y-62587841D01*
X114635300Y-62739417D01*
X114614986Y-62833278D01*
X114566815Y-62884184D01*
X114478756Y-62906891D01*
X114373409Y-62914582D01*
X114089155Y-62914527D01*
X113870072Y-62883836D01*
X113715488Y-62822382D01*
X113663723Y-62781645D01*
X113597069Y-62691812D01*
X113571532Y-62581839D01*
X113569857Y-62529128D01*
X113601188Y-62366105D01*
X113692410Y-62240309D01*
X113839364Y-62154845D01*
X114037894Y-62112815D01*
X114132922Y-62108857D01*
X114336989Y-62134559D01*
X114489642Y-62210978D01*
X114589794Y-62337090D01*
X114636358Y-62511866D01*
X114639790Y-62587841D01*
X115257843Y-62587841D01*
X115259260Y-62568140D01*
X115264397Y-62414693D01*
X115265202Y-62329517D01*
X115251273Y-62059674D01*
X115205204Y-61842487D01*
X115121434Y-61663083D01*
X114994404Y-61506589D01*
X114937750Y-61453643D01*
X114748085Y-61321439D01*
X114532258Y-61240620D01*
X114277886Y-61207673D01*
X114081173Y-61210545D01*
G36*
X112508500Y-64017104D02*
G01*
X112390575Y-64022622D01*
X112303405Y-64027172D01*
X112272643Y-64029207D01*
X112265930Y-64064746D01*
X112259819Y-64164101D01*
X112254521Y-64318519D01*
X112250247Y-64519246D01*
X112247209Y-64757527D01*
X112245617Y-65024610D01*
X112245429Y-65156857D01*
X112245429Y-66281714D01*
X112717143Y-66281714D01*
X112717143Y-64007794D01*
X112508500Y-64017104D01*
X112508500Y-64017104D01*
G37*
X112508500Y-64017104D02*
X112390575Y-64022622D01*
X112303405Y-64027172D01*
X112272643Y-64029207D01*
X112265930Y-64064746D01*
X112259819Y-64164101D01*
X112254521Y-64318519D01*
X112250247Y-64519246D01*
X112247209Y-64757527D01*
X112245617Y-65024610D01*
X112245429Y-65156857D01*
X112245429Y-66281714D01*
X112717143Y-66281714D01*
X112717143Y-64007794D01*
X112508500Y-64017104D01*
G36*
X114734058Y-66394692D02*
G01*
X114638803Y-66407789D01*
X114601353Y-66430970D01*
X114600224Y-66435929D01*
X114597352Y-66494843D01*
X114593810Y-66600590D01*
X114591153Y-66699000D01*
X114585857Y-66916714D01*
X114137859Y-66928243D01*
X113945725Y-66931949D01*
X113812180Y-66930462D01*
X113723339Y-66922334D01*
X113665317Y-66906114D01*
X113624228Y-66880352D01*
X113616695Y-66873815D01*
X113574589Y-66823907D01*
X113557185Y-66759148D01*
X113559782Y-66655477D01*
X113564462Y-66606358D01*
X113585394Y-66404859D01*
X113279849Y-66458142D01*
X113102046Y-66495198D01*
X112993251Y-66532706D01*
X112950931Y-66568926D01*
X112939593Y-66627795D01*
X112927537Y-66741049D01*
X112916451Y-66890544D01*
X112910153Y-67007429D01*
X112903635Y-67183711D01*
X112904792Y-67307043D01*
X112916022Y-67396852D01*
X112939722Y-67472566D01*
X112977304Y-67551714D01*
X113038398Y-67656294D01*
X113105332Y-67732881D01*
X113189619Y-67785012D01*
X113302769Y-67816224D01*
X113456295Y-67830053D01*
X113661710Y-67830036D01*
X113860143Y-67822915D01*
X114058753Y-67814083D01*
X114237715Y-67805916D01*
X114381565Y-67799133D01*
X114474840Y-67794456D01*
X114495143Y-67793298D01*
X114551196Y-67796318D01*
X114578437Y-67827232D01*
X114588080Y-67904769D01*
X114589474Y-67950857D01*
X114593091Y-68114143D01*
X114734617Y-68114336D01*
X114869244Y-68111529D01*
X115012914Y-68104400D01*
X115030357Y-68103178D01*
X115184572Y-68091827D01*
X115184572Y-67912485D01*
X115189330Y-67802511D01*
X115207542Y-67747910D01*
X115245113Y-67731874D01*
X115248072Y-67731772D01*
X115353905Y-67724055D01*
X115468544Y-67707923D01*
X115566075Y-67687904D01*
X115620586Y-67668523D01*
X115623186Y-67666259D01*
X115637771Y-67624938D01*
X115662894Y-67530873D01*
X115694351Y-67402380D01*
X115727941Y-67257774D01*
X115759462Y-67115371D01*
X115784711Y-66993486D01*
X115799487Y-66910434D01*
X115801634Y-66888498D01*
X115768170Y-66878237D01*
X115679022Y-66875079D01*
X115550757Y-66879314D01*
X115493000Y-66883084D01*
X115184572Y-66905888D01*
X115184572Y-66390571D01*
X114894286Y-66390571D01*
X114734058Y-66394692D01*
X114734058Y-66394692D01*
G37*
X114734058Y-66394692D02*
X114638803Y-66407789D01*
X114601353Y-66430970D01*
X114600224Y-66435929D01*
X114597352Y-66494843D01*
X114593810Y-66600590D01*
X114591153Y-66699000D01*
X114585857Y-66916714D01*
X114137859Y-66928243D01*
X113945725Y-66931949D01*
X113812180Y-66930462D01*
X113723339Y-66922334D01*
X113665317Y-66906114D01*
X113624228Y-66880352D01*
X113616695Y-66873815D01*
X113574589Y-66823907D01*
X113557185Y-66759148D01*
X113559782Y-66655477D01*
X113564462Y-66606358D01*
X113585394Y-66404859D01*
X113279849Y-66458142D01*
X113102046Y-66495198D01*
X112993251Y-66532706D01*
X112950931Y-66568926D01*
X112939593Y-66627795D01*
X112927537Y-66741049D01*
X112916451Y-66890544D01*
X112910153Y-67007429D01*
X112903635Y-67183711D01*
X112904792Y-67307043D01*
X112916022Y-67396852D01*
X112939722Y-67472566D01*
X112977304Y-67551714D01*
X113038398Y-67656294D01*
X113105332Y-67732881D01*
X113189619Y-67785012D01*
X113302769Y-67816224D01*
X113456295Y-67830053D01*
X113661710Y-67830036D01*
X113860143Y-67822915D01*
X114058753Y-67814083D01*
X114237715Y-67805916D01*
X114381565Y-67799133D01*
X114474840Y-67794456D01*
X114495143Y-67793298D01*
X114551196Y-67796318D01*
X114578437Y-67827232D01*
X114588080Y-67904769D01*
X114589474Y-67950857D01*
X114593091Y-68114143D01*
X114734617Y-68114336D01*
X114869244Y-68111529D01*
X115012914Y-68104400D01*
X115030357Y-68103178D01*
X115184572Y-68091827D01*
X115184572Y-67912485D01*
X115189330Y-67802511D01*
X115207542Y-67747910D01*
X115245113Y-67731874D01*
X115248072Y-67731772D01*
X115353905Y-67724055D01*
X115468544Y-67707923D01*
X115566075Y-67687904D01*
X115620586Y-67668523D01*
X115623186Y-67666259D01*
X115637771Y-67624938D01*
X115662894Y-67530873D01*
X115694351Y-67402380D01*
X115727941Y-67257774D01*
X115759462Y-67115371D01*
X115784711Y-66993486D01*
X115799487Y-66910434D01*
X115801634Y-66888498D01*
X115768170Y-66878237D01*
X115679022Y-66875079D01*
X115550757Y-66879314D01*
X115493000Y-66883084D01*
X115184572Y-66905888D01*
X115184572Y-66390571D01*
X114894286Y-66390571D01*
X114734058Y-66394692D01*
G36*
X115785889Y-68379159D02*
G01*
X115649332Y-68388045D01*
X115612203Y-68391104D01*
X115470158Y-68401670D01*
X115277196Y-68413741D01*
X115054920Y-68426077D01*
X114824932Y-68437438D01*
X114735442Y-68441438D01*
X114528120Y-68450882D01*
X114338802Y-68460410D01*
X114182758Y-68469186D01*
X114075259Y-68476375D01*
X114041572Y-68479441D01*
X113963897Y-68484842D01*
X113831839Y-68490243D01*
X113663583Y-68495030D01*
X113477314Y-68498591D01*
X113469094Y-68498709D01*
X113292853Y-68503693D01*
X113144000Y-68512626D01*
X113036960Y-68524300D01*
X112986160Y-68537506D01*
X112984420Y-68539302D01*
X112976117Y-68587241D01*
X112969351Y-68691966D01*
X112964851Y-68837691D01*
X112963335Y-68996897D01*
X112963303Y-69420429D01*
X113057308Y-69424082D01*
X113131324Y-69423245D01*
X113161837Y-69417211D01*
X113199872Y-69411822D01*
X113297076Y-69404253D01*
X113440110Y-69395382D01*
X113615638Y-69386092D01*
X113679537Y-69383032D01*
X113871515Y-69373406D01*
X114043784Y-69363528D01*
X114180150Y-69354417D01*
X114264417Y-69347088D01*
X114275800Y-69345599D01*
X114337219Y-69340487D01*
X114459335Y-69333882D01*
X114630300Y-69326294D01*
X114838268Y-69318230D01*
X115071391Y-69310202D01*
X115173871Y-69306966D01*
X115982857Y-69282111D01*
X115982857Y-68837222D01*
X115979617Y-68624994D01*
X115970096Y-68476248D01*
X115954591Y-68394452D01*
X115943405Y-68379182D01*
X115890650Y-68375962D01*
X115785889Y-68379159D01*
X115785889Y-68379159D01*
G37*
X115785889Y-68379159D02*
X115649332Y-68388045D01*
X115612203Y-68391104D01*
X115470158Y-68401670D01*
X115277196Y-68413741D01*
X115054920Y-68426077D01*
X114824932Y-68437438D01*
X114735442Y-68441438D01*
X114528120Y-68450882D01*
X114338802Y-68460410D01*
X114182758Y-68469186D01*
X114075259Y-68476375D01*
X114041572Y-68479441D01*
X113963897Y-68484842D01*
X113831839Y-68490243D01*
X113663583Y-68495030D01*
X113477314Y-68498591D01*
X113469094Y-68498709D01*
X113292853Y-68503693D01*
X113144000Y-68512626D01*
X113036960Y-68524300D01*
X112986160Y-68537506D01*
X112984420Y-68539302D01*
X112976117Y-68587241D01*
X112969351Y-68691966D01*
X112964851Y-68837691D01*
X112963335Y-68996897D01*
X112963303Y-69420429D01*
X113057308Y-69424082D01*
X113131324Y-69423245D01*
X113161837Y-69417211D01*
X113199872Y-69411822D01*
X113297076Y-69404253D01*
X113440110Y-69395382D01*
X113615638Y-69386092D01*
X113679537Y-69383032D01*
X113871515Y-69373406D01*
X114043784Y-69363528D01*
X114180150Y-69354417D01*
X114264417Y-69347088D01*
X114275800Y-69345599D01*
X114337219Y-69340487D01*
X114459335Y-69333882D01*
X114630300Y-69326294D01*
X114838268Y-69318230D01*
X115071391Y-69310202D01*
X115173871Y-69306966D01*
X115982857Y-69282111D01*
X115982857Y-68837222D01*
X115979617Y-68624994D01*
X115970096Y-68476248D01*
X115954591Y-68394452D01*
X115943405Y-68379182D01*
X115890650Y-68375962D01*
X115785889Y-68379159D01*
G36*
X114454526Y-69849974D02*
G01*
X114316494Y-69856935D01*
X114141794Y-69867514D01*
X113994514Y-69878009D01*
X113889181Y-69887271D01*
X113840321Y-69894152D01*
X113839084Y-69894674D01*
X113796529Y-69900227D01*
X113696588Y-69906130D01*
X113554435Y-69911660D01*
X113394584Y-69915897D01*
X113209751Y-69921245D01*
X113086120Y-69929196D01*
X113012328Y-69941488D01*
X112977011Y-69959861D01*
X112968773Y-69981060D01*
X112967871Y-70039386D01*
X112967317Y-70152196D01*
X112967171Y-70301405D01*
X112967343Y-70418286D01*
X112968910Y-70588860D01*
X112974025Y-70699245D01*
X112984824Y-70761806D01*
X113003445Y-70788912D01*
X113032023Y-70792929D01*
X113032072Y-70792924D01*
X113092408Y-70788308D01*
X113207991Y-70780586D01*
X113361620Y-70770874D01*
X113518423Y-70761342D01*
X113940985Y-70736122D01*
X113854006Y-71003561D01*
X113799972Y-71146163D01*
X113739005Y-71271617D01*
X113683536Y-71354638D01*
X113679178Y-71359226D01*
X113610642Y-71416783D01*
X113552319Y-71424879D01*
X113498950Y-71405361D01*
X113443569Y-71370416D01*
X113412208Y-71317024D01*
X113400066Y-71228042D01*
X113402342Y-71086326D01*
X113403397Y-71064150D01*
X113410047Y-70929871D01*
X113181524Y-71006355D01*
X113060632Y-71051186D01*
X112968308Y-71093507D01*
X112926342Y-71122491D01*
X112909955Y-71185318D01*
X112901472Y-71298426D01*
X112900570Y-71439993D01*
X112906925Y-71588198D01*
X112920215Y-71721217D01*
X112936454Y-71805088D01*
X113011550Y-71969686D01*
X113130801Y-72117376D01*
X113262281Y-72214869D01*
X113458232Y-72280875D01*
X113655807Y-72275252D01*
X113832742Y-72212246D01*
X113961840Y-72133634D01*
X114067886Y-72032967D01*
X114156495Y-71899978D01*
X114233280Y-71724398D01*
X114303854Y-71495959D01*
X114367137Y-71234714D01*
X114401396Y-71091820D01*
X114436242Y-70964311D01*
X114463287Y-70882135D01*
X114528246Y-70788289D01*
X114614108Y-70757691D01*
X114707134Y-70794471D01*
X114719786Y-70805087D01*
X114757785Y-70847588D01*
X114777795Y-70901645D01*
X114782962Y-70986609D01*
X114776434Y-71121832D01*
X114774899Y-71144000D01*
X114752628Y-71320737D01*
X114712777Y-71521387D01*
X114664543Y-71700581D01*
X114573375Y-71985018D01*
X114652188Y-71965681D01*
X114733254Y-71949883D01*
X114852578Y-71931044D01*
X114924318Y-71921123D01*
X115016768Y-71906526D01*
X115083103Y-71883078D01*
X115129779Y-71839158D01*
X115163254Y-71763145D01*
X115189986Y-71643419D01*
X115216432Y-71468359D01*
X115229491Y-71371927D01*
X115266806Y-70981315D01*
X115267048Y-70645656D01*
X115230588Y-70366652D01*
X115157797Y-70146003D01*
X115049048Y-69985412D01*
X114905342Y-69886843D01*
X114832685Y-69863140D01*
X114743551Y-69849613D01*
X114622609Y-69845484D01*
X114454526Y-69849974D01*
X114454526Y-69849974D01*
G37*
X114454526Y-69849974D02*
X114316494Y-69856935D01*
X114141794Y-69867514D01*
X113994514Y-69878009D01*
X113889181Y-69887271D01*
X113840321Y-69894152D01*
X113839084Y-69894674D01*
X113796529Y-69900227D01*
X113696588Y-69906130D01*
X113554435Y-69911660D01*
X113394584Y-69915897D01*
X113209751Y-69921245D01*
X113086120Y-69929196D01*
X113012328Y-69941488D01*
X112977011Y-69959861D01*
X112968773Y-69981060D01*
X112967871Y-70039386D01*
X112967317Y-70152196D01*
X112967171Y-70301405D01*
X112967343Y-70418286D01*
X112968910Y-70588860D01*
X112974025Y-70699245D01*
X112984824Y-70761806D01*
X113003445Y-70788912D01*
X113032023Y-70792929D01*
X113032072Y-70792924D01*
X113092408Y-70788308D01*
X113207991Y-70780586D01*
X113361620Y-70770874D01*
X113518423Y-70761342D01*
X113940985Y-70736122D01*
X113854006Y-71003561D01*
X113799972Y-71146163D01*
X113739005Y-71271617D01*
X113683536Y-71354638D01*
X113679178Y-71359226D01*
X113610642Y-71416783D01*
X113552319Y-71424879D01*
X113498950Y-71405361D01*
X113443569Y-71370416D01*
X113412208Y-71317024D01*
X113400066Y-71228042D01*
X113402342Y-71086326D01*
X113403397Y-71064150D01*
X113410047Y-70929871D01*
X113181524Y-71006355D01*
X113060632Y-71051186D01*
X112968308Y-71093507D01*
X112926342Y-71122491D01*
X112909955Y-71185318D01*
X112901472Y-71298426D01*
X112900570Y-71439993D01*
X112906925Y-71588198D01*
X112920215Y-71721217D01*
X112936454Y-71805088D01*
X113011550Y-71969686D01*
X113130801Y-72117376D01*
X113262281Y-72214869D01*
X113458232Y-72280875D01*
X113655807Y-72275252D01*
X113832742Y-72212246D01*
X113961840Y-72133634D01*
X114067886Y-72032967D01*
X114156495Y-71899978D01*
X114233280Y-71724398D01*
X114303854Y-71495959D01*
X114367137Y-71234714D01*
X114401396Y-71091820D01*
X114436242Y-70964311D01*
X114463287Y-70882135D01*
X114528246Y-70788289D01*
X114614108Y-70757691D01*
X114707134Y-70794471D01*
X114719786Y-70805087D01*
X114757785Y-70847588D01*
X114777795Y-70901645D01*
X114782962Y-70986609D01*
X114776434Y-71121832D01*
X114774899Y-71144000D01*
X114752628Y-71320737D01*
X114712777Y-71521387D01*
X114664543Y-71700581D01*
X114573375Y-71985018D01*
X114652188Y-71965681D01*
X114733254Y-71949883D01*
X114852578Y-71931044D01*
X114924318Y-71921123D01*
X115016768Y-71906526D01*
X115083103Y-71883078D01*
X115129779Y-71839158D01*
X115163254Y-71763145D01*
X115189986Y-71643419D01*
X115216432Y-71468359D01*
X115229491Y-71371927D01*
X115266806Y-70981315D01*
X115267048Y-70645656D01*
X115230588Y-70366652D01*
X115157797Y-70146003D01*
X115049048Y-69985412D01*
X114905342Y-69886843D01*
X114832685Y-69863140D01*
X114743551Y-69849613D01*
X114622609Y-69845484D01*
X114454526Y-69849974D01*
G36*
X114720430Y-72581332D02*
G01*
X114607279Y-72594801D01*
X114506810Y-72626705D01*
X114389144Y-72684089D01*
X114356030Y-72701891D01*
X114110022Y-72874411D01*
X113917462Y-73093271D01*
X113783275Y-73351350D01*
X113713796Y-73630492D01*
X113707897Y-73793936D01*
X113729208Y-73950490D01*
X113772784Y-74079105D01*
X113833680Y-74158731D01*
X113838654Y-74162045D01*
X113877589Y-74192595D01*
X113879933Y-74228880D01*
X113843235Y-74293552D01*
X113820808Y-74326945D01*
X113740737Y-74498042D01*
X113707310Y-74690651D01*
X113725340Y-74873741D01*
X113732377Y-74897251D01*
X113816623Y-75048852D01*
X113946956Y-75155924D01*
X114111722Y-75217902D01*
X114299267Y-75234220D01*
X114497938Y-75204313D01*
X114696082Y-75127615D01*
X114882046Y-75003559D01*
X114935147Y-74955642D01*
X115050549Y-74825776D01*
X115132726Y-74685198D01*
X115185262Y-74520526D01*
X115211739Y-74318377D01*
X115213209Y-74225413D01*
X114785429Y-74225413D01*
X114767843Y-74342677D01*
X114728652Y-74450541D01*
X114646608Y-74549677D01*
X114529750Y-74620651D01*
X114399567Y-74657243D01*
X114277546Y-74653231D01*
X114189306Y-74606694D01*
X114136419Y-74509316D01*
X114143465Y-74398592D01*
X114204954Y-74292580D01*
X114309116Y-74212521D01*
X114406640Y-74176259D01*
X114536552Y-74144962D01*
X114598326Y-74134899D01*
X114785429Y-74110079D01*
X114785429Y-74225413D01*
X115213209Y-74225413D01*
X115215742Y-74065371D01*
X115210910Y-73925770D01*
X115200642Y-73754805D01*
X115187477Y-73610340D01*
X115173133Y-73507856D01*
X115159662Y-73463148D01*
X115112299Y-73456513D01*
X115009810Y-73464738D01*
X114867733Y-73486155D01*
X114766356Y-73505373D01*
X114531100Y-73549950D01*
X114358803Y-73573426D01*
X114242619Y-73574545D01*
X114175703Y-73552050D01*
X114151209Y-73504687D01*
X114162290Y-73431198D01*
X114174184Y-73396743D01*
X114271713Y-73235381D01*
X114419434Y-73109688D01*
X114601845Y-73024504D01*
X114803441Y-72984670D01*
X115008717Y-72995025D01*
X115202169Y-73060410D01*
X115220275Y-73070167D01*
X115371153Y-73194236D01*
X115491392Y-73373234D01*
X115579308Y-73595546D01*
X115633217Y-73849556D01*
X115651436Y-74123649D01*
X115632282Y-74406210D01*
X115574070Y-74685622D01*
X115488565Y-74921089D01*
X115362939Y-75130455D01*
X115187671Y-75326827D01*
X114983274Y-75490784D01*
X114770261Y-75602906D01*
X114767180Y-75604066D01*
X114557397Y-75657640D01*
X114320015Y-75679145D01*
X114088497Y-75667213D01*
X113945721Y-75637603D01*
X113772334Y-75553768D01*
X113605819Y-75416087D01*
X113465626Y-75242185D01*
X113417207Y-75158574D01*
X113371742Y-75058999D01*
X113341360Y-74958967D01*
X113321978Y-74837498D01*
X113309511Y-74673616D01*
X113305190Y-74583277D01*
X113302271Y-74308818D01*
X113321862Y-74082637D01*
X113367093Y-73883077D01*
X113431216Y-73710844D01*
X113464894Y-73623033D01*
X113477551Y-73568128D01*
X113475749Y-73561279D01*
X113434130Y-73548725D01*
X113345592Y-73531951D01*
X113293739Y-73523905D01*
X113126478Y-73499653D01*
X113052798Y-73673470D01*
X112957323Y-73973207D01*
X112906808Y-74302518D01*
X112900784Y-74642452D01*
X112938779Y-74974056D01*
X113020324Y-75278381D01*
X113097002Y-75453624D01*
X113187992Y-75610752D01*
X113281984Y-75729009D01*
X113404335Y-75838563D01*
X113450817Y-75874589D01*
X113656613Y-75990993D01*
X113906875Y-76069639D01*
X114182462Y-76107703D01*
X114464231Y-76102361D01*
X114702897Y-76059298D01*
X115041165Y-75932832D01*
X115336711Y-75749664D01*
X115585087Y-75514747D01*
X115781846Y-75233036D01*
X115922542Y-74909486D01*
X115991823Y-74623369D01*
X116016210Y-74397068D01*
X116022528Y-74142289D01*
X116012072Y-73880574D01*
X115986134Y-73633464D01*
X115946011Y-73422501D01*
X115913258Y-73315806D01*
X115792294Y-73084632D01*
X115621383Y-72877525D01*
X115418812Y-72715300D01*
X115352333Y-72677320D01*
X115236803Y-72624858D01*
X115125276Y-72594986D01*
X114988809Y-72581745D01*
X114876143Y-72579252D01*
X114720430Y-72581332D01*
X114720430Y-72581332D01*
G37*
X114720430Y-72581332D02*
X114607279Y-72594801D01*
X114506810Y-72626705D01*
X114389144Y-72684089D01*
X114356030Y-72701891D01*
X114110022Y-72874411D01*
X113917462Y-73093271D01*
X113783275Y-73351350D01*
X113713796Y-73630492D01*
X113707897Y-73793936D01*
X113729208Y-73950490D01*
X113772784Y-74079105D01*
X113833680Y-74158731D01*
X113838654Y-74162045D01*
X113877589Y-74192595D01*
X113879933Y-74228880D01*
X113843235Y-74293552D01*
X113820808Y-74326945D01*
X113740737Y-74498042D01*
X113707310Y-74690651D01*
X113725340Y-74873741D01*
X113732377Y-74897251D01*
X113816623Y-75048852D01*
X113946956Y-75155924D01*
X114111722Y-75217902D01*
X114299267Y-75234220D01*
X114497938Y-75204313D01*
X114696082Y-75127615D01*
X114882046Y-75003559D01*
X114935147Y-74955642D01*
X115050549Y-74825776D01*
X115132726Y-74685198D01*
X115185262Y-74520526D01*
X115211739Y-74318377D01*
X115213209Y-74225413D01*
X114785429Y-74225413D01*
X114767843Y-74342677D01*
X114728652Y-74450541D01*
X114646608Y-74549677D01*
X114529750Y-74620651D01*
X114399567Y-74657243D01*
X114277546Y-74653231D01*
X114189306Y-74606694D01*
X114136419Y-74509316D01*
X114143465Y-74398592D01*
X114204954Y-74292580D01*
X114309116Y-74212521D01*
X114406640Y-74176259D01*
X114536552Y-74144962D01*
X114598326Y-74134899D01*
X114785429Y-74110079D01*
X114785429Y-74225413D01*
X115213209Y-74225413D01*
X115215742Y-74065371D01*
X115210910Y-73925770D01*
X115200642Y-73754805D01*
X115187477Y-73610340D01*
X115173133Y-73507856D01*
X115159662Y-73463148D01*
X115112299Y-73456513D01*
X115009810Y-73464738D01*
X114867733Y-73486155D01*
X114766356Y-73505373D01*
X114531100Y-73549950D01*
X114358803Y-73573426D01*
X114242619Y-73574545D01*
X114175703Y-73552050D01*
X114151209Y-73504687D01*
X114162290Y-73431198D01*
X114174184Y-73396743D01*
X114271713Y-73235381D01*
X114419434Y-73109688D01*
X114601845Y-73024504D01*
X114803441Y-72984670D01*
X115008717Y-72995025D01*
X115202169Y-73060410D01*
X115220275Y-73070167D01*
X115371153Y-73194236D01*
X115491392Y-73373234D01*
X115579308Y-73595546D01*
X115633217Y-73849556D01*
X115651436Y-74123649D01*
X115632282Y-74406210D01*
X115574070Y-74685622D01*
X115488565Y-74921089D01*
X115362939Y-75130455D01*
X115187671Y-75326827D01*
X114983274Y-75490784D01*
X114770261Y-75602906D01*
X114767180Y-75604066D01*
X114557397Y-75657640D01*
X114320015Y-75679145D01*
X114088497Y-75667213D01*
X113945721Y-75637603D01*
X113772334Y-75553768D01*
X113605819Y-75416087D01*
X113465626Y-75242185D01*
X113417207Y-75158574D01*
X113371742Y-75058999D01*
X113341360Y-74958967D01*
X113321978Y-74837498D01*
X113309511Y-74673616D01*
X113305190Y-74583277D01*
X113302271Y-74308818D01*
X113321862Y-74082637D01*
X113367093Y-73883077D01*
X113431216Y-73710844D01*
X113464894Y-73623033D01*
X113477551Y-73568128D01*
X113475749Y-73561279D01*
X113434130Y-73548725D01*
X113345592Y-73531951D01*
X113293739Y-73523905D01*
X113126478Y-73499653D01*
X113052798Y-73673470D01*
X112957323Y-73973207D01*
X112906808Y-74302518D01*
X112900784Y-74642452D01*
X112938779Y-74974056D01*
X113020324Y-75278381D01*
X113097002Y-75453624D01*
X113187992Y-75610752D01*
X113281984Y-75729009D01*
X113404335Y-75838563D01*
X113450817Y-75874589D01*
X113656613Y-75990993D01*
X113906875Y-76069639D01*
X114182462Y-76107703D01*
X114464231Y-76102361D01*
X114702897Y-76059298D01*
X115041165Y-75932832D01*
X115336711Y-75749664D01*
X115585087Y-75514747D01*
X115781846Y-75233036D01*
X115922542Y-74909486D01*
X115991823Y-74623369D01*
X116016210Y-74397068D01*
X116022528Y-74142289D01*
X116012072Y-73880574D01*
X115986134Y-73633464D01*
X115946011Y-73422501D01*
X115913258Y-73315806D01*
X115792294Y-73084632D01*
X115621383Y-72877525D01*
X115418812Y-72715300D01*
X115352333Y-72677320D01*
X115236803Y-72624858D01*
X115125276Y-72594986D01*
X114988809Y-72581745D01*
X114876143Y-72579252D01*
X114720430Y-72581332D01*
G36*
X119803456Y-68870534D02*
G01*
X119767446Y-68907437D01*
X119725945Y-68938004D01*
X119633551Y-68988539D01*
X119506560Y-69051583D01*
X119361269Y-69119678D01*
X119213975Y-69185366D01*
X119080973Y-69241190D01*
X118978560Y-69279689D01*
X118924036Y-69293429D01*
X118890050Y-69264071D01*
X118885715Y-69239000D01*
X118855765Y-69193963D01*
X118817679Y-69184572D01*
X118764248Y-69211282D01*
X118728488Y-69294825D01*
X118709032Y-69440314D01*
X118704286Y-69608917D01*
X118706677Y-69722084D01*
X118718716Y-69779343D01*
X118747700Y-69797318D01*
X118785929Y-69794881D01*
X118843740Y-69771003D01*
X118871504Y-69707296D01*
X118878620Y-69650798D01*
X118899118Y-69552266D01*
X118952070Y-69495689D01*
X118995595Y-69474433D01*
X119050318Y-69456659D01*
X119104169Y-69457017D01*
X119173430Y-69480740D01*
X119274379Y-69533064D01*
X119395938Y-69603161D01*
X119526502Y-69683557D01*
X119631754Y-69755588D01*
X119696555Y-69808541D01*
X119709202Y-69824883D01*
X119757064Y-69867251D01*
X119791807Y-69874000D01*
X119835875Y-69854483D01*
X119864406Y-69786368D01*
X119878460Y-69706959D01*
X119888137Y-69600482D01*
X119886143Y-69524347D01*
X119881251Y-69507388D01*
X119827816Y-69476066D01*
X119763908Y-69491723D01*
X119733641Y-69528677D01*
X119710902Y-69554408D01*
X119663607Y-69547441D01*
X119576041Y-69504269D01*
X119544280Y-69486420D01*
X119422371Y-69415023D01*
X119360749Y-69367411D01*
X119356370Y-69331939D01*
X119406185Y-69296961D01*
X119485187Y-69260546D01*
X119630103Y-69203664D01*
X119718803Y-69186861D01*
X119755190Y-69209566D01*
X119756572Y-69220857D01*
X119786749Y-69250981D01*
X119824505Y-69257143D01*
X119874625Y-69236607D01*
X119905477Y-69165053D01*
X119915187Y-69114884D01*
X119924662Y-69008484D01*
X119919170Y-68926320D01*
X119915943Y-68915312D01*
X119867461Y-68864271D01*
X119803456Y-68870534D01*
X119803456Y-68870534D01*
G37*
X119803456Y-68870534D02*
X119767446Y-68907437D01*
X119725945Y-68938004D01*
X119633551Y-68988539D01*
X119506560Y-69051583D01*
X119361269Y-69119678D01*
X119213975Y-69185366D01*
X119080973Y-69241190D01*
X118978560Y-69279689D01*
X118924036Y-69293429D01*
X118890050Y-69264071D01*
X118885715Y-69239000D01*
X118855765Y-69193963D01*
X118817679Y-69184572D01*
X118764248Y-69211282D01*
X118728488Y-69294825D01*
X118709032Y-69440314D01*
X118704286Y-69608917D01*
X118706677Y-69722084D01*
X118718716Y-69779343D01*
X118747700Y-69797318D01*
X118785929Y-69794881D01*
X118843740Y-69771003D01*
X118871504Y-69707296D01*
X118878620Y-69650798D01*
X118899118Y-69552266D01*
X118952070Y-69495689D01*
X118995595Y-69474433D01*
X119050318Y-69456659D01*
X119104169Y-69457017D01*
X119173430Y-69480740D01*
X119274379Y-69533064D01*
X119395938Y-69603161D01*
X119526502Y-69683557D01*
X119631754Y-69755588D01*
X119696555Y-69808541D01*
X119709202Y-69824883D01*
X119757064Y-69867251D01*
X119791807Y-69874000D01*
X119835875Y-69854483D01*
X119864406Y-69786368D01*
X119878460Y-69706959D01*
X119888137Y-69600482D01*
X119886143Y-69524347D01*
X119881251Y-69507388D01*
X119827816Y-69476066D01*
X119763908Y-69491723D01*
X119733641Y-69528677D01*
X119710902Y-69554408D01*
X119663607Y-69547441D01*
X119576041Y-69504269D01*
X119544280Y-69486420D01*
X119422371Y-69415023D01*
X119360749Y-69367411D01*
X119356370Y-69331939D01*
X119406185Y-69296961D01*
X119485187Y-69260546D01*
X119630103Y-69203664D01*
X119718803Y-69186861D01*
X119755190Y-69209566D01*
X119756572Y-69220857D01*
X119786749Y-69250981D01*
X119824505Y-69257143D01*
X119874625Y-69236607D01*
X119905477Y-69165053D01*
X119915187Y-69114884D01*
X119924662Y-69008484D01*
X119919170Y-68926320D01*
X119915943Y-68915312D01*
X119867461Y-68864271D01*
X119803456Y-68870534D01*
G36*
X119306668Y-69963481D02*
G01*
X119172051Y-70025647D01*
X119079795Y-70123330D01*
X119051887Y-70200004D01*
X119029561Y-70324028D01*
X119013863Y-70475366D01*
X119005839Y-70633985D01*
X119006533Y-70779849D01*
X119016991Y-70892925D01*
X119036596Y-70951343D01*
X119094605Y-70978178D01*
X119152894Y-70956055D01*
X119176000Y-70904261D01*
X119195984Y-70875024D01*
X119263693Y-70859037D01*
X119390768Y-70853752D01*
X119406793Y-70853714D01*
X119649523Y-70859933D01*
X119823189Y-70878919D01*
X119930253Y-70911166D01*
X119973178Y-70957166D01*
X119974286Y-70967504D01*
X120002854Y-71019241D01*
X120065913Y-71037505D01*
X120129501Y-71012910D01*
X120131524Y-71010952D01*
X120147192Y-70961952D01*
X120155373Y-70871303D01*
X120155715Y-70847667D01*
X120155715Y-70708572D01*
X119970054Y-70708572D01*
X119861846Y-70706237D01*
X119810270Y-70693902D01*
X119799415Y-70663568D01*
X119807642Y-70626929D01*
X119844182Y-70478686D01*
X119850768Y-70400143D01*
X119684000Y-70400143D01*
X119652651Y-70504327D01*
X119574491Y-70599304D01*
X119473348Y-70661097D01*
X119413507Y-70672286D01*
X119318283Y-70646993D01*
X119248572Y-70599714D01*
X119192172Y-70497133D01*
X119183725Y-70370671D01*
X119220070Y-70247968D01*
X119298043Y-70156658D01*
X119299361Y-70155770D01*
X119396773Y-70129390D01*
X119503948Y-70156260D01*
X119600672Y-70223539D01*
X119666734Y-70318384D01*
X119684000Y-70400143D01*
X119850768Y-70400143D01*
X119853232Y-70370774D01*
X119835372Y-70276602D01*
X119816409Y-70226062D01*
X119726119Y-70088310D01*
X119600121Y-69997102D01*
X119454830Y-69954729D01*
X119306668Y-69963481D01*
X119306668Y-69963481D01*
G37*
X119306668Y-69963481D02*
X119172051Y-70025647D01*
X119079795Y-70123330D01*
X119051887Y-70200004D01*
X119029561Y-70324028D01*
X119013863Y-70475366D01*
X119005839Y-70633985D01*
X119006533Y-70779849D01*
X119016991Y-70892925D01*
X119036596Y-70951343D01*
X119094605Y-70978178D01*
X119152894Y-70956055D01*
X119176000Y-70904261D01*
X119195984Y-70875024D01*
X119263693Y-70859037D01*
X119390768Y-70853752D01*
X119406793Y-70853714D01*
X119649523Y-70859933D01*
X119823189Y-70878919D01*
X119930253Y-70911166D01*
X119973178Y-70957166D01*
X119974286Y-70967504D01*
X120002854Y-71019241D01*
X120065913Y-71037505D01*
X120129501Y-71012910D01*
X120131524Y-71010952D01*
X120147192Y-70961952D01*
X120155373Y-70871303D01*
X120155715Y-70847667D01*
X120155715Y-70708572D01*
X119970054Y-70708572D01*
X119861846Y-70706237D01*
X119810270Y-70693902D01*
X119799415Y-70663568D01*
X119807642Y-70626929D01*
X119844182Y-70478686D01*
X119850768Y-70400143D01*
X119684000Y-70400143D01*
X119652651Y-70504327D01*
X119574491Y-70599304D01*
X119473348Y-70661097D01*
X119413507Y-70672286D01*
X119318283Y-70646993D01*
X119248572Y-70599714D01*
X119192172Y-70497133D01*
X119183725Y-70370671D01*
X119220070Y-70247968D01*
X119298043Y-70156658D01*
X119299361Y-70155770D01*
X119396773Y-70129390D01*
X119503948Y-70156260D01*
X119600672Y-70223539D01*
X119666734Y-70318384D01*
X119684000Y-70400143D01*
X119850768Y-70400143D01*
X119853232Y-70370774D01*
X119835372Y-70276602D01*
X119816409Y-70226062D01*
X119726119Y-70088310D01*
X119600121Y-69997102D01*
X119454830Y-69954729D01*
X119306668Y-69963481D01*
G36*
X118971865Y-72074722D02*
G01*
X118944805Y-72120380D01*
X118931298Y-72213970D01*
X118928719Y-72250714D01*
X118918327Y-72397434D01*
X118904871Y-72564568D01*
X118898132Y-72641041D01*
X118889999Y-72762073D01*
X118899681Y-72839796D01*
X118936394Y-72902962D01*
X119005713Y-72976684D01*
X119148713Y-73076109D01*
X119304452Y-73104857D01*
X119466697Y-73062298D01*
X119525819Y-73029194D01*
X119647218Y-72912307D01*
X119707322Y-72756869D01*
X119707524Y-72641081D01*
X119538857Y-72641081D01*
X119511032Y-72764314D01*
X119439184Y-72856616D01*
X119340756Y-72909378D01*
X119233190Y-72913994D01*
X119133928Y-72861857D01*
X119120052Y-72847749D01*
X119064494Y-72742640D01*
X119058090Y-72623032D01*
X119093807Y-72509090D01*
X119164614Y-72420976D01*
X119263477Y-72378856D01*
X119283984Y-72377714D01*
X119387973Y-72409706D01*
X119478528Y-72489791D01*
X119532581Y-72594133D01*
X119538857Y-72641081D01*
X119707524Y-72641081D01*
X119707638Y-72576325D01*
X119696721Y-72476730D01*
X119705872Y-72429399D01*
X119743588Y-72414951D01*
X119778806Y-72414000D01*
X119862780Y-72438644D01*
X119891201Y-72486572D01*
X119933697Y-72545615D01*
X119974548Y-72559143D01*
X120022985Y-72536300D01*
X120050572Y-72458919D01*
X120055972Y-72423072D01*
X120063387Y-72327720D01*
X120059962Y-72265680D01*
X120057800Y-72259786D01*
X120015950Y-72244513D01*
X119924961Y-72234639D01*
X119850619Y-72232572D01*
X119713966Y-72229281D01*
X119542971Y-72220670D01*
X119381046Y-72209104D01*
X119239149Y-72194904D01*
X119155264Y-72178769D01*
X119114891Y-72155827D01*
X119103531Y-72121210D01*
X119103429Y-72115866D01*
X119084138Y-72063451D01*
X119021786Y-72057691D01*
X118971865Y-72074722D01*
X118971865Y-72074722D01*
G37*
X118971865Y-72074722D02*
X118944805Y-72120380D01*
X118931298Y-72213970D01*
X118928719Y-72250714D01*
X118918327Y-72397434D01*
X118904871Y-72564568D01*
X118898132Y-72641041D01*
X118889999Y-72762073D01*
X118899681Y-72839796D01*
X118936394Y-72902962D01*
X119005713Y-72976684D01*
X119148713Y-73076109D01*
X119304452Y-73104857D01*
X119466697Y-73062298D01*
X119525819Y-73029194D01*
X119647218Y-72912307D01*
X119707322Y-72756869D01*
X119707524Y-72641081D01*
X119538857Y-72641081D01*
X119511032Y-72764314D01*
X119439184Y-72856616D01*
X119340756Y-72909378D01*
X119233190Y-72913994D01*
X119133928Y-72861857D01*
X119120052Y-72847749D01*
X119064494Y-72742640D01*
X119058090Y-72623032D01*
X119093807Y-72509090D01*
X119164614Y-72420976D01*
X119263477Y-72378856D01*
X119283984Y-72377714D01*
X119387973Y-72409706D01*
X119478528Y-72489791D01*
X119532581Y-72594133D01*
X119538857Y-72641081D01*
X119707524Y-72641081D01*
X119707638Y-72576325D01*
X119696721Y-72476730D01*
X119705872Y-72429399D01*
X119743588Y-72414951D01*
X119778806Y-72414000D01*
X119862780Y-72438644D01*
X119891201Y-72486572D01*
X119933697Y-72545615D01*
X119974548Y-72559143D01*
X120022985Y-72536300D01*
X120050572Y-72458919D01*
X120055972Y-72423072D01*
X120063387Y-72327720D01*
X120059962Y-72265680D01*
X120057800Y-72259786D01*
X120015950Y-72244513D01*
X119924961Y-72234639D01*
X119850619Y-72232572D01*
X119713966Y-72229281D01*
X119542971Y-72220670D01*
X119381046Y-72209104D01*
X119239149Y-72194904D01*
X119155264Y-72178769D01*
X119114891Y-72155827D01*
X119103531Y-72121210D01*
X119103429Y-72115866D01*
X119084138Y-72063451D01*
X119021786Y-72057691D01*
X118971865Y-72074722D01*
G36*
X119211957Y-73272644D02*
G01*
X119183537Y-73353942D01*
X119165258Y-73494687D01*
X119156091Y-73611429D01*
X119142483Y-73763659D01*
X119126326Y-73884454D01*
X119109990Y-73958482D01*
X119100031Y-73974286D01*
X119061544Y-73945996D01*
X119028026Y-73896424D01*
X119005350Y-73805464D01*
X119007933Y-73660349D01*
X119036044Y-73455321D01*
X119052921Y-73363377D01*
X119063900Y-73282467D01*
X119045991Y-73252702D01*
X118991096Y-73254519D01*
X118919742Y-73299583D01*
X118863817Y-73404927D01*
X118827694Y-73559107D01*
X118815932Y-73713016D01*
X118841487Y-73894070D01*
X118917510Y-74038848D01*
X119032496Y-74139550D01*
X119174940Y-74188375D01*
X119333337Y-74177523D01*
X119438616Y-74135199D01*
X119552225Y-74035924D01*
X119621983Y-73897593D01*
X119648055Y-73738733D01*
X119642557Y-73688039D01*
X119482217Y-73688039D01*
X119479269Y-73766519D01*
X119450482Y-73847286D01*
X119400531Y-73943847D01*
X119361907Y-73969370D01*
X119335568Y-73924644D01*
X119322468Y-73810457D01*
X119321143Y-73740570D01*
X119328499Y-73590487D01*
X119349398Y-73505414D01*
X119382082Y-73487403D01*
X119424797Y-73538507D01*
X119449390Y-73590674D01*
X119482217Y-73688039D01*
X119642557Y-73688039D01*
X119630606Y-73577874D01*
X119569803Y-73433544D01*
X119465810Y-73324271D01*
X119431188Y-73303614D01*
X119328469Y-73255663D01*
X119257829Y-73242612D01*
X119211957Y-73272644D01*
X119211957Y-73272644D01*
G37*
X119211957Y-73272644D02*
X119183537Y-73353942D01*
X119165258Y-73494687D01*
X119156091Y-73611429D01*
X119142483Y-73763659D01*
X119126326Y-73884454D01*
X119109990Y-73958482D01*
X119100031Y-73974286D01*
X119061544Y-73945996D01*
X119028026Y-73896424D01*
X119005350Y-73805464D01*
X119007933Y-73660349D01*
X119036044Y-73455321D01*
X119052921Y-73363377D01*
X119063900Y-73282467D01*
X119045991Y-73252702D01*
X118991096Y-73254519D01*
X118919742Y-73299583D01*
X118863817Y-73404927D01*
X118827694Y-73559107D01*
X118815932Y-73713016D01*
X118841487Y-73894070D01*
X118917510Y-74038848D01*
X119032496Y-74139550D01*
X119174940Y-74188375D01*
X119333337Y-74177523D01*
X119438616Y-74135199D01*
X119552225Y-74035924D01*
X119621983Y-73897593D01*
X119648055Y-73738733D01*
X119642557Y-73688039D01*
X119482217Y-73688039D01*
X119479269Y-73766519D01*
X119450482Y-73847286D01*
X119400531Y-73943847D01*
X119361907Y-73969370D01*
X119335568Y-73924644D01*
X119322468Y-73810457D01*
X119321143Y-73740570D01*
X119328499Y-73590487D01*
X119349398Y-73505414D01*
X119382082Y-73487403D01*
X119424797Y-73538507D01*
X119449390Y-73590674D01*
X119482217Y-73688039D01*
X119642557Y-73688039D01*
X119630606Y-73577874D01*
X119569803Y-73433544D01*
X119465810Y-73324271D01*
X119431188Y-73303614D01*
X119328469Y-73255663D01*
X119257829Y-73242612D01*
X119211957Y-73272644D01*
G36*
X118875138Y-74305389D02*
G01*
X118817947Y-74390814D01*
X118772539Y-74509842D01*
X118746530Y-74649768D01*
X118743332Y-74705052D01*
X118759454Y-74841984D01*
X118819936Y-74935395D01*
X118932856Y-74992123D01*
X119106292Y-75019012D01*
X119114737Y-75019572D01*
X119244495Y-75030516D01*
X119318396Y-75046691D01*
X119353146Y-75074302D01*
X119364514Y-75112315D01*
X119396699Y-75174716D01*
X119453801Y-75204353D01*
X119509750Y-75197067D01*
X119538477Y-75148696D01*
X119538857Y-75140143D01*
X119554319Y-75089290D01*
X119612905Y-75063746D01*
X119674929Y-75055976D01*
X119767524Y-75039984D01*
X119806149Y-75005325D01*
X119811000Y-74972143D01*
X119792019Y-74917751D01*
X119723632Y-74891975D01*
X119693072Y-74888201D01*
X119575143Y-74876831D01*
X119575143Y-74643272D01*
X119572636Y-74515934D01*
X119561998Y-74445188D01*
X119538554Y-74415138D01*
X119506454Y-74409714D01*
X119445955Y-74428908D01*
X119410268Y-74493558D01*
X119395049Y-74614269D01*
X119393715Y-74684825D01*
X119393715Y-74845143D01*
X119215254Y-74845143D01*
X119098193Y-74840825D01*
X119005703Y-74829886D01*
X118979397Y-74823118D01*
X118934841Y-74770247D01*
X118924288Y-74670130D01*
X118947835Y-74539690D01*
X118977262Y-74456553D01*
X119009881Y-74350430D01*
X118997757Y-74289862D01*
X118994406Y-74286177D01*
X118936496Y-74266275D01*
X118875138Y-74305389D01*
X118875138Y-74305389D01*
G37*
X118875138Y-74305389D02*
X118817947Y-74390814D01*
X118772539Y-74509842D01*
X118746530Y-74649768D01*
X118743332Y-74705052D01*
X118759454Y-74841984D01*
X118819936Y-74935395D01*
X118932856Y-74992123D01*
X119106292Y-75019012D01*
X119114737Y-75019572D01*
X119244495Y-75030516D01*
X119318396Y-75046691D01*
X119353146Y-75074302D01*
X119364514Y-75112315D01*
X119396699Y-75174716D01*
X119453801Y-75204353D01*
X119509750Y-75197067D01*
X119538477Y-75148696D01*
X119538857Y-75140143D01*
X119554319Y-75089290D01*
X119612905Y-75063746D01*
X119674929Y-75055976D01*
X119767524Y-75039984D01*
X119806149Y-75005325D01*
X119811000Y-74972143D01*
X119792019Y-74917751D01*
X119723632Y-74891975D01*
X119693072Y-74888201D01*
X119575143Y-74876831D01*
X119575143Y-74643272D01*
X119572636Y-74515934D01*
X119561998Y-74445188D01*
X119538554Y-74415138D01*
X119506454Y-74409714D01*
X119445955Y-74428908D01*
X119410268Y-74493558D01*
X119395049Y-74614269D01*
X119393715Y-74684825D01*
X119393715Y-74845143D01*
X119215254Y-74845143D01*
X119098193Y-74840825D01*
X119005703Y-74829886D01*
X118979397Y-74823118D01*
X118934841Y-74770247D01*
X118924288Y-74670130D01*
X118947835Y-74539690D01*
X118977262Y-74456553D01*
X119009881Y-74350430D01*
X118997757Y-74289862D01*
X118994406Y-74286177D01*
X118936496Y-74266275D01*
X118875138Y-74305389D01*
G36*
X119717416Y-75455677D02*
G01*
X119690173Y-75537077D01*
X119684000Y-75629813D01*
X119669978Y-75782310D01*
X119630792Y-75886658D01*
X119570759Y-75932481D01*
X119557534Y-75933714D01*
X119524663Y-75909433D01*
X119504302Y-75830130D01*
X119495311Y-75725071D01*
X119483504Y-75599572D01*
X119462172Y-75534140D01*
X119430000Y-75516429D01*
X119388832Y-75547399D01*
X119355703Y-75643619D01*
X119342979Y-75708579D01*
X119310387Y-75900729D01*
X119107122Y-75890008D01*
X118903857Y-75879286D01*
X118892890Y-75688786D01*
X118881895Y-75574908D01*
X118861390Y-75517040D01*
X118824636Y-75498673D01*
X118815129Y-75498286D01*
X118767654Y-75508403D01*
X118735664Y-75546221D01*
X118716328Y-75622946D01*
X118706813Y-75749778D01*
X118704286Y-75936682D01*
X118705520Y-76091000D01*
X118711294Y-76186633D01*
X118724721Y-76237454D01*
X118748912Y-76257334D01*
X118776857Y-76260286D01*
X118834247Y-76238455D01*
X118849429Y-76171713D01*
X118856183Y-76104658D01*
X118886407Y-76068280D01*
X118955043Y-76056675D01*
X119077036Y-76063936D01*
X119113028Y-76067531D01*
X119229949Y-76082666D01*
X119292852Y-76103699D01*
X119320181Y-76140542D01*
X119328275Y-76183209D01*
X119358637Y-76267033D01*
X119409457Y-76290174D01*
X119460103Y-76251769D01*
X119483985Y-76189734D01*
X119513918Y-76109872D01*
X119570451Y-76080980D01*
X119608688Y-76078857D01*
X119708919Y-76052797D01*
X119775223Y-76005723D01*
X119823474Y-75914242D01*
X119852353Y-75785366D01*
X119859405Y-75648095D01*
X119842177Y-75531429D01*
X119819383Y-75483671D01*
X119762069Y-75436167D01*
X119717416Y-75455677D01*
X119717416Y-75455677D01*
G37*
X119717416Y-75455677D02*
X119690173Y-75537077D01*
X119684000Y-75629813D01*
X119669978Y-75782310D01*
X119630792Y-75886658D01*
X119570759Y-75932481D01*
X119557534Y-75933714D01*
X119524663Y-75909433D01*
X119504302Y-75830130D01*
X119495311Y-75725071D01*
X119483504Y-75599572D01*
X119462172Y-75534140D01*
X119430000Y-75516429D01*
X119388832Y-75547399D01*
X119355703Y-75643619D01*
X119342979Y-75708579D01*
X119310387Y-75900729D01*
X119107122Y-75890008D01*
X118903857Y-75879286D01*
X118892890Y-75688786D01*
X118881895Y-75574908D01*
X118861390Y-75517040D01*
X118824636Y-75498673D01*
X118815129Y-75498286D01*
X118767654Y-75508403D01*
X118735664Y-75546221D01*
X118716328Y-75622946D01*
X118706813Y-75749778D01*
X118704286Y-75936682D01*
X118705520Y-76091000D01*
X118711294Y-76186633D01*
X118724721Y-76237454D01*
X118748912Y-76257334D01*
X118776857Y-76260286D01*
X118834247Y-76238455D01*
X118849429Y-76171713D01*
X118856183Y-76104658D01*
X118886407Y-76068280D01*
X118955043Y-76056675D01*
X119077036Y-76063936D01*
X119113028Y-76067531D01*
X119229949Y-76082666D01*
X119292852Y-76103699D01*
X119320181Y-76140542D01*
X119328275Y-76183209D01*
X119358637Y-76267033D01*
X119409457Y-76290174D01*
X119460103Y-76251769D01*
X119483985Y-76189734D01*
X119513918Y-76109872D01*
X119570451Y-76080980D01*
X119608688Y-76078857D01*
X119708919Y-76052797D01*
X119775223Y-76005723D01*
X119823474Y-75914242D01*
X119852353Y-75785366D01*
X119859405Y-75648095D01*
X119842177Y-75531429D01*
X119819383Y-75483671D01*
X119762069Y-75436167D01*
X119717416Y-75455677D01*
G36*
X118707470Y-76487922D02*
G01*
X118681726Y-76528249D01*
X118664413Y-76614828D01*
X118654444Y-76704786D01*
X118638662Y-76854663D01*
X118621377Y-76999960D01*
X118610949Y-77077100D01*
X118616262Y-77217875D01*
X118668216Y-77327862D01*
X118752941Y-77398380D01*
X118856571Y-77420749D01*
X118965235Y-77386287D01*
X119025399Y-77336525D01*
X119108488Y-77206770D01*
X119162070Y-77039541D01*
X119176000Y-76905736D01*
X119181936Y-76863569D01*
X118992630Y-76863569D01*
X118986071Y-76963694D01*
X118985607Y-76967837D01*
X118959086Y-77091826D01*
X118916896Y-77182299D01*
X118868415Y-77231201D01*
X118823020Y-77230479D01*
X118790091Y-77172078D01*
X118783891Y-77141083D01*
X118789930Y-77048788D01*
X118823568Y-76946031D01*
X118873102Y-76857557D01*
X118926834Y-76808110D01*
X118943011Y-76804571D01*
X118979806Y-76816390D01*
X118992630Y-76863569D01*
X119181936Y-76863569D01*
X119185746Y-76836512D01*
X119221614Y-76825130D01*
X119234824Y-76829422D01*
X119270209Y-76858494D01*
X119280284Y-76920959D01*
X119271259Y-77018783D01*
X119255536Y-77136740D01*
X119242720Y-77234274D01*
X119239650Y-77258125D01*
X119256101Y-77320881D01*
X119309753Y-77341988D01*
X119366252Y-77336056D01*
X119403647Y-77286782D01*
X119427479Y-77215006D01*
X119464837Y-77005514D01*
X119446858Y-76842768D01*
X119372759Y-76725653D01*
X119241760Y-76653059D01*
X119053078Y-76623873D01*
X119011532Y-76623143D01*
X118908503Y-76615886D01*
X118856487Y-76588337D01*
X118838915Y-76550571D01*
X118792160Y-76489978D01*
X118748196Y-76478000D01*
X118707470Y-76487922D01*
X118707470Y-76487922D01*
G37*
X118707470Y-76487922D02*
X118681726Y-76528249D01*
X118664413Y-76614828D01*
X118654444Y-76704786D01*
X118638662Y-76854663D01*
X118621377Y-76999960D01*
X118610949Y-77077100D01*
X118616262Y-77217875D01*
X118668216Y-77327862D01*
X118752941Y-77398380D01*
X118856571Y-77420749D01*
X118965235Y-77386287D01*
X119025399Y-77336525D01*
X119108488Y-77206770D01*
X119162070Y-77039541D01*
X119176000Y-76905736D01*
X119181936Y-76863569D01*
X118992630Y-76863569D01*
X118986071Y-76963694D01*
X118985607Y-76967837D01*
X118959086Y-77091826D01*
X118916896Y-77182299D01*
X118868415Y-77231201D01*
X118823020Y-77230479D01*
X118790091Y-77172078D01*
X118783891Y-77141083D01*
X118789930Y-77048788D01*
X118823568Y-76946031D01*
X118873102Y-76857557D01*
X118926834Y-76808110D01*
X118943011Y-76804571D01*
X118979806Y-76816390D01*
X118992630Y-76863569D01*
X119181936Y-76863569D01*
X119185746Y-76836512D01*
X119221614Y-76825130D01*
X119234824Y-76829422D01*
X119270209Y-76858494D01*
X119280284Y-76920959D01*
X119271259Y-77018783D01*
X119255536Y-77136740D01*
X119242720Y-77234274D01*
X119239650Y-77258125D01*
X119256101Y-77320881D01*
X119309753Y-77341988D01*
X119366252Y-77336056D01*
X119403647Y-77286782D01*
X119427479Y-77215006D01*
X119464837Y-77005514D01*
X119446858Y-76842768D01*
X119372759Y-76725653D01*
X119241760Y-76653059D01*
X119053078Y-76623873D01*
X119011532Y-76623143D01*
X118908503Y-76615886D01*
X118856487Y-76588337D01*
X118838915Y-76550571D01*
X118792160Y-76489978D01*
X118748196Y-76478000D01*
X118707470Y-76487922D01*
G36*
X119192934Y-77612711D02*
G01*
X119181414Y-77655529D01*
X119192275Y-77732659D01*
X119199411Y-77831814D01*
X119169618Y-77916838D01*
X119120377Y-77988649D01*
X119049149Y-78069504D01*
X118982487Y-78102636D01*
X118891422Y-78103776D01*
X118758714Y-78092714D01*
X118747747Y-77902214D01*
X118736653Y-77788114D01*
X118715969Y-77730168D01*
X118679093Y-77712019D01*
X118670852Y-77711714D01*
X118623123Y-77737122D01*
X118589512Y-77816901D01*
X118568869Y-77956385D01*
X118560048Y-78160906D01*
X118559542Y-78228786D01*
X118561381Y-78359279D01*
X118570578Y-78433056D01*
X118591848Y-78465928D01*
X118629909Y-78473701D01*
X118632622Y-78473714D01*
X118693153Y-78449453D01*
X118727208Y-78367945D01*
X118728569Y-78361368D01*
X118751567Y-78284724D01*
X118794130Y-78262149D01*
X118859198Y-78270654D01*
X118978606Y-78287141D01*
X119071679Y-78292286D01*
X119147365Y-78303086D01*
X119174087Y-78348234D01*
X119176000Y-78383000D01*
X119194280Y-78455483D01*
X119242524Y-78473714D01*
X119311519Y-78461868D01*
X119333238Y-78449524D01*
X119352356Y-78395316D01*
X119357811Y-78304774D01*
X119351167Y-78206610D01*
X119333991Y-78129535D01*
X119314324Y-78102537D01*
X119295501Y-78071896D01*
X119330288Y-78003854D01*
X119332467Y-78000725D01*
X119385587Y-77884550D01*
X119393419Y-77768873D01*
X119360378Y-77672152D01*
X119290882Y-77612846D01*
X119237276Y-77602857D01*
X119192934Y-77612711D01*
X119192934Y-77612711D01*
G37*
X119192934Y-77612711D02*
X119181414Y-77655529D01*
X119192275Y-77732659D01*
X119199411Y-77831814D01*
X119169618Y-77916838D01*
X119120377Y-77988649D01*
X119049149Y-78069504D01*
X118982487Y-78102636D01*
X118891422Y-78103776D01*
X118758714Y-78092714D01*
X118747747Y-77902214D01*
X118736653Y-77788114D01*
X118715969Y-77730168D01*
X118679093Y-77712019D01*
X118670852Y-77711714D01*
X118623123Y-77737122D01*
X118589512Y-77816901D01*
X118568869Y-77956385D01*
X118560048Y-78160906D01*
X118559542Y-78228786D01*
X118561381Y-78359279D01*
X118570578Y-78433056D01*
X118591848Y-78465928D01*
X118629909Y-78473701D01*
X118632622Y-78473714D01*
X118693153Y-78449453D01*
X118727208Y-78367945D01*
X118728569Y-78361368D01*
X118751567Y-78284724D01*
X118794130Y-78262149D01*
X118859198Y-78270654D01*
X118978606Y-78287141D01*
X119071679Y-78292286D01*
X119147365Y-78303086D01*
X119174087Y-78348234D01*
X119176000Y-78383000D01*
X119194280Y-78455483D01*
X119242524Y-78473714D01*
X119311519Y-78461868D01*
X119333238Y-78449524D01*
X119352356Y-78395316D01*
X119357811Y-78304774D01*
X119351167Y-78206610D01*
X119333991Y-78129535D01*
X119314324Y-78102537D01*
X119295501Y-78071896D01*
X119330288Y-78003854D01*
X119332467Y-78000725D01*
X119385587Y-77884550D01*
X119393419Y-77768873D01*
X119360378Y-77672152D01*
X119290882Y-77612846D01*
X119237276Y-77602857D01*
X119192934Y-77612711D01*
G36*
X118714743Y-78661784D02*
G01*
X118632397Y-78710811D01*
X118559858Y-78812141D01*
X118507731Y-78945507D01*
X118486623Y-79090645D01*
X118486572Y-79097739D01*
X118513332Y-79304087D01*
X118593242Y-79461094D01*
X118725744Y-79568229D01*
X118910278Y-79624959D01*
X119049000Y-79634586D01*
X119234820Y-79619279D01*
X119370458Y-79571109D01*
X119380469Y-79565222D01*
X119488588Y-79462348D01*
X119564744Y-79318940D01*
X119598339Y-79162268D01*
X119585284Y-79038282D01*
X119567900Y-78943059D01*
X119575325Y-78873176D01*
X119577636Y-78868823D01*
X119587128Y-78803999D01*
X119533876Y-78755712D01*
X119426967Y-78730171D01*
X119371129Y-78727714D01*
X119270907Y-78732676D01*
X119224202Y-78753330D01*
X119212303Y-78798332D01*
X119212286Y-78801184D01*
X119245053Y-78873309D01*
X119299639Y-78907865D01*
X119376915Y-78971352D01*
X119414720Y-79073300D01*
X119414184Y-79192018D01*
X119376441Y-79305819D01*
X119302621Y-79393011D01*
X119273393Y-79410846D01*
X119117541Y-79458392D01*
X118956901Y-79457093D01*
X118816288Y-79409185D01*
X118757065Y-79364364D01*
X118687217Y-79247721D01*
X118664993Y-79102506D01*
X118691083Y-78955497D01*
X118744044Y-78858541D01*
X118791743Y-78770317D01*
X118793879Y-78698793D01*
X118753074Y-78661562D01*
X118714743Y-78661784D01*
X118714743Y-78661784D01*
G37*
X118714743Y-78661784D02*
X118632397Y-78710811D01*
X118559858Y-78812141D01*
X118507731Y-78945507D01*
X118486623Y-79090645D01*
X118486572Y-79097739D01*
X118513332Y-79304087D01*
X118593242Y-79461094D01*
X118725744Y-79568229D01*
X118910278Y-79624959D01*
X119049000Y-79634586D01*
X119234820Y-79619279D01*
X119370458Y-79571109D01*
X119380469Y-79565222D01*
X119488588Y-79462348D01*
X119564744Y-79318940D01*
X119598339Y-79162268D01*
X119585284Y-79038282D01*
X119567900Y-78943059D01*
X119575325Y-78873176D01*
X119577636Y-78868823D01*
X119587128Y-78803999D01*
X119533876Y-78755712D01*
X119426967Y-78730171D01*
X119371129Y-78727714D01*
X119270907Y-78732676D01*
X119224202Y-78753330D01*
X119212303Y-78798332D01*
X119212286Y-78801184D01*
X119245053Y-78873309D01*
X119299639Y-78907865D01*
X119376915Y-78971352D01*
X119414720Y-79073300D01*
X119414184Y-79192018D01*
X119376441Y-79305819D01*
X119302621Y-79393011D01*
X119273393Y-79410846D01*
X119117541Y-79458392D01*
X118956901Y-79457093D01*
X118816288Y-79409185D01*
X118757065Y-79364364D01*
X118687217Y-79247721D01*
X118664993Y-79102506D01*
X118691083Y-78955497D01*
X118744044Y-78858541D01*
X118791743Y-78770317D01*
X118793879Y-78698793D01*
X118753074Y-78661562D01*
X118714743Y-78661784D01*
G36*
X112138501Y-52186539D02*
G01*
X111771455Y-52188745D01*
X111440659Y-52192301D01*
X111153887Y-52197264D01*
X110918911Y-52203688D01*
X110743505Y-52211630D01*
X110721429Y-52213049D01*
X110234645Y-52255193D01*
X109751566Y-52314219D01*
X109290308Y-52387329D01*
X108868990Y-52471725D01*
X108577673Y-52544159D01*
X108296308Y-52632945D01*
X108080881Y-52728713D01*
X107924765Y-52837532D01*
X107821331Y-52965472D01*
X107763953Y-53118601D01*
X107746003Y-53302989D01*
X107746000Y-53305740D01*
X107752994Y-53402964D01*
X107772486Y-53556683D01*
X107802243Y-53752332D01*
X107840030Y-53975346D01*
X107883615Y-54211158D01*
X107889572Y-54241899D01*
X107937790Y-54491597D01*
X107985502Y-54742683D01*
X108029319Y-54977029D01*
X108065851Y-55176507D01*
X108091708Y-55322990D01*
X108091782Y-55323429D01*
X108116727Y-55463587D01*
X108152961Y-55658488D01*
X108197357Y-55891747D01*
X108246789Y-56146982D01*
X108298130Y-56407808D01*
X108313411Y-56484572D01*
X108381509Y-56836963D01*
X108457933Y-57252422D01*
X108541275Y-57722101D01*
X108630129Y-58237151D01*
X108723087Y-58788724D01*
X108818743Y-59367972D01*
X108915690Y-59966046D01*
X109012519Y-60574099D01*
X109107826Y-61183282D01*
X109200202Y-61784747D01*
X109288240Y-62369646D01*
X109370534Y-62929131D01*
X109445676Y-63454353D01*
X109512259Y-63936464D01*
X109568877Y-64366617D01*
X109577058Y-64431143D01*
X109602732Y-64643753D01*
X109634221Y-64919063D01*
X109670538Y-65247522D01*
X109710699Y-65619576D01*
X109753718Y-66025675D01*
X109798610Y-66456266D01*
X109844390Y-66901797D01*
X109890074Y-67352715D01*
X109934674Y-67799470D01*
X109977208Y-68232508D01*
X110016688Y-68642279D01*
X110052131Y-69019229D01*
X110067317Y-69184572D01*
X110089887Y-69432511D01*
X110111240Y-69667028D01*
X110130155Y-69874700D01*
X110145408Y-70042107D01*
X110155776Y-70155826D01*
X110158205Y-70182429D01*
X110167944Y-70302731D01*
X110179573Y-70466571D01*
X110191076Y-70645022D01*
X110194873Y-70708572D01*
X110206193Y-70901989D01*
X110218307Y-71107673D01*
X110228999Y-71288049D01*
X110231229Y-71325429D01*
X110238608Y-71463764D01*
X110247434Y-71652198D01*
X110256716Y-71868299D01*
X110265458Y-72089636D01*
X110267395Y-72141857D01*
X110276273Y-72382317D01*
X110286058Y-72643486D01*
X110295608Y-72895112D01*
X110303781Y-73106940D01*
X110304353Y-73121572D01*
X110311077Y-73302748D01*
X110319136Y-73534937D01*
X110327815Y-73796612D01*
X110336397Y-74066242D01*
X110342994Y-74282714D01*
X110350551Y-74513699D01*
X110358827Y-74727580D01*
X110367198Y-74910816D01*
X110375039Y-75049869D01*
X110381728Y-75131199D01*
X110382281Y-75135429D01*
X110385900Y-75194604D01*
X110389974Y-75319377D01*
X110394383Y-75502775D01*
X110399006Y-75737829D01*
X110403723Y-76017566D01*
X110408415Y-76335014D01*
X110412961Y-76683202D01*
X110417241Y-77055159D01*
X110420062Y-77330714D01*
X110424259Y-77771084D01*
X110427521Y-78145095D01*
X110429702Y-78458952D01*
X110430660Y-78718863D01*
X110430252Y-78931036D01*
X110428332Y-79101676D01*
X110424759Y-79236993D01*
X110419387Y-79343191D01*
X110412074Y-79426479D01*
X110402675Y-79493064D01*
X110391048Y-79549152D01*
X110377048Y-79600952D01*
X110366733Y-79634857D01*
X110296548Y-79840432D01*
X110201734Y-80089399D01*
X110088780Y-80367079D01*
X109964176Y-80658797D01*
X109834410Y-80949874D01*
X109705972Y-81225635D01*
X109585350Y-81471402D01*
X109479034Y-81672497D01*
X109424377Y-81766311D01*
X109303316Y-81991987D01*
X109235169Y-82199466D01*
X109219846Y-82403812D01*
X109257256Y-82620090D01*
X109347306Y-82863366D01*
X109416863Y-83009429D01*
X109543811Y-83223912D01*
X109696612Y-83404499D01*
X109891812Y-83568279D01*
X110076336Y-83690577D01*
X110486020Y-83909115D01*
X110955347Y-84100735D01*
X111475632Y-84262972D01*
X112038191Y-84393361D01*
X112634337Y-84489436D01*
X113043715Y-84532999D01*
X113292757Y-84548633D01*
X113596630Y-84558891D01*
X113937804Y-84563921D01*
X114298749Y-84563870D01*
X114661935Y-84558886D01*
X115009832Y-84549116D01*
X115324909Y-84534707D01*
X115589637Y-84515807D01*
X115638143Y-84511186D01*
X115862816Y-84485172D01*
X116106014Y-84451497D01*
X116335329Y-84414914D01*
X116487664Y-84386613D01*
X116780017Y-84316211D01*
X117113180Y-84218139D01*
X117464670Y-84100229D01*
X117812004Y-83970317D01*
X117826232Y-83964368D01*
X117131321Y-83964368D01*
X117107932Y-83981328D01*
X117027993Y-84010303D01*
X116905747Y-84047334D01*
X116755436Y-84088465D01*
X116591302Y-84129737D01*
X116427587Y-84167192D01*
X116327572Y-84187727D01*
X116020684Y-84240817D01*
X115707229Y-84281407D01*
X115374666Y-84310288D01*
X115010453Y-84328251D01*
X114602051Y-84336088D01*
X114136917Y-84334588D01*
X114023429Y-84333049D01*
X113751155Y-84328371D01*
X113497992Y-84322996D01*
X113274360Y-84317225D01*
X113090679Y-84311360D01*
X112957368Y-84305703D01*
X112884849Y-84300556D01*
X112880429Y-84299940D01*
X112792090Y-84286536D01*
X112658394Y-84267054D01*
X112505868Y-84245354D01*
X112481286Y-84241905D01*
X112189694Y-84192504D01*
X111876206Y-84124431D01*
X111554819Y-84041980D01*
X111239532Y-83949446D01*
X110944343Y-83851121D01*
X110683252Y-83751300D01*
X110470255Y-83654276D01*
X110357525Y-83590486D01*
X110297137Y-83547729D01*
X110287897Y-83531592D01*
X110304143Y-83535633D01*
X110850317Y-83721771D01*
X111355067Y-83873063D01*
X111835167Y-83992368D01*
X112307392Y-84082549D01*
X112788515Y-84146466D01*
X113295309Y-84186980D01*
X113844549Y-84206953D01*
X114259286Y-84210250D01*
X114760853Y-84204146D01*
X115239938Y-84187815D01*
X115686935Y-84161964D01*
X116092242Y-84127298D01*
X116446254Y-84084524D01*
X116739367Y-84034350D01*
X116786009Y-84024345D01*
X116931248Y-83993682D01*
X117047305Y-83972365D01*
X117117865Y-83963227D01*
X117131321Y-83964368D01*
X117826232Y-83964368D01*
X118132698Y-83836234D01*
X118323286Y-83747066D01*
X118507573Y-83652764D01*
X118643411Y-83573398D01*
X118749282Y-83495853D01*
X118843670Y-83407014D01*
X118918175Y-83324929D01*
X119123010Y-83044990D01*
X119264165Y-82751716D01*
X119265761Y-82745335D01*
X118522563Y-82745335D01*
X118496065Y-83003755D01*
X118481193Y-83070185D01*
X118458213Y-83150463D01*
X118427977Y-83207729D01*
X118375859Y-83255279D01*
X118287229Y-83306414D01*
X118147462Y-83374433D01*
X118145550Y-83375341D01*
X117836025Y-83503407D01*
X117469819Y-83622836D01*
X117062660Y-83729845D01*
X116630277Y-83820648D01*
X116188397Y-83891459D01*
X115834169Y-83931577D01*
X115610582Y-83947788D01*
X115338216Y-83961100D01*
X115030692Y-83971410D01*
X114701627Y-83978616D01*
X114364643Y-83982615D01*
X114033358Y-83983306D01*
X113721393Y-83980588D01*
X113442366Y-83974356D01*
X113209897Y-83964510D01*
X113051356Y-83952435D01*
X112708765Y-83909056D01*
X112328997Y-83847986D01*
X111943598Y-83774849D01*
X111584117Y-83695267D01*
X111518945Y-83679282D01*
X111391765Y-83644973D01*
X111230484Y-83597767D01*
X111048744Y-83542091D01*
X110860190Y-83482372D01*
X110678464Y-83423037D01*
X110517210Y-83368514D01*
X110390072Y-83323228D01*
X110310693Y-83291608D01*
X110291702Y-83281073D01*
X110275071Y-83233046D01*
X110255655Y-83128507D01*
X110235230Y-82983374D01*
X110215571Y-82813563D01*
X110198455Y-82634990D01*
X110185657Y-82463571D01*
X110178956Y-82315224D01*
X110178380Y-82265571D01*
X110185604Y-82091786D01*
X110204698Y-81904743D01*
X110232883Y-81717622D01*
X110267376Y-81543604D01*
X110305395Y-81395870D01*
X110344160Y-81287600D01*
X110380888Y-81231975D01*
X110397355Y-81227946D01*
X110451432Y-81244119D01*
X110558606Y-81276835D01*
X110702663Y-81321126D01*
X110845875Y-81365363D01*
X111265389Y-81480406D01*
X111718576Y-81578812D01*
X112172474Y-81654218D01*
X112572000Y-81698574D01*
X112712036Y-81706431D01*
X112902539Y-81712612D01*
X113132073Y-81717149D01*
X113389200Y-81720075D01*
X113662484Y-81721422D01*
X113940487Y-81721221D01*
X114211774Y-81719506D01*
X114464906Y-81716308D01*
X114688447Y-81711659D01*
X114870960Y-81705591D01*
X115001008Y-81698137D01*
X115057572Y-81691592D01*
X115160694Y-81675324D01*
X115293272Y-81658424D01*
X115347857Y-81652483D01*
X115461533Y-81640850D01*
X115622601Y-81624320D01*
X115806262Y-81605439D01*
X115928429Y-81592862D01*
X116357082Y-81534596D01*
X116840327Y-81443157D01*
X117369239Y-81320470D01*
X117934892Y-81168463D01*
X118052608Y-81134431D01*
X118093846Y-81149941D01*
X118143269Y-81221252D01*
X118202772Y-81352396D01*
X118274253Y-81547405D01*
X118337320Y-81739429D01*
X118444009Y-82120742D01*
X118505484Y-82453520D01*
X118522563Y-82745335D01*
X119265761Y-82745335D01*
X119338992Y-82452611D01*
X119344840Y-82155176D01*
X119341566Y-82126114D01*
X119310863Y-82002655D01*
X119243181Y-81821300D01*
X119140178Y-81585586D01*
X119003509Y-81299051D01*
X118834833Y-80965230D01*
X118635807Y-80587660D01*
X118601353Y-80523966D01*
X117760857Y-80523966D01*
X117729577Y-80562666D01*
X117645132Y-80620970D01*
X117521611Y-80691218D01*
X117373105Y-80765753D01*
X117213705Y-80836917D01*
X117107715Y-80878940D01*
X116865427Y-80962045D01*
X116607266Y-81035171D01*
X116323453Y-81100157D01*
X116004208Y-81158839D01*
X115639752Y-81213055D01*
X115220306Y-81264644D01*
X114839857Y-81305130D01*
X114670386Y-81322451D01*
X114522236Y-81338064D01*
X114413689Y-81350016D01*
X114368143Y-81355559D01*
X114282684Y-81361659D01*
X114139694Y-81365476D01*
X113954173Y-81367170D01*
X113741121Y-81366902D01*
X113515537Y-81364833D01*
X113292421Y-81361122D01*
X113086772Y-81355930D01*
X112913590Y-81349417D01*
X112787875Y-81341745D01*
X112753429Y-81338288D01*
X112583431Y-81317914D01*
X112401046Y-81296807D01*
X112299857Y-81285490D01*
X112147470Y-81265203D01*
X111966198Y-81235963D01*
X111813340Y-81207604D01*
X111651417Y-81168262D01*
X111470873Y-81113406D01*
X111284677Y-81048340D01*
X111105797Y-80978366D01*
X110947201Y-80908787D01*
X110821858Y-80844905D01*
X110742735Y-80792024D01*
X110721429Y-80761118D01*
X110749113Y-80711231D01*
X110815926Y-80703689D01*
X110860375Y-80720112D01*
X110945937Y-80754082D01*
X111084112Y-80796086D01*
X111256085Y-80841337D01*
X111443041Y-80885047D01*
X111626163Y-80922427D01*
X111719286Y-80938692D01*
X111939940Y-80967735D01*
X112202474Y-80991727D01*
X112493789Y-81010439D01*
X112800782Y-81023642D01*
X113110356Y-81031106D01*
X113409408Y-81032604D01*
X113684840Y-81027905D01*
X113923551Y-81016782D01*
X114112440Y-80999004D01*
X114209177Y-80982205D01*
X114296540Y-80970251D01*
X114442469Y-80959792D01*
X114632961Y-80951417D01*
X114854017Y-80945717D01*
X115091635Y-80943281D01*
X115134462Y-80943234D01*
X115371688Y-80942429D01*
X115593069Y-80940026D01*
X115785082Y-80936302D01*
X115934208Y-80931530D01*
X116026924Y-80925988D01*
X116037286Y-80924840D01*
X116346826Y-80884688D01*
X116593539Y-80851728D01*
X116786649Y-80824504D01*
X116935383Y-80801553D01*
X117048966Y-80781418D01*
X117136625Y-80762639D01*
X117207584Y-80743755D01*
X117234715Y-80735415D01*
X117344928Y-80697347D01*
X117427343Y-80663619D01*
X117452429Y-80649844D01*
X117505759Y-80619330D01*
X117587517Y-80581742D01*
X117673390Y-80547005D01*
X117739066Y-80525040D01*
X117760857Y-80523966D01*
X118601353Y-80523966D01*
X118522781Y-80378714D01*
X118310341Y-79927482D01*
X116692620Y-79927482D01*
X116682696Y-80007861D01*
X116664045Y-80070394D01*
X116627759Y-80125699D01*
X116564110Y-80180507D01*
X116463372Y-80241551D01*
X116315817Y-80315563D01*
X116111721Y-80409277D01*
X116086316Y-80420668D01*
X115888495Y-80506963D01*
X115734371Y-80567023D01*
X115602758Y-80607122D01*
X115472471Y-80633535D01*
X115322322Y-80652534D01*
X115293429Y-80655465D01*
X115126288Y-80673981D01*
X114972015Y-80694490D01*
X114854990Y-80713620D01*
X114821715Y-80720700D01*
X114706131Y-80737064D01*
X114565582Y-80741483D01*
X114513286Y-80739297D01*
X114407300Y-80732865D01*
X114249392Y-80724345D01*
X114060143Y-80714806D01*
X113860133Y-80705313D01*
X113842000Y-80704484D01*
X113352143Y-80682150D01*
X112794385Y-80460452D01*
X112502764Y-80338604D01*
X112252857Y-80222116D01*
X112050900Y-80114441D01*
X111903129Y-80019028D01*
X111815780Y-79939329D01*
X111797554Y-79908761D01*
X111797590Y-79816755D01*
X111869163Y-79728963D01*
X112011330Y-79645923D01*
X112223149Y-79568173D01*
X112503679Y-79496251D01*
X112529476Y-79490677D01*
X112782828Y-79441133D01*
X113030522Y-79403152D01*
X113285959Y-79375835D01*
X113562536Y-79358282D01*
X113873651Y-79349594D01*
X114232704Y-79348870D01*
X114571383Y-79353572D01*
X114899128Y-79360814D01*
X115166870Y-79369915D01*
X115387179Y-79382655D01*
X115572622Y-79400812D01*
X115735768Y-79426168D01*
X115889186Y-79460502D01*
X116045446Y-79505594D01*
X116217114Y-79563225D01*
X116325696Y-79602011D01*
X116502719Y-79674654D01*
X116616937Y-79746357D01*
X116677265Y-79827254D01*
X116692620Y-79927482D01*
X118310341Y-79927482D01*
X118299448Y-79904345D01*
X118128994Y-79394722D01*
X118010463Y-78854714D01*
X117992979Y-78745834D01*
X117979004Y-78639991D01*
X117968300Y-78528312D01*
X117960635Y-78401918D01*
X117955771Y-78251935D01*
X117953473Y-78069486D01*
X117953507Y-77845695D01*
X117955636Y-77571686D01*
X117959625Y-77238582D01*
X117962337Y-77040429D01*
X117967118Y-76722651D01*
X117972210Y-76424197D01*
X117977422Y-76153661D01*
X117982562Y-75919641D01*
X117987439Y-75730731D01*
X117991861Y-75595528D01*
X117995638Y-75522628D01*
X117996279Y-75516429D01*
X118002810Y-75441369D01*
X118011062Y-75310292D01*
X118020112Y-75139707D01*
X118029038Y-74946119D01*
X118031741Y-74881429D01*
X118040857Y-74669212D01*
X118050669Y-74460391D01*
X118060108Y-74276569D01*
X118068106Y-74139350D01*
X118069437Y-74119429D01*
X118077834Y-73984489D01*
X118087860Y-73803214D01*
X118098115Y-73601774D01*
X118105344Y-73448143D01*
X118118229Y-73171907D01*
X118131446Y-72911326D01*
X118145688Y-72656368D01*
X118161649Y-72396997D01*
X118180020Y-72123179D01*
X118201495Y-71824882D01*
X118226767Y-71492071D01*
X118256529Y-71114712D01*
X118291474Y-70682770D01*
X118301215Y-70564107D01*
X118077743Y-70564107D01*
X118070106Y-70636000D01*
X118058889Y-70738951D01*
X118045634Y-70881552D01*
X118034473Y-71017000D01*
X117992574Y-71573337D01*
X117957622Y-72060077D01*
X117929443Y-72479845D01*
X117907863Y-72835263D01*
X117892708Y-73128956D01*
X117889856Y-73194143D01*
X117877715Y-73473200D01*
X117865147Y-73737089D01*
X117850987Y-74008202D01*
X117834071Y-74308933D01*
X117815286Y-74627429D01*
X117809962Y-74721573D01*
X117804475Y-74830645D01*
X117798532Y-74962152D01*
X117791838Y-75123602D01*
X117784096Y-75322503D01*
X117775013Y-75566363D01*
X117764294Y-75862688D01*
X117751644Y-76218987D01*
X117741902Y-76496143D01*
X117735510Y-76714940D01*
X117729689Y-76982061D01*
X117724851Y-77273260D01*
X117721411Y-77564291D01*
X117719929Y-77784286D01*
X117717034Y-78528143D01*
X117647334Y-78351957D01*
X117606570Y-78224433D01*
X117567101Y-78060529D01*
X117537898Y-77898386D01*
X117527425Y-77779237D01*
X117520210Y-77599321D01*
X117516088Y-77370363D01*
X117514898Y-77104089D01*
X117516476Y-76812221D01*
X117520661Y-76506485D01*
X117527289Y-76198605D01*
X117536197Y-75900306D01*
X117547224Y-75623312D01*
X117560205Y-75379347D01*
X117574979Y-75180137D01*
X117575747Y-75171714D01*
X117593775Y-74967951D01*
X117611942Y-74748733D01*
X117627282Y-74550327D01*
X117632144Y-74482286D01*
X117663992Y-74023475D01*
X117691750Y-73631456D01*
X117715858Y-73300588D01*
X117736757Y-73025232D01*
X117754887Y-72799750D01*
X117770688Y-72618503D01*
X117784601Y-72475850D01*
X117797066Y-72366154D01*
X117797895Y-72359572D01*
X117852917Y-71928797D01*
X117900162Y-71566017D01*
X117940216Y-71267136D01*
X117973666Y-71028062D01*
X118001098Y-70844701D01*
X118023098Y-70712958D01*
X118040254Y-70628739D01*
X118051120Y-70592269D01*
X118072707Y-70547883D01*
X118077743Y-70564107D01*
X118301215Y-70564107D01*
X118322122Y-70309429D01*
X118331606Y-70182418D01*
X118343025Y-70011830D01*
X118354480Y-69826559D01*
X118359089Y-69747000D01*
X118369907Y-69564483D01*
X118381464Y-69383798D01*
X118391879Y-69233837D01*
X118395654Y-69184572D01*
X118415289Y-68918861D01*
X118436247Y-68595558D01*
X118457591Y-68229608D01*
X118469694Y-68005286D01*
X118486166Y-67753972D01*
X118512217Y-67439232D01*
X118546901Y-67069444D01*
X118589272Y-66652984D01*
X118638383Y-66198231D01*
X118693287Y-65713562D01*
X118753038Y-65207356D01*
X118816690Y-64687989D01*
X118883297Y-64163839D01*
X118951911Y-63643284D01*
X119012839Y-63197429D01*
X119059337Y-62860245D01*
X119109009Y-62494953D01*
X119159162Y-62121705D01*
X119207104Y-61760652D01*
X119250141Y-61431947D01*
X119284355Y-61165429D01*
X119312933Y-60943213D01*
X119340597Y-60737862D01*
X119368731Y-60542224D01*
X119398717Y-60349150D01*
X119431937Y-60151487D01*
X119469774Y-59942087D01*
X119513611Y-59713798D01*
X119564829Y-59459470D01*
X119624812Y-59171953D01*
X119694941Y-58844095D01*
X119776600Y-58468746D01*
X119871171Y-58038756D01*
X119980036Y-57546975D01*
X120010464Y-57409857D01*
X120070956Y-57133565D01*
X120136438Y-56827776D01*
X120205022Y-56501892D01*
X120274819Y-56165317D01*
X120343941Y-55827451D01*
X120410500Y-55497697D01*
X120472606Y-55185457D01*
X120528372Y-54900134D01*
X120575907Y-54651128D01*
X120613325Y-54447842D01*
X120638736Y-54299678D01*
X120648237Y-54234857D01*
X120673299Y-54108297D01*
X120718634Y-53943985D01*
X120726479Y-53920293D01*
X120464466Y-53920293D01*
X120452094Y-54028411D01*
X120426707Y-54194165D01*
X120389601Y-54410938D01*
X120342074Y-54672110D01*
X120285423Y-54971064D01*
X120220946Y-55301182D01*
X120149938Y-55655845D01*
X120073698Y-56028435D01*
X119993523Y-56412334D01*
X119910710Y-56800924D01*
X119826557Y-57187587D01*
X119742360Y-57565704D01*
X119720154Y-57663857D01*
X119649996Y-57976201D01*
X119574915Y-58316229D01*
X119499599Y-58662317D01*
X119428735Y-58992843D01*
X119367009Y-59286181D01*
X119338678Y-59423714D01*
X119288568Y-59672820D01*
X119245477Y-59896166D01*
X119207391Y-60106706D01*
X119172298Y-60317394D01*
X119138183Y-60541181D01*
X119103033Y-60791023D01*
X119064835Y-61079872D01*
X119021575Y-61420682D01*
X118994625Y-61637143D01*
X118950981Y-61984431D01*
X118908167Y-62313905D01*
X118863479Y-62645443D01*
X118814215Y-62998924D01*
X118757671Y-63394226D01*
X118725686Y-63614714D01*
X118691697Y-63854697D01*
X118657992Y-64104183D01*
X118627624Y-64339792D01*
X118603647Y-64538143D01*
X118595377Y-64612571D01*
X118571168Y-64829735D01*
X118542024Y-65075689D01*
X118513096Y-65307353D01*
X118504309Y-65374571D01*
X118481368Y-65548575D01*
X118462054Y-65698938D01*
X118444717Y-65840126D01*
X118427703Y-65986600D01*
X118409363Y-66152824D01*
X118388046Y-66353261D01*
X118362099Y-66602375D01*
X118342747Y-66789714D01*
X118305205Y-67113293D01*
X118260526Y-67412229D01*
X118203901Y-67713671D01*
X118130523Y-68044769D01*
X118092176Y-68204857D01*
X117953017Y-68786451D01*
X117833717Y-69310667D01*
X117732317Y-69789341D01*
X117646859Y-70234309D01*
X117575387Y-70657408D01*
X117515941Y-71070474D01*
X117466565Y-71485344D01*
X117425300Y-71913853D01*
X117390188Y-72367839D01*
X117380958Y-72504714D01*
X117365929Y-72724953D01*
X117350648Y-72925915D01*
X117333307Y-73128151D01*
X117312102Y-73352215D01*
X117285225Y-73618656D01*
X117270932Y-73756572D01*
X117219518Y-74285644D01*
X117179501Y-74784217D01*
X117148315Y-75287894D01*
X117125864Y-75770429D01*
X117110057Y-76150108D01*
X117095693Y-76465762D01*
X117081934Y-76725901D01*
X117067943Y-76939037D01*
X117052881Y-77113680D01*
X117035910Y-77258339D01*
X117016192Y-77381527D01*
X116992888Y-77491753D01*
X116965162Y-77597528D01*
X116936474Y-77693571D01*
X116855083Y-77917717D01*
X116763824Y-78085082D01*
X116651895Y-78211450D01*
X116515814Y-78308354D01*
X116429771Y-78349630D01*
X116319410Y-78384242D01*
X116175536Y-78413650D01*
X115988957Y-78439313D01*
X115750481Y-78462690D01*
X115450915Y-78485241D01*
X115366000Y-78490882D01*
X115157046Y-78505674D01*
X114968574Y-78521253D01*
X114813131Y-78536382D01*
X114703266Y-78549824D01*
X114651525Y-78560341D01*
X114649625Y-78561517D01*
X114679608Y-78570821D01*
X114767829Y-78590143D01*
X114901083Y-78616759D01*
X115066163Y-78647940D01*
X115085053Y-78651414D01*
X115467166Y-78725526D01*
X115784862Y-78796661D01*
X116046080Y-78867438D01*
X116258758Y-78940472D01*
X116430835Y-79018381D01*
X116570250Y-79103782D01*
X116650409Y-79167437D01*
X116752439Y-79263632D01*
X116805246Y-79327304D01*
X116807360Y-79354215D01*
X116757309Y-79340123D01*
X116699500Y-79308973D01*
X116616297Y-79268776D01*
X116484026Y-79214659D01*
X116322820Y-79154552D01*
X116195877Y-79110592D01*
X115948965Y-79037326D01*
X115687253Y-78979176D01*
X115401408Y-78935281D01*
X115082095Y-78904777D01*
X114719981Y-78886800D01*
X114305734Y-78880487D01*
X113830019Y-78884976D01*
X113769429Y-78886177D01*
X113501706Y-78892436D01*
X113248483Y-78899651D01*
X113021719Y-78907381D01*
X112833374Y-78915185D01*
X112695407Y-78922621D01*
X112626429Y-78928354D01*
X112414769Y-78964434D01*
X112204163Y-79018093D01*
X112015421Y-79082766D01*
X111869356Y-79151884D01*
X111824994Y-79181228D01*
X111742169Y-79236874D01*
X111706116Y-79245901D01*
X111715174Y-79215736D01*
X111767686Y-79153807D01*
X111847680Y-79079653D01*
X111908033Y-79030206D01*
X111968805Y-78987835D01*
X112040179Y-78948334D01*
X112132340Y-78907501D01*
X112255470Y-78861131D01*
X112419755Y-78805019D01*
X112635376Y-78734962D01*
X112842442Y-78668982D01*
X113024276Y-78610042D01*
X113175805Y-78558557D01*
X113286273Y-78518377D01*
X113344925Y-78493352D01*
X113350442Y-78487105D01*
X113304219Y-78480522D01*
X113198688Y-78468540D01*
X113046796Y-78452537D01*
X112861491Y-78433891D01*
X112727842Y-78420869D01*
X112480236Y-78395877D01*
X112291783Y-78372927D01*
X112149253Y-78348792D01*
X112039421Y-78320239D01*
X111949057Y-78284040D01*
X111864935Y-78236965D01*
X111800771Y-78194499D01*
X111677718Y-78093418D01*
X111593737Y-77978508D01*
X111540545Y-77832256D01*
X111509860Y-77637150D01*
X111503812Y-77566571D01*
X111491120Y-77406104D01*
X111488782Y-77379491D01*
X110892585Y-77379491D01*
X110879862Y-77733930D01*
X110850755Y-78068263D01*
X110806761Y-78365152D01*
X110751349Y-78600714D01*
X110713725Y-78717679D01*
X110683451Y-78795740D01*
X110666163Y-78820713D01*
X110664851Y-78818429D01*
X110662458Y-78776135D01*
X110659485Y-78668184D01*
X110656040Y-78501485D01*
X110652235Y-78282948D01*
X110648179Y-78019483D01*
X110643983Y-77718001D01*
X110639758Y-77385411D01*
X110635613Y-77028624D01*
X110634158Y-76895286D01*
X110629984Y-76529294D01*
X110625556Y-76183250D01*
X110620998Y-75864331D01*
X110616436Y-75579710D01*
X110611995Y-75336562D01*
X110607799Y-75142063D01*
X110603976Y-75003387D01*
X110600648Y-74927710D01*
X110599669Y-74917714D01*
X110594555Y-74856194D01*
X110588079Y-74733769D01*
X110580721Y-74562086D01*
X110572961Y-74352788D01*
X110565278Y-74117520D01*
X110561576Y-73992429D01*
X110553736Y-73726756D01*
X110545438Y-73460931D01*
X110537243Y-73211872D01*
X110529711Y-72996495D01*
X110523405Y-72831719D01*
X110521850Y-72795000D01*
X110513665Y-72607114D01*
X110503761Y-72378258D01*
X110493501Y-72139966D01*
X110485809Y-71960429D01*
X110468371Y-71569919D01*
X110450362Y-71199533D01*
X110432315Y-70858618D01*
X110414763Y-70556524D01*
X110398239Y-70302600D01*
X110383275Y-70106195D01*
X110375194Y-70019143D01*
X110370692Y-69954329D01*
X110377775Y-69951919D01*
X110397855Y-70014840D01*
X110427762Y-70128000D01*
X110485575Y-70398369D01*
X110539103Y-70738518D01*
X110588061Y-71145766D01*
X110632164Y-71617431D01*
X110671127Y-72150833D01*
X110703627Y-72722429D01*
X110713596Y-72913396D01*
X110724258Y-73103594D01*
X110734042Y-73265590D01*
X110738939Y-73339286D01*
X110747585Y-73470324D01*
X110758381Y-73646412D01*
X110769674Y-73840129D01*
X110776149Y-73956143D01*
X110786388Y-74130904D01*
X110796881Y-74289125D01*
X110806206Y-74410371D01*
X110811503Y-74464143D01*
X110815874Y-74528747D01*
X110821275Y-74655128D01*
X110827362Y-74832503D01*
X110833793Y-75050090D01*
X110840225Y-75297108D01*
X110846100Y-75552714D01*
X110852778Y-75845233D01*
X110860284Y-76143697D01*
X110868146Y-76431376D01*
X110875895Y-76691543D01*
X110883059Y-76907468D01*
X110887432Y-77022286D01*
X110892585Y-77379491D01*
X111488782Y-77379491D01*
X111478072Y-77257599D01*
X111467077Y-77148127D01*
X111465071Y-77131143D01*
X111453148Y-77007494D01*
X111439564Y-76816818D01*
X111424646Y-76564631D01*
X111408722Y-76256452D01*
X111392904Y-75915571D01*
X111376709Y-75556474D01*
X111362153Y-75253174D01*
X111348159Y-74988948D01*
X111333648Y-74747073D01*
X111317542Y-74510825D01*
X111298761Y-74263483D01*
X111276228Y-73988322D01*
X111248863Y-73668618D01*
X111245474Y-73629572D01*
X111221251Y-73349308D01*
X111198065Y-73078226D01*
X111176985Y-72829014D01*
X111159075Y-72614360D01*
X111145404Y-72446955D01*
X111137180Y-72341429D01*
X111125094Y-72183988D01*
X111112701Y-72033742D01*
X111102774Y-71924143D01*
X111092006Y-71810618D01*
X111078355Y-71659962D01*
X111066526Y-71525000D01*
X111035092Y-71182265D01*
X111003029Y-70896782D01*
X110966576Y-70653301D01*
X110921975Y-70436570D01*
X110865465Y-70231339D01*
X110793286Y-70022356D01*
X110701679Y-69794370D01*
X110586882Y-69532130D01*
X110561093Y-69474857D01*
X110257864Y-68803571D01*
X110086995Y-67064833D01*
X110052519Y-66714997D01*
X110019867Y-66385577D01*
X109989783Y-66083950D01*
X109963014Y-65817494D01*
X109940302Y-65593586D01*
X109922392Y-65419604D01*
X109910029Y-65302924D01*
X109903958Y-65250924D01*
X109903898Y-65250547D01*
X109895410Y-65188017D01*
X109880611Y-65068916D01*
X109861386Y-64908777D01*
X109839617Y-64723136D01*
X109833127Y-64667000D01*
X109799058Y-64386500D01*
X109754729Y-64045339D01*
X109701728Y-63654455D01*
X109641642Y-63224784D01*
X109576057Y-62767263D01*
X109506560Y-62292830D01*
X109434739Y-61812422D01*
X109362180Y-61336976D01*
X109290471Y-60877429D01*
X109221198Y-60444718D01*
X109214479Y-60403429D01*
X109172074Y-60142668D01*
X109121590Y-59831334D01*
X109066439Y-59490510D01*
X109010031Y-59141279D01*
X108955773Y-58804725D01*
X108924004Y-58607286D01*
X108870874Y-58285678D01*
X108807428Y-57915996D01*
X108737773Y-57521290D01*
X108666017Y-57124611D01*
X108596267Y-56749007D01*
X108545719Y-56484572D01*
X108482564Y-56157952D01*
X108415241Y-55807228D01*
X108347431Y-55451746D01*
X108282813Y-55110856D01*
X108225068Y-54803905D01*
X108180902Y-54566631D01*
X108136810Y-54330500D01*
X108095955Y-54116483D01*
X108060502Y-53935541D01*
X108032617Y-53798637D01*
X108014464Y-53716733D01*
X108009737Y-53699894D01*
X108000070Y-53669498D01*
X108009173Y-53659251D01*
X108049004Y-53672769D01*
X108131521Y-53713669D01*
X108235857Y-53768301D01*
X108418123Y-53850548D01*
X108644840Y-53927979D01*
X108920107Y-54001400D01*
X109248019Y-54071615D01*
X109632675Y-54139428D01*
X110078170Y-54205643D01*
X110588602Y-54271065D01*
X111084286Y-54327486D01*
X111225992Y-54343011D01*
X111367983Y-54358816D01*
X111392714Y-54361604D01*
X111536173Y-54376767D01*
X111682684Y-54389735D01*
X111838974Y-54400671D01*
X112011771Y-54409737D01*
X112207804Y-54417093D01*
X112433800Y-54422902D01*
X112696488Y-54427326D01*
X113002595Y-54430525D01*
X113358850Y-54432663D01*
X113771980Y-54433900D01*
X114248713Y-54434399D01*
X114422572Y-54434429D01*
X115030548Y-54433707D01*
X115569842Y-54431486D01*
X116044329Y-54427682D01*
X116457883Y-54422209D01*
X116814380Y-54414984D01*
X117117695Y-54405923D01*
X117371703Y-54394941D01*
X117580278Y-54381954D01*
X117747297Y-54366878D01*
X117797143Y-54361030D01*
X117876495Y-54352141D01*
X118012395Y-54338066D01*
X118189137Y-54320388D01*
X118391013Y-54300685D01*
X118511547Y-54289133D01*
X118729550Y-54267258D01*
X118939819Y-54244147D01*
X119123870Y-54221970D01*
X119263224Y-54202902D01*
X119309832Y-54195307D01*
X119477250Y-54161032D01*
X119670718Y-54114941D01*
X119871052Y-54062311D01*
X120059066Y-54008416D01*
X120215579Y-53958534D01*
X120321404Y-53917940D01*
X120325749Y-53915903D01*
X120408116Y-53882942D01*
X120458579Y-53874462D01*
X120462524Y-53876429D01*
X120464466Y-53920293D01*
X120726479Y-53920293D01*
X120775953Y-53770883D01*
X120797870Y-53712132D01*
X120862168Y-53533862D01*
X120894783Y-53401454D01*
X120895515Y-53337611D01*
X120675968Y-53337611D01*
X120667268Y-53410517D01*
X120601383Y-53498635D01*
X120471714Y-53589440D01*
X120286834Y-53680060D01*
X120055318Y-53767618D01*
X119785738Y-53849240D01*
X119486669Y-53922052D01*
X119166685Y-53983180D01*
X118834358Y-54029749D01*
X118813143Y-54032136D01*
X118595846Y-54054843D01*
X118335533Y-54079852D01*
X118047689Y-54105880D01*
X117747802Y-54131644D01*
X117451358Y-54155860D01*
X117173843Y-54177245D01*
X116930743Y-54194515D01*
X116737546Y-54206386D01*
X116672286Y-54209570D01*
X116591295Y-54211597D01*
X116445401Y-54213708D01*
X116242272Y-54215847D01*
X115989575Y-54217960D01*
X115694980Y-54219990D01*
X115366154Y-54221882D01*
X115010765Y-54223580D01*
X114636481Y-54225030D01*
X114458857Y-54225602D01*
X113949411Y-54226452D01*
X113506231Y-54225654D01*
X113123031Y-54223094D01*
X112793522Y-54218659D01*
X112511416Y-54212238D01*
X112270427Y-54203719D01*
X112064265Y-54192989D01*
X111886642Y-54179935D01*
X111882572Y-54179583D01*
X111257524Y-54120714D01*
X110680313Y-54056952D01*
X110154314Y-53988872D01*
X109682905Y-53917051D01*
X109269462Y-53842067D01*
X108917362Y-53764494D01*
X108629982Y-53684909D01*
X108410699Y-53603889D01*
X108354795Y-53577415D01*
X108225668Y-53499829D01*
X108107662Y-53408367D01*
X108016476Y-53317374D01*
X107967805Y-53241195D01*
X107963715Y-53219992D01*
X107994240Y-53126678D01*
X108074483Y-53024136D01*
X108187440Y-52931686D01*
X108248359Y-52896532D01*
X108448908Y-52815505D01*
X108721461Y-52736820D01*
X109065483Y-52660586D01*
X109480439Y-52586914D01*
X109965797Y-52515914D01*
X110286000Y-52475197D01*
X110542079Y-52449355D01*
X110843456Y-52428592D01*
X111194282Y-52412814D01*
X111598705Y-52401924D01*
X112060874Y-52395830D01*
X112584938Y-52394436D01*
X113175046Y-52397647D01*
X113522744Y-52401264D01*
X113892971Y-52405892D01*
X114248709Y-52410748D01*
X114581884Y-52415694D01*
X114884425Y-52420591D01*
X115148259Y-52425301D01*
X115365316Y-52429686D01*
X115527522Y-52433608D01*
X115626806Y-52436928D01*
X115638143Y-52437493D01*
X115770876Y-52444372D01*
X115953720Y-52453227D01*
X116164276Y-52463003D01*
X116380149Y-52472641D01*
X116418286Y-52474299D01*
X116619822Y-52483590D01*
X116807626Y-52493279D01*
X116963820Y-52502373D01*
X117070530Y-52509878D01*
X117089572Y-52511605D01*
X117189923Y-52520155D01*
X117338060Y-52530967D01*
X117509312Y-52542288D01*
X117597572Y-52547692D01*
X117888633Y-52567512D01*
X118229195Y-52594962D01*
X118596814Y-52628143D01*
X118898400Y-52657852D01*
X119051655Y-52679706D01*
X119251921Y-52716869D01*
X119476554Y-52764275D01*
X119702910Y-52816860D01*
X119908349Y-52869558D01*
X120070226Y-52917303D01*
X120093900Y-52925296D01*
X120334962Y-53022923D01*
X120514257Y-53125819D01*
X120628891Y-53231532D01*
X120675968Y-53337611D01*
X120895515Y-53337611D01*
X120895997Y-53295612D01*
X120866090Y-53197045D01*
X120806940Y-53089049D01*
X120707291Y-52982962D01*
X120544150Y-52877177D01*
X120326553Y-52774587D01*
X120063532Y-52678082D01*
X119764123Y-52590553D01*
X119437359Y-52514890D01*
X119092274Y-52453986D01*
X118737903Y-52410731D01*
X118668012Y-52404560D01*
X118215917Y-52367857D01*
X117828068Y-52337735D01*
X117496496Y-52313594D01*
X117213232Y-52294835D01*
X117180286Y-52292806D01*
X117006286Y-52281591D01*
X116845972Y-52270198D01*
X116721726Y-52260270D01*
X116672286Y-52255533D01*
X116541308Y-52245229D01*
X116345534Y-52235555D01*
X116092737Y-52226565D01*
X115790689Y-52218315D01*
X115447163Y-52210861D01*
X115069932Y-52204259D01*
X114666770Y-52198563D01*
X114245448Y-52193830D01*
X113813740Y-52190114D01*
X113379418Y-52187472D01*
X112950256Y-52185958D01*
X112534026Y-52185629D01*
X112138501Y-52186539D01*
X112138501Y-52186539D01*
G37*
X112138501Y-52186539D02*
X111771455Y-52188745D01*
X111440659Y-52192301D01*
X111153887Y-52197264D01*
X110918911Y-52203688D01*
X110743505Y-52211630D01*
X110721429Y-52213049D01*
X110234645Y-52255193D01*
X109751566Y-52314219D01*
X109290308Y-52387329D01*
X108868990Y-52471725D01*
X108577673Y-52544159D01*
X108296308Y-52632945D01*
X108080881Y-52728713D01*
X107924765Y-52837532D01*
X107821331Y-52965472D01*
X107763953Y-53118601D01*
X107746003Y-53302989D01*
X107746000Y-53305740D01*
X107752994Y-53402964D01*
X107772486Y-53556683D01*
X107802243Y-53752332D01*
X107840030Y-53975346D01*
X107883615Y-54211158D01*
X107889572Y-54241899D01*
X107937790Y-54491597D01*
X107985502Y-54742683D01*
X108029319Y-54977029D01*
X108065851Y-55176507D01*
X108091708Y-55322990D01*
X108091782Y-55323429D01*
X108116727Y-55463587D01*
X108152961Y-55658488D01*
X108197357Y-55891747D01*
X108246789Y-56146982D01*
X108298130Y-56407808D01*
X108313411Y-56484572D01*
X108381509Y-56836963D01*
X108457933Y-57252422D01*
X108541275Y-57722101D01*
X108630129Y-58237151D01*
X108723087Y-58788724D01*
X108818743Y-59367972D01*
X108915690Y-59966046D01*
X109012519Y-60574099D01*
X109107826Y-61183282D01*
X109200202Y-61784747D01*
X109288240Y-62369646D01*
X109370534Y-62929131D01*
X109445676Y-63454353D01*
X109512259Y-63936464D01*
X109568877Y-64366617D01*
X109577058Y-64431143D01*
X109602732Y-64643753D01*
X109634221Y-64919063D01*
X109670538Y-65247522D01*
X109710699Y-65619576D01*
X109753718Y-66025675D01*
X109798610Y-66456266D01*
X109844390Y-66901797D01*
X109890074Y-67352715D01*
X109934674Y-67799470D01*
X109977208Y-68232508D01*
X110016688Y-68642279D01*
X110052131Y-69019229D01*
X110067317Y-69184572D01*
X110089887Y-69432511D01*
X110111240Y-69667028D01*
X110130155Y-69874700D01*
X110145408Y-70042107D01*
X110155776Y-70155826D01*
X110158205Y-70182429D01*
X110167944Y-70302731D01*
X110179573Y-70466571D01*
X110191076Y-70645022D01*
X110194873Y-70708572D01*
X110206193Y-70901989D01*
X110218307Y-71107673D01*
X110228999Y-71288049D01*
X110231229Y-71325429D01*
X110238608Y-71463764D01*
X110247434Y-71652198D01*
X110256716Y-71868299D01*
X110265458Y-72089636D01*
X110267395Y-72141857D01*
X110276273Y-72382317D01*
X110286058Y-72643486D01*
X110295608Y-72895112D01*
X110303781Y-73106940D01*
X110304353Y-73121572D01*
X110311077Y-73302748D01*
X110319136Y-73534937D01*
X110327815Y-73796612D01*
X110336397Y-74066242D01*
X110342994Y-74282714D01*
X110350551Y-74513699D01*
X110358827Y-74727580D01*
X110367198Y-74910816D01*
X110375039Y-75049869D01*
X110381728Y-75131199D01*
X110382281Y-75135429D01*
X110385900Y-75194604D01*
X110389974Y-75319377D01*
X110394383Y-75502775D01*
X110399006Y-75737829D01*
X110403723Y-76017566D01*
X110408415Y-76335014D01*
X110412961Y-76683202D01*
X110417241Y-77055159D01*
X110420062Y-77330714D01*
X110424259Y-77771084D01*
X110427521Y-78145095D01*
X110429702Y-78458952D01*
X110430660Y-78718863D01*
X110430252Y-78931036D01*
X110428332Y-79101676D01*
X110424759Y-79236993D01*
X110419387Y-79343191D01*
X110412074Y-79426479D01*
X110402675Y-79493064D01*
X110391048Y-79549152D01*
X110377048Y-79600952D01*
X110366733Y-79634857D01*
X110296548Y-79840432D01*
X110201734Y-80089399D01*
X110088780Y-80367079D01*
X109964176Y-80658797D01*
X109834410Y-80949874D01*
X109705972Y-81225635D01*
X109585350Y-81471402D01*
X109479034Y-81672497D01*
X109424377Y-81766311D01*
X109303316Y-81991987D01*
X109235169Y-82199466D01*
X109219846Y-82403812D01*
X109257256Y-82620090D01*
X109347306Y-82863366D01*
X109416863Y-83009429D01*
X109543811Y-83223912D01*
X109696612Y-83404499D01*
X109891812Y-83568279D01*
X110076336Y-83690577D01*
X110486020Y-83909115D01*
X110955347Y-84100735D01*
X111475632Y-84262972D01*
X112038191Y-84393361D01*
X112634337Y-84489436D01*
X113043715Y-84532999D01*
X113292757Y-84548633D01*
X113596630Y-84558891D01*
X113937804Y-84563921D01*
X114298749Y-84563870D01*
X114661935Y-84558886D01*
X115009832Y-84549116D01*
X115324909Y-84534707D01*
X115589637Y-84515807D01*
X115638143Y-84511186D01*
X115862816Y-84485172D01*
X116106014Y-84451497D01*
X116335329Y-84414914D01*
X116487664Y-84386613D01*
X116780017Y-84316211D01*
X117113180Y-84218139D01*
X117464670Y-84100229D01*
X117812004Y-83970317D01*
X117826232Y-83964368D01*
X117131321Y-83964368D01*
X117107932Y-83981328D01*
X117027993Y-84010303D01*
X116905747Y-84047334D01*
X116755436Y-84088465D01*
X116591302Y-84129737D01*
X116427587Y-84167192D01*
X116327572Y-84187727D01*
X116020684Y-84240817D01*
X115707229Y-84281407D01*
X115374666Y-84310288D01*
X115010453Y-84328251D01*
X114602051Y-84336088D01*
X114136917Y-84334588D01*
X114023429Y-84333049D01*
X113751155Y-84328371D01*
X113497992Y-84322996D01*
X113274360Y-84317225D01*
X113090679Y-84311360D01*
X112957368Y-84305703D01*
X112884849Y-84300556D01*
X112880429Y-84299940D01*
X112792090Y-84286536D01*
X112658394Y-84267054D01*
X112505868Y-84245354D01*
X112481286Y-84241905D01*
X112189694Y-84192504D01*
X111876206Y-84124431D01*
X111554819Y-84041980D01*
X111239532Y-83949446D01*
X110944343Y-83851121D01*
X110683252Y-83751300D01*
X110470255Y-83654276D01*
X110357525Y-83590486D01*
X110297137Y-83547729D01*
X110287897Y-83531592D01*
X110304143Y-83535633D01*
X110850317Y-83721771D01*
X111355067Y-83873063D01*
X111835167Y-83992368D01*
X112307392Y-84082549D01*
X112788515Y-84146466D01*
X113295309Y-84186980D01*
X113844549Y-84206953D01*
X114259286Y-84210250D01*
X114760853Y-84204146D01*
X115239938Y-84187815D01*
X115686935Y-84161964D01*
X116092242Y-84127298D01*
X116446254Y-84084524D01*
X116739367Y-84034350D01*
X116786009Y-84024345D01*
X116931248Y-83993682D01*
X117047305Y-83972365D01*
X117117865Y-83963227D01*
X117131321Y-83964368D01*
X117826232Y-83964368D01*
X118132698Y-83836234D01*
X118323286Y-83747066D01*
X118507573Y-83652764D01*
X118643411Y-83573398D01*
X118749282Y-83495853D01*
X118843670Y-83407014D01*
X118918175Y-83324929D01*
X119123010Y-83044990D01*
X119264165Y-82751716D01*
X119265761Y-82745335D01*
X118522563Y-82745335D01*
X118496065Y-83003755D01*
X118481193Y-83070185D01*
X118458213Y-83150463D01*
X118427977Y-83207729D01*
X118375859Y-83255279D01*
X118287229Y-83306414D01*
X118147462Y-83374433D01*
X118145550Y-83375341D01*
X117836025Y-83503407D01*
X117469819Y-83622836D01*
X117062660Y-83729845D01*
X116630277Y-83820648D01*
X116188397Y-83891459D01*
X115834169Y-83931577D01*
X115610582Y-83947788D01*
X115338216Y-83961100D01*
X115030692Y-83971410D01*
X114701627Y-83978616D01*
X114364643Y-83982615D01*
X114033358Y-83983306D01*
X113721393Y-83980588D01*
X113442366Y-83974356D01*
X113209897Y-83964510D01*
X113051356Y-83952435D01*
X112708765Y-83909056D01*
X112328997Y-83847986D01*
X111943598Y-83774849D01*
X111584117Y-83695267D01*
X111518945Y-83679282D01*
X111391765Y-83644973D01*
X111230484Y-83597767D01*
X111048744Y-83542091D01*
X110860190Y-83482372D01*
X110678464Y-83423037D01*
X110517210Y-83368514D01*
X110390072Y-83323228D01*
X110310693Y-83291608D01*
X110291702Y-83281073D01*
X110275071Y-83233046D01*
X110255655Y-83128507D01*
X110235230Y-82983374D01*
X110215571Y-82813563D01*
X110198455Y-82634990D01*
X110185657Y-82463571D01*
X110178956Y-82315224D01*
X110178380Y-82265571D01*
X110185604Y-82091786D01*
X110204698Y-81904743D01*
X110232883Y-81717622D01*
X110267376Y-81543604D01*
X110305395Y-81395870D01*
X110344160Y-81287600D01*
X110380888Y-81231975D01*
X110397355Y-81227946D01*
X110451432Y-81244119D01*
X110558606Y-81276835D01*
X110702663Y-81321126D01*
X110845875Y-81365363D01*
X111265389Y-81480406D01*
X111718576Y-81578812D01*
X112172474Y-81654218D01*
X112572000Y-81698574D01*
X112712036Y-81706431D01*
X112902539Y-81712612D01*
X113132073Y-81717149D01*
X113389200Y-81720075D01*
X113662484Y-81721422D01*
X113940487Y-81721221D01*
X114211774Y-81719506D01*
X114464906Y-81716308D01*
X114688447Y-81711659D01*
X114870960Y-81705591D01*
X115001008Y-81698137D01*
X115057572Y-81691592D01*
X115160694Y-81675324D01*
X115293272Y-81658424D01*
X115347857Y-81652483D01*
X115461533Y-81640850D01*
X115622601Y-81624320D01*
X115806262Y-81605439D01*
X115928429Y-81592862D01*
X116357082Y-81534596D01*
X116840327Y-81443157D01*
X117369239Y-81320470D01*
X117934892Y-81168463D01*
X118052608Y-81134431D01*
X118093846Y-81149941D01*
X118143269Y-81221252D01*
X118202772Y-81352396D01*
X118274253Y-81547405D01*
X118337320Y-81739429D01*
X118444009Y-82120742D01*
X118505484Y-82453520D01*
X118522563Y-82745335D01*
X119265761Y-82745335D01*
X119338992Y-82452611D01*
X119344840Y-82155176D01*
X119341566Y-82126114D01*
X119310863Y-82002655D01*
X119243181Y-81821300D01*
X119140178Y-81585586D01*
X119003509Y-81299051D01*
X118834833Y-80965230D01*
X118635807Y-80587660D01*
X118601353Y-80523966D01*
X117760857Y-80523966D01*
X117729577Y-80562666D01*
X117645132Y-80620970D01*
X117521611Y-80691218D01*
X117373105Y-80765753D01*
X117213705Y-80836917D01*
X117107715Y-80878940D01*
X116865427Y-80962045D01*
X116607266Y-81035171D01*
X116323453Y-81100157D01*
X116004208Y-81158839D01*
X115639752Y-81213055D01*
X115220306Y-81264644D01*
X114839857Y-81305130D01*
X114670386Y-81322451D01*
X114522236Y-81338064D01*
X114413689Y-81350016D01*
X114368143Y-81355559D01*
X114282684Y-81361659D01*
X114139694Y-81365476D01*
X113954173Y-81367170D01*
X113741121Y-81366902D01*
X113515537Y-81364833D01*
X113292421Y-81361122D01*
X113086772Y-81355930D01*
X112913590Y-81349417D01*
X112787875Y-81341745D01*
X112753429Y-81338288D01*
X112583431Y-81317914D01*
X112401046Y-81296807D01*
X112299857Y-81285490D01*
X112147470Y-81265203D01*
X111966198Y-81235963D01*
X111813340Y-81207604D01*
X111651417Y-81168262D01*
X111470873Y-81113406D01*
X111284677Y-81048340D01*
X111105797Y-80978366D01*
X110947201Y-80908787D01*
X110821858Y-80844905D01*
X110742735Y-80792024D01*
X110721429Y-80761118D01*
X110749113Y-80711231D01*
X110815926Y-80703689D01*
X110860375Y-80720112D01*
X110945937Y-80754082D01*
X111084112Y-80796086D01*
X111256085Y-80841337D01*
X111443041Y-80885047D01*
X111626163Y-80922427D01*
X111719286Y-80938692D01*
X111939940Y-80967735D01*
X112202474Y-80991727D01*
X112493789Y-81010439D01*
X112800782Y-81023642D01*
X113110356Y-81031106D01*
X113409408Y-81032604D01*
X113684840Y-81027905D01*
X113923551Y-81016782D01*
X114112440Y-80999004D01*
X114209177Y-80982205D01*
X114296540Y-80970251D01*
X114442469Y-80959792D01*
X114632961Y-80951417D01*
X114854017Y-80945717D01*
X115091635Y-80943281D01*
X115134462Y-80943234D01*
X115371688Y-80942429D01*
X115593069Y-80940026D01*
X115785082Y-80936302D01*
X115934208Y-80931530D01*
X116026924Y-80925988D01*
X116037286Y-80924840D01*
X116346826Y-80884688D01*
X116593539Y-80851728D01*
X116786649Y-80824504D01*
X116935383Y-80801553D01*
X117048966Y-80781418D01*
X117136625Y-80762639D01*
X117207584Y-80743755D01*
X117234715Y-80735415D01*
X117344928Y-80697347D01*
X117427343Y-80663619D01*
X117452429Y-80649844D01*
X117505759Y-80619330D01*
X117587517Y-80581742D01*
X117673390Y-80547005D01*
X117739066Y-80525040D01*
X117760857Y-80523966D01*
X118601353Y-80523966D01*
X118522781Y-80378714D01*
X118310341Y-79927482D01*
X116692620Y-79927482D01*
X116682696Y-80007861D01*
X116664045Y-80070394D01*
X116627759Y-80125699D01*
X116564110Y-80180507D01*
X116463372Y-80241551D01*
X116315817Y-80315563D01*
X116111721Y-80409277D01*
X116086316Y-80420668D01*
X115888495Y-80506963D01*
X115734371Y-80567023D01*
X115602758Y-80607122D01*
X115472471Y-80633535D01*
X115322322Y-80652534D01*
X115293429Y-80655465D01*
X115126288Y-80673981D01*
X114972015Y-80694490D01*
X114854990Y-80713620D01*
X114821715Y-80720700D01*
X114706131Y-80737064D01*
X114565582Y-80741483D01*
X114513286Y-80739297D01*
X114407300Y-80732865D01*
X114249392Y-80724345D01*
X114060143Y-80714806D01*
X113860133Y-80705313D01*
X113842000Y-80704484D01*
X113352143Y-80682150D01*
X112794385Y-80460452D01*
X112502764Y-80338604D01*
X112252857Y-80222116D01*
X112050900Y-80114441D01*
X111903129Y-80019028D01*
X111815780Y-79939329D01*
X111797554Y-79908761D01*
X111797590Y-79816755D01*
X111869163Y-79728963D01*
X112011330Y-79645923D01*
X112223149Y-79568173D01*
X112503679Y-79496251D01*
X112529476Y-79490677D01*
X112782828Y-79441133D01*
X113030522Y-79403152D01*
X113285959Y-79375835D01*
X113562536Y-79358282D01*
X113873651Y-79349594D01*
X114232704Y-79348870D01*
X114571383Y-79353572D01*
X114899128Y-79360814D01*
X115166870Y-79369915D01*
X115387179Y-79382655D01*
X115572622Y-79400812D01*
X115735768Y-79426168D01*
X115889186Y-79460502D01*
X116045446Y-79505594D01*
X116217114Y-79563225D01*
X116325696Y-79602011D01*
X116502719Y-79674654D01*
X116616937Y-79746357D01*
X116677265Y-79827254D01*
X116692620Y-79927482D01*
X118310341Y-79927482D01*
X118299448Y-79904345D01*
X118128994Y-79394722D01*
X118010463Y-78854714D01*
X117992979Y-78745834D01*
X117979004Y-78639991D01*
X117968300Y-78528312D01*
X117960635Y-78401918D01*
X117955771Y-78251935D01*
X117953473Y-78069486D01*
X117953507Y-77845695D01*
X117955636Y-77571686D01*
X117959625Y-77238582D01*
X117962337Y-77040429D01*
X117967118Y-76722651D01*
X117972210Y-76424197D01*
X117977422Y-76153661D01*
X117982562Y-75919641D01*
X117987439Y-75730731D01*
X117991861Y-75595528D01*
X117995638Y-75522628D01*
X117996279Y-75516429D01*
X118002810Y-75441369D01*
X118011062Y-75310292D01*
X118020112Y-75139707D01*
X118029038Y-74946119D01*
X118031741Y-74881429D01*
X118040857Y-74669212D01*
X118050669Y-74460391D01*
X118060108Y-74276569D01*
X118068106Y-74139350D01*
X118069437Y-74119429D01*
X118077834Y-73984489D01*
X118087860Y-73803214D01*
X118098115Y-73601774D01*
X118105344Y-73448143D01*
X118118229Y-73171907D01*
X118131446Y-72911326D01*
X118145688Y-72656368D01*
X118161649Y-72396997D01*
X118180020Y-72123179D01*
X118201495Y-71824882D01*
X118226767Y-71492071D01*
X118256529Y-71114712D01*
X118291474Y-70682770D01*
X118301215Y-70564107D01*
X118077743Y-70564107D01*
X118070106Y-70636000D01*
X118058889Y-70738951D01*
X118045634Y-70881552D01*
X118034473Y-71017000D01*
X117992574Y-71573337D01*
X117957622Y-72060077D01*
X117929443Y-72479845D01*
X117907863Y-72835263D01*
X117892708Y-73128956D01*
X117889856Y-73194143D01*
X117877715Y-73473200D01*
X117865147Y-73737089D01*
X117850987Y-74008202D01*
X117834071Y-74308933D01*
X117815286Y-74627429D01*
X117809962Y-74721573D01*
X117804475Y-74830645D01*
X117798532Y-74962152D01*
X117791838Y-75123602D01*
X117784096Y-75322503D01*
X117775013Y-75566363D01*
X117764294Y-75862688D01*
X117751644Y-76218987D01*
X117741902Y-76496143D01*
X117735510Y-76714940D01*
X117729689Y-76982061D01*
X117724851Y-77273260D01*
X117721411Y-77564291D01*
X117719929Y-77784286D01*
X117717034Y-78528143D01*
X117647334Y-78351957D01*
X117606570Y-78224433D01*
X117567101Y-78060529D01*
X117537898Y-77898386D01*
X117527425Y-77779237D01*
X117520210Y-77599321D01*
X117516088Y-77370363D01*
X117514898Y-77104089D01*
X117516476Y-76812221D01*
X117520661Y-76506485D01*
X117527289Y-76198605D01*
X117536197Y-75900306D01*
X117547224Y-75623312D01*
X117560205Y-75379347D01*
X117574979Y-75180137D01*
X117575747Y-75171714D01*
X117593775Y-74967951D01*
X117611942Y-74748733D01*
X117627282Y-74550327D01*
X117632144Y-74482286D01*
X117663992Y-74023475D01*
X117691750Y-73631456D01*
X117715858Y-73300588D01*
X117736757Y-73025232D01*
X117754887Y-72799750D01*
X117770688Y-72618503D01*
X117784601Y-72475850D01*
X117797066Y-72366154D01*
X117797895Y-72359572D01*
X117852917Y-71928797D01*
X117900162Y-71566017D01*
X117940216Y-71267136D01*
X117973666Y-71028062D01*
X118001098Y-70844701D01*
X118023098Y-70712958D01*
X118040254Y-70628739D01*
X118051120Y-70592269D01*
X118072707Y-70547883D01*
X118077743Y-70564107D01*
X118301215Y-70564107D01*
X118322122Y-70309429D01*
X118331606Y-70182418D01*
X118343025Y-70011830D01*
X118354480Y-69826559D01*
X118359089Y-69747000D01*
X118369907Y-69564483D01*
X118381464Y-69383798D01*
X118391879Y-69233837D01*
X118395654Y-69184572D01*
X118415289Y-68918861D01*
X118436247Y-68595558D01*
X118457591Y-68229608D01*
X118469694Y-68005286D01*
X118486166Y-67753972D01*
X118512217Y-67439232D01*
X118546901Y-67069444D01*
X118589272Y-66652984D01*
X118638383Y-66198231D01*
X118693287Y-65713562D01*
X118753038Y-65207356D01*
X118816690Y-64687989D01*
X118883297Y-64163839D01*
X118951911Y-63643284D01*
X119012839Y-63197429D01*
X119059337Y-62860245D01*
X119109009Y-62494953D01*
X119159162Y-62121705D01*
X119207104Y-61760652D01*
X119250141Y-61431947D01*
X119284355Y-61165429D01*
X119312933Y-60943213D01*
X119340597Y-60737862D01*
X119368731Y-60542224D01*
X119398717Y-60349150D01*
X119431937Y-60151487D01*
X119469774Y-59942087D01*
X119513611Y-59713798D01*
X119564829Y-59459470D01*
X119624812Y-59171953D01*
X119694941Y-58844095D01*
X119776600Y-58468746D01*
X119871171Y-58038756D01*
X119980036Y-57546975D01*
X120010464Y-57409857D01*
X120070956Y-57133565D01*
X120136438Y-56827776D01*
X120205022Y-56501892D01*
X120274819Y-56165317D01*
X120343941Y-55827451D01*
X120410500Y-55497697D01*
X120472606Y-55185457D01*
X120528372Y-54900134D01*
X120575907Y-54651128D01*
X120613325Y-54447842D01*
X120638736Y-54299678D01*
X120648237Y-54234857D01*
X120673299Y-54108297D01*
X120718634Y-53943985D01*
X120726479Y-53920293D01*
X120464466Y-53920293D01*
X120452094Y-54028411D01*
X120426707Y-54194165D01*
X120389601Y-54410938D01*
X120342074Y-54672110D01*
X120285423Y-54971064D01*
X120220946Y-55301182D01*
X120149938Y-55655845D01*
X120073698Y-56028435D01*
X119993523Y-56412334D01*
X119910710Y-56800924D01*
X119826557Y-57187587D01*
X119742360Y-57565704D01*
X119720154Y-57663857D01*
X119649996Y-57976201D01*
X119574915Y-58316229D01*
X119499599Y-58662317D01*
X119428735Y-58992843D01*
X119367009Y-59286181D01*
X119338678Y-59423714D01*
X119288568Y-59672820D01*
X119245477Y-59896166D01*
X119207391Y-60106706D01*
X119172298Y-60317394D01*
X119138183Y-60541181D01*
X119103033Y-60791023D01*
X119064835Y-61079872D01*
X119021575Y-61420682D01*
X118994625Y-61637143D01*
X118950981Y-61984431D01*
X118908167Y-62313905D01*
X118863479Y-62645443D01*
X118814215Y-62998924D01*
X118757671Y-63394226D01*
X118725686Y-63614714D01*
X118691697Y-63854697D01*
X118657992Y-64104183D01*
X118627624Y-64339792D01*
X118603647Y-64538143D01*
X118595377Y-64612571D01*
X118571168Y-64829735D01*
X118542024Y-65075689D01*
X118513096Y-65307353D01*
X118504309Y-65374571D01*
X118481368Y-65548575D01*
X118462054Y-65698938D01*
X118444717Y-65840126D01*
X118427703Y-65986600D01*
X118409363Y-66152824D01*
X118388046Y-66353261D01*
X118362099Y-66602375D01*
X118342747Y-66789714D01*
X118305205Y-67113293D01*
X118260526Y-67412229D01*
X118203901Y-67713671D01*
X118130523Y-68044769D01*
X118092176Y-68204857D01*
X117953017Y-68786451D01*
X117833717Y-69310667D01*
X117732317Y-69789341D01*
X117646859Y-70234309D01*
X117575387Y-70657408D01*
X117515941Y-71070474D01*
X117466565Y-71485344D01*
X117425300Y-71913853D01*
X117390188Y-72367839D01*
X117380958Y-72504714D01*
X117365929Y-72724953D01*
X117350648Y-72925915D01*
X117333307Y-73128151D01*
X117312102Y-73352215D01*
X117285225Y-73618656D01*
X117270932Y-73756572D01*
X117219518Y-74285644D01*
X117179501Y-74784217D01*
X117148315Y-75287894D01*
X117125864Y-75770429D01*
X117110057Y-76150108D01*
X117095693Y-76465762D01*
X117081934Y-76725901D01*
X117067943Y-76939037D01*
X117052881Y-77113680D01*
X117035910Y-77258339D01*
X117016192Y-77381527D01*
X116992888Y-77491753D01*
X116965162Y-77597528D01*
X116936474Y-77693571D01*
X116855083Y-77917717D01*
X116763824Y-78085082D01*
X116651895Y-78211450D01*
X116515814Y-78308354D01*
X116429771Y-78349630D01*
X116319410Y-78384242D01*
X116175536Y-78413650D01*
X115988957Y-78439313D01*
X115750481Y-78462690D01*
X115450915Y-78485241D01*
X115366000Y-78490882D01*
X115157046Y-78505674D01*
X114968574Y-78521253D01*
X114813131Y-78536382D01*
X114703266Y-78549824D01*
X114651525Y-78560341D01*
X114649625Y-78561517D01*
X114679608Y-78570821D01*
X114767829Y-78590143D01*
X114901083Y-78616759D01*
X115066163Y-78647940D01*
X115085053Y-78651414D01*
X115467166Y-78725526D01*
X115784862Y-78796661D01*
X116046080Y-78867438D01*
X116258758Y-78940472D01*
X116430835Y-79018381D01*
X116570250Y-79103782D01*
X116650409Y-79167437D01*
X116752439Y-79263632D01*
X116805246Y-79327304D01*
X116807360Y-79354215D01*
X116757309Y-79340123D01*
X116699500Y-79308973D01*
X116616297Y-79268776D01*
X116484026Y-79214659D01*
X116322820Y-79154552D01*
X116195877Y-79110592D01*
X115948965Y-79037326D01*
X115687253Y-78979176D01*
X115401408Y-78935281D01*
X115082095Y-78904777D01*
X114719981Y-78886800D01*
X114305734Y-78880487D01*
X113830019Y-78884976D01*
X113769429Y-78886177D01*
X113501706Y-78892436D01*
X113248483Y-78899651D01*
X113021719Y-78907381D01*
X112833374Y-78915185D01*
X112695407Y-78922621D01*
X112626429Y-78928354D01*
X112414769Y-78964434D01*
X112204163Y-79018093D01*
X112015421Y-79082766D01*
X111869356Y-79151884D01*
X111824994Y-79181228D01*
X111742169Y-79236874D01*
X111706116Y-79245901D01*
X111715174Y-79215736D01*
X111767686Y-79153807D01*
X111847680Y-79079653D01*
X111908033Y-79030206D01*
X111968805Y-78987835D01*
X112040179Y-78948334D01*
X112132340Y-78907501D01*
X112255470Y-78861131D01*
X112419755Y-78805019D01*
X112635376Y-78734962D01*
X112842442Y-78668982D01*
X113024276Y-78610042D01*
X113175805Y-78558557D01*
X113286273Y-78518377D01*
X113344925Y-78493352D01*
X113350442Y-78487105D01*
X113304219Y-78480522D01*
X113198688Y-78468540D01*
X113046796Y-78452537D01*
X112861491Y-78433891D01*
X112727842Y-78420869D01*
X112480236Y-78395877D01*
X112291783Y-78372927D01*
X112149253Y-78348792D01*
X112039421Y-78320239D01*
X111949057Y-78284040D01*
X111864935Y-78236965D01*
X111800771Y-78194499D01*
X111677718Y-78093418D01*
X111593737Y-77978508D01*
X111540545Y-77832256D01*
X111509860Y-77637150D01*
X111503812Y-77566571D01*
X111491120Y-77406104D01*
X111488782Y-77379491D01*
X110892585Y-77379491D01*
X110879862Y-77733930D01*
X110850755Y-78068263D01*
X110806761Y-78365152D01*
X110751349Y-78600714D01*
X110713725Y-78717679D01*
X110683451Y-78795740D01*
X110666163Y-78820713D01*
X110664851Y-78818429D01*
X110662458Y-78776135D01*
X110659485Y-78668184D01*
X110656040Y-78501485D01*
X110652235Y-78282948D01*
X110648179Y-78019483D01*
X110643983Y-77718001D01*
X110639758Y-77385411D01*
X110635613Y-77028624D01*
X110634158Y-76895286D01*
X110629984Y-76529294D01*
X110625556Y-76183250D01*
X110620998Y-75864331D01*
X110616436Y-75579710D01*
X110611995Y-75336562D01*
X110607799Y-75142063D01*
X110603976Y-75003387D01*
X110600648Y-74927710D01*
X110599669Y-74917714D01*
X110594555Y-74856194D01*
X110588079Y-74733769D01*
X110580721Y-74562086D01*
X110572961Y-74352788D01*
X110565278Y-74117520D01*
X110561576Y-73992429D01*
X110553736Y-73726756D01*
X110545438Y-73460931D01*
X110537243Y-73211872D01*
X110529711Y-72996495D01*
X110523405Y-72831719D01*
X110521850Y-72795000D01*
X110513665Y-72607114D01*
X110503761Y-72378258D01*
X110493501Y-72139966D01*
X110485809Y-71960429D01*
X110468371Y-71569919D01*
X110450362Y-71199533D01*
X110432315Y-70858618D01*
X110414763Y-70556524D01*
X110398239Y-70302600D01*
X110383275Y-70106195D01*
X110375194Y-70019143D01*
X110370692Y-69954329D01*
X110377775Y-69951919D01*
X110397855Y-70014840D01*
X110427762Y-70128000D01*
X110485575Y-70398369D01*
X110539103Y-70738518D01*
X110588061Y-71145766D01*
X110632164Y-71617431D01*
X110671127Y-72150833D01*
X110703627Y-72722429D01*
X110713596Y-72913396D01*
X110724258Y-73103594D01*
X110734042Y-73265590D01*
X110738939Y-73339286D01*
X110747585Y-73470324D01*
X110758381Y-73646412D01*
X110769674Y-73840129D01*
X110776149Y-73956143D01*
X110786388Y-74130904D01*
X110796881Y-74289125D01*
X110806206Y-74410371D01*
X110811503Y-74464143D01*
X110815874Y-74528747D01*
X110821275Y-74655128D01*
X110827362Y-74832503D01*
X110833793Y-75050090D01*
X110840225Y-75297108D01*
X110846100Y-75552714D01*
X110852778Y-75845233D01*
X110860284Y-76143697D01*
X110868146Y-76431376D01*
X110875895Y-76691543D01*
X110883059Y-76907468D01*
X110887432Y-77022286D01*
X110892585Y-77379491D01*
X111488782Y-77379491D01*
X111478072Y-77257599D01*
X111467077Y-77148127D01*
X111465071Y-77131143D01*
X111453148Y-77007494D01*
X111439564Y-76816818D01*
X111424646Y-76564631D01*
X111408722Y-76256452D01*
X111392904Y-75915571D01*
X111376709Y-75556474D01*
X111362153Y-75253174D01*
X111348159Y-74988948D01*
X111333648Y-74747073D01*
X111317542Y-74510825D01*
X111298761Y-74263483D01*
X111276228Y-73988322D01*
X111248863Y-73668618D01*
X111245474Y-73629572D01*
X111221251Y-73349308D01*
X111198065Y-73078226D01*
X111176985Y-72829014D01*
X111159075Y-72614360D01*
X111145404Y-72446955D01*
X111137180Y-72341429D01*
X111125094Y-72183988D01*
X111112701Y-72033742D01*
X111102774Y-71924143D01*
X111092006Y-71810618D01*
X111078355Y-71659962D01*
X111066526Y-71525000D01*
X111035092Y-71182265D01*
X111003029Y-70896782D01*
X110966576Y-70653301D01*
X110921975Y-70436570D01*
X110865465Y-70231339D01*
X110793286Y-70022356D01*
X110701679Y-69794370D01*
X110586882Y-69532130D01*
X110561093Y-69474857D01*
X110257864Y-68803571D01*
X110086995Y-67064833D01*
X110052519Y-66714997D01*
X110019867Y-66385577D01*
X109989783Y-66083950D01*
X109963014Y-65817494D01*
X109940302Y-65593586D01*
X109922392Y-65419604D01*
X109910029Y-65302924D01*
X109903958Y-65250924D01*
X109903898Y-65250547D01*
X109895410Y-65188017D01*
X109880611Y-65068916D01*
X109861386Y-64908777D01*
X109839617Y-64723136D01*
X109833127Y-64667000D01*
X109799058Y-64386500D01*
X109754729Y-64045339D01*
X109701728Y-63654455D01*
X109641642Y-63224784D01*
X109576057Y-62767263D01*
X109506560Y-62292830D01*
X109434739Y-61812422D01*
X109362180Y-61336976D01*
X109290471Y-60877429D01*
X109221198Y-60444718D01*
X109214479Y-60403429D01*
X109172074Y-60142668D01*
X109121590Y-59831334D01*
X109066439Y-59490510D01*
X109010031Y-59141279D01*
X108955773Y-58804725D01*
X108924004Y-58607286D01*
X108870874Y-58285678D01*
X108807428Y-57915996D01*
X108737773Y-57521290D01*
X108666017Y-57124611D01*
X108596267Y-56749007D01*
X108545719Y-56484572D01*
X108482564Y-56157952D01*
X108415241Y-55807228D01*
X108347431Y-55451746D01*
X108282813Y-55110856D01*
X108225068Y-54803905D01*
X108180902Y-54566631D01*
X108136810Y-54330500D01*
X108095955Y-54116483D01*
X108060502Y-53935541D01*
X108032617Y-53798637D01*
X108014464Y-53716733D01*
X108009737Y-53699894D01*
X108000070Y-53669498D01*
X108009173Y-53659251D01*
X108049004Y-53672769D01*
X108131521Y-53713669D01*
X108235857Y-53768301D01*
X108418123Y-53850548D01*
X108644840Y-53927979D01*
X108920107Y-54001400D01*
X109248019Y-54071615D01*
X109632675Y-54139428D01*
X110078170Y-54205643D01*
X110588602Y-54271065D01*
X111084286Y-54327486D01*
X111225992Y-54343011D01*
X111367983Y-54358816D01*
X111392714Y-54361604D01*
X111536173Y-54376767D01*
X111682684Y-54389735D01*
X111838974Y-54400671D01*
X112011771Y-54409737D01*
X112207804Y-54417093D01*
X112433800Y-54422902D01*
X112696488Y-54427326D01*
X113002595Y-54430525D01*
X113358850Y-54432663D01*
X113771980Y-54433900D01*
X114248713Y-54434399D01*
X114422572Y-54434429D01*
X115030548Y-54433707D01*
X115569842Y-54431486D01*
X116044329Y-54427682D01*
X116457883Y-54422209D01*
X116814380Y-54414984D01*
X117117695Y-54405923D01*
X117371703Y-54394941D01*
X117580278Y-54381954D01*
X117747297Y-54366878D01*
X117797143Y-54361030D01*
X117876495Y-54352141D01*
X118012395Y-54338066D01*
X118189137Y-54320388D01*
X118391013Y-54300685D01*
X118511547Y-54289133D01*
X118729550Y-54267258D01*
X118939819Y-54244147D01*
X119123870Y-54221970D01*
X119263224Y-54202902D01*
X119309832Y-54195307D01*
X119477250Y-54161032D01*
X119670718Y-54114941D01*
X119871052Y-54062311D01*
X120059066Y-54008416D01*
X120215579Y-53958534D01*
X120321404Y-53917940D01*
X120325749Y-53915903D01*
X120408116Y-53882942D01*
X120458579Y-53874462D01*
X120462524Y-53876429D01*
X120464466Y-53920293D01*
X120726479Y-53920293D01*
X120775953Y-53770883D01*
X120797870Y-53712132D01*
X120862168Y-53533862D01*
X120894783Y-53401454D01*
X120895515Y-53337611D01*
X120675968Y-53337611D01*
X120667268Y-53410517D01*
X120601383Y-53498635D01*
X120471714Y-53589440D01*
X120286834Y-53680060D01*
X120055318Y-53767618D01*
X119785738Y-53849240D01*
X119486669Y-53922052D01*
X119166685Y-53983180D01*
X118834358Y-54029749D01*
X118813143Y-54032136D01*
X118595846Y-54054843D01*
X118335533Y-54079852D01*
X118047689Y-54105880D01*
X117747802Y-54131644D01*
X117451358Y-54155860D01*
X117173843Y-54177245D01*
X116930743Y-54194515D01*
X116737546Y-54206386D01*
X116672286Y-54209570D01*
X116591295Y-54211597D01*
X116445401Y-54213708D01*
X116242272Y-54215847D01*
X115989575Y-54217960D01*
X115694980Y-54219990D01*
X115366154Y-54221882D01*
X115010765Y-54223580D01*
X114636481Y-54225030D01*
X114458857Y-54225602D01*
X113949411Y-54226452D01*
X113506231Y-54225654D01*
X113123031Y-54223094D01*
X112793522Y-54218659D01*
X112511416Y-54212238D01*
X112270427Y-54203719D01*
X112064265Y-54192989D01*
X111886642Y-54179935D01*
X111882572Y-54179583D01*
X111257524Y-54120714D01*
X110680313Y-54056952D01*
X110154314Y-53988872D01*
X109682905Y-53917051D01*
X109269462Y-53842067D01*
X108917362Y-53764494D01*
X108629982Y-53684909D01*
X108410699Y-53603889D01*
X108354795Y-53577415D01*
X108225668Y-53499829D01*
X108107662Y-53408367D01*
X108016476Y-53317374D01*
X107967805Y-53241195D01*
X107963715Y-53219992D01*
X107994240Y-53126678D01*
X108074483Y-53024136D01*
X108187440Y-52931686D01*
X108248359Y-52896532D01*
X108448908Y-52815505D01*
X108721461Y-52736820D01*
X109065483Y-52660586D01*
X109480439Y-52586914D01*
X109965797Y-52515914D01*
X110286000Y-52475197D01*
X110542079Y-52449355D01*
X110843456Y-52428592D01*
X111194282Y-52412814D01*
X111598705Y-52401924D01*
X112060874Y-52395830D01*
X112584938Y-52394436D01*
X113175046Y-52397647D01*
X113522744Y-52401264D01*
X113892971Y-52405892D01*
X114248709Y-52410748D01*
X114581884Y-52415694D01*
X114884425Y-52420591D01*
X115148259Y-52425301D01*
X115365316Y-52429686D01*
X115527522Y-52433608D01*
X115626806Y-52436928D01*
X115638143Y-52437493D01*
X115770876Y-52444372D01*
X115953720Y-52453227D01*
X116164276Y-52463003D01*
X116380149Y-52472641D01*
X116418286Y-52474299D01*
X116619822Y-52483590D01*
X116807626Y-52493279D01*
X116963820Y-52502373D01*
X117070530Y-52509878D01*
X117089572Y-52511605D01*
X117189923Y-52520155D01*
X117338060Y-52530967D01*
X117509312Y-52542288D01*
X117597572Y-52547692D01*
X117888633Y-52567512D01*
X118229195Y-52594962D01*
X118596814Y-52628143D01*
X118898400Y-52657852D01*
X119051655Y-52679706D01*
X119251921Y-52716869D01*
X119476554Y-52764275D01*
X119702910Y-52816860D01*
X119908349Y-52869558D01*
X120070226Y-52917303D01*
X120093900Y-52925296D01*
X120334962Y-53022923D01*
X120514257Y-53125819D01*
X120628891Y-53231532D01*
X120675968Y-53337611D01*
X120895515Y-53337611D01*
X120895997Y-53295612D01*
X120866090Y-53197045D01*
X120806940Y-53089049D01*
X120707291Y-52982962D01*
X120544150Y-52877177D01*
X120326553Y-52774587D01*
X120063532Y-52678082D01*
X119764123Y-52590553D01*
X119437359Y-52514890D01*
X119092274Y-52453986D01*
X118737903Y-52410731D01*
X118668012Y-52404560D01*
X118215917Y-52367857D01*
X117828068Y-52337735D01*
X117496496Y-52313594D01*
X117213232Y-52294835D01*
X117180286Y-52292806D01*
X117006286Y-52281591D01*
X116845972Y-52270198D01*
X116721726Y-52260270D01*
X116672286Y-52255533D01*
X116541308Y-52245229D01*
X116345534Y-52235555D01*
X116092737Y-52226565D01*
X115790689Y-52218315D01*
X115447163Y-52210861D01*
X115069932Y-52204259D01*
X114666770Y-52198563D01*
X114245448Y-52193830D01*
X113813740Y-52190114D01*
X113379418Y-52187472D01*
X112950256Y-52185958D01*
X112534026Y-52185629D01*
X112138501Y-52186539D01*
G04 #@! TD*
M02*
