G04 #@! TF.GenerationSoftware,KiCad,Pcbnew,(5.1.0)-1*
G04 #@! TF.CreationDate,2019-10-06T22:43:46-05:00*
G04 #@! TF.ProjectId,HHV_2019_SC,4848565f-3230-4313-995f-53432e6b6963,rev?*
G04 #@! TF.SameCoordinates,Original*
G04 #@! TF.FileFunction,Copper,L2,Bot*
G04 #@! TF.FilePolarity,Positive*
%FSLAX46Y46*%
G04 Gerber Fmt 4.6, Leading zero omitted, Abs format (unit mm)*
G04 Created by KiCad (PCBNEW (5.1.0)-1) date 2019-10-06 22:43:46*
%MOMM*%
%LPD*%
G04 APERTURE LIST*
G04 #@! TA.AperFunction,NonConductor*
%ADD10C,0.050000*%
G04 #@! TD*
G04 #@! TA.AperFunction,ComponentPad*
%ADD11C,1.800000*%
G04 #@! TD*
G04 #@! TA.AperFunction,ComponentPad*
%ADD12R,1.800000X1.800000*%
G04 #@! TD*
G04 #@! TA.AperFunction,ComponentPad*
%ADD13O,1.070000X1.800000*%
G04 #@! TD*
G04 #@! TA.AperFunction,ComponentPad*
%ADD14R,1.070000X1.800000*%
G04 #@! TD*
G04 #@! TA.AperFunction,ComponentPad*
%ADD15R,1.700000X1.700000*%
G04 #@! TD*
G04 #@! TA.AperFunction,ComponentPad*
%ADD16O,1.700000X1.700000*%
G04 #@! TD*
G04 #@! TA.AperFunction,ComponentPad*
%ADD17C,1.400000*%
G04 #@! TD*
G04 #@! TA.AperFunction,ComponentPad*
%ADD18C,2.000000*%
G04 #@! TD*
G04 APERTURE END LIST*
D10*
X90000000Y-98000000D02*
X90000000Y-50000000D01*
X138000000Y-98000000D02*
X90000000Y-98000000D01*
X138000000Y-50000000D02*
X138000000Y-98000000D01*
X90000000Y-50000000D02*
X138000000Y-50000000D01*
D11*
G04 #@! TO.P,D1,2*
G04 #@! TO.N,Net-(D1-Pad2)*
X101540000Y-57500000D03*
D12*
G04 #@! TO.P,D1,1*
G04 #@! TO.N,GND*
X99000000Y-57500000D03*
G04 #@! TD*
D11*
G04 #@! TO.P,D2,2*
G04 #@! TO.N,Net-(D2-Pad2)*
X101040000Y-71500000D03*
D12*
G04 #@! TO.P,D2,1*
G04 #@! TO.N,GND*
X98500000Y-71500000D03*
G04 #@! TD*
D13*
G04 #@! TO.P,D5,4*
G04 #@! TO.N,Net-(D5-Pad4)*
X98190000Y-89500000D03*
G04 #@! TO.P,D5,3*
G04 #@! TO.N,Net-(D5-Pad3)*
X99460000Y-89500000D03*
G04 #@! TO.P,D5,2*
G04 #@! TO.N,GND*
X100730000Y-89500000D03*
D14*
G04 #@! TO.P,D5,1*
G04 #@! TO.N,Net-(D5-Pad1)*
X102000000Y-89500000D03*
G04 #@! TD*
D15*
G04 #@! TO.P,J1,1*
G04 #@! TO.N,GND*
X134000000Y-66500000D03*
D16*
G04 #@! TO.P,J1,2*
G04 #@! TO.N,POS*
X134000000Y-69040000D03*
G04 #@! TD*
D17*
G04 #@! TO.P,R1,1*
G04 #@! TO.N,POS*
X106000000Y-63000000D03*
G04 #@! TO.P,R1,2*
G04 #@! TO.N,Net-(D1-Pad2)*
X98380000Y-63000000D03*
G04 #@! TD*
G04 #@! TO.P,R2,2*
G04 #@! TO.N,Net-(D2-Pad2)*
X98380000Y-66500000D03*
G04 #@! TO.P,R2,1*
G04 #@! TO.N,POS*
X106000000Y-66500000D03*
G04 #@! TD*
G04 #@! TO.P,R5,1*
G04 #@! TO.N,POS*
X124500000Y-74000000D03*
G04 #@! TO.P,R5,2*
G04 #@! TO.N,Net-(R5-Pad2)*
X124500000Y-81620000D03*
G04 #@! TD*
G04 #@! TO.P,R7,2*
G04 #@! TO.N,Net-(R7-Pad2)*
X131500000Y-81620000D03*
G04 #@! TO.P,R7,1*
G04 #@! TO.N,POS*
X131500000Y-74000000D03*
G04 #@! TD*
G04 #@! TO.P,R6,1*
G04 #@! TO.N,POS*
X128000000Y-74000000D03*
G04 #@! TO.P,R6,2*
G04 #@! TO.N,Net-(R6-Pad2)*
X128000000Y-81620000D03*
G04 #@! TD*
D18*
G04 #@! TO.P,S1,1*
G04 #@! TO.N,Net-(D5-Pad1)*
X106000000Y-91500000D03*
G04 #@! TO.P,S1,2*
G04 #@! TO.N,Net-(R5-Pad2)*
X106000000Y-87000000D03*
G04 #@! TO.P,S1,1*
G04 #@! TO.N,Net-(D5-Pad1)*
X112500000Y-91500000D03*
G04 #@! TO.P,S1,2*
G04 #@! TO.N,Net-(R5-Pad2)*
X112500000Y-87000000D03*
G04 #@! TD*
G04 #@! TO.P,S3,2*
G04 #@! TO.N,Net-(R7-Pad2)*
X133500000Y-87000000D03*
G04 #@! TO.P,S3,1*
G04 #@! TO.N,Net-(D5-Pad4)*
X133500000Y-91500000D03*
G04 #@! TO.P,S3,2*
G04 #@! TO.N,Net-(R7-Pad2)*
X127000000Y-87000000D03*
G04 #@! TO.P,S3,1*
G04 #@! TO.N,Net-(D5-Pad4)*
X127000000Y-91500000D03*
G04 #@! TD*
G04 #@! TO.P,S2,1*
G04 #@! TO.N,Net-(D5-Pad3)*
X116500000Y-91500000D03*
G04 #@! TO.P,S2,2*
G04 #@! TO.N,Net-(R6-Pad2)*
X116500000Y-87000000D03*
G04 #@! TO.P,S2,1*
G04 #@! TO.N,Net-(D5-Pad3)*
X123000000Y-91500000D03*
G04 #@! TO.P,S2,2*
G04 #@! TO.N,Net-(R6-Pad2)*
X123000000Y-87000000D03*
G04 #@! TD*
M02*
