G04 #@! TF.GenerationSoftware,KiCad,Pcbnew,(5.1.0)-1*
G04 #@! TF.CreationDate,2019-10-06T22:43:46-05:00*
G04 #@! TF.ProjectId,HHV_2019_SC,4848565f-3230-4313-995f-53432e6b6963,rev?*
G04 #@! TF.SameCoordinates,Original*
G04 #@! TF.FileFunction,Copper,L1,Top*
G04 #@! TF.FilePolarity,Positive*
%FSLAX46Y46*%
G04 Gerber Fmt 4.6, Leading zero omitted, Abs format (unit mm)*
G04 Created by KiCad (PCBNEW (5.1.0)-1) date 2019-10-06 22:43:46*
%MOMM*%
%LPD*%
G04 APERTURE LIST*
G04 #@! TA.AperFunction,NonConductor*
%ADD10C,0.050000*%
G04 #@! TD*
G04 #@! TA.AperFunction,ComponentPad*
%ADD11C,1.800000*%
G04 #@! TD*
G04 #@! TA.AperFunction,ComponentPad*
%ADD12R,1.800000X1.800000*%
G04 #@! TD*
G04 #@! TA.AperFunction,Conductor*
%ADD13C,0.100000*%
G04 #@! TD*
G04 #@! TA.AperFunction,SMDPad,CuDef*
%ADD14C,1.425000*%
G04 #@! TD*
G04 #@! TA.AperFunction,SMDPad,CuDef*
%ADD15C,1.150000*%
G04 #@! TD*
G04 #@! TA.AperFunction,ComponentPad*
%ADD16O,1.070000X1.800000*%
G04 #@! TD*
G04 #@! TA.AperFunction,ComponentPad*
%ADD17R,1.070000X1.800000*%
G04 #@! TD*
G04 #@! TA.AperFunction,ComponentPad*
%ADD18R,1.700000X1.700000*%
G04 #@! TD*
G04 #@! TA.AperFunction,ComponentPad*
%ADD19O,1.700000X1.700000*%
G04 #@! TD*
G04 #@! TA.AperFunction,ComponentPad*
%ADD20C,1.400000*%
G04 #@! TD*
G04 #@! TA.AperFunction,ComponentPad*
%ADD21C,2.000000*%
G04 #@! TD*
G04 #@! TA.AperFunction,Conductor*
%ADD22C,0.400000*%
G04 #@! TD*
G04 APERTURE END LIST*
D10*
X90000000Y-98000000D02*
X90000000Y-50000000D01*
X138000000Y-98000000D02*
X90000000Y-98000000D01*
X138000000Y-50000000D02*
X138000000Y-98000000D01*
X90000000Y-50000000D02*
X138000000Y-50000000D01*
D11*
G04 #@! TO.P,D1,2*
G04 #@! TO.N,Net-(D1-Pad2)*
X101540000Y-57500000D03*
D12*
G04 #@! TO.P,D1,1*
G04 #@! TO.N,GND*
X99000000Y-57500000D03*
G04 #@! TD*
D11*
G04 #@! TO.P,D2,2*
G04 #@! TO.N,Net-(D2-Pad2)*
X101040000Y-71500000D03*
D12*
G04 #@! TO.P,D2,1*
G04 #@! TO.N,GND*
X98500000Y-71500000D03*
G04 #@! TD*
D13*
G04 #@! TO.N,Net-(D3-Pad2)*
G04 #@! TO.C,D3*
G36*
X101974504Y-76126204D02*
G01*
X101998773Y-76129804D01*
X102022571Y-76135765D01*
X102045671Y-76144030D01*
X102067849Y-76154520D01*
X102088893Y-76167133D01*
X102108598Y-76181747D01*
X102126777Y-76198223D01*
X102143253Y-76216402D01*
X102157867Y-76236107D01*
X102170480Y-76257151D01*
X102180970Y-76279329D01*
X102189235Y-76302429D01*
X102195196Y-76326227D01*
X102198796Y-76350496D01*
X102200000Y-76375000D01*
X102200000Y-77625000D01*
X102198796Y-77649504D01*
X102195196Y-77673773D01*
X102189235Y-77697571D01*
X102180970Y-77720671D01*
X102170480Y-77742849D01*
X102157867Y-77763893D01*
X102143253Y-77783598D01*
X102126777Y-77801777D01*
X102108598Y-77818253D01*
X102088893Y-77832867D01*
X102067849Y-77845480D01*
X102045671Y-77855970D01*
X102022571Y-77864235D01*
X101998773Y-77870196D01*
X101974504Y-77873796D01*
X101950000Y-77875000D01*
X101025000Y-77875000D01*
X101000496Y-77873796D01*
X100976227Y-77870196D01*
X100952429Y-77864235D01*
X100929329Y-77855970D01*
X100907151Y-77845480D01*
X100886107Y-77832867D01*
X100866402Y-77818253D01*
X100848223Y-77801777D01*
X100831747Y-77783598D01*
X100817133Y-77763893D01*
X100804520Y-77742849D01*
X100794030Y-77720671D01*
X100785765Y-77697571D01*
X100779804Y-77673773D01*
X100776204Y-77649504D01*
X100775000Y-77625000D01*
X100775000Y-76375000D01*
X100776204Y-76350496D01*
X100779804Y-76326227D01*
X100785765Y-76302429D01*
X100794030Y-76279329D01*
X100804520Y-76257151D01*
X100817133Y-76236107D01*
X100831747Y-76216402D01*
X100848223Y-76198223D01*
X100866402Y-76181747D01*
X100886107Y-76167133D01*
X100907151Y-76154520D01*
X100929329Y-76144030D01*
X100952429Y-76135765D01*
X100976227Y-76129804D01*
X101000496Y-76126204D01*
X101025000Y-76125000D01*
X101950000Y-76125000D01*
X101974504Y-76126204D01*
X101974504Y-76126204D01*
G37*
D14*
G04 #@! TD*
G04 #@! TO.P,D3,2*
G04 #@! TO.N,Net-(D3-Pad2)*
X101487500Y-77000000D03*
D13*
G04 #@! TO.N,GND*
G04 #@! TO.C,D3*
G36*
X98999504Y-76126204D02*
G01*
X99023773Y-76129804D01*
X99047571Y-76135765D01*
X99070671Y-76144030D01*
X99092849Y-76154520D01*
X99113893Y-76167133D01*
X99133598Y-76181747D01*
X99151777Y-76198223D01*
X99168253Y-76216402D01*
X99182867Y-76236107D01*
X99195480Y-76257151D01*
X99205970Y-76279329D01*
X99214235Y-76302429D01*
X99220196Y-76326227D01*
X99223796Y-76350496D01*
X99225000Y-76375000D01*
X99225000Y-77625000D01*
X99223796Y-77649504D01*
X99220196Y-77673773D01*
X99214235Y-77697571D01*
X99205970Y-77720671D01*
X99195480Y-77742849D01*
X99182867Y-77763893D01*
X99168253Y-77783598D01*
X99151777Y-77801777D01*
X99133598Y-77818253D01*
X99113893Y-77832867D01*
X99092849Y-77845480D01*
X99070671Y-77855970D01*
X99047571Y-77864235D01*
X99023773Y-77870196D01*
X98999504Y-77873796D01*
X98975000Y-77875000D01*
X98050000Y-77875000D01*
X98025496Y-77873796D01*
X98001227Y-77870196D01*
X97977429Y-77864235D01*
X97954329Y-77855970D01*
X97932151Y-77845480D01*
X97911107Y-77832867D01*
X97891402Y-77818253D01*
X97873223Y-77801777D01*
X97856747Y-77783598D01*
X97842133Y-77763893D01*
X97829520Y-77742849D01*
X97819030Y-77720671D01*
X97810765Y-77697571D01*
X97804804Y-77673773D01*
X97801204Y-77649504D01*
X97800000Y-77625000D01*
X97800000Y-76375000D01*
X97801204Y-76350496D01*
X97804804Y-76326227D01*
X97810765Y-76302429D01*
X97819030Y-76279329D01*
X97829520Y-76257151D01*
X97842133Y-76236107D01*
X97856747Y-76216402D01*
X97873223Y-76198223D01*
X97891402Y-76181747D01*
X97911107Y-76167133D01*
X97932151Y-76154520D01*
X97954329Y-76144030D01*
X97977429Y-76135765D01*
X98001227Y-76129804D01*
X98025496Y-76126204D01*
X98050000Y-76125000D01*
X98975000Y-76125000D01*
X98999504Y-76126204D01*
X98999504Y-76126204D01*
G37*
D14*
G04 #@! TD*
G04 #@! TO.P,D3,1*
G04 #@! TO.N,GND*
X98512500Y-77000000D03*
D13*
G04 #@! TO.N,Net-(D4-Pad2)*
G04 #@! TO.C,D4*
G36*
X100874505Y-80801204D02*
G01*
X100898773Y-80804804D01*
X100922572Y-80810765D01*
X100945671Y-80819030D01*
X100967850Y-80829520D01*
X100988893Y-80842132D01*
X101008599Y-80856747D01*
X101026777Y-80873223D01*
X101043253Y-80891401D01*
X101057868Y-80911107D01*
X101070480Y-80932150D01*
X101080970Y-80954329D01*
X101089235Y-80977428D01*
X101095196Y-81001227D01*
X101098796Y-81025495D01*
X101100000Y-81049999D01*
X101100000Y-81950001D01*
X101098796Y-81974505D01*
X101095196Y-81998773D01*
X101089235Y-82022572D01*
X101080970Y-82045671D01*
X101070480Y-82067850D01*
X101057868Y-82088893D01*
X101043253Y-82108599D01*
X101026777Y-82126777D01*
X101008599Y-82143253D01*
X100988893Y-82157868D01*
X100967850Y-82170480D01*
X100945671Y-82180970D01*
X100922572Y-82189235D01*
X100898773Y-82195196D01*
X100874505Y-82198796D01*
X100850001Y-82200000D01*
X100199999Y-82200000D01*
X100175495Y-82198796D01*
X100151227Y-82195196D01*
X100127428Y-82189235D01*
X100104329Y-82180970D01*
X100082150Y-82170480D01*
X100061107Y-82157868D01*
X100041401Y-82143253D01*
X100023223Y-82126777D01*
X100006747Y-82108599D01*
X99992132Y-82088893D01*
X99979520Y-82067850D01*
X99969030Y-82045671D01*
X99960765Y-82022572D01*
X99954804Y-81998773D01*
X99951204Y-81974505D01*
X99950000Y-81950001D01*
X99950000Y-81049999D01*
X99951204Y-81025495D01*
X99954804Y-81001227D01*
X99960765Y-80977428D01*
X99969030Y-80954329D01*
X99979520Y-80932150D01*
X99992132Y-80911107D01*
X100006747Y-80891401D01*
X100023223Y-80873223D01*
X100041401Y-80856747D01*
X100061107Y-80842132D01*
X100082150Y-80829520D01*
X100104329Y-80819030D01*
X100127428Y-80810765D01*
X100151227Y-80804804D01*
X100175495Y-80801204D01*
X100199999Y-80800000D01*
X100850001Y-80800000D01*
X100874505Y-80801204D01*
X100874505Y-80801204D01*
G37*
D15*
G04 #@! TD*
G04 #@! TO.P,D4,2*
G04 #@! TO.N,Net-(D4-Pad2)*
X100525000Y-81500000D03*
D13*
G04 #@! TO.N,GND*
G04 #@! TO.C,D4*
G36*
X98824505Y-80801204D02*
G01*
X98848773Y-80804804D01*
X98872572Y-80810765D01*
X98895671Y-80819030D01*
X98917850Y-80829520D01*
X98938893Y-80842132D01*
X98958599Y-80856747D01*
X98976777Y-80873223D01*
X98993253Y-80891401D01*
X99007868Y-80911107D01*
X99020480Y-80932150D01*
X99030970Y-80954329D01*
X99039235Y-80977428D01*
X99045196Y-81001227D01*
X99048796Y-81025495D01*
X99050000Y-81049999D01*
X99050000Y-81950001D01*
X99048796Y-81974505D01*
X99045196Y-81998773D01*
X99039235Y-82022572D01*
X99030970Y-82045671D01*
X99020480Y-82067850D01*
X99007868Y-82088893D01*
X98993253Y-82108599D01*
X98976777Y-82126777D01*
X98958599Y-82143253D01*
X98938893Y-82157868D01*
X98917850Y-82170480D01*
X98895671Y-82180970D01*
X98872572Y-82189235D01*
X98848773Y-82195196D01*
X98824505Y-82198796D01*
X98800001Y-82200000D01*
X98149999Y-82200000D01*
X98125495Y-82198796D01*
X98101227Y-82195196D01*
X98077428Y-82189235D01*
X98054329Y-82180970D01*
X98032150Y-82170480D01*
X98011107Y-82157868D01*
X97991401Y-82143253D01*
X97973223Y-82126777D01*
X97956747Y-82108599D01*
X97942132Y-82088893D01*
X97929520Y-82067850D01*
X97919030Y-82045671D01*
X97910765Y-82022572D01*
X97904804Y-81998773D01*
X97901204Y-81974505D01*
X97900000Y-81950001D01*
X97900000Y-81049999D01*
X97901204Y-81025495D01*
X97904804Y-81001227D01*
X97910765Y-80977428D01*
X97919030Y-80954329D01*
X97929520Y-80932150D01*
X97942132Y-80911107D01*
X97956747Y-80891401D01*
X97973223Y-80873223D01*
X97991401Y-80856747D01*
X98011107Y-80842132D01*
X98032150Y-80829520D01*
X98054329Y-80819030D01*
X98077428Y-80810765D01*
X98101227Y-80804804D01*
X98125495Y-80801204D01*
X98149999Y-80800000D01*
X98800001Y-80800000D01*
X98824505Y-80801204D01*
X98824505Y-80801204D01*
G37*
D15*
G04 #@! TD*
G04 #@! TO.P,D4,1*
G04 #@! TO.N,GND*
X98475000Y-81500000D03*
D16*
G04 #@! TO.P,D5,4*
G04 #@! TO.N,Net-(D5-Pad4)*
X98190000Y-89500000D03*
G04 #@! TO.P,D5,3*
G04 #@! TO.N,Net-(D5-Pad3)*
X99460000Y-89500000D03*
G04 #@! TO.P,D5,2*
G04 #@! TO.N,GND*
X100730000Y-89500000D03*
D17*
G04 #@! TO.P,D5,1*
G04 #@! TO.N,Net-(D5-Pad1)*
X102000000Y-89500000D03*
G04 #@! TD*
D18*
G04 #@! TO.P,J1,1*
G04 #@! TO.N,GND*
X134000000Y-66500000D03*
D19*
G04 #@! TO.P,J1,2*
G04 #@! TO.N,POS*
X134000000Y-69040000D03*
G04 #@! TD*
D20*
G04 #@! TO.P,R1,1*
G04 #@! TO.N,POS*
X106000000Y-63000000D03*
G04 #@! TO.P,R1,2*
G04 #@! TO.N,Net-(D1-Pad2)*
X98380000Y-63000000D03*
G04 #@! TD*
G04 #@! TO.P,R2,2*
G04 #@! TO.N,Net-(D2-Pad2)*
X98380000Y-66500000D03*
G04 #@! TO.P,R2,1*
G04 #@! TO.N,POS*
X106000000Y-66500000D03*
G04 #@! TD*
D13*
G04 #@! TO.N,Net-(D3-Pad2)*
G04 #@! TO.C,R3*
G36*
X107999504Y-76126204D02*
G01*
X108023773Y-76129804D01*
X108047571Y-76135765D01*
X108070671Y-76144030D01*
X108092849Y-76154520D01*
X108113893Y-76167133D01*
X108133598Y-76181747D01*
X108151777Y-76198223D01*
X108168253Y-76216402D01*
X108182867Y-76236107D01*
X108195480Y-76257151D01*
X108205970Y-76279329D01*
X108214235Y-76302429D01*
X108220196Y-76326227D01*
X108223796Y-76350496D01*
X108225000Y-76375000D01*
X108225000Y-77625000D01*
X108223796Y-77649504D01*
X108220196Y-77673773D01*
X108214235Y-77697571D01*
X108205970Y-77720671D01*
X108195480Y-77742849D01*
X108182867Y-77763893D01*
X108168253Y-77783598D01*
X108151777Y-77801777D01*
X108133598Y-77818253D01*
X108113893Y-77832867D01*
X108092849Y-77845480D01*
X108070671Y-77855970D01*
X108047571Y-77864235D01*
X108023773Y-77870196D01*
X107999504Y-77873796D01*
X107975000Y-77875000D01*
X107050000Y-77875000D01*
X107025496Y-77873796D01*
X107001227Y-77870196D01*
X106977429Y-77864235D01*
X106954329Y-77855970D01*
X106932151Y-77845480D01*
X106911107Y-77832867D01*
X106891402Y-77818253D01*
X106873223Y-77801777D01*
X106856747Y-77783598D01*
X106842133Y-77763893D01*
X106829520Y-77742849D01*
X106819030Y-77720671D01*
X106810765Y-77697571D01*
X106804804Y-77673773D01*
X106801204Y-77649504D01*
X106800000Y-77625000D01*
X106800000Y-76375000D01*
X106801204Y-76350496D01*
X106804804Y-76326227D01*
X106810765Y-76302429D01*
X106819030Y-76279329D01*
X106829520Y-76257151D01*
X106842133Y-76236107D01*
X106856747Y-76216402D01*
X106873223Y-76198223D01*
X106891402Y-76181747D01*
X106911107Y-76167133D01*
X106932151Y-76154520D01*
X106954329Y-76144030D01*
X106977429Y-76135765D01*
X107001227Y-76129804D01*
X107025496Y-76126204D01*
X107050000Y-76125000D01*
X107975000Y-76125000D01*
X107999504Y-76126204D01*
X107999504Y-76126204D01*
G37*
D14*
G04 #@! TD*
G04 #@! TO.P,R3,2*
G04 #@! TO.N,Net-(D3-Pad2)*
X107512500Y-77000000D03*
D13*
G04 #@! TO.N,POS*
G04 #@! TO.C,R3*
G36*
X110974504Y-76126204D02*
G01*
X110998773Y-76129804D01*
X111022571Y-76135765D01*
X111045671Y-76144030D01*
X111067849Y-76154520D01*
X111088893Y-76167133D01*
X111108598Y-76181747D01*
X111126777Y-76198223D01*
X111143253Y-76216402D01*
X111157867Y-76236107D01*
X111170480Y-76257151D01*
X111180970Y-76279329D01*
X111189235Y-76302429D01*
X111195196Y-76326227D01*
X111198796Y-76350496D01*
X111200000Y-76375000D01*
X111200000Y-77625000D01*
X111198796Y-77649504D01*
X111195196Y-77673773D01*
X111189235Y-77697571D01*
X111180970Y-77720671D01*
X111170480Y-77742849D01*
X111157867Y-77763893D01*
X111143253Y-77783598D01*
X111126777Y-77801777D01*
X111108598Y-77818253D01*
X111088893Y-77832867D01*
X111067849Y-77845480D01*
X111045671Y-77855970D01*
X111022571Y-77864235D01*
X110998773Y-77870196D01*
X110974504Y-77873796D01*
X110950000Y-77875000D01*
X110025000Y-77875000D01*
X110000496Y-77873796D01*
X109976227Y-77870196D01*
X109952429Y-77864235D01*
X109929329Y-77855970D01*
X109907151Y-77845480D01*
X109886107Y-77832867D01*
X109866402Y-77818253D01*
X109848223Y-77801777D01*
X109831747Y-77783598D01*
X109817133Y-77763893D01*
X109804520Y-77742849D01*
X109794030Y-77720671D01*
X109785765Y-77697571D01*
X109779804Y-77673773D01*
X109776204Y-77649504D01*
X109775000Y-77625000D01*
X109775000Y-76375000D01*
X109776204Y-76350496D01*
X109779804Y-76326227D01*
X109785765Y-76302429D01*
X109794030Y-76279329D01*
X109804520Y-76257151D01*
X109817133Y-76236107D01*
X109831747Y-76216402D01*
X109848223Y-76198223D01*
X109866402Y-76181747D01*
X109886107Y-76167133D01*
X109907151Y-76154520D01*
X109929329Y-76144030D01*
X109952429Y-76135765D01*
X109976227Y-76129804D01*
X110000496Y-76126204D01*
X110025000Y-76125000D01*
X110950000Y-76125000D01*
X110974504Y-76126204D01*
X110974504Y-76126204D01*
G37*
D14*
G04 #@! TD*
G04 #@! TO.P,R3,1*
G04 #@! TO.N,POS*
X110487500Y-77000000D03*
D13*
G04 #@! TO.N,Net-(D4-Pad2)*
G04 #@! TO.C,R4*
G36*
X108799505Y-80801204D02*
G01*
X108823773Y-80804804D01*
X108847572Y-80810765D01*
X108870671Y-80819030D01*
X108892850Y-80829520D01*
X108913893Y-80842132D01*
X108933599Y-80856747D01*
X108951777Y-80873223D01*
X108968253Y-80891401D01*
X108982868Y-80911107D01*
X108995480Y-80932150D01*
X109005970Y-80954329D01*
X109014235Y-80977428D01*
X109020196Y-81001227D01*
X109023796Y-81025495D01*
X109025000Y-81049999D01*
X109025000Y-81950001D01*
X109023796Y-81974505D01*
X109020196Y-81998773D01*
X109014235Y-82022572D01*
X109005970Y-82045671D01*
X108995480Y-82067850D01*
X108982868Y-82088893D01*
X108968253Y-82108599D01*
X108951777Y-82126777D01*
X108933599Y-82143253D01*
X108913893Y-82157868D01*
X108892850Y-82170480D01*
X108870671Y-82180970D01*
X108847572Y-82189235D01*
X108823773Y-82195196D01*
X108799505Y-82198796D01*
X108775001Y-82200000D01*
X108124999Y-82200000D01*
X108100495Y-82198796D01*
X108076227Y-82195196D01*
X108052428Y-82189235D01*
X108029329Y-82180970D01*
X108007150Y-82170480D01*
X107986107Y-82157868D01*
X107966401Y-82143253D01*
X107948223Y-82126777D01*
X107931747Y-82108599D01*
X107917132Y-82088893D01*
X107904520Y-82067850D01*
X107894030Y-82045671D01*
X107885765Y-82022572D01*
X107879804Y-81998773D01*
X107876204Y-81974505D01*
X107875000Y-81950001D01*
X107875000Y-81049999D01*
X107876204Y-81025495D01*
X107879804Y-81001227D01*
X107885765Y-80977428D01*
X107894030Y-80954329D01*
X107904520Y-80932150D01*
X107917132Y-80911107D01*
X107931747Y-80891401D01*
X107948223Y-80873223D01*
X107966401Y-80856747D01*
X107986107Y-80842132D01*
X108007150Y-80829520D01*
X108029329Y-80819030D01*
X108052428Y-80810765D01*
X108076227Y-80804804D01*
X108100495Y-80801204D01*
X108124999Y-80800000D01*
X108775001Y-80800000D01*
X108799505Y-80801204D01*
X108799505Y-80801204D01*
G37*
D15*
G04 #@! TD*
G04 #@! TO.P,R4,2*
G04 #@! TO.N,Net-(D4-Pad2)*
X108450000Y-81500000D03*
D13*
G04 #@! TO.N,POS*
G04 #@! TO.C,R4*
G36*
X110849505Y-80801204D02*
G01*
X110873773Y-80804804D01*
X110897572Y-80810765D01*
X110920671Y-80819030D01*
X110942850Y-80829520D01*
X110963893Y-80842132D01*
X110983599Y-80856747D01*
X111001777Y-80873223D01*
X111018253Y-80891401D01*
X111032868Y-80911107D01*
X111045480Y-80932150D01*
X111055970Y-80954329D01*
X111064235Y-80977428D01*
X111070196Y-81001227D01*
X111073796Y-81025495D01*
X111075000Y-81049999D01*
X111075000Y-81950001D01*
X111073796Y-81974505D01*
X111070196Y-81998773D01*
X111064235Y-82022572D01*
X111055970Y-82045671D01*
X111045480Y-82067850D01*
X111032868Y-82088893D01*
X111018253Y-82108599D01*
X111001777Y-82126777D01*
X110983599Y-82143253D01*
X110963893Y-82157868D01*
X110942850Y-82170480D01*
X110920671Y-82180970D01*
X110897572Y-82189235D01*
X110873773Y-82195196D01*
X110849505Y-82198796D01*
X110825001Y-82200000D01*
X110174999Y-82200000D01*
X110150495Y-82198796D01*
X110126227Y-82195196D01*
X110102428Y-82189235D01*
X110079329Y-82180970D01*
X110057150Y-82170480D01*
X110036107Y-82157868D01*
X110016401Y-82143253D01*
X109998223Y-82126777D01*
X109981747Y-82108599D01*
X109967132Y-82088893D01*
X109954520Y-82067850D01*
X109944030Y-82045671D01*
X109935765Y-82022572D01*
X109929804Y-81998773D01*
X109926204Y-81974505D01*
X109925000Y-81950001D01*
X109925000Y-81049999D01*
X109926204Y-81025495D01*
X109929804Y-81001227D01*
X109935765Y-80977428D01*
X109944030Y-80954329D01*
X109954520Y-80932150D01*
X109967132Y-80911107D01*
X109981747Y-80891401D01*
X109998223Y-80873223D01*
X110016401Y-80856747D01*
X110036107Y-80842132D01*
X110057150Y-80829520D01*
X110079329Y-80819030D01*
X110102428Y-80810765D01*
X110126227Y-80804804D01*
X110150495Y-80801204D01*
X110174999Y-80800000D01*
X110825001Y-80800000D01*
X110849505Y-80801204D01*
X110849505Y-80801204D01*
G37*
D15*
G04 #@! TD*
G04 #@! TO.P,R4,1*
G04 #@! TO.N,POS*
X110500000Y-81500000D03*
D20*
G04 #@! TO.P,R5,1*
G04 #@! TO.N,POS*
X124500000Y-74000000D03*
G04 #@! TO.P,R5,2*
G04 #@! TO.N,Net-(R5-Pad2)*
X124500000Y-81620000D03*
G04 #@! TD*
G04 #@! TO.P,R7,2*
G04 #@! TO.N,Net-(R7-Pad2)*
X131500000Y-81620000D03*
G04 #@! TO.P,R7,1*
G04 #@! TO.N,POS*
X131500000Y-74000000D03*
G04 #@! TD*
G04 #@! TO.P,R6,1*
G04 #@! TO.N,POS*
X128000000Y-74000000D03*
G04 #@! TO.P,R6,2*
G04 #@! TO.N,Net-(R6-Pad2)*
X128000000Y-81620000D03*
G04 #@! TD*
D21*
G04 #@! TO.P,S1,1*
G04 #@! TO.N,Net-(D5-Pad1)*
X106000000Y-91500000D03*
G04 #@! TO.P,S1,2*
G04 #@! TO.N,Net-(R5-Pad2)*
X106000000Y-87000000D03*
G04 #@! TO.P,S1,1*
G04 #@! TO.N,Net-(D5-Pad1)*
X112500000Y-91500000D03*
G04 #@! TO.P,S1,2*
G04 #@! TO.N,Net-(R5-Pad2)*
X112500000Y-87000000D03*
G04 #@! TD*
G04 #@! TO.P,S3,2*
G04 #@! TO.N,Net-(R7-Pad2)*
X133500000Y-87000000D03*
G04 #@! TO.P,S3,1*
G04 #@! TO.N,Net-(D5-Pad4)*
X133500000Y-91500000D03*
G04 #@! TO.P,S3,2*
G04 #@! TO.N,Net-(R7-Pad2)*
X127000000Y-87000000D03*
G04 #@! TO.P,S3,1*
G04 #@! TO.N,Net-(D5-Pad4)*
X127000000Y-91500000D03*
G04 #@! TD*
G04 #@! TO.P,S2,1*
G04 #@! TO.N,Net-(D5-Pad3)*
X116500000Y-91500000D03*
G04 #@! TO.P,S2,2*
G04 #@! TO.N,Net-(R6-Pad2)*
X116500000Y-87000000D03*
G04 #@! TO.P,S2,1*
G04 #@! TO.N,Net-(D5-Pad3)*
X123000000Y-91500000D03*
G04 #@! TO.P,S2,2*
G04 #@! TO.N,Net-(R6-Pad2)*
X123000000Y-87000000D03*
G04 #@! TD*
D22*
G04 #@! TO.N,GND*
X100730000Y-88200000D02*
X97030000Y-84500000D01*
X100730000Y-89500000D02*
X100730000Y-88200000D01*
X97030000Y-84500000D02*
X97000000Y-84500000D01*
X97000000Y-84500000D02*
X95500000Y-83000000D01*
X95500000Y-54500000D02*
X98000000Y-52000000D01*
X98000000Y-52000000D02*
X105000000Y-52000000D01*
X119500000Y-66500000D02*
X134000000Y-66500000D01*
X105000000Y-52000000D02*
X119500000Y-66500000D01*
X97851628Y-80851628D02*
X95500000Y-78500000D01*
X97851628Y-80876628D02*
X97851628Y-80851628D01*
X98475000Y-81500000D02*
X97851628Y-80876628D01*
X95500000Y-83000000D02*
X95500000Y-78500000D01*
X95500000Y-74800000D02*
X95500000Y-74500000D01*
X97700000Y-77000000D02*
X95500000Y-74800000D01*
X98512500Y-77000000D02*
X97700000Y-77000000D01*
X95500000Y-78500000D02*
X95500000Y-74500000D01*
X95500000Y-69800000D02*
X95500000Y-68500000D01*
X97200000Y-71500000D02*
X95500000Y-69800000D01*
X98500000Y-71500000D02*
X97200000Y-71500000D01*
X95500000Y-74500000D02*
X95500000Y-68500000D01*
X95500000Y-55300000D02*
X95500000Y-55000000D01*
X97700000Y-57500000D02*
X95500000Y-55300000D01*
X99000000Y-57500000D02*
X97700000Y-57500000D01*
X95500000Y-68500000D02*
X95500000Y-55000000D01*
X95500000Y-55000000D02*
X95500000Y-54500000D01*
G04 #@! TO.N,Net-(D2-Pad2)*
X101040000Y-69160000D02*
X101040000Y-71500000D01*
X98380000Y-66500000D02*
X101040000Y-69160000D01*
G04 #@! TO.N,Net-(D3-Pad2)*
X107512500Y-77000000D02*
X101487500Y-77000000D01*
G04 #@! TO.N,Net-(D4-Pad2)*
X108450000Y-81500000D02*
X100525000Y-81500000D01*
G04 #@! TO.N,POS*
X129460000Y-69040000D02*
X124500000Y-74000000D01*
X134000000Y-69040000D02*
X129460000Y-69040000D01*
X134000000Y-69040000D02*
X131460000Y-69040000D01*
X128000000Y-72500000D02*
X128000000Y-74000000D01*
X131460000Y-69040000D02*
X128000000Y-72500000D01*
X131500000Y-73010051D02*
X131500000Y-74000000D01*
X131500000Y-70337919D02*
X131500000Y-73010051D01*
X132797919Y-69040000D02*
X131500000Y-70337919D01*
X134000000Y-69040000D02*
X132797919Y-69040000D01*
X122960000Y-69040000D02*
X110500000Y-81500000D01*
X129460000Y-69040000D02*
X122960000Y-69040000D01*
X118447500Y-69040000D02*
X110487500Y-77000000D01*
X122960000Y-69040000D02*
X118447500Y-69040000D01*
X108540000Y-69040000D02*
X106000000Y-66500000D01*
X112040000Y-69040000D02*
X106000000Y-63000000D01*
X112040000Y-69040000D02*
X108540000Y-69040000D01*
X118447500Y-69040000D02*
X112040000Y-69040000D01*
G04 #@! TO.N,Net-(R5-Pad2)*
X117880000Y-81620000D02*
X112500000Y-87000000D01*
X124500000Y-81620000D02*
X117880000Y-81620000D01*
X112500000Y-87000000D02*
X106000000Y-87000000D01*
G04 #@! TO.N,Net-(D1-Pad2)*
X101540000Y-58460000D02*
X101540000Y-57500000D01*
X98380000Y-63000000D02*
X98380000Y-61620000D01*
X98380000Y-61620000D02*
X101540000Y-58460000D01*
G04 #@! TO.N,Net-(D5-Pad4)*
X132085787Y-91500000D02*
X127000000Y-91500000D01*
X133500000Y-91500000D02*
X132085787Y-91500000D01*
X98190000Y-91690000D02*
X98190000Y-89500000D01*
X102500000Y-96000000D02*
X98190000Y-91690000D01*
X124000000Y-96000000D02*
X102500000Y-96000000D01*
X127000000Y-91500000D02*
X127000000Y-93000000D01*
X127000000Y-93000000D02*
X124000000Y-96000000D01*
G04 #@! TO.N,Net-(D5-Pad3)*
X123000000Y-91500000D02*
X116500000Y-91500000D01*
X99460000Y-91460000D02*
X99460000Y-89500000D01*
X103000000Y-95000000D02*
X99460000Y-91460000D01*
X114500000Y-95000000D02*
X103000000Y-95000000D01*
X116500000Y-91500000D02*
X116500000Y-93000000D01*
X116500000Y-93000000D02*
X114500000Y-95000000D01*
G04 #@! TO.N,Net-(D5-Pad1)*
X112500000Y-91500000D02*
X106000000Y-91500000D01*
X106000000Y-92914213D02*
X104914213Y-94000000D01*
X106000000Y-91500000D02*
X106000000Y-92914213D01*
X104914213Y-94000000D02*
X103500000Y-94000000D01*
X102000000Y-92500000D02*
X102000000Y-89500000D01*
X103500000Y-94000000D02*
X102000000Y-92500000D01*
G04 #@! TO.N,Net-(R6-Pad2)*
X123000000Y-86620000D02*
X123000000Y-87000000D01*
X128000000Y-81620000D02*
X123000000Y-86620000D01*
X123000000Y-87000000D02*
X116500000Y-87000000D01*
G04 #@! TO.N,Net-(R7-Pad2)*
X127000000Y-87000000D02*
X133500000Y-87000000D01*
X131500000Y-85000000D02*
X133500000Y-87000000D01*
X131500000Y-81620000D02*
X131500000Y-85000000D01*
G04 #@! TD*
M02*
