G04 #@! TF.GenerationSoftware,KiCad,Pcbnew,(5.1.0)-1*
G04 #@! TF.CreationDate,2019-10-06T22:43:46-05:00*
G04 #@! TF.ProjectId,HHV_2019_SC,4848565f-3230-4313-995f-53432e6b6963,rev?*
G04 #@! TF.SameCoordinates,Original*
G04 #@! TF.FileFunction,Soldermask,Top*
G04 #@! TF.FilePolarity,Negative*
%FSLAX46Y46*%
G04 Gerber Fmt 4.6, Leading zero omitted, Abs format (unit mm)*
G04 Created by KiCad (PCBNEW (5.1.0)-1) date 2019-10-06 22:43:46*
%MOMM*%
%LPD*%
G04 APERTURE LIST*
%ADD10C,0.050000*%
%ADD11C,0.100000*%
G04 APERTURE END LIST*
D10*
X90000000Y-98000000D02*
X90000000Y-50000000D01*
X138000000Y-98000000D02*
X90000000Y-98000000D01*
X138000000Y-50000000D02*
X138000000Y-98000000D01*
X90000000Y-50000000D02*
X138000000Y-50000000D01*
D11*
G36*
X106306564Y-90489389D02*
G01*
X106497833Y-90568615D01*
X106497835Y-90568616D01*
X106669973Y-90683635D01*
X106816365Y-90830027D01*
X106931385Y-91002167D01*
X107010611Y-91193436D01*
X107051000Y-91396484D01*
X107051000Y-91603516D01*
X107010611Y-91806564D01*
X106931385Y-91997833D01*
X106931384Y-91997835D01*
X106816365Y-92169973D01*
X106669973Y-92316365D01*
X106497835Y-92431384D01*
X106497834Y-92431385D01*
X106497833Y-92431385D01*
X106306564Y-92510611D01*
X106103516Y-92551000D01*
X105896484Y-92551000D01*
X105693436Y-92510611D01*
X105502167Y-92431385D01*
X105502166Y-92431385D01*
X105502165Y-92431384D01*
X105330027Y-92316365D01*
X105183635Y-92169973D01*
X105068616Y-91997835D01*
X105068615Y-91997833D01*
X104989389Y-91806564D01*
X104949000Y-91603516D01*
X104949000Y-91396484D01*
X104989389Y-91193436D01*
X105068615Y-91002167D01*
X105183635Y-90830027D01*
X105330027Y-90683635D01*
X105502165Y-90568616D01*
X105502167Y-90568615D01*
X105693436Y-90489389D01*
X105896484Y-90449000D01*
X106103516Y-90449000D01*
X106306564Y-90489389D01*
X106306564Y-90489389D01*
G37*
G36*
X127306564Y-90489389D02*
G01*
X127497833Y-90568615D01*
X127497835Y-90568616D01*
X127669973Y-90683635D01*
X127816365Y-90830027D01*
X127931385Y-91002167D01*
X128010611Y-91193436D01*
X128051000Y-91396484D01*
X128051000Y-91603516D01*
X128010611Y-91806564D01*
X127931385Y-91997833D01*
X127931384Y-91997835D01*
X127816365Y-92169973D01*
X127669973Y-92316365D01*
X127497835Y-92431384D01*
X127497834Y-92431385D01*
X127497833Y-92431385D01*
X127306564Y-92510611D01*
X127103516Y-92551000D01*
X126896484Y-92551000D01*
X126693436Y-92510611D01*
X126502167Y-92431385D01*
X126502166Y-92431385D01*
X126502165Y-92431384D01*
X126330027Y-92316365D01*
X126183635Y-92169973D01*
X126068616Y-91997835D01*
X126068615Y-91997833D01*
X125989389Y-91806564D01*
X125949000Y-91603516D01*
X125949000Y-91396484D01*
X125989389Y-91193436D01*
X126068615Y-91002167D01*
X126183635Y-90830027D01*
X126330027Y-90683635D01*
X126502165Y-90568616D01*
X126502167Y-90568615D01*
X126693436Y-90489389D01*
X126896484Y-90449000D01*
X127103516Y-90449000D01*
X127306564Y-90489389D01*
X127306564Y-90489389D01*
G37*
G36*
X123306564Y-90489389D02*
G01*
X123497833Y-90568615D01*
X123497835Y-90568616D01*
X123669973Y-90683635D01*
X123816365Y-90830027D01*
X123931385Y-91002167D01*
X124010611Y-91193436D01*
X124051000Y-91396484D01*
X124051000Y-91603516D01*
X124010611Y-91806564D01*
X123931385Y-91997833D01*
X123931384Y-91997835D01*
X123816365Y-92169973D01*
X123669973Y-92316365D01*
X123497835Y-92431384D01*
X123497834Y-92431385D01*
X123497833Y-92431385D01*
X123306564Y-92510611D01*
X123103516Y-92551000D01*
X122896484Y-92551000D01*
X122693436Y-92510611D01*
X122502167Y-92431385D01*
X122502166Y-92431385D01*
X122502165Y-92431384D01*
X122330027Y-92316365D01*
X122183635Y-92169973D01*
X122068616Y-91997835D01*
X122068615Y-91997833D01*
X121989389Y-91806564D01*
X121949000Y-91603516D01*
X121949000Y-91396484D01*
X121989389Y-91193436D01*
X122068615Y-91002167D01*
X122183635Y-90830027D01*
X122330027Y-90683635D01*
X122502165Y-90568616D01*
X122502167Y-90568615D01*
X122693436Y-90489389D01*
X122896484Y-90449000D01*
X123103516Y-90449000D01*
X123306564Y-90489389D01*
X123306564Y-90489389D01*
G37*
G36*
X116806564Y-90489389D02*
G01*
X116997833Y-90568615D01*
X116997835Y-90568616D01*
X117169973Y-90683635D01*
X117316365Y-90830027D01*
X117431385Y-91002167D01*
X117510611Y-91193436D01*
X117551000Y-91396484D01*
X117551000Y-91603516D01*
X117510611Y-91806564D01*
X117431385Y-91997833D01*
X117431384Y-91997835D01*
X117316365Y-92169973D01*
X117169973Y-92316365D01*
X116997835Y-92431384D01*
X116997834Y-92431385D01*
X116997833Y-92431385D01*
X116806564Y-92510611D01*
X116603516Y-92551000D01*
X116396484Y-92551000D01*
X116193436Y-92510611D01*
X116002167Y-92431385D01*
X116002166Y-92431385D01*
X116002165Y-92431384D01*
X115830027Y-92316365D01*
X115683635Y-92169973D01*
X115568616Y-91997835D01*
X115568615Y-91997833D01*
X115489389Y-91806564D01*
X115449000Y-91603516D01*
X115449000Y-91396484D01*
X115489389Y-91193436D01*
X115568615Y-91002167D01*
X115683635Y-90830027D01*
X115830027Y-90683635D01*
X116002165Y-90568616D01*
X116002167Y-90568615D01*
X116193436Y-90489389D01*
X116396484Y-90449000D01*
X116603516Y-90449000D01*
X116806564Y-90489389D01*
X116806564Y-90489389D01*
G37*
G36*
X133806564Y-90489389D02*
G01*
X133997833Y-90568615D01*
X133997835Y-90568616D01*
X134169973Y-90683635D01*
X134316365Y-90830027D01*
X134431385Y-91002167D01*
X134510611Y-91193436D01*
X134551000Y-91396484D01*
X134551000Y-91603516D01*
X134510611Y-91806564D01*
X134431385Y-91997833D01*
X134431384Y-91997835D01*
X134316365Y-92169973D01*
X134169973Y-92316365D01*
X133997835Y-92431384D01*
X133997834Y-92431385D01*
X133997833Y-92431385D01*
X133806564Y-92510611D01*
X133603516Y-92551000D01*
X133396484Y-92551000D01*
X133193436Y-92510611D01*
X133002167Y-92431385D01*
X133002166Y-92431385D01*
X133002165Y-92431384D01*
X132830027Y-92316365D01*
X132683635Y-92169973D01*
X132568616Y-91997835D01*
X132568615Y-91997833D01*
X132489389Y-91806564D01*
X132449000Y-91603516D01*
X132449000Y-91396484D01*
X132489389Y-91193436D01*
X132568615Y-91002167D01*
X132683635Y-90830027D01*
X132830027Y-90683635D01*
X133002165Y-90568616D01*
X133002167Y-90568615D01*
X133193436Y-90489389D01*
X133396484Y-90449000D01*
X133603516Y-90449000D01*
X133806564Y-90489389D01*
X133806564Y-90489389D01*
G37*
G36*
X112806564Y-90489389D02*
G01*
X112997833Y-90568615D01*
X112997835Y-90568616D01*
X113169973Y-90683635D01*
X113316365Y-90830027D01*
X113431385Y-91002167D01*
X113510611Y-91193436D01*
X113551000Y-91396484D01*
X113551000Y-91603516D01*
X113510611Y-91806564D01*
X113431385Y-91997833D01*
X113431384Y-91997835D01*
X113316365Y-92169973D01*
X113169973Y-92316365D01*
X112997835Y-92431384D01*
X112997834Y-92431385D01*
X112997833Y-92431385D01*
X112806564Y-92510611D01*
X112603516Y-92551000D01*
X112396484Y-92551000D01*
X112193436Y-92510611D01*
X112002167Y-92431385D01*
X112002166Y-92431385D01*
X112002165Y-92431384D01*
X111830027Y-92316365D01*
X111683635Y-92169973D01*
X111568616Y-91997835D01*
X111568615Y-91997833D01*
X111489389Y-91806564D01*
X111449000Y-91603516D01*
X111449000Y-91396484D01*
X111489389Y-91193436D01*
X111568615Y-91002167D01*
X111683635Y-90830027D01*
X111830027Y-90683635D01*
X112002165Y-90568616D01*
X112002167Y-90568615D01*
X112193436Y-90489389D01*
X112396484Y-90449000D01*
X112603516Y-90449000D01*
X112806564Y-90489389D01*
X112806564Y-90489389D01*
G37*
G36*
X100844876Y-88557479D02*
G01*
X100918517Y-88579818D01*
X100955338Y-88590987D01*
X101057140Y-88645402D01*
X101146370Y-88718630D01*
X101192375Y-88774689D01*
X101209702Y-88792016D01*
X101230076Y-88805630D01*
X101252715Y-88815007D01*
X101276748Y-88819788D01*
X101301252Y-88819788D01*
X101325285Y-88815008D01*
X101347924Y-88805631D01*
X101368299Y-88792017D01*
X101385626Y-88774690D01*
X101399240Y-88754316D01*
X101408617Y-88731677D01*
X101413398Y-88707644D01*
X101414000Y-88695391D01*
X101414000Y-88549000D01*
X102586000Y-88549000D01*
X102586000Y-90451000D01*
X101414000Y-90451000D01*
X101414000Y-90304609D01*
X101411598Y-90280223D01*
X101404485Y-90256774D01*
X101392934Y-90235163D01*
X101377389Y-90216221D01*
X101358447Y-90200676D01*
X101336836Y-90189125D01*
X101313387Y-90182012D01*
X101289001Y-90179610D01*
X101264615Y-90182012D01*
X101241166Y-90189125D01*
X101219555Y-90200676D01*
X101192376Y-90225310D01*
X101146370Y-90281369D01*
X101057139Y-90354598D01*
X100955337Y-90409013D01*
X100918516Y-90420182D01*
X100844875Y-90442521D01*
X100730000Y-90453835D01*
X100615124Y-90442521D01*
X100541483Y-90420182D01*
X100504662Y-90409013D01*
X100402863Y-90354599D01*
X100402861Y-90354598D01*
X100313631Y-90281369D01*
X100260166Y-90216221D01*
X100240402Y-90192139D01*
X100205239Y-90126354D01*
X100191625Y-90105980D01*
X100174298Y-90088653D01*
X100153924Y-90075039D01*
X100131285Y-90065662D01*
X100107251Y-90060882D01*
X100082747Y-90060882D01*
X100058714Y-90065663D01*
X100036075Y-90075040D01*
X100015701Y-90088654D01*
X99998374Y-90105981D01*
X99984761Y-90126355D01*
X99949601Y-90192135D01*
X99949599Y-90192138D01*
X99949598Y-90192139D01*
X99876369Y-90281369D01*
X99848051Y-90304609D01*
X99787139Y-90354598D01*
X99685337Y-90409013D01*
X99648516Y-90420182D01*
X99574875Y-90442521D01*
X99460000Y-90453835D01*
X99345124Y-90442521D01*
X99271483Y-90420182D01*
X99234662Y-90409013D01*
X99132863Y-90354599D01*
X99132861Y-90354598D01*
X99043631Y-90281369D01*
X98990166Y-90216221D01*
X98970402Y-90192139D01*
X98935239Y-90126354D01*
X98921625Y-90105980D01*
X98904298Y-90088653D01*
X98883924Y-90075039D01*
X98861285Y-90065662D01*
X98837251Y-90060882D01*
X98812747Y-90060882D01*
X98788714Y-90065663D01*
X98766075Y-90075040D01*
X98745701Y-90088654D01*
X98728374Y-90105981D01*
X98714761Y-90126355D01*
X98679601Y-90192135D01*
X98679599Y-90192138D01*
X98679598Y-90192139D01*
X98606369Y-90281369D01*
X98578051Y-90304609D01*
X98517139Y-90354598D01*
X98415337Y-90409013D01*
X98378516Y-90420182D01*
X98304875Y-90442521D01*
X98190000Y-90453835D01*
X98075124Y-90442521D01*
X98001483Y-90420182D01*
X97964662Y-90409013D01*
X97862863Y-90354599D01*
X97862861Y-90354598D01*
X97773631Y-90281369D01*
X97720166Y-90216221D01*
X97700402Y-90192139D01*
X97645987Y-90090337D01*
X97634818Y-90053516D01*
X97612479Y-89979875D01*
X97604000Y-89893784D01*
X97604000Y-89106215D01*
X97612479Y-89020124D01*
X97645988Y-88909663D01*
X97665240Y-88873645D01*
X97700403Y-88807860D01*
X97773631Y-88718630D01*
X97862861Y-88645402D01*
X97964663Y-88590987D01*
X98001484Y-88579818D01*
X98075125Y-88557479D01*
X98190000Y-88546165D01*
X98304876Y-88557479D01*
X98378517Y-88579818D01*
X98415338Y-88590987D01*
X98517140Y-88645402D01*
X98606370Y-88718630D01*
X98679598Y-88807860D01*
X98714762Y-88873646D01*
X98728376Y-88894021D01*
X98745703Y-88911347D01*
X98766078Y-88924961D01*
X98788717Y-88934338D01*
X98812750Y-88939118D01*
X98837254Y-88939118D01*
X98861288Y-88934337D01*
X98883926Y-88924960D01*
X98904301Y-88911346D01*
X98921627Y-88894019D01*
X98935240Y-88873645D01*
X98970402Y-88807862D01*
X99043631Y-88718630D01*
X99132861Y-88645402D01*
X99234663Y-88590987D01*
X99271484Y-88579818D01*
X99345125Y-88557479D01*
X99460000Y-88546165D01*
X99574876Y-88557479D01*
X99648517Y-88579818D01*
X99685338Y-88590987D01*
X99787140Y-88645402D01*
X99876370Y-88718630D01*
X99949598Y-88807860D01*
X99984762Y-88873646D01*
X99998376Y-88894021D01*
X100015703Y-88911347D01*
X100036078Y-88924961D01*
X100058717Y-88934338D01*
X100082750Y-88939118D01*
X100107254Y-88939118D01*
X100131288Y-88934337D01*
X100153926Y-88924960D01*
X100174301Y-88911346D01*
X100191627Y-88894019D01*
X100205240Y-88873645D01*
X100240402Y-88807862D01*
X100313631Y-88718630D01*
X100402861Y-88645402D01*
X100504663Y-88590987D01*
X100541484Y-88579818D01*
X100615125Y-88557479D01*
X100730000Y-88546165D01*
X100844876Y-88557479D01*
X100844876Y-88557479D01*
G37*
G36*
X116806564Y-85989389D02*
G01*
X116997833Y-86068615D01*
X116997835Y-86068616D01*
X117169973Y-86183635D01*
X117316365Y-86330027D01*
X117431385Y-86502167D01*
X117510611Y-86693436D01*
X117551000Y-86896484D01*
X117551000Y-87103516D01*
X117510611Y-87306564D01*
X117431385Y-87497833D01*
X117431384Y-87497835D01*
X117316365Y-87669973D01*
X117169973Y-87816365D01*
X116997835Y-87931384D01*
X116997834Y-87931385D01*
X116997833Y-87931385D01*
X116806564Y-88010611D01*
X116603516Y-88051000D01*
X116396484Y-88051000D01*
X116193436Y-88010611D01*
X116002167Y-87931385D01*
X116002166Y-87931385D01*
X116002165Y-87931384D01*
X115830027Y-87816365D01*
X115683635Y-87669973D01*
X115568616Y-87497835D01*
X115568615Y-87497833D01*
X115489389Y-87306564D01*
X115449000Y-87103516D01*
X115449000Y-86896484D01*
X115489389Y-86693436D01*
X115568615Y-86502167D01*
X115683635Y-86330027D01*
X115830027Y-86183635D01*
X116002165Y-86068616D01*
X116002167Y-86068615D01*
X116193436Y-85989389D01*
X116396484Y-85949000D01*
X116603516Y-85949000D01*
X116806564Y-85989389D01*
X116806564Y-85989389D01*
G37*
G36*
X127306564Y-85989389D02*
G01*
X127497833Y-86068615D01*
X127497835Y-86068616D01*
X127669973Y-86183635D01*
X127816365Y-86330027D01*
X127931385Y-86502167D01*
X128010611Y-86693436D01*
X128051000Y-86896484D01*
X128051000Y-87103516D01*
X128010611Y-87306564D01*
X127931385Y-87497833D01*
X127931384Y-87497835D01*
X127816365Y-87669973D01*
X127669973Y-87816365D01*
X127497835Y-87931384D01*
X127497834Y-87931385D01*
X127497833Y-87931385D01*
X127306564Y-88010611D01*
X127103516Y-88051000D01*
X126896484Y-88051000D01*
X126693436Y-88010611D01*
X126502167Y-87931385D01*
X126502166Y-87931385D01*
X126502165Y-87931384D01*
X126330027Y-87816365D01*
X126183635Y-87669973D01*
X126068616Y-87497835D01*
X126068615Y-87497833D01*
X125989389Y-87306564D01*
X125949000Y-87103516D01*
X125949000Y-86896484D01*
X125989389Y-86693436D01*
X126068615Y-86502167D01*
X126183635Y-86330027D01*
X126330027Y-86183635D01*
X126502165Y-86068616D01*
X126502167Y-86068615D01*
X126693436Y-85989389D01*
X126896484Y-85949000D01*
X127103516Y-85949000D01*
X127306564Y-85989389D01*
X127306564Y-85989389D01*
G37*
G36*
X133806564Y-85989389D02*
G01*
X133997833Y-86068615D01*
X133997835Y-86068616D01*
X134169973Y-86183635D01*
X134316365Y-86330027D01*
X134431385Y-86502167D01*
X134510611Y-86693436D01*
X134551000Y-86896484D01*
X134551000Y-87103516D01*
X134510611Y-87306564D01*
X134431385Y-87497833D01*
X134431384Y-87497835D01*
X134316365Y-87669973D01*
X134169973Y-87816365D01*
X133997835Y-87931384D01*
X133997834Y-87931385D01*
X133997833Y-87931385D01*
X133806564Y-88010611D01*
X133603516Y-88051000D01*
X133396484Y-88051000D01*
X133193436Y-88010611D01*
X133002167Y-87931385D01*
X133002166Y-87931385D01*
X133002165Y-87931384D01*
X132830027Y-87816365D01*
X132683635Y-87669973D01*
X132568616Y-87497835D01*
X132568615Y-87497833D01*
X132489389Y-87306564D01*
X132449000Y-87103516D01*
X132449000Y-86896484D01*
X132489389Y-86693436D01*
X132568615Y-86502167D01*
X132683635Y-86330027D01*
X132830027Y-86183635D01*
X133002165Y-86068616D01*
X133002167Y-86068615D01*
X133193436Y-85989389D01*
X133396484Y-85949000D01*
X133603516Y-85949000D01*
X133806564Y-85989389D01*
X133806564Y-85989389D01*
G37*
G36*
X112806564Y-85989389D02*
G01*
X112997833Y-86068615D01*
X112997835Y-86068616D01*
X113169973Y-86183635D01*
X113316365Y-86330027D01*
X113431385Y-86502167D01*
X113510611Y-86693436D01*
X113551000Y-86896484D01*
X113551000Y-87103516D01*
X113510611Y-87306564D01*
X113431385Y-87497833D01*
X113431384Y-87497835D01*
X113316365Y-87669973D01*
X113169973Y-87816365D01*
X112997835Y-87931384D01*
X112997834Y-87931385D01*
X112997833Y-87931385D01*
X112806564Y-88010611D01*
X112603516Y-88051000D01*
X112396484Y-88051000D01*
X112193436Y-88010611D01*
X112002167Y-87931385D01*
X112002166Y-87931385D01*
X112002165Y-87931384D01*
X111830027Y-87816365D01*
X111683635Y-87669973D01*
X111568616Y-87497835D01*
X111568615Y-87497833D01*
X111489389Y-87306564D01*
X111449000Y-87103516D01*
X111449000Y-86896484D01*
X111489389Y-86693436D01*
X111568615Y-86502167D01*
X111683635Y-86330027D01*
X111830027Y-86183635D01*
X112002165Y-86068616D01*
X112002167Y-86068615D01*
X112193436Y-85989389D01*
X112396484Y-85949000D01*
X112603516Y-85949000D01*
X112806564Y-85989389D01*
X112806564Y-85989389D01*
G37*
G36*
X106306564Y-85989389D02*
G01*
X106497833Y-86068615D01*
X106497835Y-86068616D01*
X106669973Y-86183635D01*
X106816365Y-86330027D01*
X106931385Y-86502167D01*
X107010611Y-86693436D01*
X107051000Y-86896484D01*
X107051000Y-87103516D01*
X107010611Y-87306564D01*
X106931385Y-87497833D01*
X106931384Y-87497835D01*
X106816365Y-87669973D01*
X106669973Y-87816365D01*
X106497835Y-87931384D01*
X106497834Y-87931385D01*
X106497833Y-87931385D01*
X106306564Y-88010611D01*
X106103516Y-88051000D01*
X105896484Y-88051000D01*
X105693436Y-88010611D01*
X105502167Y-87931385D01*
X105502166Y-87931385D01*
X105502165Y-87931384D01*
X105330027Y-87816365D01*
X105183635Y-87669973D01*
X105068616Y-87497835D01*
X105068615Y-87497833D01*
X104989389Y-87306564D01*
X104949000Y-87103516D01*
X104949000Y-86896484D01*
X104989389Y-86693436D01*
X105068615Y-86502167D01*
X105183635Y-86330027D01*
X105330027Y-86183635D01*
X105502165Y-86068616D01*
X105502167Y-86068615D01*
X105693436Y-85989389D01*
X105896484Y-85949000D01*
X106103516Y-85949000D01*
X106306564Y-85989389D01*
X106306564Y-85989389D01*
G37*
G36*
X123306564Y-85989389D02*
G01*
X123497833Y-86068615D01*
X123497835Y-86068616D01*
X123669973Y-86183635D01*
X123816365Y-86330027D01*
X123931385Y-86502167D01*
X124010611Y-86693436D01*
X124051000Y-86896484D01*
X124051000Y-87103516D01*
X124010611Y-87306564D01*
X123931385Y-87497833D01*
X123931384Y-87497835D01*
X123816365Y-87669973D01*
X123669973Y-87816365D01*
X123497835Y-87931384D01*
X123497834Y-87931385D01*
X123497833Y-87931385D01*
X123306564Y-88010611D01*
X123103516Y-88051000D01*
X122896484Y-88051000D01*
X122693436Y-88010611D01*
X122502167Y-87931385D01*
X122502166Y-87931385D01*
X122502165Y-87931384D01*
X122330027Y-87816365D01*
X122183635Y-87669973D01*
X122068616Y-87497835D01*
X122068615Y-87497833D01*
X121989389Y-87306564D01*
X121949000Y-87103516D01*
X121949000Y-86896484D01*
X121989389Y-86693436D01*
X122068615Y-86502167D01*
X122183635Y-86330027D01*
X122330027Y-86183635D01*
X122502165Y-86068616D01*
X122502167Y-86068615D01*
X122693436Y-85989389D01*
X122896484Y-85949000D01*
X123103516Y-85949000D01*
X123306564Y-85989389D01*
X123306564Y-85989389D01*
G37*
G36*
X124719059Y-80897860D02*
G01*
X124855732Y-80954472D01*
X124978735Y-81036660D01*
X125083340Y-81141265D01*
X125165528Y-81264268D01*
X125222140Y-81400941D01*
X125251000Y-81546033D01*
X125251000Y-81693967D01*
X125222140Y-81839059D01*
X125165528Y-81975732D01*
X125083340Y-82098735D01*
X124978735Y-82203340D01*
X124855732Y-82285528D01*
X124855731Y-82285529D01*
X124855730Y-82285529D01*
X124719059Y-82342140D01*
X124573968Y-82371000D01*
X124426032Y-82371000D01*
X124280941Y-82342140D01*
X124144270Y-82285529D01*
X124144269Y-82285529D01*
X124144268Y-82285528D01*
X124021265Y-82203340D01*
X123916660Y-82098735D01*
X123834472Y-81975732D01*
X123777860Y-81839059D01*
X123749000Y-81693967D01*
X123749000Y-81546033D01*
X123777860Y-81400941D01*
X123834472Y-81264268D01*
X123916660Y-81141265D01*
X124021265Y-81036660D01*
X124144268Y-80954472D01*
X124280941Y-80897860D01*
X124426032Y-80869000D01*
X124573968Y-80869000D01*
X124719059Y-80897860D01*
X124719059Y-80897860D01*
G37*
G36*
X131719059Y-80897860D02*
G01*
X131855732Y-80954472D01*
X131978735Y-81036660D01*
X132083340Y-81141265D01*
X132165528Y-81264268D01*
X132222140Y-81400941D01*
X132251000Y-81546033D01*
X132251000Y-81693967D01*
X132222140Y-81839059D01*
X132165528Y-81975732D01*
X132083340Y-82098735D01*
X131978735Y-82203340D01*
X131855732Y-82285528D01*
X131855731Y-82285529D01*
X131855730Y-82285529D01*
X131719059Y-82342140D01*
X131573968Y-82371000D01*
X131426032Y-82371000D01*
X131280941Y-82342140D01*
X131144270Y-82285529D01*
X131144269Y-82285529D01*
X131144268Y-82285528D01*
X131021265Y-82203340D01*
X130916660Y-82098735D01*
X130834472Y-81975732D01*
X130777860Y-81839059D01*
X130749000Y-81693967D01*
X130749000Y-81546033D01*
X130777860Y-81400941D01*
X130834472Y-81264268D01*
X130916660Y-81141265D01*
X131021265Y-81036660D01*
X131144268Y-80954472D01*
X131280941Y-80897860D01*
X131426032Y-80869000D01*
X131573968Y-80869000D01*
X131719059Y-80897860D01*
X131719059Y-80897860D01*
G37*
G36*
X128219059Y-80897860D02*
G01*
X128355732Y-80954472D01*
X128478735Y-81036660D01*
X128583340Y-81141265D01*
X128665528Y-81264268D01*
X128722140Y-81400941D01*
X128751000Y-81546033D01*
X128751000Y-81693967D01*
X128722140Y-81839059D01*
X128665528Y-81975732D01*
X128583340Y-82098735D01*
X128478735Y-82203340D01*
X128355732Y-82285528D01*
X128355731Y-82285529D01*
X128355730Y-82285529D01*
X128219059Y-82342140D01*
X128073968Y-82371000D01*
X127926032Y-82371000D01*
X127780941Y-82342140D01*
X127644270Y-82285529D01*
X127644269Y-82285529D01*
X127644268Y-82285528D01*
X127521265Y-82203340D01*
X127416660Y-82098735D01*
X127334472Y-81975732D01*
X127277860Y-81839059D01*
X127249000Y-81693967D01*
X127249000Y-81546033D01*
X127277860Y-81400941D01*
X127334472Y-81264268D01*
X127416660Y-81141265D01*
X127521265Y-81036660D01*
X127644268Y-80954472D01*
X127780941Y-80897860D01*
X127926032Y-80869000D01*
X128073968Y-80869000D01*
X128219059Y-80897860D01*
X128219059Y-80897860D01*
G37*
G36*
X110963674Y-80753465D02*
G01*
X111001367Y-80764899D01*
X111036103Y-80783466D01*
X111066548Y-80808452D01*
X111091534Y-80838897D01*
X111110101Y-80873633D01*
X111121535Y-80911326D01*
X111126000Y-80956661D01*
X111126000Y-82043339D01*
X111121535Y-82088674D01*
X111110101Y-82126367D01*
X111091534Y-82161103D01*
X111066548Y-82191548D01*
X111036103Y-82216534D01*
X111001367Y-82235101D01*
X110963674Y-82246535D01*
X110918339Y-82251000D01*
X110081661Y-82251000D01*
X110036326Y-82246535D01*
X109998633Y-82235101D01*
X109963897Y-82216534D01*
X109933452Y-82191548D01*
X109908466Y-82161103D01*
X109889899Y-82126367D01*
X109878465Y-82088674D01*
X109874000Y-82043339D01*
X109874000Y-80956661D01*
X109878465Y-80911326D01*
X109889899Y-80873633D01*
X109908466Y-80838897D01*
X109933452Y-80808452D01*
X109963897Y-80783466D01*
X109998633Y-80764899D01*
X110036326Y-80753465D01*
X110081661Y-80749000D01*
X110918339Y-80749000D01*
X110963674Y-80753465D01*
X110963674Y-80753465D01*
G37*
G36*
X98938674Y-80753465D02*
G01*
X98976367Y-80764899D01*
X99011103Y-80783466D01*
X99041548Y-80808452D01*
X99066534Y-80838897D01*
X99085101Y-80873633D01*
X99096535Y-80911326D01*
X99101000Y-80956661D01*
X99101000Y-82043339D01*
X99096535Y-82088674D01*
X99085101Y-82126367D01*
X99066534Y-82161103D01*
X99041548Y-82191548D01*
X99011103Y-82216534D01*
X98976367Y-82235101D01*
X98938674Y-82246535D01*
X98893339Y-82251000D01*
X98056661Y-82251000D01*
X98011326Y-82246535D01*
X97973633Y-82235101D01*
X97938897Y-82216534D01*
X97908452Y-82191548D01*
X97883466Y-82161103D01*
X97864899Y-82126367D01*
X97853465Y-82088674D01*
X97849000Y-82043339D01*
X97849000Y-80956661D01*
X97853465Y-80911326D01*
X97864899Y-80873633D01*
X97883466Y-80838897D01*
X97908452Y-80808452D01*
X97938897Y-80783466D01*
X97973633Y-80764899D01*
X98011326Y-80753465D01*
X98056661Y-80749000D01*
X98893339Y-80749000D01*
X98938674Y-80753465D01*
X98938674Y-80753465D01*
G37*
G36*
X100988674Y-80753465D02*
G01*
X101026367Y-80764899D01*
X101061103Y-80783466D01*
X101091548Y-80808452D01*
X101116534Y-80838897D01*
X101135101Y-80873633D01*
X101146535Y-80911326D01*
X101151000Y-80956661D01*
X101151000Y-82043339D01*
X101146535Y-82088674D01*
X101135101Y-82126367D01*
X101116534Y-82161103D01*
X101091548Y-82191548D01*
X101061103Y-82216534D01*
X101026367Y-82235101D01*
X100988674Y-82246535D01*
X100943339Y-82251000D01*
X100106661Y-82251000D01*
X100061326Y-82246535D01*
X100023633Y-82235101D01*
X99988897Y-82216534D01*
X99958452Y-82191548D01*
X99933466Y-82161103D01*
X99914899Y-82126367D01*
X99903465Y-82088674D01*
X99899000Y-82043339D01*
X99899000Y-80956661D01*
X99903465Y-80911326D01*
X99914899Y-80873633D01*
X99933466Y-80838897D01*
X99958452Y-80808452D01*
X99988897Y-80783466D01*
X100023633Y-80764899D01*
X100061326Y-80753465D01*
X100106661Y-80749000D01*
X100943339Y-80749000D01*
X100988674Y-80753465D01*
X100988674Y-80753465D01*
G37*
G36*
X108913674Y-80753465D02*
G01*
X108951367Y-80764899D01*
X108986103Y-80783466D01*
X109016548Y-80808452D01*
X109041534Y-80838897D01*
X109060101Y-80873633D01*
X109071535Y-80911326D01*
X109076000Y-80956661D01*
X109076000Y-82043339D01*
X109071535Y-82088674D01*
X109060101Y-82126367D01*
X109041534Y-82161103D01*
X109016548Y-82191548D01*
X108986103Y-82216534D01*
X108951367Y-82235101D01*
X108913674Y-82246535D01*
X108868339Y-82251000D01*
X108031661Y-82251000D01*
X107986326Y-82246535D01*
X107948633Y-82235101D01*
X107913897Y-82216534D01*
X107883452Y-82191548D01*
X107858466Y-82161103D01*
X107839899Y-82126367D01*
X107828465Y-82088674D01*
X107824000Y-82043339D01*
X107824000Y-80956661D01*
X107828465Y-80911326D01*
X107839899Y-80873633D01*
X107858466Y-80838897D01*
X107883452Y-80808452D01*
X107913897Y-80783466D01*
X107948633Y-80764899D01*
X107986326Y-80753465D01*
X108031661Y-80749000D01*
X108868339Y-80749000D01*
X108913674Y-80753465D01*
X108913674Y-80753465D01*
G37*
G36*
X111100562Y-76078181D02*
G01*
X111135481Y-76088774D01*
X111167663Y-76105976D01*
X111195873Y-76129127D01*
X111219024Y-76157337D01*
X111236226Y-76189519D01*
X111246819Y-76224438D01*
X111251000Y-76266895D01*
X111251000Y-77733105D01*
X111246819Y-77775562D01*
X111236226Y-77810481D01*
X111219024Y-77842663D01*
X111195873Y-77870873D01*
X111167663Y-77894024D01*
X111135481Y-77911226D01*
X111100562Y-77921819D01*
X111058105Y-77926000D01*
X109916895Y-77926000D01*
X109874438Y-77921819D01*
X109839519Y-77911226D01*
X109807337Y-77894024D01*
X109779127Y-77870873D01*
X109755976Y-77842663D01*
X109738774Y-77810481D01*
X109728181Y-77775562D01*
X109724000Y-77733105D01*
X109724000Y-76266895D01*
X109728181Y-76224438D01*
X109738774Y-76189519D01*
X109755976Y-76157337D01*
X109779127Y-76129127D01*
X109807337Y-76105976D01*
X109839519Y-76088774D01*
X109874438Y-76078181D01*
X109916895Y-76074000D01*
X111058105Y-76074000D01*
X111100562Y-76078181D01*
X111100562Y-76078181D01*
G37*
G36*
X99125562Y-76078181D02*
G01*
X99160481Y-76088774D01*
X99192663Y-76105976D01*
X99220873Y-76129127D01*
X99244024Y-76157337D01*
X99261226Y-76189519D01*
X99271819Y-76224438D01*
X99276000Y-76266895D01*
X99276000Y-77733105D01*
X99271819Y-77775562D01*
X99261226Y-77810481D01*
X99244024Y-77842663D01*
X99220873Y-77870873D01*
X99192663Y-77894024D01*
X99160481Y-77911226D01*
X99125562Y-77921819D01*
X99083105Y-77926000D01*
X97941895Y-77926000D01*
X97899438Y-77921819D01*
X97864519Y-77911226D01*
X97832337Y-77894024D01*
X97804127Y-77870873D01*
X97780976Y-77842663D01*
X97763774Y-77810481D01*
X97753181Y-77775562D01*
X97749000Y-77733105D01*
X97749000Y-76266895D01*
X97753181Y-76224438D01*
X97763774Y-76189519D01*
X97780976Y-76157337D01*
X97804127Y-76129127D01*
X97832337Y-76105976D01*
X97864519Y-76088774D01*
X97899438Y-76078181D01*
X97941895Y-76074000D01*
X99083105Y-76074000D01*
X99125562Y-76078181D01*
X99125562Y-76078181D01*
G37*
G36*
X108125562Y-76078181D02*
G01*
X108160481Y-76088774D01*
X108192663Y-76105976D01*
X108220873Y-76129127D01*
X108244024Y-76157337D01*
X108261226Y-76189519D01*
X108271819Y-76224438D01*
X108276000Y-76266895D01*
X108276000Y-77733105D01*
X108271819Y-77775562D01*
X108261226Y-77810481D01*
X108244024Y-77842663D01*
X108220873Y-77870873D01*
X108192663Y-77894024D01*
X108160481Y-77911226D01*
X108125562Y-77921819D01*
X108083105Y-77926000D01*
X106941895Y-77926000D01*
X106899438Y-77921819D01*
X106864519Y-77911226D01*
X106832337Y-77894024D01*
X106804127Y-77870873D01*
X106780976Y-77842663D01*
X106763774Y-77810481D01*
X106753181Y-77775562D01*
X106749000Y-77733105D01*
X106749000Y-76266895D01*
X106753181Y-76224438D01*
X106763774Y-76189519D01*
X106780976Y-76157337D01*
X106804127Y-76129127D01*
X106832337Y-76105976D01*
X106864519Y-76088774D01*
X106899438Y-76078181D01*
X106941895Y-76074000D01*
X108083105Y-76074000D01*
X108125562Y-76078181D01*
X108125562Y-76078181D01*
G37*
G36*
X102100562Y-76078181D02*
G01*
X102135481Y-76088774D01*
X102167663Y-76105976D01*
X102195873Y-76129127D01*
X102219024Y-76157337D01*
X102236226Y-76189519D01*
X102246819Y-76224438D01*
X102251000Y-76266895D01*
X102251000Y-77733105D01*
X102246819Y-77775562D01*
X102236226Y-77810481D01*
X102219024Y-77842663D01*
X102195873Y-77870873D01*
X102167663Y-77894024D01*
X102135481Y-77911226D01*
X102100562Y-77921819D01*
X102058105Y-77926000D01*
X100916895Y-77926000D01*
X100874438Y-77921819D01*
X100839519Y-77911226D01*
X100807337Y-77894024D01*
X100779127Y-77870873D01*
X100755976Y-77842663D01*
X100738774Y-77810481D01*
X100728181Y-77775562D01*
X100724000Y-77733105D01*
X100724000Y-76266895D01*
X100728181Y-76224438D01*
X100738774Y-76189519D01*
X100755976Y-76157337D01*
X100779127Y-76129127D01*
X100807337Y-76105976D01*
X100839519Y-76088774D01*
X100874438Y-76078181D01*
X100916895Y-76074000D01*
X102058105Y-76074000D01*
X102100562Y-76078181D01*
X102100562Y-76078181D01*
G37*
G36*
X131719059Y-73277860D02*
G01*
X131855732Y-73334472D01*
X131978735Y-73416660D01*
X132083340Y-73521265D01*
X132165528Y-73644268D01*
X132222140Y-73780941D01*
X132251000Y-73926033D01*
X132251000Y-74073967D01*
X132222140Y-74219059D01*
X132165528Y-74355732D01*
X132083340Y-74478735D01*
X131978735Y-74583340D01*
X131855732Y-74665528D01*
X131855731Y-74665529D01*
X131855730Y-74665529D01*
X131719059Y-74722140D01*
X131573968Y-74751000D01*
X131426032Y-74751000D01*
X131280941Y-74722140D01*
X131144270Y-74665529D01*
X131144269Y-74665529D01*
X131144268Y-74665528D01*
X131021265Y-74583340D01*
X130916660Y-74478735D01*
X130834472Y-74355732D01*
X130777860Y-74219059D01*
X130749000Y-74073967D01*
X130749000Y-73926033D01*
X130777860Y-73780941D01*
X130834472Y-73644268D01*
X130916660Y-73521265D01*
X131021265Y-73416660D01*
X131144268Y-73334472D01*
X131280941Y-73277860D01*
X131426032Y-73249000D01*
X131573968Y-73249000D01*
X131719059Y-73277860D01*
X131719059Y-73277860D01*
G37*
G36*
X128219059Y-73277860D02*
G01*
X128355732Y-73334472D01*
X128478735Y-73416660D01*
X128583340Y-73521265D01*
X128665528Y-73644268D01*
X128722140Y-73780941D01*
X128751000Y-73926033D01*
X128751000Y-74073967D01*
X128722140Y-74219059D01*
X128665528Y-74355732D01*
X128583340Y-74478735D01*
X128478735Y-74583340D01*
X128355732Y-74665528D01*
X128355731Y-74665529D01*
X128355730Y-74665529D01*
X128219059Y-74722140D01*
X128073968Y-74751000D01*
X127926032Y-74751000D01*
X127780941Y-74722140D01*
X127644270Y-74665529D01*
X127644269Y-74665529D01*
X127644268Y-74665528D01*
X127521265Y-74583340D01*
X127416660Y-74478735D01*
X127334472Y-74355732D01*
X127277860Y-74219059D01*
X127249000Y-74073967D01*
X127249000Y-73926033D01*
X127277860Y-73780941D01*
X127334472Y-73644268D01*
X127416660Y-73521265D01*
X127521265Y-73416660D01*
X127644268Y-73334472D01*
X127780941Y-73277860D01*
X127926032Y-73249000D01*
X128073968Y-73249000D01*
X128219059Y-73277860D01*
X128219059Y-73277860D01*
G37*
G36*
X124719059Y-73277860D02*
G01*
X124855732Y-73334472D01*
X124978735Y-73416660D01*
X125083340Y-73521265D01*
X125165528Y-73644268D01*
X125222140Y-73780941D01*
X125251000Y-73926033D01*
X125251000Y-74073967D01*
X125222140Y-74219059D01*
X125165528Y-74355732D01*
X125083340Y-74478735D01*
X124978735Y-74583340D01*
X124855732Y-74665528D01*
X124855731Y-74665529D01*
X124855730Y-74665529D01*
X124719059Y-74722140D01*
X124573968Y-74751000D01*
X124426032Y-74751000D01*
X124280941Y-74722140D01*
X124144270Y-74665529D01*
X124144269Y-74665529D01*
X124144268Y-74665528D01*
X124021265Y-74583340D01*
X123916660Y-74478735D01*
X123834472Y-74355732D01*
X123777860Y-74219059D01*
X123749000Y-74073967D01*
X123749000Y-73926033D01*
X123777860Y-73780941D01*
X123834472Y-73644268D01*
X123916660Y-73521265D01*
X124021265Y-73416660D01*
X124144268Y-73334472D01*
X124280941Y-73277860D01*
X124426032Y-73249000D01*
X124573968Y-73249000D01*
X124719059Y-73277860D01*
X124719059Y-73277860D01*
G37*
G36*
X101317395Y-70585546D02*
G01*
X101490466Y-70657234D01*
X101490467Y-70657235D01*
X101646227Y-70761310D01*
X101778690Y-70893773D01*
X101778691Y-70893775D01*
X101882766Y-71049534D01*
X101954454Y-71222605D01*
X101991000Y-71406333D01*
X101991000Y-71593667D01*
X101954454Y-71777395D01*
X101882766Y-71950466D01*
X101882765Y-71950467D01*
X101778690Y-72106227D01*
X101646227Y-72238690D01*
X101567818Y-72291081D01*
X101490466Y-72342766D01*
X101317395Y-72414454D01*
X101133667Y-72451000D01*
X100946333Y-72451000D01*
X100762605Y-72414454D01*
X100589534Y-72342766D01*
X100512182Y-72291081D01*
X100433773Y-72238690D01*
X100301310Y-72106227D01*
X100197235Y-71950467D01*
X100197234Y-71950466D01*
X100125546Y-71777395D01*
X100089000Y-71593667D01*
X100089000Y-71406333D01*
X100125546Y-71222605D01*
X100197234Y-71049534D01*
X100301309Y-70893775D01*
X100301310Y-70893773D01*
X100433773Y-70761310D01*
X100589533Y-70657235D01*
X100589534Y-70657234D01*
X100762605Y-70585546D01*
X100946333Y-70549000D01*
X101133667Y-70549000D01*
X101317395Y-70585546D01*
X101317395Y-70585546D01*
G37*
G36*
X99451000Y-72451000D02*
G01*
X97549000Y-72451000D01*
X97549000Y-70549000D01*
X99451000Y-70549000D01*
X99451000Y-72451000D01*
X99451000Y-72451000D01*
G37*
G36*
X134110443Y-68145519D02*
G01*
X134176627Y-68152037D01*
X134346466Y-68203557D01*
X134502991Y-68287222D01*
X134538729Y-68316552D01*
X134640186Y-68399814D01*
X134723448Y-68501271D01*
X134752778Y-68537009D01*
X134836443Y-68693534D01*
X134887963Y-68863373D01*
X134905359Y-69040000D01*
X134887963Y-69216627D01*
X134836443Y-69386466D01*
X134752778Y-69542991D01*
X134723448Y-69578729D01*
X134640186Y-69680186D01*
X134538729Y-69763448D01*
X134502991Y-69792778D01*
X134346466Y-69876443D01*
X134176627Y-69927963D01*
X134110443Y-69934481D01*
X134044260Y-69941000D01*
X133955740Y-69941000D01*
X133889557Y-69934481D01*
X133823373Y-69927963D01*
X133653534Y-69876443D01*
X133497009Y-69792778D01*
X133461271Y-69763448D01*
X133359814Y-69680186D01*
X133276552Y-69578729D01*
X133247222Y-69542991D01*
X133163557Y-69386466D01*
X133112037Y-69216627D01*
X133094641Y-69040000D01*
X133112037Y-68863373D01*
X133163557Y-68693534D01*
X133247222Y-68537009D01*
X133276552Y-68501271D01*
X133359814Y-68399814D01*
X133461271Y-68316552D01*
X133497009Y-68287222D01*
X133653534Y-68203557D01*
X133823373Y-68152037D01*
X133889557Y-68145519D01*
X133955740Y-68139000D01*
X134044260Y-68139000D01*
X134110443Y-68145519D01*
X134110443Y-68145519D01*
G37*
G36*
X134901000Y-67401000D02*
G01*
X133099000Y-67401000D01*
X133099000Y-65599000D01*
X134901000Y-65599000D01*
X134901000Y-67401000D01*
X134901000Y-67401000D01*
G37*
G36*
X98599059Y-65777860D02*
G01*
X98735732Y-65834472D01*
X98858735Y-65916660D01*
X98963340Y-66021265D01*
X99045528Y-66144268D01*
X99102140Y-66280941D01*
X99131000Y-66426033D01*
X99131000Y-66573967D01*
X99102140Y-66719059D01*
X99045528Y-66855732D01*
X98963340Y-66978735D01*
X98858735Y-67083340D01*
X98735732Y-67165528D01*
X98735731Y-67165529D01*
X98735730Y-67165529D01*
X98599059Y-67222140D01*
X98453968Y-67251000D01*
X98306032Y-67251000D01*
X98160941Y-67222140D01*
X98024270Y-67165529D01*
X98024269Y-67165529D01*
X98024268Y-67165528D01*
X97901265Y-67083340D01*
X97796660Y-66978735D01*
X97714472Y-66855732D01*
X97657860Y-66719059D01*
X97629000Y-66573967D01*
X97629000Y-66426033D01*
X97657860Y-66280941D01*
X97714472Y-66144268D01*
X97796660Y-66021265D01*
X97901265Y-65916660D01*
X98024268Y-65834472D01*
X98160941Y-65777860D01*
X98306032Y-65749000D01*
X98453968Y-65749000D01*
X98599059Y-65777860D01*
X98599059Y-65777860D01*
G37*
G36*
X106219059Y-65777860D02*
G01*
X106355732Y-65834472D01*
X106478735Y-65916660D01*
X106583340Y-66021265D01*
X106665528Y-66144268D01*
X106722140Y-66280941D01*
X106751000Y-66426033D01*
X106751000Y-66573967D01*
X106722140Y-66719059D01*
X106665528Y-66855732D01*
X106583340Y-66978735D01*
X106478735Y-67083340D01*
X106355732Y-67165528D01*
X106355731Y-67165529D01*
X106355730Y-67165529D01*
X106219059Y-67222140D01*
X106073968Y-67251000D01*
X105926032Y-67251000D01*
X105780941Y-67222140D01*
X105644270Y-67165529D01*
X105644269Y-67165529D01*
X105644268Y-67165528D01*
X105521265Y-67083340D01*
X105416660Y-66978735D01*
X105334472Y-66855732D01*
X105277860Y-66719059D01*
X105249000Y-66573967D01*
X105249000Y-66426033D01*
X105277860Y-66280941D01*
X105334472Y-66144268D01*
X105416660Y-66021265D01*
X105521265Y-65916660D01*
X105644268Y-65834472D01*
X105780941Y-65777860D01*
X105926032Y-65749000D01*
X106073968Y-65749000D01*
X106219059Y-65777860D01*
X106219059Y-65777860D01*
G37*
G36*
X106219059Y-62277860D02*
G01*
X106355732Y-62334472D01*
X106478735Y-62416660D01*
X106583340Y-62521265D01*
X106665528Y-62644268D01*
X106722140Y-62780941D01*
X106751000Y-62926033D01*
X106751000Y-63073967D01*
X106722140Y-63219059D01*
X106665528Y-63355732D01*
X106583340Y-63478735D01*
X106478735Y-63583340D01*
X106355732Y-63665528D01*
X106355731Y-63665529D01*
X106355730Y-63665529D01*
X106219059Y-63722140D01*
X106073968Y-63751000D01*
X105926032Y-63751000D01*
X105780941Y-63722140D01*
X105644270Y-63665529D01*
X105644269Y-63665529D01*
X105644268Y-63665528D01*
X105521265Y-63583340D01*
X105416660Y-63478735D01*
X105334472Y-63355732D01*
X105277860Y-63219059D01*
X105249000Y-63073967D01*
X105249000Y-62926033D01*
X105277860Y-62780941D01*
X105334472Y-62644268D01*
X105416660Y-62521265D01*
X105521265Y-62416660D01*
X105644268Y-62334472D01*
X105780941Y-62277860D01*
X105926032Y-62249000D01*
X106073968Y-62249000D01*
X106219059Y-62277860D01*
X106219059Y-62277860D01*
G37*
G36*
X98599059Y-62277860D02*
G01*
X98735732Y-62334472D01*
X98858735Y-62416660D01*
X98963340Y-62521265D01*
X99045528Y-62644268D01*
X99102140Y-62780941D01*
X99131000Y-62926033D01*
X99131000Y-63073967D01*
X99102140Y-63219059D01*
X99045528Y-63355732D01*
X98963340Y-63478735D01*
X98858735Y-63583340D01*
X98735732Y-63665528D01*
X98735731Y-63665529D01*
X98735730Y-63665529D01*
X98599059Y-63722140D01*
X98453968Y-63751000D01*
X98306032Y-63751000D01*
X98160941Y-63722140D01*
X98024270Y-63665529D01*
X98024269Y-63665529D01*
X98024268Y-63665528D01*
X97901265Y-63583340D01*
X97796660Y-63478735D01*
X97714472Y-63355732D01*
X97657860Y-63219059D01*
X97629000Y-63073967D01*
X97629000Y-62926033D01*
X97657860Y-62780941D01*
X97714472Y-62644268D01*
X97796660Y-62521265D01*
X97901265Y-62416660D01*
X98024268Y-62334472D01*
X98160941Y-62277860D01*
X98306032Y-62249000D01*
X98453968Y-62249000D01*
X98599059Y-62277860D01*
X98599059Y-62277860D01*
G37*
G36*
X101817395Y-56585546D02*
G01*
X101990466Y-56657234D01*
X101990467Y-56657235D01*
X102146227Y-56761310D01*
X102278690Y-56893773D01*
X102278691Y-56893775D01*
X102382766Y-57049534D01*
X102454454Y-57222605D01*
X102491000Y-57406333D01*
X102491000Y-57593667D01*
X102454454Y-57777395D01*
X102382766Y-57950466D01*
X102382765Y-57950467D01*
X102278690Y-58106227D01*
X102146227Y-58238690D01*
X102067818Y-58291081D01*
X101990466Y-58342766D01*
X101817395Y-58414454D01*
X101633667Y-58451000D01*
X101446333Y-58451000D01*
X101262605Y-58414454D01*
X101089534Y-58342766D01*
X101012182Y-58291081D01*
X100933773Y-58238690D01*
X100801310Y-58106227D01*
X100697235Y-57950467D01*
X100697234Y-57950466D01*
X100625546Y-57777395D01*
X100589000Y-57593667D01*
X100589000Y-57406333D01*
X100625546Y-57222605D01*
X100697234Y-57049534D01*
X100801309Y-56893775D01*
X100801310Y-56893773D01*
X100933773Y-56761310D01*
X101089533Y-56657235D01*
X101089534Y-56657234D01*
X101262605Y-56585546D01*
X101446333Y-56549000D01*
X101633667Y-56549000D01*
X101817395Y-56585546D01*
X101817395Y-56585546D01*
G37*
G36*
X99951000Y-58451000D02*
G01*
X98049000Y-58451000D01*
X98049000Y-56549000D01*
X99951000Y-56549000D01*
X99951000Y-58451000D01*
X99951000Y-58451000D01*
G37*
M02*
