M48
; DRILL file {KiCad (5.1.0)-1} date 10/6/2019 10:44:52 PM
; FORMAT={-:-/ absolute / inch / decimal}
; #@! TF.CreationDate,2019-10-06T22:44:52-05:00
; #@! TF.GenerationSoftware,Kicad,Pcbnew,(5.1.0)-1
; #@! TF.FileFunction,Plated,1,2,PTH
FMAT,2
INCH
T1C0.0276
T2C0.0354
T3C0.0394
T4C0.0433
%
G90
G05
T1
X3.8732Y-2.4803
X4.1732Y-2.4803
X4.9016Y-3.2134
X5.0394Y-2.9134
X5.0394Y-3.2134
X5.1772Y-2.9134
X5.1772Y-3.2134
X3.8732Y-2.6181
X4.1732Y-2.6181
X4.9016Y-2.9134
T2
X3.8657Y-3.5236
X3.9157Y-3.5236
X3.9657Y-3.5236
X4.0157Y-3.5236
X3.8976Y-2.2638
X3.9976Y-2.2638
X3.878Y-2.815
X3.978Y-2.815
T3
X5.2756Y-2.6181
X5.2756Y-2.7181
T4
X5.0Y-3.4252
X5.0Y-3.6024
X5.2559Y-3.4252
X5.2559Y-3.6024
X4.1732Y-3.4252
X4.1732Y-3.6024
X4.4291Y-3.4252
X4.4291Y-3.6024
X4.5866Y-3.4252
X4.5866Y-3.6024
X4.8425Y-3.4252
X4.8425Y-3.6024
T0
M30
