G04 #@! TF.GenerationSoftware,KiCad,Pcbnew,(5.1.0)-1*
G04 #@! TF.CreationDate,2019-09-06T23:09:28-05:00*
G04 #@! TF.ProjectId,CH552G_dev,43483535-3247-45f6-9465-762e6b696361,rev?*
G04 #@! TF.SameCoordinates,Original*
G04 #@! TF.FileFunction,Soldermask,Bot*
G04 #@! TF.FilePolarity,Negative*
%FSLAX46Y46*%
G04 Gerber Fmt 4.6, Leading zero omitted, Abs format (unit mm)*
G04 Created by KiCad (PCBNEW (5.1.0)-1) date 2019-09-06 23:09:28*
%MOMM*%
%LPD*%
G04 APERTURE LIST*
%ADD10C,0.050000*%
%ADD11C,0.100000*%
G04 APERTURE END LIST*
D10*
X94500000Y-121500000D02*
X127500000Y-121500000D01*
X94500000Y-78000000D02*
X94500000Y-121500000D01*
X127500000Y-78000000D02*
X94500000Y-78000000D01*
X127500000Y-121500000D02*
X127500000Y-78000000D01*
D11*
G36*
X118901000Y-106041000D02*
G01*
X117099000Y-106041000D01*
X117099000Y-104239000D01*
X118901000Y-104239000D01*
X118901000Y-106041000D01*
X118901000Y-106041000D01*
G37*
G36*
X100330443Y-104245519D02*
G01*
X100396627Y-104252037D01*
X100566466Y-104303557D01*
X100722991Y-104387222D01*
X100758729Y-104416552D01*
X100860186Y-104499814D01*
X100943448Y-104601271D01*
X100972778Y-104637009D01*
X101056443Y-104793534D01*
X101107963Y-104963373D01*
X101125359Y-105140000D01*
X101107963Y-105316627D01*
X101056443Y-105486466D01*
X100972778Y-105642991D01*
X100943448Y-105678729D01*
X100860186Y-105780186D01*
X100758729Y-105863448D01*
X100722991Y-105892778D01*
X100566466Y-105976443D01*
X100396627Y-106027963D01*
X100330443Y-106034481D01*
X100264260Y-106041000D01*
X100175740Y-106041000D01*
X100109557Y-106034481D01*
X100043373Y-106027963D01*
X99873534Y-105976443D01*
X99717009Y-105892778D01*
X99681271Y-105863448D01*
X99579814Y-105780186D01*
X99496552Y-105678729D01*
X99467222Y-105642991D01*
X99383557Y-105486466D01*
X99332037Y-105316627D01*
X99314641Y-105140000D01*
X99332037Y-104963373D01*
X99383557Y-104793534D01*
X99467222Y-104637009D01*
X99496552Y-104601271D01*
X99579814Y-104499814D01*
X99681271Y-104416552D01*
X99717009Y-104387222D01*
X99873534Y-104303557D01*
X100043373Y-104252037D01*
X100109558Y-104245518D01*
X100175740Y-104239000D01*
X100264260Y-104239000D01*
X100330443Y-104245519D01*
X100330443Y-104245519D01*
G37*
G36*
X100330442Y-101705518D02*
G01*
X100396627Y-101712037D01*
X100566466Y-101763557D01*
X100722991Y-101847222D01*
X100758729Y-101876552D01*
X100860186Y-101959814D01*
X100943448Y-102061271D01*
X100972778Y-102097009D01*
X101056443Y-102253534D01*
X101107963Y-102423373D01*
X101125359Y-102600000D01*
X101107963Y-102776627D01*
X101056443Y-102946466D01*
X100972778Y-103102991D01*
X100943448Y-103138729D01*
X100860186Y-103240186D01*
X100758729Y-103323448D01*
X100722991Y-103352778D01*
X100566466Y-103436443D01*
X100396627Y-103487963D01*
X100330443Y-103494481D01*
X100264260Y-103501000D01*
X100175740Y-103501000D01*
X100109557Y-103494481D01*
X100043373Y-103487963D01*
X99873534Y-103436443D01*
X99717009Y-103352778D01*
X99681271Y-103323448D01*
X99579814Y-103240186D01*
X99496552Y-103138729D01*
X99467222Y-103102991D01*
X99383557Y-102946466D01*
X99332037Y-102776627D01*
X99314641Y-102600000D01*
X99332037Y-102423373D01*
X99383557Y-102253534D01*
X99467222Y-102097009D01*
X99496552Y-102061271D01*
X99579814Y-101959814D01*
X99681271Y-101876552D01*
X99717009Y-101847222D01*
X99873534Y-101763557D01*
X100043373Y-101712037D01*
X100109558Y-101705518D01*
X100175740Y-101699000D01*
X100264260Y-101699000D01*
X100330442Y-101705518D01*
X100330442Y-101705518D01*
G37*
G36*
X118110442Y-101705518D02*
G01*
X118176627Y-101712037D01*
X118346466Y-101763557D01*
X118502991Y-101847222D01*
X118538729Y-101876552D01*
X118640186Y-101959814D01*
X118723448Y-102061271D01*
X118752778Y-102097009D01*
X118836443Y-102253534D01*
X118887963Y-102423373D01*
X118905359Y-102600000D01*
X118887963Y-102776627D01*
X118836443Y-102946466D01*
X118752778Y-103102991D01*
X118723448Y-103138729D01*
X118640186Y-103240186D01*
X118538729Y-103323448D01*
X118502991Y-103352778D01*
X118346466Y-103436443D01*
X118176627Y-103487963D01*
X118110443Y-103494481D01*
X118044260Y-103501000D01*
X117955740Y-103501000D01*
X117889557Y-103494481D01*
X117823373Y-103487963D01*
X117653534Y-103436443D01*
X117497009Y-103352778D01*
X117461271Y-103323448D01*
X117359814Y-103240186D01*
X117276552Y-103138729D01*
X117247222Y-103102991D01*
X117163557Y-102946466D01*
X117112037Y-102776627D01*
X117094641Y-102600000D01*
X117112037Y-102423373D01*
X117163557Y-102253534D01*
X117247222Y-102097009D01*
X117276552Y-102061271D01*
X117359814Y-101959814D01*
X117461271Y-101876552D01*
X117497009Y-101847222D01*
X117653534Y-101763557D01*
X117823373Y-101712037D01*
X117889558Y-101705518D01*
X117955740Y-101699000D01*
X118044260Y-101699000D01*
X118110442Y-101705518D01*
X118110442Y-101705518D01*
G37*
G36*
X100330443Y-99165519D02*
G01*
X100396627Y-99172037D01*
X100566466Y-99223557D01*
X100722991Y-99307222D01*
X100758729Y-99336552D01*
X100860186Y-99419814D01*
X100943448Y-99521271D01*
X100972778Y-99557009D01*
X101056443Y-99713534D01*
X101107963Y-99883373D01*
X101125359Y-100060000D01*
X101107963Y-100236627D01*
X101056443Y-100406466D01*
X100972778Y-100562991D01*
X100943448Y-100598729D01*
X100860186Y-100700186D01*
X100758729Y-100783448D01*
X100722991Y-100812778D01*
X100566466Y-100896443D01*
X100396627Y-100947963D01*
X100330442Y-100954482D01*
X100264260Y-100961000D01*
X100175740Y-100961000D01*
X100109558Y-100954482D01*
X100043373Y-100947963D01*
X99873534Y-100896443D01*
X99717009Y-100812778D01*
X99681271Y-100783448D01*
X99579814Y-100700186D01*
X99496552Y-100598729D01*
X99467222Y-100562991D01*
X99383557Y-100406466D01*
X99332037Y-100236627D01*
X99314641Y-100060000D01*
X99332037Y-99883373D01*
X99383557Y-99713534D01*
X99467222Y-99557009D01*
X99496552Y-99521271D01*
X99579814Y-99419814D01*
X99681271Y-99336552D01*
X99717009Y-99307222D01*
X99873534Y-99223557D01*
X100043373Y-99172037D01*
X100109557Y-99165519D01*
X100175740Y-99159000D01*
X100264260Y-99159000D01*
X100330443Y-99165519D01*
X100330443Y-99165519D01*
G37*
G36*
X118110443Y-99165519D02*
G01*
X118176627Y-99172037D01*
X118346466Y-99223557D01*
X118502991Y-99307222D01*
X118538729Y-99336552D01*
X118640186Y-99419814D01*
X118723448Y-99521271D01*
X118752778Y-99557009D01*
X118836443Y-99713534D01*
X118887963Y-99883373D01*
X118905359Y-100060000D01*
X118887963Y-100236627D01*
X118836443Y-100406466D01*
X118752778Y-100562991D01*
X118723448Y-100598729D01*
X118640186Y-100700186D01*
X118538729Y-100783448D01*
X118502991Y-100812778D01*
X118346466Y-100896443D01*
X118176627Y-100947963D01*
X118110442Y-100954482D01*
X118044260Y-100961000D01*
X117955740Y-100961000D01*
X117889558Y-100954482D01*
X117823373Y-100947963D01*
X117653534Y-100896443D01*
X117497009Y-100812778D01*
X117461271Y-100783448D01*
X117359814Y-100700186D01*
X117276552Y-100598729D01*
X117247222Y-100562991D01*
X117163557Y-100406466D01*
X117112037Y-100236627D01*
X117094641Y-100060000D01*
X117112037Y-99883373D01*
X117163557Y-99713534D01*
X117247222Y-99557009D01*
X117276552Y-99521271D01*
X117359814Y-99419814D01*
X117461271Y-99336552D01*
X117497009Y-99307222D01*
X117653534Y-99223557D01*
X117823373Y-99172037D01*
X117889557Y-99165519D01*
X117955740Y-99159000D01*
X118044260Y-99159000D01*
X118110443Y-99165519D01*
X118110443Y-99165519D01*
G37*
G36*
X118110442Y-96625518D02*
G01*
X118176627Y-96632037D01*
X118346466Y-96683557D01*
X118502991Y-96767222D01*
X118538729Y-96796552D01*
X118640186Y-96879814D01*
X118723448Y-96981271D01*
X118752778Y-97017009D01*
X118836443Y-97173534D01*
X118887963Y-97343373D01*
X118905359Y-97520000D01*
X118887963Y-97696627D01*
X118836443Y-97866466D01*
X118752778Y-98022991D01*
X118723448Y-98058729D01*
X118640186Y-98160186D01*
X118538729Y-98243448D01*
X118502991Y-98272778D01*
X118346466Y-98356443D01*
X118176627Y-98407963D01*
X118110442Y-98414482D01*
X118044260Y-98421000D01*
X117955740Y-98421000D01*
X117889558Y-98414482D01*
X117823373Y-98407963D01*
X117653534Y-98356443D01*
X117497009Y-98272778D01*
X117461271Y-98243448D01*
X117359814Y-98160186D01*
X117276552Y-98058729D01*
X117247222Y-98022991D01*
X117163557Y-97866466D01*
X117112037Y-97696627D01*
X117094641Y-97520000D01*
X117112037Y-97343373D01*
X117163557Y-97173534D01*
X117247222Y-97017009D01*
X117276552Y-96981271D01*
X117359814Y-96879814D01*
X117461271Y-96796552D01*
X117497009Y-96767222D01*
X117653534Y-96683557D01*
X117823373Y-96632037D01*
X117889557Y-96625519D01*
X117955740Y-96619000D01*
X118044260Y-96619000D01*
X118110442Y-96625518D01*
X118110442Y-96625518D01*
G37*
G36*
X100330442Y-96625518D02*
G01*
X100396627Y-96632037D01*
X100566466Y-96683557D01*
X100722991Y-96767222D01*
X100758729Y-96796552D01*
X100860186Y-96879814D01*
X100943448Y-96981271D01*
X100972778Y-97017009D01*
X101056443Y-97173534D01*
X101107963Y-97343373D01*
X101125359Y-97520000D01*
X101107963Y-97696627D01*
X101056443Y-97866466D01*
X100972778Y-98022991D01*
X100943448Y-98058729D01*
X100860186Y-98160186D01*
X100758729Y-98243448D01*
X100722991Y-98272778D01*
X100566466Y-98356443D01*
X100396627Y-98407963D01*
X100330442Y-98414482D01*
X100264260Y-98421000D01*
X100175740Y-98421000D01*
X100109558Y-98414482D01*
X100043373Y-98407963D01*
X99873534Y-98356443D01*
X99717009Y-98272778D01*
X99681271Y-98243448D01*
X99579814Y-98160186D01*
X99496552Y-98058729D01*
X99467222Y-98022991D01*
X99383557Y-97866466D01*
X99332037Y-97696627D01*
X99314641Y-97520000D01*
X99332037Y-97343373D01*
X99383557Y-97173534D01*
X99467222Y-97017009D01*
X99496552Y-96981271D01*
X99579814Y-96879814D01*
X99681271Y-96796552D01*
X99717009Y-96767222D01*
X99873534Y-96683557D01*
X100043373Y-96632037D01*
X100109557Y-96625519D01*
X100175740Y-96619000D01*
X100264260Y-96619000D01*
X100330442Y-96625518D01*
X100330442Y-96625518D01*
G37*
G36*
X118110442Y-94085518D02*
G01*
X118176627Y-94092037D01*
X118346466Y-94143557D01*
X118502991Y-94227222D01*
X118538729Y-94256552D01*
X118640186Y-94339814D01*
X118723448Y-94441271D01*
X118752778Y-94477009D01*
X118836443Y-94633534D01*
X118887963Y-94803373D01*
X118905359Y-94980000D01*
X118887963Y-95156627D01*
X118836443Y-95326466D01*
X118752778Y-95482991D01*
X118723448Y-95518729D01*
X118640186Y-95620186D01*
X118538729Y-95703448D01*
X118502991Y-95732778D01*
X118346466Y-95816443D01*
X118176627Y-95867963D01*
X118110442Y-95874482D01*
X118044260Y-95881000D01*
X117955740Y-95881000D01*
X117889557Y-95874481D01*
X117823373Y-95867963D01*
X117653534Y-95816443D01*
X117497009Y-95732778D01*
X117461271Y-95703448D01*
X117359814Y-95620186D01*
X117276552Y-95518729D01*
X117247222Y-95482991D01*
X117163557Y-95326466D01*
X117112037Y-95156627D01*
X117094641Y-94980000D01*
X117112037Y-94803373D01*
X117163557Y-94633534D01*
X117247222Y-94477009D01*
X117276552Y-94441271D01*
X117359814Y-94339814D01*
X117461271Y-94256552D01*
X117497009Y-94227222D01*
X117653534Y-94143557D01*
X117823373Y-94092037D01*
X117889558Y-94085518D01*
X117955740Y-94079000D01*
X118044260Y-94079000D01*
X118110442Y-94085518D01*
X118110442Y-94085518D01*
G37*
G36*
X100330442Y-94085518D02*
G01*
X100396627Y-94092037D01*
X100566466Y-94143557D01*
X100722991Y-94227222D01*
X100758729Y-94256552D01*
X100860186Y-94339814D01*
X100943448Y-94441271D01*
X100972778Y-94477009D01*
X101056443Y-94633534D01*
X101107963Y-94803373D01*
X101125359Y-94980000D01*
X101107963Y-95156627D01*
X101056443Y-95326466D01*
X100972778Y-95482991D01*
X100943448Y-95518729D01*
X100860186Y-95620186D01*
X100758729Y-95703448D01*
X100722991Y-95732778D01*
X100566466Y-95816443D01*
X100396627Y-95867963D01*
X100330442Y-95874482D01*
X100264260Y-95881000D01*
X100175740Y-95881000D01*
X100109557Y-95874481D01*
X100043373Y-95867963D01*
X99873534Y-95816443D01*
X99717009Y-95732778D01*
X99681271Y-95703448D01*
X99579814Y-95620186D01*
X99496552Y-95518729D01*
X99467222Y-95482991D01*
X99383557Y-95326466D01*
X99332037Y-95156627D01*
X99314641Y-94980000D01*
X99332037Y-94803373D01*
X99383557Y-94633534D01*
X99467222Y-94477009D01*
X99496552Y-94441271D01*
X99579814Y-94339814D01*
X99681271Y-94256552D01*
X99717009Y-94227222D01*
X99873534Y-94143557D01*
X100043373Y-94092037D01*
X100109558Y-94085518D01*
X100175740Y-94079000D01*
X100264260Y-94079000D01*
X100330442Y-94085518D01*
X100330442Y-94085518D01*
G37*
G36*
X100330443Y-91545519D02*
G01*
X100396627Y-91552037D01*
X100566466Y-91603557D01*
X100722991Y-91687222D01*
X100758729Y-91716552D01*
X100860186Y-91799814D01*
X100943448Y-91901271D01*
X100972778Y-91937009D01*
X101056443Y-92093534D01*
X101107963Y-92263373D01*
X101125359Y-92440000D01*
X101107963Y-92616627D01*
X101056443Y-92786466D01*
X100972778Y-92942991D01*
X100943448Y-92978729D01*
X100860186Y-93080186D01*
X100758729Y-93163448D01*
X100722991Y-93192778D01*
X100566466Y-93276443D01*
X100396627Y-93327963D01*
X100330443Y-93334481D01*
X100264260Y-93341000D01*
X100175740Y-93341000D01*
X100109557Y-93334481D01*
X100043373Y-93327963D01*
X99873534Y-93276443D01*
X99717009Y-93192778D01*
X99681271Y-93163448D01*
X99579814Y-93080186D01*
X99496552Y-92978729D01*
X99467222Y-92942991D01*
X99383557Y-92786466D01*
X99332037Y-92616627D01*
X99314641Y-92440000D01*
X99332037Y-92263373D01*
X99383557Y-92093534D01*
X99467222Y-91937009D01*
X99496552Y-91901271D01*
X99579814Y-91799814D01*
X99681271Y-91716552D01*
X99717009Y-91687222D01*
X99873534Y-91603557D01*
X100043373Y-91552037D01*
X100109557Y-91545519D01*
X100175740Y-91539000D01*
X100264260Y-91539000D01*
X100330443Y-91545519D01*
X100330443Y-91545519D01*
G37*
G36*
X118110443Y-91545519D02*
G01*
X118176627Y-91552037D01*
X118346466Y-91603557D01*
X118502991Y-91687222D01*
X118538729Y-91716552D01*
X118640186Y-91799814D01*
X118723448Y-91901271D01*
X118752778Y-91937009D01*
X118836443Y-92093534D01*
X118887963Y-92263373D01*
X118905359Y-92440000D01*
X118887963Y-92616627D01*
X118836443Y-92786466D01*
X118752778Y-92942991D01*
X118723448Y-92978729D01*
X118640186Y-93080186D01*
X118538729Y-93163448D01*
X118502991Y-93192778D01*
X118346466Y-93276443D01*
X118176627Y-93327963D01*
X118110443Y-93334481D01*
X118044260Y-93341000D01*
X117955740Y-93341000D01*
X117889557Y-93334481D01*
X117823373Y-93327963D01*
X117653534Y-93276443D01*
X117497009Y-93192778D01*
X117461271Y-93163448D01*
X117359814Y-93080186D01*
X117276552Y-92978729D01*
X117247222Y-92942991D01*
X117163557Y-92786466D01*
X117112037Y-92616627D01*
X117094641Y-92440000D01*
X117112037Y-92263373D01*
X117163557Y-92093534D01*
X117247222Y-91937009D01*
X117276552Y-91901271D01*
X117359814Y-91799814D01*
X117461271Y-91716552D01*
X117497009Y-91687222D01*
X117653534Y-91603557D01*
X117823373Y-91552037D01*
X117889557Y-91545519D01*
X117955740Y-91539000D01*
X118044260Y-91539000D01*
X118110443Y-91545519D01*
X118110443Y-91545519D01*
G37*
G36*
X122501000Y-93301000D02*
G01*
X120699000Y-93301000D01*
X120699000Y-91499000D01*
X122501000Y-91499000D01*
X122501000Y-93301000D01*
X122501000Y-93301000D01*
G37*
G36*
X100330443Y-89005519D02*
G01*
X100396627Y-89012037D01*
X100566466Y-89063557D01*
X100722991Y-89147222D01*
X100758729Y-89176552D01*
X100860186Y-89259814D01*
X100939951Y-89357009D01*
X100972778Y-89397009D01*
X101056443Y-89553534D01*
X101107963Y-89723373D01*
X101125359Y-89900000D01*
X101107963Y-90076627D01*
X101056443Y-90246466D01*
X100972778Y-90402991D01*
X100943448Y-90438729D01*
X100860186Y-90540186D01*
X100771731Y-90612778D01*
X100722991Y-90652778D01*
X100566466Y-90736443D01*
X100396627Y-90787963D01*
X100330442Y-90794482D01*
X100264260Y-90801000D01*
X100175740Y-90801000D01*
X100109558Y-90794482D01*
X100043373Y-90787963D01*
X99873534Y-90736443D01*
X99717009Y-90652778D01*
X99668269Y-90612778D01*
X99579814Y-90540186D01*
X99496552Y-90438729D01*
X99467222Y-90402991D01*
X99383557Y-90246466D01*
X99332037Y-90076627D01*
X99314641Y-89900000D01*
X99332037Y-89723373D01*
X99383557Y-89553534D01*
X99467222Y-89397009D01*
X99500049Y-89357009D01*
X99579814Y-89259814D01*
X99681271Y-89176552D01*
X99717009Y-89147222D01*
X99873534Y-89063557D01*
X100043373Y-89012037D01*
X100109557Y-89005519D01*
X100175740Y-88999000D01*
X100264260Y-88999000D01*
X100330443Y-89005519D01*
X100330443Y-89005519D01*
G37*
G36*
X118110443Y-89005519D02*
G01*
X118176627Y-89012037D01*
X118346466Y-89063557D01*
X118502991Y-89147222D01*
X118538729Y-89176552D01*
X118640186Y-89259814D01*
X118719951Y-89357009D01*
X118752778Y-89397009D01*
X118836443Y-89553534D01*
X118887963Y-89723373D01*
X118905359Y-89900000D01*
X118887963Y-90076627D01*
X118836443Y-90246466D01*
X118752778Y-90402991D01*
X118723448Y-90438729D01*
X118640186Y-90540186D01*
X118551731Y-90612778D01*
X118502991Y-90652778D01*
X118346466Y-90736443D01*
X118176627Y-90787963D01*
X118110442Y-90794482D01*
X118044260Y-90801000D01*
X117955740Y-90801000D01*
X117889558Y-90794482D01*
X117823373Y-90787963D01*
X117653534Y-90736443D01*
X117497009Y-90652778D01*
X117448269Y-90612778D01*
X117359814Y-90540186D01*
X117276552Y-90438729D01*
X117247222Y-90402991D01*
X117163557Y-90246466D01*
X117112037Y-90076627D01*
X117094641Y-89900000D01*
X117112037Y-89723373D01*
X117163557Y-89553534D01*
X117247222Y-89397009D01*
X117280049Y-89357009D01*
X117359814Y-89259814D01*
X117461271Y-89176552D01*
X117497009Y-89147222D01*
X117653534Y-89063557D01*
X117823373Y-89012037D01*
X117889557Y-89005519D01*
X117955740Y-88999000D01*
X118044260Y-88999000D01*
X118110443Y-89005519D01*
X118110443Y-89005519D01*
G37*
G36*
X121710442Y-88965518D02*
G01*
X121776627Y-88972037D01*
X121946466Y-89023557D01*
X122102991Y-89107222D01*
X122138729Y-89136552D01*
X122240186Y-89219814D01*
X122323448Y-89321271D01*
X122352778Y-89357009D01*
X122436443Y-89513534D01*
X122487963Y-89683373D01*
X122505359Y-89860000D01*
X122487963Y-90036627D01*
X122436443Y-90206466D01*
X122352778Y-90362991D01*
X122323448Y-90398729D01*
X122240186Y-90500186D01*
X122138729Y-90583448D01*
X122102991Y-90612778D01*
X121946466Y-90696443D01*
X121776627Y-90747963D01*
X121710443Y-90754481D01*
X121644260Y-90761000D01*
X121555740Y-90761000D01*
X121489557Y-90754481D01*
X121423373Y-90747963D01*
X121253534Y-90696443D01*
X121097009Y-90612778D01*
X121061271Y-90583448D01*
X120959814Y-90500186D01*
X120876552Y-90398729D01*
X120847222Y-90362991D01*
X120763557Y-90206466D01*
X120712037Y-90036627D01*
X120694641Y-89860000D01*
X120712037Y-89683373D01*
X120763557Y-89513534D01*
X120847222Y-89357009D01*
X120876552Y-89321271D01*
X120959814Y-89219814D01*
X121061271Y-89136552D01*
X121097009Y-89107222D01*
X121253534Y-89023557D01*
X121423373Y-88972037D01*
X121489558Y-88965518D01*
X121555740Y-88959000D01*
X121644260Y-88959000D01*
X121710442Y-88965518D01*
X121710442Y-88965518D01*
G37*
G36*
X101121000Y-88261000D02*
G01*
X99319000Y-88261000D01*
X99319000Y-86459000D01*
X101121000Y-86459000D01*
X101121000Y-88261000D01*
X101121000Y-88261000D01*
G37*
G36*
X118110443Y-86465519D02*
G01*
X118176627Y-86472037D01*
X118346466Y-86523557D01*
X118502991Y-86607222D01*
X118538729Y-86636552D01*
X118640186Y-86719814D01*
X118723448Y-86821271D01*
X118752778Y-86857009D01*
X118836443Y-87013534D01*
X118887963Y-87183373D01*
X118905359Y-87360000D01*
X118887963Y-87536627D01*
X118836443Y-87706466D01*
X118752778Y-87862991D01*
X118723448Y-87898729D01*
X118640186Y-88000186D01*
X118538729Y-88083448D01*
X118502991Y-88112778D01*
X118346466Y-88196443D01*
X118176627Y-88247963D01*
X118110443Y-88254481D01*
X118044260Y-88261000D01*
X117955740Y-88261000D01*
X117889557Y-88254481D01*
X117823373Y-88247963D01*
X117653534Y-88196443D01*
X117497009Y-88112778D01*
X117461271Y-88083448D01*
X117359814Y-88000186D01*
X117276552Y-87898729D01*
X117247222Y-87862991D01*
X117163557Y-87706466D01*
X117112037Y-87536627D01*
X117094641Y-87360000D01*
X117112037Y-87183373D01*
X117163557Y-87013534D01*
X117247222Y-86857009D01*
X117276552Y-86821271D01*
X117359814Y-86719814D01*
X117461271Y-86636552D01*
X117497009Y-86607222D01*
X117653534Y-86523557D01*
X117823373Y-86472037D01*
X117889557Y-86465519D01*
X117955740Y-86459000D01*
X118044260Y-86459000D01*
X118110443Y-86465519D01*
X118110443Y-86465519D01*
G37*
G36*
X110737797Y-82860567D02*
G01*
X110792575Y-82883257D01*
X110792577Y-82883258D01*
X110841876Y-82916198D01*
X110883802Y-82958124D01*
X110916742Y-83007423D01*
X110916743Y-83007425D01*
X110939433Y-83062203D01*
X110951000Y-83120353D01*
X110951000Y-83179647D01*
X110939433Y-83237797D01*
X110916743Y-83292575D01*
X110916742Y-83292577D01*
X110883802Y-83341876D01*
X110841876Y-83383802D01*
X110792577Y-83416742D01*
X110792576Y-83416743D01*
X110792575Y-83416743D01*
X110737797Y-83439433D01*
X110679647Y-83451000D01*
X110620353Y-83451000D01*
X110562203Y-83439433D01*
X110507425Y-83416743D01*
X110507424Y-83416743D01*
X110507423Y-83416742D01*
X110458124Y-83383802D01*
X110416198Y-83341876D01*
X110383258Y-83292577D01*
X110383257Y-83292575D01*
X110360567Y-83237797D01*
X110349000Y-83179647D01*
X110349000Y-83120353D01*
X110360567Y-83062203D01*
X110383257Y-83007425D01*
X110383258Y-83007423D01*
X110416198Y-82958124D01*
X110458124Y-82916198D01*
X110507423Y-82883258D01*
X110507425Y-82883257D01*
X110562203Y-82860567D01*
X110620353Y-82849000D01*
X110679647Y-82849000D01*
X110737797Y-82860567D01*
X110737797Y-82860567D01*
G37*
G36*
X106737797Y-82860567D02*
G01*
X106792575Y-82883257D01*
X106792577Y-82883258D01*
X106841876Y-82916198D01*
X106883802Y-82958124D01*
X106916742Y-83007423D01*
X106916743Y-83007425D01*
X106939433Y-83062203D01*
X106951000Y-83120353D01*
X106951000Y-83179647D01*
X106939433Y-83237797D01*
X106916743Y-83292575D01*
X106916742Y-83292577D01*
X106883802Y-83341876D01*
X106841876Y-83383802D01*
X106792577Y-83416742D01*
X106792576Y-83416743D01*
X106792575Y-83416743D01*
X106737797Y-83439433D01*
X106679647Y-83451000D01*
X106620353Y-83451000D01*
X106562203Y-83439433D01*
X106507425Y-83416743D01*
X106507424Y-83416743D01*
X106507423Y-83416742D01*
X106458124Y-83383802D01*
X106416198Y-83341876D01*
X106383258Y-83292577D01*
X106383257Y-83292575D01*
X106360567Y-83237797D01*
X106349000Y-83179647D01*
X106349000Y-83120353D01*
X106360567Y-83062203D01*
X106383257Y-83007425D01*
X106383258Y-83007423D01*
X106416198Y-82958124D01*
X106458124Y-82916198D01*
X106507423Y-82883258D01*
X106507425Y-82883257D01*
X106562203Y-82860567D01*
X106620353Y-82849000D01*
X106679647Y-82849000D01*
X106737797Y-82860567D01*
X106737797Y-82860567D01*
G37*
M02*
